%TF.GenerationSoftware,KiCad,Pcbnew,7.0.5-4d25ed1034~172~ubuntu22.04.1*%
%TF.CreationDate,2023-06-04T17:51:53+03:00*%
%TF.ProjectId,STM32L475daughter,53544d33-324c-4343-9735-646175676874,rev?*%
%TF.SameCoordinates,Original*%
%TF.FileFunction,Drillmap*%
%TF.FilePolarity,Positive*%
%FSLAX45Y45*%
G04 Gerber Fmt 4.5, Leading zero omitted, Abs format (unit mm)*
G04 Created by KiCad (PCBNEW 7.0.5-4d25ed1034~172~ubuntu22.04.1) date 2023-06-04 17:51:53*
%MOMM*%
%LPD*%
G01*
G04 APERTURE LIST*
%ADD10C,0.200000*%
%ADD11C,0.040000*%
%ADD12C,0.076200*%
%ADD13C,0.100000*%
%ADD14C,0.320000*%
G04 APERTURE END LIST*
D10*
X11616281Y-10473450D02*
X11614051Y-9472371D01*
X7084202Y-4926610D02*
X13615197Y-4926993D01*
X14046094Y-5336196D02*
G75*
G03*
X13615197Y-4926993I-405005J4996D01*
G01*
X7084202Y-4926613D02*
G75*
G03*
X6675000Y-5357500I-5003J-404997D01*
G01*
X11755000Y-10612500D02*
X13636304Y-10613586D01*
X8774007Y-9323129D02*
X11474204Y-9319530D01*
X11616284Y-10473450D02*
G75*
G03*
X11755000Y-10612500I128796J-10230D01*
G01*
X8656115Y-10463040D02*
X8653885Y-9461960D01*
X6678905Y-10193804D02*
G75*
G03*
X7109803Y-10603007I405005J-4996D01*
G01*
X14045507Y-10182697D02*
X14046086Y-5336196D01*
X8774006Y-9323127D02*
G75*
G03*
X8653885Y-9461960I8704J-128913D01*
G01*
X11614051Y-9472371D02*
G75*
G03*
X11474204Y-9319530I-159051J-5129D01*
G01*
X7109803Y-10603007D02*
X8535994Y-10601871D01*
X6678914Y-10193804D02*
X6675000Y-5357500D01*
X13636304Y-10613595D02*
G75*
G03*
X14045507Y-10182697I4996J405005D01*
G01*
X8535994Y-10601873D02*
G75*
G03*
X8656115Y-10463040I-8704J128913D01*
G01*
D11*
X6770000Y-9762500D02*
X6810000Y-9802500D01*
X6810000Y-9762500D02*
X6770000Y-9802500D01*
X6777000Y-5883500D02*
X6817000Y-5923500D01*
X6817000Y-5883500D02*
X6777000Y-5923500D01*
X6777000Y-6391500D02*
X6817000Y-6431500D01*
X6817000Y-6391500D02*
X6777000Y-6431500D01*
X6777000Y-6899500D02*
X6817000Y-6939500D01*
X6817000Y-6899500D02*
X6777000Y-6939500D01*
X6777000Y-7407500D02*
X6817000Y-7447500D01*
X6817000Y-7407500D02*
X6777000Y-7447500D01*
X6777000Y-7915500D02*
X6817000Y-7955500D01*
X6817000Y-7915500D02*
X6777000Y-7955500D01*
X6777000Y-8423500D02*
X6817000Y-8463500D01*
X6817000Y-8423500D02*
X6777000Y-8463500D01*
X6777000Y-8931500D02*
X6817000Y-8971500D01*
X6817000Y-8931500D02*
X6777000Y-8971500D01*
X6777000Y-9312500D02*
X6817000Y-9352500D01*
X6817000Y-9312500D02*
X6777000Y-9352500D01*
X6890000Y-7562500D02*
X6930000Y-7602500D01*
X6930000Y-7562500D02*
X6890000Y-7602500D01*
X7075000Y-7762500D02*
X7115000Y-7802500D01*
X7115000Y-7762500D02*
X7075000Y-7802500D01*
X7400000Y-5052500D02*
X7440000Y-5092500D01*
X7440000Y-5052500D02*
X7400000Y-5092500D01*
X7539000Y-10455500D02*
X7579000Y-10495500D01*
X7579000Y-10455500D02*
X7539000Y-10495500D01*
X7545000Y-8192500D02*
X7585000Y-8232500D01*
X7585000Y-8192500D02*
X7545000Y-8232500D01*
X7740000Y-5007500D02*
X7780000Y-5047500D01*
X7780000Y-5007500D02*
X7740000Y-5047500D01*
X7785000Y-5377500D02*
X7825000Y-5417500D01*
X7825000Y-5377500D02*
X7785000Y-5417500D01*
X7840000Y-9035500D02*
X7880000Y-9075500D01*
X7880000Y-9035500D02*
X7840000Y-9075500D01*
X7965000Y-7497500D02*
X8005000Y-7537500D01*
X8005000Y-7497500D02*
X7965000Y-7537500D01*
X8005000Y-6162500D02*
X8045000Y-6202500D01*
X8045000Y-6162500D02*
X8005000Y-6202500D01*
X8005000Y-6417500D02*
X8045000Y-6457500D01*
X8045000Y-6417500D02*
X8005000Y-6457500D01*
X8005000Y-6672500D02*
X8045000Y-6712500D01*
X8045000Y-6672500D02*
X8005000Y-6712500D01*
X8005000Y-6932500D02*
X8045000Y-6972500D01*
X8045000Y-6932500D02*
X8005000Y-6972500D01*
X8005000Y-7177500D02*
X8045000Y-7217500D01*
X8045000Y-7177500D02*
X8005000Y-7217500D01*
X8047000Y-10455500D02*
X8087000Y-10495500D01*
X8087000Y-10455500D02*
X8047000Y-10495500D01*
X8095000Y-4972500D02*
X8135000Y-5012500D01*
X8135000Y-4972500D02*
X8095000Y-5012500D01*
X8095000Y-9045500D02*
X8135000Y-9085500D01*
X8135000Y-9045500D02*
X8095000Y-9085500D01*
X8340000Y-5592500D02*
X8380000Y-5632500D01*
X8380000Y-5592500D02*
X8340000Y-5632500D01*
X8350000Y-4972500D02*
X8390000Y-5012500D01*
X8390000Y-4972500D02*
X8350000Y-5012500D01*
X8350000Y-9022500D02*
X8390000Y-9062500D01*
X8390000Y-9022500D02*
X8350000Y-9062500D01*
X8450000Y-8357500D02*
X8490000Y-8397500D01*
X8490000Y-8357500D02*
X8450000Y-8397500D01*
X8505000Y-8157500D02*
X8545000Y-8197500D01*
X8545000Y-8157500D02*
X8505000Y-8197500D01*
X8510000Y-6597500D02*
X8550000Y-6637500D01*
X8550000Y-6597500D02*
X8510000Y-6637500D01*
X8525000Y-5907500D02*
X8565000Y-5947500D01*
X8565000Y-5907500D02*
X8525000Y-5947500D01*
X8525000Y-6427500D02*
X8565000Y-6467500D01*
X8565000Y-6427500D02*
X8525000Y-6467500D01*
X8525000Y-9622500D02*
X8565000Y-9662500D01*
X8565000Y-9622500D02*
X8525000Y-9662500D01*
X8525000Y-10062500D02*
X8565000Y-10102500D01*
X8565000Y-10062500D02*
X8525000Y-10102500D01*
X8525000Y-10452500D02*
X8565000Y-10492500D01*
X8565000Y-10452500D02*
X8525000Y-10492500D01*
X8600000Y-4972500D02*
X8640000Y-5012500D01*
X8640000Y-4972500D02*
X8600000Y-5012500D01*
X8600000Y-9033500D02*
X8640000Y-9073500D01*
X8640000Y-9033500D02*
X8600000Y-9073500D01*
X8840000Y-8357500D02*
X8880000Y-8397500D01*
X8880000Y-8357500D02*
X8840000Y-8397500D01*
X8850000Y-9027500D02*
X8890000Y-9067500D01*
X8890000Y-9027500D02*
X8850000Y-9067500D01*
X8855000Y-4972500D02*
X8895000Y-5012500D01*
X8895000Y-4972500D02*
X8855000Y-5012500D01*
X8860000Y-9207500D02*
X8900000Y-9247500D01*
X8900000Y-9207500D02*
X8860000Y-9247500D01*
X9105000Y-9027500D02*
X9145000Y-9067500D01*
X9145000Y-9027500D02*
X9105000Y-9067500D01*
X9115000Y-4972500D02*
X9155000Y-5012500D01*
X9155000Y-4972500D02*
X9115000Y-5012500D01*
X9120000Y-5862500D02*
X9160000Y-5902500D01*
X9160000Y-5862500D02*
X9120000Y-5902500D01*
X9360000Y-9022500D02*
X9400000Y-9062500D01*
X9400000Y-9022500D02*
X9360000Y-9062500D01*
X9365000Y-4972500D02*
X9405000Y-5012500D01*
X9405000Y-4972500D02*
X9365000Y-5012500D01*
X9485000Y-5517500D02*
X9525000Y-5557500D01*
X9525000Y-5517500D02*
X9485000Y-5557500D01*
X9610000Y-9027500D02*
X9650000Y-9067500D01*
X9650000Y-9027500D02*
X9610000Y-9067500D01*
X9620000Y-4972500D02*
X9660000Y-5012500D01*
X9660000Y-4972500D02*
X9620000Y-5012500D01*
X9760000Y-5517500D02*
X9800000Y-5557500D01*
X9800000Y-5517500D02*
X9760000Y-5557500D01*
X9875000Y-4972500D02*
X9915000Y-5012500D01*
X9915000Y-4972500D02*
X9875000Y-5012500D01*
X9875000Y-9027500D02*
X9915000Y-9067500D01*
X9915000Y-9027500D02*
X9875000Y-9067500D01*
X10000000Y-5512500D02*
X10040000Y-5552500D01*
X10040000Y-5512500D02*
X10000000Y-5552500D01*
X10130000Y-4972500D02*
X10170000Y-5012500D01*
X10170000Y-4972500D02*
X10130000Y-5012500D01*
X10130000Y-9027500D02*
X10170000Y-9067500D01*
X10170000Y-9027500D02*
X10130000Y-9067500D01*
X10260000Y-5512500D02*
X10300000Y-5552500D01*
X10300000Y-5512500D02*
X10260000Y-5552500D01*
X10380000Y-4972500D02*
X10420000Y-5012500D01*
X10420000Y-4972500D02*
X10380000Y-5012500D01*
X10385000Y-9022500D02*
X10425000Y-9062500D01*
X10425000Y-9022500D02*
X10385000Y-9062500D01*
X10510000Y-5517500D02*
X10550000Y-5557500D01*
X10550000Y-5517500D02*
X10510000Y-5557500D01*
X10635000Y-4972500D02*
X10675000Y-5012500D01*
X10675000Y-4972500D02*
X10635000Y-5012500D01*
X10635000Y-9027500D02*
X10675000Y-9067500D01*
X10675000Y-9027500D02*
X10635000Y-9067500D01*
X10765000Y-5512500D02*
X10805000Y-5552500D01*
X10805000Y-5512500D02*
X10765000Y-5552500D01*
X10890000Y-4972500D02*
X10930000Y-5012500D01*
X10930000Y-4972500D02*
X10890000Y-5012500D01*
X10890000Y-9022500D02*
X10930000Y-9062500D01*
X10930000Y-9022500D02*
X10890000Y-9062500D01*
X11020000Y-5512500D02*
X11060000Y-5552500D01*
X11060000Y-5512500D02*
X11020000Y-5552500D01*
X11140000Y-9022500D02*
X11180000Y-9062500D01*
X11180000Y-9022500D02*
X11140000Y-9062500D01*
X11145000Y-4972500D02*
X11185000Y-5012500D01*
X11185000Y-4972500D02*
X11145000Y-5012500D01*
X11260000Y-9185500D02*
X11300000Y-9225500D01*
X11300000Y-9185500D02*
X11260000Y-9225500D01*
X11275000Y-5512500D02*
X11315000Y-5552500D01*
X11315000Y-5512500D02*
X11275000Y-5552500D01*
X11395000Y-4972500D02*
X11435000Y-5012500D01*
X11435000Y-4972500D02*
X11395000Y-5012500D01*
X11395000Y-9027500D02*
X11435000Y-9067500D01*
X11435000Y-9027500D02*
X11395000Y-9067500D01*
X11525000Y-5512500D02*
X11565000Y-5552500D01*
X11565000Y-5512500D02*
X11525000Y-5552500D01*
X11603000Y-9185500D02*
X11643000Y-9225500D01*
X11643000Y-9185500D02*
X11603000Y-9225500D01*
X11650000Y-4972500D02*
X11690000Y-5012500D01*
X11690000Y-4972500D02*
X11650000Y-5012500D01*
X11650000Y-9028500D02*
X11690000Y-9068500D01*
X11690000Y-9028500D02*
X11650000Y-9068500D01*
X11670000Y-9412500D02*
X11710000Y-9452500D01*
X11710000Y-9412500D02*
X11670000Y-9452500D01*
X11670000Y-9667500D02*
X11710000Y-9707500D01*
X11710000Y-9667500D02*
X11670000Y-9707500D01*
X11670000Y-9907500D02*
X11710000Y-9947500D01*
X11710000Y-9907500D02*
X11670000Y-9947500D01*
X11670000Y-10192500D02*
X11710000Y-10232500D01*
X11710000Y-10192500D02*
X11670000Y-10232500D01*
X11780000Y-5512500D02*
X11820000Y-5552500D01*
X11820000Y-5512500D02*
X11780000Y-5552500D01*
X11857000Y-10422500D02*
X11897000Y-10462500D01*
X11897000Y-10422500D02*
X11857000Y-10462500D01*
X11905000Y-4972500D02*
X11945000Y-5012500D01*
X11945000Y-4972500D02*
X11905000Y-5012500D01*
X11905000Y-9028500D02*
X11945000Y-9068500D01*
X11945000Y-9028500D02*
X11905000Y-9068500D01*
X12025000Y-5512500D02*
X12065000Y-5552500D01*
X12065000Y-5512500D02*
X12025000Y-5552500D01*
X12160000Y-4972500D02*
X12200000Y-5012500D01*
X12200000Y-4972500D02*
X12160000Y-5012500D01*
X12160000Y-9023500D02*
X12200000Y-9063500D01*
X12200000Y-9023500D02*
X12160000Y-9063500D01*
X12295000Y-5512500D02*
X12335000Y-5552500D01*
X12335000Y-5512500D02*
X12295000Y-5552500D01*
X12365000Y-10422500D02*
X12405000Y-10462500D01*
X12405000Y-10422500D02*
X12365000Y-10462500D01*
X12410000Y-4972500D02*
X12450000Y-5012500D01*
X12450000Y-4972500D02*
X12410000Y-5012500D01*
X12410000Y-9028500D02*
X12450000Y-9068500D01*
X12450000Y-9028500D02*
X12410000Y-9068500D01*
X12545000Y-5512500D02*
X12585000Y-5552500D01*
X12585000Y-5512500D02*
X12545000Y-5552500D01*
X12665000Y-4972500D02*
X12705000Y-5012500D01*
X12705000Y-4972500D02*
X12665000Y-5012500D01*
X12665000Y-9023500D02*
X12705000Y-9063500D01*
X12705000Y-9023500D02*
X12665000Y-9063500D01*
X12790000Y-5512500D02*
X12830000Y-5552500D01*
X12830000Y-5512500D02*
X12790000Y-5552500D01*
X12873000Y-10422500D02*
X12913000Y-10462500D01*
X12913000Y-10422500D02*
X12873000Y-10462500D01*
X12915000Y-9023500D02*
X12955000Y-9063500D01*
X12955000Y-9023500D02*
X12915000Y-9063500D01*
X12920000Y-4972500D02*
X12960000Y-5012500D01*
X12960000Y-4972500D02*
X12920000Y-5012500D01*
X13085000Y-5512500D02*
X13125000Y-5552500D01*
X13125000Y-5512500D02*
X13085000Y-5552500D01*
X13170000Y-9028500D02*
X13210000Y-9068500D01*
X13210000Y-9028500D02*
X13170000Y-9068500D01*
X13220000Y-10422500D02*
X13260000Y-10462500D01*
X13260000Y-10422500D02*
X13220000Y-10462500D01*
X13227500Y-5562500D02*
X13267500Y-5602500D01*
X13267500Y-5562500D02*
X13227500Y-5602500D01*
X13240000Y-6082500D02*
X13280000Y-6122500D01*
X13280000Y-6082500D02*
X13240000Y-6122500D01*
X13355000Y-5000000D02*
X13395000Y-5040000D01*
X13395000Y-5000000D02*
X13355000Y-5040000D01*
X13381000Y-9185500D02*
X13421000Y-9225500D01*
X13421000Y-9185500D02*
X13381000Y-9225500D01*
X13381000Y-9693500D02*
X13421000Y-9733500D01*
X13421000Y-9693500D02*
X13381000Y-9733500D01*
X13605000Y-6077500D02*
X13645000Y-6117500D01*
X13645000Y-6077500D02*
X13605000Y-6117500D01*
X13635000Y-5957500D02*
X13675000Y-5997500D01*
X13675000Y-5957500D02*
X13635000Y-5997500D01*
X13780000Y-9422500D02*
X13820000Y-9462500D01*
X13820000Y-9422500D02*
X13780000Y-9462500D01*
X13882500Y-8117500D02*
X13922500Y-8157500D01*
X13922500Y-8117500D02*
X13882500Y-8157500D01*
X13885000Y-6767500D02*
X13925000Y-6807500D01*
X13925000Y-6767500D02*
X13885000Y-6807500D01*
X13885000Y-7087500D02*
X13925000Y-7127500D01*
X13925000Y-7087500D02*
X13885000Y-7127500D01*
X13885000Y-7405000D02*
X13925000Y-7445000D01*
X13925000Y-7405000D02*
X13885000Y-7445000D01*
X13885000Y-7747500D02*
X13925000Y-7787500D01*
X13925000Y-7747500D02*
X13885000Y-7787500D01*
X13922500Y-9662500D02*
X13962500Y-9702500D01*
X13962500Y-9662500D02*
X13922500Y-9702500D01*
X13925000Y-8880000D02*
X13965000Y-8920000D01*
X13965000Y-8880000D02*
X13925000Y-8920000D01*
X13925000Y-9272500D02*
X13965000Y-9312500D01*
X13965000Y-9272500D02*
X13925000Y-9312500D01*
X13930000Y-5960000D02*
X13970000Y-6000000D01*
X13970000Y-5960000D02*
X13930000Y-6000000D01*
D12*
X7135100Y-6311500D02*
G75*
G03*
X7135100Y-6311500I-38100J0D01*
G01*
X7135100Y-6565500D02*
G75*
G03*
X7135100Y-6565500I-38100J0D01*
G01*
X7135100Y-6819500D02*
G75*
G03*
X7135100Y-6819500I-38100J0D01*
G01*
X7135100Y-7073500D02*
G75*
G03*
X7135100Y-7073500I-38100J0D01*
G01*
X7135100Y-7327500D02*
G75*
G03*
X7135100Y-7327500I-38100J0D01*
G01*
X9421100Y-6311500D02*
G75*
G03*
X9421100Y-6311500I-38100J0D01*
G01*
X9421100Y-6565500D02*
G75*
G03*
X9421100Y-6565500I-38100J0D01*
G01*
X9421100Y-6819500D02*
G75*
G03*
X9421100Y-6819500I-38100J0D01*
G01*
X9421100Y-7073500D02*
G75*
G03*
X9421100Y-7073500I-38100J0D01*
G01*
X9421100Y-7327500D02*
G75*
G03*
X9421100Y-7327500I-38100J0D01*
G01*
X9421100Y-7581500D02*
G75*
G03*
X9421100Y-7581500I-38100J0D01*
G01*
X9421100Y-7835500D02*
G75*
G03*
X9421100Y-7835500I-38100J0D01*
G01*
X9421100Y-8089500D02*
G75*
G03*
X9421100Y-8089500I-38100J0D01*
G01*
X9421100Y-8343500D02*
G75*
G03*
X9421100Y-8343500I-38100J0D01*
G01*
X9421100Y-8597500D02*
G75*
G03*
X9421100Y-8597500I-38100J0D01*
G01*
X9675100Y-6311500D02*
G75*
G03*
X9675100Y-6311500I-38100J0D01*
G01*
X9675100Y-6565500D02*
G75*
G03*
X9675100Y-6565500I-38100J0D01*
G01*
X9675100Y-6819500D02*
G75*
G03*
X9675100Y-6819500I-38100J0D01*
G01*
X9675100Y-7073500D02*
G75*
G03*
X9675100Y-7073500I-38100J0D01*
G01*
X9675100Y-7327500D02*
G75*
G03*
X9675100Y-7327500I-38100J0D01*
G01*
X9675100Y-7581500D02*
G75*
G03*
X9675100Y-7581500I-38100J0D01*
G01*
X9675100Y-7835500D02*
G75*
G03*
X9675100Y-7835500I-38100J0D01*
G01*
X9675100Y-8089500D02*
G75*
G03*
X9675100Y-8089500I-38100J0D01*
G01*
X9675100Y-8343500D02*
G75*
G03*
X9675100Y-8343500I-38100J0D01*
G01*
X9675100Y-8597500D02*
G75*
G03*
X9675100Y-8597500I-38100J0D01*
G01*
X9929100Y-6311500D02*
G75*
G03*
X9929100Y-6311500I-38100J0D01*
G01*
X9929100Y-6565500D02*
G75*
G03*
X9929100Y-6565500I-38100J0D01*
G01*
X9929100Y-6819500D02*
G75*
G03*
X9929100Y-6819500I-38100J0D01*
G01*
X9929100Y-7073500D02*
G75*
G03*
X9929100Y-7073500I-38100J0D01*
G01*
X9929100Y-7327500D02*
G75*
G03*
X9929100Y-7327500I-38100J0D01*
G01*
X9929100Y-7581500D02*
G75*
G03*
X9929100Y-7581500I-38100J0D01*
G01*
X9929100Y-7835500D02*
G75*
G03*
X9929100Y-7835500I-38100J0D01*
G01*
X9929100Y-8089500D02*
G75*
G03*
X9929100Y-8089500I-38100J0D01*
G01*
X9929100Y-8343500D02*
G75*
G03*
X9929100Y-8343500I-38100J0D01*
G01*
X9929100Y-8597500D02*
G75*
G03*
X9929100Y-8597500I-38100J0D01*
G01*
X10183100Y-6311500D02*
G75*
G03*
X10183100Y-6311500I-38100J0D01*
G01*
X10183100Y-6565500D02*
G75*
G03*
X10183100Y-6565500I-38100J0D01*
G01*
X10183100Y-6819500D02*
G75*
G03*
X10183100Y-6819500I-38100J0D01*
G01*
X10183100Y-7073500D02*
G75*
G03*
X10183100Y-7073500I-38100J0D01*
G01*
X10183100Y-7327500D02*
G75*
G03*
X10183100Y-7327500I-38100J0D01*
G01*
X10183100Y-7581500D02*
G75*
G03*
X10183100Y-7581500I-38100J0D01*
G01*
X10183100Y-7835500D02*
G75*
G03*
X10183100Y-7835500I-38100J0D01*
G01*
X10183100Y-8089500D02*
G75*
G03*
X10183100Y-8089500I-38100J0D01*
G01*
X10183100Y-8343500D02*
G75*
G03*
X10183100Y-8343500I-38100J0D01*
G01*
X10183100Y-8597500D02*
G75*
G03*
X10183100Y-8597500I-38100J0D01*
G01*
X10437100Y-6311500D02*
G75*
G03*
X10437100Y-6311500I-38100J0D01*
G01*
X10437100Y-6565500D02*
G75*
G03*
X10437100Y-6565500I-38100J0D01*
G01*
X10437100Y-6819500D02*
G75*
G03*
X10437100Y-6819500I-38100J0D01*
G01*
X10437100Y-7073500D02*
G75*
G03*
X10437100Y-7073500I-38100J0D01*
G01*
X10437100Y-7327500D02*
G75*
G03*
X10437100Y-7327500I-38100J0D01*
G01*
X10437100Y-7581500D02*
G75*
G03*
X10437100Y-7581500I-38100J0D01*
G01*
X10437100Y-7835500D02*
G75*
G03*
X10437100Y-7835500I-38100J0D01*
G01*
X10437100Y-8089500D02*
G75*
G03*
X10437100Y-8089500I-38100J0D01*
G01*
X10437100Y-8343500D02*
G75*
G03*
X10437100Y-8343500I-38100J0D01*
G01*
X10437100Y-8597500D02*
G75*
G03*
X10437100Y-8597500I-38100J0D01*
G01*
X10691100Y-6311500D02*
G75*
G03*
X10691100Y-6311500I-38100J0D01*
G01*
X10691100Y-6565500D02*
G75*
G03*
X10691100Y-6565500I-38100J0D01*
G01*
X10691100Y-6819500D02*
G75*
G03*
X10691100Y-6819500I-38100J0D01*
G01*
X10691100Y-7073500D02*
G75*
G03*
X10691100Y-7073500I-38100J0D01*
G01*
X10691100Y-7327500D02*
G75*
G03*
X10691100Y-7327500I-38100J0D01*
G01*
X10691100Y-7581500D02*
G75*
G03*
X10691100Y-7581500I-38100J0D01*
G01*
X10691100Y-7835500D02*
G75*
G03*
X10691100Y-7835500I-38100J0D01*
G01*
X10691100Y-8089500D02*
G75*
G03*
X10691100Y-8089500I-38100J0D01*
G01*
X10691100Y-8343500D02*
G75*
G03*
X10691100Y-8343500I-38100J0D01*
G01*
X10691100Y-8597500D02*
G75*
G03*
X10691100Y-8597500I-38100J0D01*
G01*
X10945100Y-6311500D02*
G75*
G03*
X10945100Y-6311500I-38100J0D01*
G01*
X10945100Y-6565500D02*
G75*
G03*
X10945100Y-6565500I-38100J0D01*
G01*
X10945100Y-6819500D02*
G75*
G03*
X10945100Y-6819500I-38100J0D01*
G01*
X10945100Y-7073500D02*
G75*
G03*
X10945100Y-7073500I-38100J0D01*
G01*
X10945100Y-7327500D02*
G75*
G03*
X10945100Y-7327500I-38100J0D01*
G01*
X10945100Y-7581500D02*
G75*
G03*
X10945100Y-7581500I-38100J0D01*
G01*
X10945100Y-7835500D02*
G75*
G03*
X10945100Y-7835500I-38100J0D01*
G01*
X10945100Y-8089500D02*
G75*
G03*
X10945100Y-8089500I-38100J0D01*
G01*
X10945100Y-8343500D02*
G75*
G03*
X10945100Y-8343500I-38100J0D01*
G01*
X10945100Y-8597500D02*
G75*
G03*
X10945100Y-8597500I-38100J0D01*
G01*
X11199100Y-6311500D02*
G75*
G03*
X11199100Y-6311500I-38100J0D01*
G01*
X11199100Y-6565500D02*
G75*
G03*
X11199100Y-6565500I-38100J0D01*
G01*
X11199100Y-6819500D02*
G75*
G03*
X11199100Y-6819500I-38100J0D01*
G01*
X11199100Y-7073500D02*
G75*
G03*
X11199100Y-7073500I-38100J0D01*
G01*
X11199100Y-7327500D02*
G75*
G03*
X11199100Y-7327500I-38100J0D01*
G01*
X11199100Y-7581500D02*
G75*
G03*
X11199100Y-7581500I-38100J0D01*
G01*
X11199100Y-7835500D02*
G75*
G03*
X11199100Y-7835500I-38100J0D01*
G01*
X11199100Y-8089500D02*
G75*
G03*
X11199100Y-8089500I-38100J0D01*
G01*
X11199100Y-8343500D02*
G75*
G03*
X11199100Y-8343500I-38100J0D01*
G01*
X11199100Y-8597500D02*
G75*
G03*
X11199100Y-8597500I-38100J0D01*
G01*
X11453100Y-6311500D02*
G75*
G03*
X11453100Y-6311500I-38100J0D01*
G01*
X11453100Y-6565500D02*
G75*
G03*
X11453100Y-6565500I-38100J0D01*
G01*
X11453100Y-6819500D02*
G75*
G03*
X11453100Y-6819500I-38100J0D01*
G01*
X11453100Y-7073500D02*
G75*
G03*
X11453100Y-7073500I-38100J0D01*
G01*
X11453100Y-7327500D02*
G75*
G03*
X11453100Y-7327500I-38100J0D01*
G01*
X11453100Y-7581500D02*
G75*
G03*
X11453100Y-7581500I-38100J0D01*
G01*
X11453100Y-7835500D02*
G75*
G03*
X11453100Y-7835500I-38100J0D01*
G01*
X11453100Y-8089500D02*
G75*
G03*
X11453100Y-8089500I-38100J0D01*
G01*
X11453100Y-8343500D02*
G75*
G03*
X11453100Y-8343500I-38100J0D01*
G01*
X11453100Y-8597500D02*
G75*
G03*
X11453100Y-8597500I-38100J0D01*
G01*
X11707100Y-6311500D02*
G75*
G03*
X11707100Y-6311500I-38100J0D01*
G01*
X11707100Y-6565500D02*
G75*
G03*
X11707100Y-6565500I-38100J0D01*
G01*
X11707100Y-6819500D02*
G75*
G03*
X11707100Y-6819500I-38100J0D01*
G01*
X11707100Y-7073500D02*
G75*
G03*
X11707100Y-7073500I-38100J0D01*
G01*
X11707100Y-7327500D02*
G75*
G03*
X11707100Y-7327500I-38100J0D01*
G01*
X11707100Y-7581500D02*
G75*
G03*
X11707100Y-7581500I-38100J0D01*
G01*
X11707100Y-7835500D02*
G75*
G03*
X11707100Y-7835500I-38100J0D01*
G01*
X11707100Y-8089500D02*
G75*
G03*
X11707100Y-8089500I-38100J0D01*
G01*
X11707100Y-8343500D02*
G75*
G03*
X11707100Y-8343500I-38100J0D01*
G01*
X11707100Y-8597500D02*
G75*
G03*
X11707100Y-8597500I-38100J0D01*
G01*
X11961100Y-6311500D02*
G75*
G03*
X11961100Y-6311500I-38100J0D01*
G01*
X11961100Y-6565500D02*
G75*
G03*
X11961100Y-6565500I-38100J0D01*
G01*
X11961100Y-6819500D02*
G75*
G03*
X11961100Y-6819500I-38100J0D01*
G01*
X11961100Y-7073500D02*
G75*
G03*
X11961100Y-7073500I-38100J0D01*
G01*
X11961100Y-7327500D02*
G75*
G03*
X11961100Y-7327500I-38100J0D01*
G01*
X11961100Y-7581500D02*
G75*
G03*
X11961100Y-7581500I-38100J0D01*
G01*
X11961100Y-7835500D02*
G75*
G03*
X11961100Y-7835500I-38100J0D01*
G01*
X11961100Y-8089500D02*
G75*
G03*
X11961100Y-8089500I-38100J0D01*
G01*
X11961100Y-8343500D02*
G75*
G03*
X11961100Y-8343500I-38100J0D01*
G01*
X11961100Y-8597500D02*
G75*
G03*
X11961100Y-8597500I-38100J0D01*
G01*
X11963100Y-9302500D02*
G75*
G03*
X11963100Y-9302500I-38100J0D01*
G01*
X12215100Y-6311500D02*
G75*
G03*
X12215100Y-6311500I-38100J0D01*
G01*
X12215100Y-6565500D02*
G75*
G03*
X12215100Y-6565500I-38100J0D01*
G01*
X12215100Y-6819500D02*
G75*
G03*
X12215100Y-6819500I-38100J0D01*
G01*
X12215100Y-7073500D02*
G75*
G03*
X12215100Y-7073500I-38100J0D01*
G01*
X12215100Y-7327500D02*
G75*
G03*
X12215100Y-7327500I-38100J0D01*
G01*
X12215100Y-7581500D02*
G75*
G03*
X12215100Y-7581500I-38100J0D01*
G01*
X12215100Y-7835500D02*
G75*
G03*
X12215100Y-7835500I-38100J0D01*
G01*
X12215100Y-8089500D02*
G75*
G03*
X12215100Y-8089500I-38100J0D01*
G01*
X12215100Y-8343500D02*
G75*
G03*
X12215100Y-8343500I-38100J0D01*
G01*
X12215100Y-8597500D02*
G75*
G03*
X12215100Y-8597500I-38100J0D01*
G01*
X12217100Y-9302500D02*
G75*
G03*
X12217100Y-9302500I-38100J0D01*
G01*
X12469100Y-6311500D02*
G75*
G03*
X12469100Y-6311500I-38100J0D01*
G01*
X12469100Y-6565500D02*
G75*
G03*
X12469100Y-6565500I-38100J0D01*
G01*
X12469100Y-6819500D02*
G75*
G03*
X12469100Y-6819500I-38100J0D01*
G01*
X12469100Y-7073500D02*
G75*
G03*
X12469100Y-7073500I-38100J0D01*
G01*
X12469100Y-7327500D02*
G75*
G03*
X12469100Y-7327500I-38100J0D01*
G01*
X12469100Y-7581500D02*
G75*
G03*
X12469100Y-7581500I-38100J0D01*
G01*
X12469100Y-7835500D02*
G75*
G03*
X12469100Y-7835500I-38100J0D01*
G01*
X12469100Y-8089500D02*
G75*
G03*
X12469100Y-8089500I-38100J0D01*
G01*
X12469100Y-8343500D02*
G75*
G03*
X12469100Y-8343500I-38100J0D01*
G01*
X12469100Y-8597500D02*
G75*
G03*
X12469100Y-8597500I-38100J0D01*
G01*
X12471100Y-9302500D02*
G75*
G03*
X12471100Y-9302500I-38100J0D01*
G01*
X12723100Y-6311500D02*
G75*
G03*
X12723100Y-6311500I-38100J0D01*
G01*
X12723100Y-6565500D02*
G75*
G03*
X12723100Y-6565500I-38100J0D01*
G01*
X12723100Y-6819500D02*
G75*
G03*
X12723100Y-6819500I-38100J0D01*
G01*
X12723100Y-7073500D02*
G75*
G03*
X12723100Y-7073500I-38100J0D01*
G01*
X12723100Y-7327500D02*
G75*
G03*
X12723100Y-7327500I-38100J0D01*
G01*
X12723100Y-7581500D02*
G75*
G03*
X12723100Y-7581500I-38100J0D01*
G01*
X12723100Y-7835500D02*
G75*
G03*
X12723100Y-7835500I-38100J0D01*
G01*
X12723100Y-8089500D02*
G75*
G03*
X12723100Y-8089500I-38100J0D01*
G01*
X12723100Y-8343500D02*
G75*
G03*
X12723100Y-8343500I-38100J0D01*
G01*
X12723100Y-8597500D02*
G75*
G03*
X12723100Y-8597500I-38100J0D01*
G01*
X12725100Y-9302500D02*
G75*
G03*
X12725100Y-9302500I-38100J0D01*
G01*
X12977100Y-6311500D02*
G75*
G03*
X12977100Y-6311500I-38100J0D01*
G01*
X12977100Y-6565500D02*
G75*
G03*
X12977100Y-6565500I-38100J0D01*
G01*
X12977100Y-6819500D02*
G75*
G03*
X12977100Y-6819500I-38100J0D01*
G01*
X12977100Y-7073500D02*
G75*
G03*
X12977100Y-7073500I-38100J0D01*
G01*
X12977100Y-7327500D02*
G75*
G03*
X12977100Y-7327500I-38100J0D01*
G01*
X12977100Y-7581500D02*
G75*
G03*
X12977100Y-7581500I-38100J0D01*
G01*
X12977100Y-7835500D02*
G75*
G03*
X12977100Y-7835500I-38100J0D01*
G01*
X12977100Y-8089500D02*
G75*
G03*
X12977100Y-8089500I-38100J0D01*
G01*
X12977100Y-8343500D02*
G75*
G03*
X12977100Y-8343500I-38100J0D01*
G01*
X12977100Y-8597500D02*
G75*
G03*
X12977100Y-8597500I-38100J0D01*
G01*
X12979100Y-9302500D02*
G75*
G03*
X12979100Y-9302500I-38100J0D01*
G01*
X13231100Y-6311500D02*
G75*
G03*
X13231100Y-6311500I-38100J0D01*
G01*
X13231100Y-6565500D02*
G75*
G03*
X13231100Y-6565500I-38100J0D01*
G01*
X13231100Y-6819500D02*
G75*
G03*
X13231100Y-6819500I-38100J0D01*
G01*
X13231100Y-7073500D02*
G75*
G03*
X13231100Y-7073500I-38100J0D01*
G01*
X13231100Y-7327500D02*
G75*
G03*
X13231100Y-7327500I-38100J0D01*
G01*
X13231100Y-7581500D02*
G75*
G03*
X13231100Y-7581500I-38100J0D01*
G01*
X13231100Y-7835500D02*
G75*
G03*
X13231100Y-7835500I-38100J0D01*
G01*
X13231100Y-8089500D02*
G75*
G03*
X13231100Y-8089500I-38100J0D01*
G01*
X13231100Y-8343500D02*
G75*
G03*
X13231100Y-8343500I-38100J0D01*
G01*
X13231100Y-8597500D02*
G75*
G03*
X13231100Y-8597500I-38100J0D01*
G01*
X13485100Y-6311500D02*
G75*
G03*
X13485100Y-6311500I-38100J0D01*
G01*
X13485100Y-6565500D02*
G75*
G03*
X13485100Y-6565500I-38100J0D01*
G01*
X13485100Y-6819500D02*
G75*
G03*
X13485100Y-6819500I-38100J0D01*
G01*
X13485100Y-7073500D02*
G75*
G03*
X13485100Y-7073500I-38100J0D01*
G01*
X13485100Y-7327500D02*
G75*
G03*
X13485100Y-7327500I-38100J0D01*
G01*
X13485100Y-7581500D02*
G75*
G03*
X13485100Y-7581500I-38100J0D01*
G01*
X13485100Y-7835500D02*
G75*
G03*
X13485100Y-7835500I-38100J0D01*
G01*
X13485100Y-8089500D02*
G75*
G03*
X13485100Y-8089500I-38100J0D01*
G01*
X13485100Y-8343500D02*
G75*
G03*
X13485100Y-8343500I-38100J0D01*
G01*
X13485100Y-8597500D02*
G75*
G03*
X13485100Y-8597500I-38100J0D01*
G01*
D13*
X7097000Y-6007500D02*
X7097000Y-6107500D01*
X7047000Y-6057500D02*
X7147000Y-6057500D01*
X7097000Y-7531500D02*
X7097000Y-7631500D01*
X7047000Y-7581500D02*
X7147000Y-7581500D01*
X7351000Y-6007500D02*
X7351000Y-6107500D01*
X7301000Y-6057500D02*
X7401000Y-6057500D01*
X7351000Y-6261500D02*
X7351000Y-6361500D01*
X7301000Y-6311500D02*
X7401000Y-6311500D01*
X7351000Y-6515500D02*
X7351000Y-6615500D01*
X7301000Y-6565500D02*
X7401000Y-6565500D01*
X7351000Y-6769500D02*
X7351000Y-6869500D01*
X7301000Y-6819500D02*
X7401000Y-6819500D01*
X7351000Y-7023500D02*
X7351000Y-7123500D01*
X7301000Y-7073500D02*
X7401000Y-7073500D01*
X7351000Y-7277500D02*
X7351000Y-7377500D01*
X7301000Y-7327500D02*
X7401000Y-7327500D01*
X7351000Y-7531500D02*
X7351000Y-7631500D01*
X7301000Y-7581500D02*
X7401000Y-7581500D01*
X7605000Y-6007500D02*
X7605000Y-6107500D01*
X7555000Y-6057500D02*
X7655000Y-6057500D01*
X7605000Y-6261500D02*
X7605000Y-6361500D01*
X7555000Y-6311500D02*
X7655000Y-6311500D01*
X7605000Y-6515500D02*
X7605000Y-6615500D01*
X7555000Y-6565500D02*
X7655000Y-6565500D01*
X7605000Y-6769500D02*
X7605000Y-6869500D01*
X7555000Y-6819500D02*
X7655000Y-6819500D01*
X7605000Y-7023500D02*
X7605000Y-7123500D01*
X7555000Y-7073500D02*
X7655000Y-7073500D01*
X7605000Y-7277500D02*
X7605000Y-7377500D01*
X7555000Y-7327500D02*
X7655000Y-7327500D01*
X7859000Y-6007500D02*
X7859000Y-6107500D01*
X7809000Y-6057500D02*
X7909000Y-6057500D01*
X7859000Y-6261500D02*
X7859000Y-6361500D01*
X7809000Y-6311500D02*
X7909000Y-6311500D01*
X7859000Y-6515500D02*
X7859000Y-6615500D01*
X7809000Y-6565500D02*
X7909000Y-6565500D01*
X7859000Y-6769500D02*
X7859000Y-6869500D01*
X7809000Y-6819500D02*
X7909000Y-6819500D01*
X7859000Y-7023500D02*
X7859000Y-7123500D01*
X7809000Y-7073500D02*
X7909000Y-7073500D01*
X7859000Y-7277500D02*
X7859000Y-7377500D01*
X7809000Y-7327500D02*
X7909000Y-7327500D01*
X7859000Y-7785500D02*
X7859000Y-7885500D01*
X7809000Y-7835500D02*
X7909000Y-7835500D01*
X7859000Y-8039500D02*
X7859000Y-8139500D01*
X7809000Y-8089500D02*
X7909000Y-8089500D01*
X7859000Y-8293500D02*
X7859000Y-8393500D01*
X7809000Y-8343500D02*
X7909000Y-8343500D01*
X7859000Y-8547500D02*
X7859000Y-8647500D01*
X7809000Y-8597500D02*
X7909000Y-8597500D01*
X7859000Y-8801500D02*
X7859000Y-8901500D01*
X7809000Y-8851500D02*
X7909000Y-8851500D01*
X8113000Y-7785500D02*
X8113000Y-7885500D01*
X8063000Y-7835500D02*
X8163000Y-7835500D01*
X8113000Y-8039500D02*
X8113000Y-8139500D01*
X8063000Y-8089500D02*
X8163000Y-8089500D01*
X8113000Y-8293500D02*
X8113000Y-8393500D01*
X8063000Y-8343500D02*
X8163000Y-8343500D01*
X8113000Y-8547500D02*
X8113000Y-8647500D01*
X8063000Y-8597500D02*
X8163000Y-8597500D01*
X8113000Y-8801500D02*
X8113000Y-8901500D01*
X8063000Y-8851500D02*
X8163000Y-8851500D01*
X8115000Y-5107500D02*
X8115000Y-5207500D01*
X8065000Y-5157500D02*
X8165000Y-5157500D01*
X8115000Y-5361500D02*
X8115000Y-5461500D01*
X8065000Y-5411500D02*
X8165000Y-5411500D01*
X8367000Y-8801500D02*
X8367000Y-8901500D01*
X8317000Y-8851500D02*
X8417000Y-8851500D01*
X8369000Y-5107500D02*
X8369000Y-5207500D01*
X8319000Y-5157500D02*
X8419000Y-5157500D01*
X8369000Y-5361500D02*
X8369000Y-5461500D01*
X8319000Y-5411500D02*
X8419000Y-5411500D01*
X8621000Y-8801500D02*
X8621000Y-8901500D01*
X8571000Y-8851500D02*
X8671000Y-8851500D01*
X8623000Y-5107500D02*
X8623000Y-5207500D01*
X8573000Y-5157500D02*
X8673000Y-5157500D01*
X8623000Y-5361500D02*
X8623000Y-5461500D01*
X8573000Y-5411500D02*
X8673000Y-5411500D01*
X8711000Y-6192500D02*
X8711000Y-6292500D01*
X8661000Y-6242500D02*
X8761000Y-6242500D01*
X8711000Y-6446500D02*
X8711000Y-6546500D01*
X8661000Y-6496500D02*
X8761000Y-6496500D01*
X8711000Y-6700500D02*
X8711000Y-6800500D01*
X8661000Y-6750500D02*
X8761000Y-6750500D01*
X8711000Y-6954500D02*
X8711000Y-7054500D01*
X8661000Y-7004500D02*
X8761000Y-7004500D01*
X8711000Y-7208500D02*
X8711000Y-7308500D01*
X8661000Y-7258500D02*
X8761000Y-7258500D01*
X8875000Y-8801500D02*
X8875000Y-8901500D01*
X8825000Y-8851500D02*
X8925000Y-8851500D01*
X8877000Y-5107500D02*
X8877000Y-5207500D01*
X8827000Y-5157500D02*
X8927000Y-5157500D01*
X8877000Y-5361500D02*
X8877000Y-5461500D01*
X8827000Y-5411500D02*
X8927000Y-5411500D01*
X8965000Y-6192500D02*
X8965000Y-6292500D01*
X8915000Y-6242500D02*
X9015000Y-6242500D01*
X8965000Y-6446500D02*
X8965000Y-6546500D01*
X8915000Y-6496500D02*
X9015000Y-6496500D01*
X8965000Y-6700500D02*
X8965000Y-6800500D01*
X8915000Y-6750500D02*
X9015000Y-6750500D01*
X8965000Y-6954500D02*
X8965000Y-7054500D01*
X8915000Y-7004500D02*
X9015000Y-7004500D01*
X8965000Y-7208500D02*
X8965000Y-7308500D01*
X8915000Y-7258500D02*
X9015000Y-7258500D01*
X9129000Y-8801500D02*
X9129000Y-8901500D01*
X9079000Y-8851500D02*
X9179000Y-8851500D01*
X9131000Y-5107500D02*
X9131000Y-5207500D01*
X9081000Y-5157500D02*
X9181000Y-5157500D01*
X9131000Y-5361500D02*
X9131000Y-5461500D01*
X9081000Y-5411500D02*
X9181000Y-5411500D01*
X9383000Y-6007500D02*
X9383000Y-6107500D01*
X9333000Y-6057500D02*
X9433000Y-6057500D01*
X9383000Y-8801500D02*
X9383000Y-8901500D01*
X9333000Y-8851500D02*
X9433000Y-8851500D01*
X9385000Y-5107500D02*
X9385000Y-5207500D01*
X9335000Y-5157500D02*
X9435000Y-5157500D01*
X9385000Y-5361500D02*
X9385000Y-5461500D01*
X9335000Y-5411500D02*
X9435000Y-5411500D01*
X9637000Y-6007500D02*
X9637000Y-6107500D01*
X9587000Y-6057500D02*
X9687000Y-6057500D01*
X9637000Y-8801500D02*
X9637000Y-8901500D01*
X9587000Y-8851500D02*
X9687000Y-8851500D01*
X9639000Y-5107500D02*
X9639000Y-5207500D01*
X9589000Y-5157500D02*
X9689000Y-5157500D01*
X9639000Y-5361500D02*
X9639000Y-5461500D01*
X9589000Y-5411500D02*
X9689000Y-5411500D01*
X9891000Y-6007500D02*
X9891000Y-6107500D01*
X9841000Y-6057500D02*
X9941000Y-6057500D01*
X9891000Y-8801500D02*
X9891000Y-8901500D01*
X9841000Y-8851500D02*
X9941000Y-8851500D01*
X9893000Y-5107500D02*
X9893000Y-5207500D01*
X9843000Y-5157500D02*
X9943000Y-5157500D01*
X9893000Y-5361500D02*
X9893000Y-5461500D01*
X9843000Y-5411500D02*
X9943000Y-5411500D01*
X10145000Y-6007500D02*
X10145000Y-6107500D01*
X10095000Y-6057500D02*
X10195000Y-6057500D01*
X10145000Y-8801500D02*
X10145000Y-8901500D01*
X10095000Y-8851500D02*
X10195000Y-8851500D01*
X10147000Y-5107500D02*
X10147000Y-5207500D01*
X10097000Y-5157500D02*
X10197000Y-5157500D01*
X10147000Y-5361500D02*
X10147000Y-5461500D01*
X10097000Y-5411500D02*
X10197000Y-5411500D01*
X10399000Y-6007500D02*
X10399000Y-6107500D01*
X10349000Y-6057500D02*
X10449000Y-6057500D01*
X10399000Y-8801500D02*
X10399000Y-8901500D01*
X10349000Y-8851500D02*
X10449000Y-8851500D01*
X10401000Y-5107500D02*
X10401000Y-5207500D01*
X10351000Y-5157500D02*
X10451000Y-5157500D01*
X10401000Y-5361500D02*
X10401000Y-5461500D01*
X10351000Y-5411500D02*
X10451000Y-5411500D01*
X10653000Y-6007500D02*
X10653000Y-6107500D01*
X10603000Y-6057500D02*
X10703000Y-6057500D01*
X10653000Y-8801500D02*
X10653000Y-8901500D01*
X10603000Y-8851500D02*
X10703000Y-8851500D01*
X10655000Y-5107500D02*
X10655000Y-5207500D01*
X10605000Y-5157500D02*
X10705000Y-5157500D01*
X10655000Y-5361500D02*
X10655000Y-5461500D01*
X10605000Y-5411500D02*
X10705000Y-5411500D01*
X10907000Y-6007500D02*
X10907000Y-6107500D01*
X10857000Y-6057500D02*
X10957000Y-6057500D01*
X10907000Y-8801500D02*
X10907000Y-8901500D01*
X10857000Y-8851500D02*
X10957000Y-8851500D01*
X10909000Y-5107500D02*
X10909000Y-5207500D01*
X10859000Y-5157500D02*
X10959000Y-5157500D01*
X10909000Y-5361500D02*
X10909000Y-5461500D01*
X10859000Y-5411500D02*
X10959000Y-5411500D01*
X11161000Y-6007500D02*
X11161000Y-6107500D01*
X11111000Y-6057500D02*
X11211000Y-6057500D01*
X11161000Y-8801500D02*
X11161000Y-8901500D01*
X11111000Y-8851500D02*
X11211000Y-8851500D01*
X11163000Y-5107500D02*
X11163000Y-5207500D01*
X11113000Y-5157500D02*
X11213000Y-5157500D01*
X11163000Y-5361500D02*
X11163000Y-5461500D01*
X11113000Y-5411500D02*
X11213000Y-5411500D01*
X11415000Y-6007500D02*
X11415000Y-6107500D01*
X11365000Y-6057500D02*
X11465000Y-6057500D01*
X11415000Y-8801500D02*
X11415000Y-8901500D01*
X11365000Y-8851500D02*
X11465000Y-8851500D01*
X11417000Y-5107500D02*
X11417000Y-5207500D01*
X11367000Y-5157500D02*
X11467000Y-5157500D01*
X11417000Y-5361500D02*
X11417000Y-5461500D01*
X11367000Y-5411500D02*
X11467000Y-5411500D01*
X11669000Y-6007500D02*
X11669000Y-6107500D01*
X11619000Y-6057500D02*
X11719000Y-6057500D01*
X11669000Y-8801500D02*
X11669000Y-8901500D01*
X11619000Y-8851500D02*
X11719000Y-8851500D01*
X11671000Y-5107500D02*
X11671000Y-5207500D01*
X11621000Y-5157500D02*
X11721000Y-5157500D01*
X11671000Y-5361500D02*
X11671000Y-5461500D01*
X11621000Y-5411500D02*
X11721000Y-5411500D01*
X11923000Y-6007500D02*
X11923000Y-6107500D01*
X11873000Y-6057500D02*
X11973000Y-6057500D01*
X11923000Y-8801500D02*
X11923000Y-8901500D01*
X11873000Y-8851500D02*
X11973000Y-8851500D01*
X11925000Y-5107500D02*
X11925000Y-5207500D01*
X11875000Y-5157500D02*
X11975000Y-5157500D01*
X11925000Y-5361500D02*
X11925000Y-5461500D01*
X11875000Y-5411500D02*
X11975000Y-5411500D01*
X11925000Y-9506500D02*
X11925000Y-9606500D01*
X11875000Y-9556500D02*
X11975000Y-9556500D01*
X11925000Y-9760500D02*
X11925000Y-9860500D01*
X11875000Y-9810500D02*
X11975000Y-9810500D01*
X11925000Y-10014500D02*
X11925000Y-10114500D01*
X11875000Y-10064500D02*
X11975000Y-10064500D01*
X12177000Y-6007500D02*
X12177000Y-6107500D01*
X12127000Y-6057500D02*
X12227000Y-6057500D01*
X12177000Y-8801500D02*
X12177000Y-8901500D01*
X12127000Y-8851500D02*
X12227000Y-8851500D01*
X12179000Y-5107500D02*
X12179000Y-5207500D01*
X12129000Y-5157500D02*
X12229000Y-5157500D01*
X12179000Y-5361500D02*
X12179000Y-5461500D01*
X12129000Y-5411500D02*
X12229000Y-5411500D01*
X12179000Y-9506500D02*
X12179000Y-9606500D01*
X12129000Y-9556500D02*
X12229000Y-9556500D01*
X12179000Y-9760500D02*
X12179000Y-9860500D01*
X12129000Y-9810500D02*
X12229000Y-9810500D01*
X12179000Y-10014500D02*
X12179000Y-10114500D01*
X12129000Y-10064500D02*
X12229000Y-10064500D01*
X12431000Y-6007500D02*
X12431000Y-6107500D01*
X12381000Y-6057500D02*
X12481000Y-6057500D01*
X12431000Y-8801500D02*
X12431000Y-8901500D01*
X12381000Y-8851500D02*
X12481000Y-8851500D01*
X12433000Y-5107500D02*
X12433000Y-5207500D01*
X12383000Y-5157500D02*
X12483000Y-5157500D01*
X12433000Y-5361500D02*
X12433000Y-5461500D01*
X12383000Y-5411500D02*
X12483000Y-5411500D01*
X12433000Y-9506500D02*
X12433000Y-9606500D01*
X12383000Y-9556500D02*
X12483000Y-9556500D01*
X12433000Y-9760500D02*
X12433000Y-9860500D01*
X12383000Y-9810500D02*
X12483000Y-9810500D01*
X12433000Y-10014500D02*
X12433000Y-10114500D01*
X12383000Y-10064500D02*
X12483000Y-10064500D01*
X12685000Y-6007500D02*
X12685000Y-6107500D01*
X12635000Y-6057500D02*
X12735000Y-6057500D01*
X12685000Y-8801500D02*
X12685000Y-8901500D01*
X12635000Y-8851500D02*
X12735000Y-8851500D01*
X12687000Y-5107500D02*
X12687000Y-5207500D01*
X12637000Y-5157500D02*
X12737000Y-5157500D01*
X12687000Y-5361500D02*
X12687000Y-5461500D01*
X12637000Y-5411500D02*
X12737000Y-5411500D01*
X12687000Y-9506500D02*
X12687000Y-9606500D01*
X12637000Y-9556500D02*
X12737000Y-9556500D01*
X12687000Y-9760500D02*
X12687000Y-9860500D01*
X12637000Y-9810500D02*
X12737000Y-9810500D01*
X12687000Y-10014500D02*
X12687000Y-10114500D01*
X12637000Y-10064500D02*
X12737000Y-10064500D01*
X12939000Y-6007500D02*
X12939000Y-6107500D01*
X12889000Y-6057500D02*
X12989000Y-6057500D01*
X12939000Y-8801500D02*
X12939000Y-8901500D01*
X12889000Y-8851500D02*
X12989000Y-8851500D01*
X12941000Y-5107500D02*
X12941000Y-5207500D01*
X12891000Y-5157500D02*
X12991000Y-5157500D01*
X12941000Y-5361500D02*
X12941000Y-5461500D01*
X12891000Y-5411500D02*
X12991000Y-5411500D01*
X12941000Y-9506500D02*
X12941000Y-9606500D01*
X12891000Y-9556500D02*
X12991000Y-9556500D01*
X12941000Y-9760500D02*
X12941000Y-9860500D01*
X12891000Y-9810500D02*
X12991000Y-9810500D01*
X12941000Y-10014500D02*
X12941000Y-10114500D01*
X12891000Y-10064500D02*
X12991000Y-10064500D01*
X13193000Y-8801500D02*
X13193000Y-8901500D01*
X13143000Y-8851500D02*
X13243000Y-8851500D01*
X13195000Y-9252500D02*
X13195000Y-9352500D01*
X13145000Y-9302500D02*
X13245000Y-9302500D01*
X13195000Y-9506500D02*
X13195000Y-9606500D01*
X13145000Y-9556500D02*
X13245000Y-9556500D01*
X13195000Y-9760500D02*
X13195000Y-9860500D01*
X13145000Y-9810500D02*
X13245000Y-9810500D01*
X13195000Y-10014500D02*
X13195000Y-10114500D01*
X13145000Y-10064500D02*
X13245000Y-10064500D01*
D14*
X7243138Y-5508638D02*
X7243138Y-5282362D01*
X7016862Y-5282362D01*
X7016862Y-5508638D01*
X7243138Y-5508638D01*
X7243138Y-10308638D02*
X7243138Y-10082362D01*
X7016862Y-10082362D01*
X7016862Y-10308638D01*
X7243138Y-10308638D01*
X13743138Y-5508638D02*
X13743138Y-5282362D01*
X13516862Y-5282362D01*
X13516862Y-5508638D01*
X13743138Y-5508638D01*
X13743138Y-10308638D02*
X13743138Y-10082362D01*
X13516862Y-10082362D01*
X13516862Y-10308638D01*
X13743138Y-10308638D01*
D10*
X6924948Y-10935109D02*
X6924948Y-10735109D01*
X6924948Y-10735109D02*
X6972567Y-10735109D01*
X6972567Y-10735109D02*
X7001139Y-10744633D01*
X7001139Y-10744633D02*
X7020187Y-10763681D01*
X7020187Y-10763681D02*
X7029710Y-10782728D01*
X7029710Y-10782728D02*
X7039234Y-10820823D01*
X7039234Y-10820823D02*
X7039234Y-10849395D01*
X7039234Y-10849395D02*
X7029710Y-10887490D01*
X7029710Y-10887490D02*
X7020187Y-10906538D01*
X7020187Y-10906538D02*
X7001139Y-10925585D01*
X7001139Y-10925585D02*
X6972567Y-10935109D01*
X6972567Y-10935109D02*
X6924948Y-10935109D01*
X7124948Y-10935109D02*
X7124948Y-10801776D01*
X7124948Y-10839871D02*
X7134472Y-10820823D01*
X7134472Y-10820823D02*
X7143996Y-10811300D01*
X7143996Y-10811300D02*
X7163044Y-10801776D01*
X7163044Y-10801776D02*
X7182091Y-10801776D01*
X7248758Y-10935109D02*
X7248758Y-10801776D01*
X7248758Y-10735109D02*
X7239234Y-10744633D01*
X7239234Y-10744633D02*
X7248758Y-10754157D01*
X7248758Y-10754157D02*
X7258282Y-10744633D01*
X7258282Y-10744633D02*
X7248758Y-10735109D01*
X7248758Y-10735109D02*
X7248758Y-10754157D01*
X7372567Y-10935109D02*
X7353520Y-10925585D01*
X7353520Y-10925585D02*
X7343996Y-10906538D01*
X7343996Y-10906538D02*
X7343996Y-10735109D01*
X7477329Y-10935109D02*
X7458282Y-10925585D01*
X7458282Y-10925585D02*
X7448758Y-10906538D01*
X7448758Y-10906538D02*
X7448758Y-10735109D01*
X7705901Y-10935109D02*
X7705901Y-10735109D01*
X7705901Y-10735109D02*
X7772568Y-10877966D01*
X7772568Y-10877966D02*
X7839234Y-10735109D01*
X7839234Y-10735109D02*
X7839234Y-10935109D01*
X8020187Y-10935109D02*
X8020187Y-10830347D01*
X8020187Y-10830347D02*
X8010663Y-10811300D01*
X8010663Y-10811300D02*
X7991615Y-10801776D01*
X7991615Y-10801776D02*
X7953520Y-10801776D01*
X7953520Y-10801776D02*
X7934472Y-10811300D01*
X8020187Y-10925585D02*
X8001139Y-10935109D01*
X8001139Y-10935109D02*
X7953520Y-10935109D01*
X7953520Y-10935109D02*
X7934472Y-10925585D01*
X7934472Y-10925585D02*
X7924948Y-10906538D01*
X7924948Y-10906538D02*
X7924948Y-10887490D01*
X7924948Y-10887490D02*
X7934472Y-10868442D01*
X7934472Y-10868442D02*
X7953520Y-10858919D01*
X7953520Y-10858919D02*
X8001139Y-10858919D01*
X8001139Y-10858919D02*
X8020187Y-10849395D01*
X8115425Y-10801776D02*
X8115425Y-11001776D01*
X8115425Y-10811300D02*
X8134472Y-10801776D01*
X8134472Y-10801776D02*
X8172568Y-10801776D01*
X8172568Y-10801776D02*
X8191615Y-10811300D01*
X8191615Y-10811300D02*
X8201139Y-10820823D01*
X8201139Y-10820823D02*
X8210663Y-10839871D01*
X8210663Y-10839871D02*
X8210663Y-10897014D01*
X8210663Y-10897014D02*
X8201139Y-10916061D01*
X8201139Y-10916061D02*
X8191615Y-10925585D01*
X8191615Y-10925585D02*
X8172568Y-10935109D01*
X8172568Y-10935109D02*
X8134472Y-10935109D01*
X8134472Y-10935109D02*
X8115425Y-10925585D01*
X8296377Y-10916061D02*
X8305901Y-10925585D01*
X8305901Y-10925585D02*
X8296377Y-10935109D01*
X8296377Y-10935109D02*
X8286853Y-10925585D01*
X8286853Y-10925585D02*
X8296377Y-10916061D01*
X8296377Y-10916061D02*
X8296377Y-10935109D01*
X8296377Y-10811300D02*
X8305901Y-10820823D01*
X8305901Y-10820823D02*
X8296377Y-10830347D01*
X8296377Y-10830347D02*
X8286853Y-10820823D01*
X8286853Y-10820823D02*
X8296377Y-10811300D01*
X8296377Y-10811300D02*
X8296377Y-10830347D01*
D11*
X6624172Y-11243625D02*
X6664172Y-11283625D01*
X6664172Y-11243625D02*
X6624172Y-11283625D01*
D10*
X6963044Y-11155109D02*
X6982091Y-11155109D01*
X6982091Y-11155109D02*
X7001139Y-11164633D01*
X7001139Y-11164633D02*
X7010663Y-11174157D01*
X7010663Y-11174157D02*
X7020187Y-11193204D01*
X7020187Y-11193204D02*
X7029710Y-11231299D01*
X7029710Y-11231299D02*
X7029710Y-11278919D01*
X7029710Y-11278919D02*
X7020187Y-11317014D01*
X7020187Y-11317014D02*
X7010663Y-11336061D01*
X7010663Y-11336061D02*
X7001139Y-11345585D01*
X7001139Y-11345585D02*
X6982091Y-11355109D01*
X6982091Y-11355109D02*
X6963044Y-11355109D01*
X6963044Y-11355109D02*
X6943996Y-11345585D01*
X6943996Y-11345585D02*
X6934472Y-11336061D01*
X6934472Y-11336061D02*
X6924948Y-11317014D01*
X6924948Y-11317014D02*
X6915425Y-11278919D01*
X6915425Y-11278919D02*
X6915425Y-11231299D01*
X6915425Y-11231299D02*
X6924948Y-11193204D01*
X6924948Y-11193204D02*
X6934472Y-11174157D01*
X6934472Y-11174157D02*
X6943996Y-11164633D01*
X6943996Y-11164633D02*
X6963044Y-11155109D01*
X7115425Y-11336061D02*
X7124948Y-11345585D01*
X7124948Y-11345585D02*
X7115425Y-11355109D01*
X7115425Y-11355109D02*
X7105901Y-11345585D01*
X7105901Y-11345585D02*
X7115425Y-11336061D01*
X7115425Y-11336061D02*
X7115425Y-11355109D01*
X7296377Y-11221776D02*
X7296377Y-11355109D01*
X7248758Y-11145585D02*
X7201139Y-11288442D01*
X7201139Y-11288442D02*
X7324948Y-11288442D01*
X7439234Y-11155109D02*
X7458282Y-11155109D01*
X7458282Y-11155109D02*
X7477329Y-11164633D01*
X7477329Y-11164633D02*
X7486853Y-11174157D01*
X7486853Y-11174157D02*
X7496377Y-11193204D01*
X7496377Y-11193204D02*
X7505901Y-11231299D01*
X7505901Y-11231299D02*
X7505901Y-11278919D01*
X7505901Y-11278919D02*
X7496377Y-11317014D01*
X7496377Y-11317014D02*
X7486853Y-11336061D01*
X7486853Y-11336061D02*
X7477329Y-11345585D01*
X7477329Y-11345585D02*
X7458282Y-11355109D01*
X7458282Y-11355109D02*
X7439234Y-11355109D01*
X7439234Y-11355109D02*
X7420187Y-11345585D01*
X7420187Y-11345585D02*
X7410663Y-11336061D01*
X7410663Y-11336061D02*
X7401139Y-11317014D01*
X7401139Y-11317014D02*
X7391615Y-11278919D01*
X7391615Y-11278919D02*
X7391615Y-11231299D01*
X7391615Y-11231299D02*
X7401139Y-11193204D01*
X7401139Y-11193204D02*
X7410663Y-11174157D01*
X7410663Y-11174157D02*
X7420187Y-11164633D01*
X7420187Y-11164633D02*
X7439234Y-11155109D01*
X7629710Y-11155109D02*
X7648758Y-11155109D01*
X7648758Y-11155109D02*
X7667806Y-11164633D01*
X7667806Y-11164633D02*
X7677329Y-11174157D01*
X7677329Y-11174157D02*
X7686853Y-11193204D01*
X7686853Y-11193204D02*
X7696377Y-11231299D01*
X7696377Y-11231299D02*
X7696377Y-11278919D01*
X7696377Y-11278919D02*
X7686853Y-11317014D01*
X7686853Y-11317014D02*
X7677329Y-11336061D01*
X7677329Y-11336061D02*
X7667806Y-11345585D01*
X7667806Y-11345585D02*
X7648758Y-11355109D01*
X7648758Y-11355109D02*
X7629710Y-11355109D01*
X7629710Y-11355109D02*
X7610663Y-11345585D01*
X7610663Y-11345585D02*
X7601139Y-11336061D01*
X7601139Y-11336061D02*
X7591615Y-11317014D01*
X7591615Y-11317014D02*
X7582091Y-11278919D01*
X7582091Y-11278919D02*
X7582091Y-11231299D01*
X7582091Y-11231299D02*
X7591615Y-11193204D01*
X7591615Y-11193204D02*
X7601139Y-11174157D01*
X7601139Y-11174157D02*
X7610663Y-11164633D01*
X7610663Y-11164633D02*
X7629710Y-11155109D01*
X7782091Y-11355109D02*
X7782091Y-11221776D01*
X7782091Y-11240823D02*
X7791615Y-11231299D01*
X7791615Y-11231299D02*
X7810663Y-11221776D01*
X7810663Y-11221776D02*
X7839234Y-11221776D01*
X7839234Y-11221776D02*
X7858282Y-11231299D01*
X7858282Y-11231299D02*
X7867806Y-11250347D01*
X7867806Y-11250347D02*
X7867806Y-11355109D01*
X7867806Y-11250347D02*
X7877329Y-11231299D01*
X7877329Y-11231299D02*
X7896377Y-11221776D01*
X7896377Y-11221776D02*
X7924948Y-11221776D01*
X7924948Y-11221776D02*
X7943996Y-11231299D01*
X7943996Y-11231299D02*
X7953520Y-11250347D01*
X7953520Y-11250347D02*
X7953520Y-11355109D01*
X8048758Y-11355109D02*
X8048758Y-11221776D01*
X8048758Y-11240823D02*
X8058282Y-11231299D01*
X8058282Y-11231299D02*
X8077329Y-11221776D01*
X8077329Y-11221776D02*
X8105901Y-11221776D01*
X8105901Y-11221776D02*
X8124949Y-11231299D01*
X8124949Y-11231299D02*
X8134472Y-11250347D01*
X8134472Y-11250347D02*
X8134472Y-11355109D01*
X8134472Y-11250347D02*
X8143996Y-11231299D01*
X8143996Y-11231299D02*
X8163044Y-11221776D01*
X8163044Y-11221776D02*
X8191615Y-11221776D01*
X8191615Y-11221776D02*
X8210663Y-11231299D01*
X8210663Y-11231299D02*
X8220187Y-11250347D01*
X8220187Y-11250347D02*
X8220187Y-11355109D01*
X8610663Y-11145585D02*
X8439234Y-11402728D01*
X8867806Y-11155109D02*
X8886854Y-11155109D01*
X8886854Y-11155109D02*
X8905901Y-11164633D01*
X8905901Y-11164633D02*
X8915425Y-11174157D01*
X8915425Y-11174157D02*
X8924949Y-11193204D01*
X8924949Y-11193204D02*
X8934473Y-11231299D01*
X8934473Y-11231299D02*
X8934473Y-11278919D01*
X8934473Y-11278919D02*
X8924949Y-11317014D01*
X8924949Y-11317014D02*
X8915425Y-11336061D01*
X8915425Y-11336061D02*
X8905901Y-11345585D01*
X8905901Y-11345585D02*
X8886854Y-11355109D01*
X8886854Y-11355109D02*
X8867806Y-11355109D01*
X8867806Y-11355109D02*
X8848758Y-11345585D01*
X8848758Y-11345585D02*
X8839234Y-11336061D01*
X8839234Y-11336061D02*
X8829711Y-11317014D01*
X8829711Y-11317014D02*
X8820187Y-11278919D01*
X8820187Y-11278919D02*
X8820187Y-11231299D01*
X8820187Y-11231299D02*
X8829711Y-11193204D01*
X8829711Y-11193204D02*
X8839234Y-11174157D01*
X8839234Y-11174157D02*
X8848758Y-11164633D01*
X8848758Y-11164633D02*
X8867806Y-11155109D01*
X9020187Y-11336061D02*
X9029711Y-11345585D01*
X9029711Y-11345585D02*
X9020187Y-11355109D01*
X9020187Y-11355109D02*
X9010663Y-11345585D01*
X9010663Y-11345585D02*
X9020187Y-11336061D01*
X9020187Y-11336061D02*
X9020187Y-11355109D01*
X9153520Y-11155109D02*
X9172568Y-11155109D01*
X9172568Y-11155109D02*
X9191615Y-11164633D01*
X9191615Y-11164633D02*
X9201139Y-11174157D01*
X9201139Y-11174157D02*
X9210663Y-11193204D01*
X9210663Y-11193204D02*
X9220187Y-11231299D01*
X9220187Y-11231299D02*
X9220187Y-11278919D01*
X9220187Y-11278919D02*
X9210663Y-11317014D01*
X9210663Y-11317014D02*
X9201139Y-11336061D01*
X9201139Y-11336061D02*
X9191615Y-11345585D01*
X9191615Y-11345585D02*
X9172568Y-11355109D01*
X9172568Y-11355109D02*
X9153520Y-11355109D01*
X9153520Y-11355109D02*
X9134473Y-11345585D01*
X9134473Y-11345585D02*
X9124949Y-11336061D01*
X9124949Y-11336061D02*
X9115425Y-11317014D01*
X9115425Y-11317014D02*
X9105901Y-11278919D01*
X9105901Y-11278919D02*
X9105901Y-11231299D01*
X9105901Y-11231299D02*
X9115425Y-11193204D01*
X9115425Y-11193204D02*
X9124949Y-11174157D01*
X9124949Y-11174157D02*
X9134473Y-11164633D01*
X9134473Y-11164633D02*
X9153520Y-11155109D01*
X9410663Y-11355109D02*
X9296377Y-11355109D01*
X9353520Y-11355109D02*
X9353520Y-11155109D01*
X9353520Y-11155109D02*
X9334473Y-11183681D01*
X9334473Y-11183681D02*
X9315425Y-11202728D01*
X9315425Y-11202728D02*
X9296377Y-11212252D01*
X9591615Y-11155109D02*
X9496377Y-11155109D01*
X9496377Y-11155109D02*
X9486854Y-11250347D01*
X9486854Y-11250347D02*
X9496377Y-11240823D01*
X9496377Y-11240823D02*
X9515425Y-11231299D01*
X9515425Y-11231299D02*
X9563044Y-11231299D01*
X9563044Y-11231299D02*
X9582092Y-11240823D01*
X9582092Y-11240823D02*
X9591615Y-11250347D01*
X9591615Y-11250347D02*
X9601139Y-11269395D01*
X9601139Y-11269395D02*
X9601139Y-11317014D01*
X9601139Y-11317014D02*
X9591615Y-11336061D01*
X9591615Y-11336061D02*
X9582092Y-11345585D01*
X9582092Y-11345585D02*
X9563044Y-11355109D01*
X9563044Y-11355109D02*
X9515425Y-11355109D01*
X9515425Y-11355109D02*
X9496377Y-11345585D01*
X9496377Y-11345585D02*
X9486854Y-11336061D01*
X9667806Y-11155109D02*
X9801139Y-11155109D01*
X9801139Y-11155109D02*
X9715425Y-11355109D01*
X9867806Y-11155109D02*
X9867806Y-11193204D01*
X9943996Y-11155109D02*
X9943996Y-11193204D01*
X10239235Y-11431299D02*
X10229711Y-11421776D01*
X10229711Y-11421776D02*
X10210663Y-11393204D01*
X10210663Y-11393204D02*
X10201139Y-11374157D01*
X10201139Y-11374157D02*
X10191616Y-11345585D01*
X10191616Y-11345585D02*
X10182092Y-11297966D01*
X10182092Y-11297966D02*
X10182092Y-11259871D01*
X10182092Y-11259871D02*
X10191616Y-11212252D01*
X10191616Y-11212252D02*
X10201139Y-11183681D01*
X10201139Y-11183681D02*
X10210663Y-11164633D01*
X10210663Y-11164633D02*
X10229711Y-11136061D01*
X10229711Y-11136061D02*
X10239235Y-11126538D01*
X10420187Y-11355109D02*
X10305901Y-11355109D01*
X10363044Y-11355109D02*
X10363044Y-11155109D01*
X10363044Y-11155109D02*
X10343996Y-11183681D01*
X10343996Y-11183681D02*
X10324949Y-11202728D01*
X10324949Y-11202728D02*
X10305901Y-11212252D01*
X10610663Y-11355109D02*
X10496377Y-11355109D01*
X10553520Y-11355109D02*
X10553520Y-11155109D01*
X10553520Y-11155109D02*
X10534473Y-11183681D01*
X10534473Y-11183681D02*
X10515425Y-11202728D01*
X10515425Y-11202728D02*
X10496377Y-11212252D01*
X10705901Y-11355109D02*
X10743996Y-11355109D01*
X10743996Y-11355109D02*
X10763044Y-11345585D01*
X10763044Y-11345585D02*
X10772568Y-11336061D01*
X10772568Y-11336061D02*
X10791616Y-11307490D01*
X10791616Y-11307490D02*
X10801139Y-11269395D01*
X10801139Y-11269395D02*
X10801139Y-11193204D01*
X10801139Y-11193204D02*
X10791616Y-11174157D01*
X10791616Y-11174157D02*
X10782092Y-11164633D01*
X10782092Y-11164633D02*
X10763044Y-11155109D01*
X10763044Y-11155109D02*
X10724949Y-11155109D01*
X10724949Y-11155109D02*
X10705901Y-11164633D01*
X10705901Y-11164633D02*
X10696377Y-11174157D01*
X10696377Y-11174157D02*
X10686854Y-11193204D01*
X10686854Y-11193204D02*
X10686854Y-11240823D01*
X10686854Y-11240823D02*
X10696377Y-11259871D01*
X10696377Y-11259871D02*
X10705901Y-11269395D01*
X10705901Y-11269395D02*
X10724949Y-11278919D01*
X10724949Y-11278919D02*
X10763044Y-11278919D01*
X10763044Y-11278919D02*
X10782092Y-11269395D01*
X10782092Y-11269395D02*
X10791616Y-11259871D01*
X10791616Y-11259871D02*
X10801139Y-11240823D01*
X11039235Y-11355109D02*
X11039235Y-11155109D01*
X11124949Y-11355109D02*
X11124949Y-11250347D01*
X11124949Y-11250347D02*
X11115425Y-11231299D01*
X11115425Y-11231299D02*
X11096378Y-11221776D01*
X11096378Y-11221776D02*
X11067806Y-11221776D01*
X11067806Y-11221776D02*
X11048758Y-11231299D01*
X11048758Y-11231299D02*
X11039235Y-11240823D01*
X11248758Y-11355109D02*
X11229711Y-11345585D01*
X11229711Y-11345585D02*
X11220187Y-11336061D01*
X11220187Y-11336061D02*
X11210663Y-11317014D01*
X11210663Y-11317014D02*
X11210663Y-11259871D01*
X11210663Y-11259871D02*
X11220187Y-11240823D01*
X11220187Y-11240823D02*
X11229711Y-11231299D01*
X11229711Y-11231299D02*
X11248758Y-11221776D01*
X11248758Y-11221776D02*
X11277330Y-11221776D01*
X11277330Y-11221776D02*
X11296377Y-11231299D01*
X11296377Y-11231299D02*
X11305901Y-11240823D01*
X11305901Y-11240823D02*
X11315425Y-11259871D01*
X11315425Y-11259871D02*
X11315425Y-11317014D01*
X11315425Y-11317014D02*
X11305901Y-11336061D01*
X11305901Y-11336061D02*
X11296377Y-11345585D01*
X11296377Y-11345585D02*
X11277330Y-11355109D01*
X11277330Y-11355109D02*
X11248758Y-11355109D01*
X11429711Y-11355109D02*
X11410663Y-11345585D01*
X11410663Y-11345585D02*
X11401139Y-11326538D01*
X11401139Y-11326538D02*
X11401139Y-11155109D01*
X11582092Y-11345585D02*
X11563044Y-11355109D01*
X11563044Y-11355109D02*
X11524949Y-11355109D01*
X11524949Y-11355109D02*
X11505901Y-11345585D01*
X11505901Y-11345585D02*
X11496377Y-11326538D01*
X11496377Y-11326538D02*
X11496377Y-11250347D01*
X11496377Y-11250347D02*
X11505901Y-11231299D01*
X11505901Y-11231299D02*
X11524949Y-11221776D01*
X11524949Y-11221776D02*
X11563044Y-11221776D01*
X11563044Y-11221776D02*
X11582092Y-11231299D01*
X11582092Y-11231299D02*
X11591616Y-11250347D01*
X11591616Y-11250347D02*
X11591616Y-11269395D01*
X11591616Y-11269395D02*
X11496377Y-11288442D01*
X11667806Y-11345585D02*
X11686854Y-11355109D01*
X11686854Y-11355109D02*
X11724949Y-11355109D01*
X11724949Y-11355109D02*
X11743997Y-11345585D01*
X11743997Y-11345585D02*
X11753520Y-11326538D01*
X11753520Y-11326538D02*
X11753520Y-11317014D01*
X11753520Y-11317014D02*
X11743997Y-11297966D01*
X11743997Y-11297966D02*
X11724949Y-11288442D01*
X11724949Y-11288442D02*
X11696377Y-11288442D01*
X11696377Y-11288442D02*
X11677330Y-11278919D01*
X11677330Y-11278919D02*
X11667806Y-11259871D01*
X11667806Y-11259871D02*
X11667806Y-11250347D01*
X11667806Y-11250347D02*
X11677330Y-11231299D01*
X11677330Y-11231299D02*
X11696377Y-11221776D01*
X11696377Y-11221776D02*
X11724949Y-11221776D01*
X11724949Y-11221776D02*
X11743997Y-11231299D01*
X11820187Y-11431299D02*
X11829711Y-11421776D01*
X11829711Y-11421776D02*
X11848758Y-11393204D01*
X11848758Y-11393204D02*
X11858282Y-11374157D01*
X11858282Y-11374157D02*
X11867806Y-11345585D01*
X11867806Y-11345585D02*
X11877330Y-11297966D01*
X11877330Y-11297966D02*
X11877330Y-11259871D01*
X11877330Y-11259871D02*
X11867806Y-11212252D01*
X11867806Y-11212252D02*
X11858282Y-11183681D01*
X11858282Y-11183681D02*
X11848758Y-11164633D01*
X11848758Y-11164633D02*
X11829711Y-11136061D01*
X11829711Y-11136061D02*
X11820187Y-11126538D01*
D12*
X6664172Y-11527625D02*
G75*
G03*
X6664172Y-11527625I-38100J0D01*
G01*
D10*
X6963044Y-11419109D02*
X6982091Y-11419109D01*
X6982091Y-11419109D02*
X7001139Y-11428633D01*
X7001139Y-11428633D02*
X7010663Y-11438157D01*
X7010663Y-11438157D02*
X7020187Y-11457204D01*
X7020187Y-11457204D02*
X7029710Y-11495299D01*
X7029710Y-11495299D02*
X7029710Y-11542919D01*
X7029710Y-11542919D02*
X7020187Y-11581014D01*
X7020187Y-11581014D02*
X7010663Y-11600061D01*
X7010663Y-11600061D02*
X7001139Y-11609585D01*
X7001139Y-11609585D02*
X6982091Y-11619109D01*
X6982091Y-11619109D02*
X6963044Y-11619109D01*
X6963044Y-11619109D02*
X6943996Y-11609585D01*
X6943996Y-11609585D02*
X6934472Y-11600061D01*
X6934472Y-11600061D02*
X6924948Y-11581014D01*
X6924948Y-11581014D02*
X6915425Y-11542919D01*
X6915425Y-11542919D02*
X6915425Y-11495299D01*
X6915425Y-11495299D02*
X6924948Y-11457204D01*
X6924948Y-11457204D02*
X6934472Y-11438157D01*
X6934472Y-11438157D02*
X6943996Y-11428633D01*
X6943996Y-11428633D02*
X6963044Y-11419109D01*
X7115425Y-11600061D02*
X7124948Y-11609585D01*
X7124948Y-11609585D02*
X7115425Y-11619109D01*
X7115425Y-11619109D02*
X7105901Y-11609585D01*
X7105901Y-11609585D02*
X7115425Y-11600061D01*
X7115425Y-11600061D02*
X7115425Y-11619109D01*
X7191615Y-11419109D02*
X7324948Y-11419109D01*
X7324948Y-11419109D02*
X7239234Y-11619109D01*
X7486853Y-11419109D02*
X7448758Y-11419109D01*
X7448758Y-11419109D02*
X7429710Y-11428633D01*
X7429710Y-11428633D02*
X7420187Y-11438157D01*
X7420187Y-11438157D02*
X7401139Y-11466728D01*
X7401139Y-11466728D02*
X7391615Y-11504823D01*
X7391615Y-11504823D02*
X7391615Y-11581014D01*
X7391615Y-11581014D02*
X7401139Y-11600061D01*
X7401139Y-11600061D02*
X7410663Y-11609585D01*
X7410663Y-11609585D02*
X7429710Y-11619109D01*
X7429710Y-11619109D02*
X7467806Y-11619109D01*
X7467806Y-11619109D02*
X7486853Y-11609585D01*
X7486853Y-11609585D02*
X7496377Y-11600061D01*
X7496377Y-11600061D02*
X7505901Y-11581014D01*
X7505901Y-11581014D02*
X7505901Y-11533395D01*
X7505901Y-11533395D02*
X7496377Y-11514347D01*
X7496377Y-11514347D02*
X7486853Y-11504823D01*
X7486853Y-11504823D02*
X7467806Y-11495299D01*
X7467806Y-11495299D02*
X7429710Y-11495299D01*
X7429710Y-11495299D02*
X7410663Y-11504823D01*
X7410663Y-11504823D02*
X7401139Y-11514347D01*
X7401139Y-11514347D02*
X7391615Y-11533395D01*
X7582091Y-11438157D02*
X7591615Y-11428633D01*
X7591615Y-11428633D02*
X7610663Y-11419109D01*
X7610663Y-11419109D02*
X7658282Y-11419109D01*
X7658282Y-11419109D02*
X7677329Y-11428633D01*
X7677329Y-11428633D02*
X7686853Y-11438157D01*
X7686853Y-11438157D02*
X7696377Y-11457204D01*
X7696377Y-11457204D02*
X7696377Y-11476252D01*
X7696377Y-11476252D02*
X7686853Y-11504823D01*
X7686853Y-11504823D02*
X7572568Y-11619109D01*
X7572568Y-11619109D02*
X7696377Y-11619109D01*
X7782091Y-11619109D02*
X7782091Y-11485776D01*
X7782091Y-11504823D02*
X7791615Y-11495299D01*
X7791615Y-11495299D02*
X7810663Y-11485776D01*
X7810663Y-11485776D02*
X7839234Y-11485776D01*
X7839234Y-11485776D02*
X7858282Y-11495299D01*
X7858282Y-11495299D02*
X7867806Y-11514347D01*
X7867806Y-11514347D02*
X7867806Y-11619109D01*
X7867806Y-11514347D02*
X7877329Y-11495299D01*
X7877329Y-11495299D02*
X7896377Y-11485776D01*
X7896377Y-11485776D02*
X7924948Y-11485776D01*
X7924948Y-11485776D02*
X7943996Y-11495299D01*
X7943996Y-11495299D02*
X7953520Y-11514347D01*
X7953520Y-11514347D02*
X7953520Y-11619109D01*
X8048758Y-11619109D02*
X8048758Y-11485776D01*
X8048758Y-11504823D02*
X8058282Y-11495299D01*
X8058282Y-11495299D02*
X8077329Y-11485776D01*
X8077329Y-11485776D02*
X8105901Y-11485776D01*
X8105901Y-11485776D02*
X8124949Y-11495299D01*
X8124949Y-11495299D02*
X8134472Y-11514347D01*
X8134472Y-11514347D02*
X8134472Y-11619109D01*
X8134472Y-11514347D02*
X8143996Y-11495299D01*
X8143996Y-11495299D02*
X8163044Y-11485776D01*
X8163044Y-11485776D02*
X8191615Y-11485776D01*
X8191615Y-11485776D02*
X8210663Y-11495299D01*
X8210663Y-11495299D02*
X8220187Y-11514347D01*
X8220187Y-11514347D02*
X8220187Y-11619109D01*
X8610663Y-11409585D02*
X8439234Y-11666728D01*
X8867806Y-11419109D02*
X8886854Y-11419109D01*
X8886854Y-11419109D02*
X8905901Y-11428633D01*
X8905901Y-11428633D02*
X8915425Y-11438157D01*
X8915425Y-11438157D02*
X8924949Y-11457204D01*
X8924949Y-11457204D02*
X8934473Y-11495299D01*
X8934473Y-11495299D02*
X8934473Y-11542919D01*
X8934473Y-11542919D02*
X8924949Y-11581014D01*
X8924949Y-11581014D02*
X8915425Y-11600061D01*
X8915425Y-11600061D02*
X8905901Y-11609585D01*
X8905901Y-11609585D02*
X8886854Y-11619109D01*
X8886854Y-11619109D02*
X8867806Y-11619109D01*
X8867806Y-11619109D02*
X8848758Y-11609585D01*
X8848758Y-11609585D02*
X8839234Y-11600061D01*
X8839234Y-11600061D02*
X8829711Y-11581014D01*
X8829711Y-11581014D02*
X8820187Y-11542919D01*
X8820187Y-11542919D02*
X8820187Y-11495299D01*
X8820187Y-11495299D02*
X8829711Y-11457204D01*
X8829711Y-11457204D02*
X8839234Y-11438157D01*
X8839234Y-11438157D02*
X8848758Y-11428633D01*
X8848758Y-11428633D02*
X8867806Y-11419109D01*
X9020187Y-11600061D02*
X9029711Y-11609585D01*
X9029711Y-11609585D02*
X9020187Y-11619109D01*
X9020187Y-11619109D02*
X9010663Y-11609585D01*
X9010663Y-11609585D02*
X9020187Y-11600061D01*
X9020187Y-11600061D02*
X9020187Y-11619109D01*
X9153520Y-11419109D02*
X9172568Y-11419109D01*
X9172568Y-11419109D02*
X9191615Y-11428633D01*
X9191615Y-11428633D02*
X9201139Y-11438157D01*
X9201139Y-11438157D02*
X9210663Y-11457204D01*
X9210663Y-11457204D02*
X9220187Y-11495299D01*
X9220187Y-11495299D02*
X9220187Y-11542919D01*
X9220187Y-11542919D02*
X9210663Y-11581014D01*
X9210663Y-11581014D02*
X9201139Y-11600061D01*
X9201139Y-11600061D02*
X9191615Y-11609585D01*
X9191615Y-11609585D02*
X9172568Y-11619109D01*
X9172568Y-11619109D02*
X9153520Y-11619109D01*
X9153520Y-11619109D02*
X9134473Y-11609585D01*
X9134473Y-11609585D02*
X9124949Y-11600061D01*
X9124949Y-11600061D02*
X9115425Y-11581014D01*
X9115425Y-11581014D02*
X9105901Y-11542919D01*
X9105901Y-11542919D02*
X9105901Y-11495299D01*
X9105901Y-11495299D02*
X9115425Y-11457204D01*
X9115425Y-11457204D02*
X9124949Y-11438157D01*
X9124949Y-11438157D02*
X9134473Y-11428633D01*
X9134473Y-11428633D02*
X9153520Y-11419109D01*
X9286854Y-11419109D02*
X9410663Y-11419109D01*
X9410663Y-11419109D02*
X9343996Y-11495299D01*
X9343996Y-11495299D02*
X9372568Y-11495299D01*
X9372568Y-11495299D02*
X9391615Y-11504823D01*
X9391615Y-11504823D02*
X9401139Y-11514347D01*
X9401139Y-11514347D02*
X9410663Y-11533395D01*
X9410663Y-11533395D02*
X9410663Y-11581014D01*
X9410663Y-11581014D02*
X9401139Y-11600061D01*
X9401139Y-11600061D02*
X9391615Y-11609585D01*
X9391615Y-11609585D02*
X9372568Y-11619109D01*
X9372568Y-11619109D02*
X9315425Y-11619109D01*
X9315425Y-11619109D02*
X9296377Y-11609585D01*
X9296377Y-11609585D02*
X9286854Y-11600061D01*
X9534473Y-11419109D02*
X9553520Y-11419109D01*
X9553520Y-11419109D02*
X9572568Y-11428633D01*
X9572568Y-11428633D02*
X9582092Y-11438157D01*
X9582092Y-11438157D02*
X9591615Y-11457204D01*
X9591615Y-11457204D02*
X9601139Y-11495299D01*
X9601139Y-11495299D02*
X9601139Y-11542919D01*
X9601139Y-11542919D02*
X9591615Y-11581014D01*
X9591615Y-11581014D02*
X9582092Y-11600061D01*
X9582092Y-11600061D02*
X9572568Y-11609585D01*
X9572568Y-11609585D02*
X9553520Y-11619109D01*
X9553520Y-11619109D02*
X9534473Y-11619109D01*
X9534473Y-11619109D02*
X9515425Y-11609585D01*
X9515425Y-11609585D02*
X9505901Y-11600061D01*
X9505901Y-11600061D02*
X9496377Y-11581014D01*
X9496377Y-11581014D02*
X9486854Y-11542919D01*
X9486854Y-11542919D02*
X9486854Y-11495299D01*
X9486854Y-11495299D02*
X9496377Y-11457204D01*
X9496377Y-11457204D02*
X9505901Y-11438157D01*
X9505901Y-11438157D02*
X9515425Y-11428633D01*
X9515425Y-11428633D02*
X9534473Y-11419109D01*
X9724949Y-11419109D02*
X9743996Y-11419109D01*
X9743996Y-11419109D02*
X9763044Y-11428633D01*
X9763044Y-11428633D02*
X9772568Y-11438157D01*
X9772568Y-11438157D02*
X9782092Y-11457204D01*
X9782092Y-11457204D02*
X9791615Y-11495299D01*
X9791615Y-11495299D02*
X9791615Y-11542919D01*
X9791615Y-11542919D02*
X9782092Y-11581014D01*
X9782092Y-11581014D02*
X9772568Y-11600061D01*
X9772568Y-11600061D02*
X9763044Y-11609585D01*
X9763044Y-11609585D02*
X9743996Y-11619109D01*
X9743996Y-11619109D02*
X9724949Y-11619109D01*
X9724949Y-11619109D02*
X9705901Y-11609585D01*
X9705901Y-11609585D02*
X9696377Y-11600061D01*
X9696377Y-11600061D02*
X9686854Y-11581014D01*
X9686854Y-11581014D02*
X9677330Y-11542919D01*
X9677330Y-11542919D02*
X9677330Y-11495299D01*
X9677330Y-11495299D02*
X9686854Y-11457204D01*
X9686854Y-11457204D02*
X9696377Y-11438157D01*
X9696377Y-11438157D02*
X9705901Y-11428633D01*
X9705901Y-11428633D02*
X9724949Y-11419109D01*
X9867806Y-11419109D02*
X9867806Y-11457204D01*
X9943996Y-11419109D02*
X9943996Y-11457204D01*
X10239235Y-11695299D02*
X10229711Y-11685776D01*
X10229711Y-11685776D02*
X10210663Y-11657204D01*
X10210663Y-11657204D02*
X10201139Y-11638157D01*
X10201139Y-11638157D02*
X10191616Y-11609585D01*
X10191616Y-11609585D02*
X10182092Y-11561966D01*
X10182092Y-11561966D02*
X10182092Y-11523871D01*
X10182092Y-11523871D02*
X10191616Y-11476252D01*
X10191616Y-11476252D02*
X10201139Y-11447680D01*
X10201139Y-11447680D02*
X10210663Y-11428633D01*
X10210663Y-11428633D02*
X10229711Y-11400061D01*
X10229711Y-11400061D02*
X10239235Y-11390538D01*
X10420187Y-11619109D02*
X10305901Y-11619109D01*
X10363044Y-11619109D02*
X10363044Y-11419109D01*
X10363044Y-11419109D02*
X10343996Y-11447680D01*
X10343996Y-11447680D02*
X10324949Y-11466728D01*
X10324949Y-11466728D02*
X10305901Y-11476252D01*
X10534473Y-11504823D02*
X10515425Y-11495299D01*
X10515425Y-11495299D02*
X10505901Y-11485776D01*
X10505901Y-11485776D02*
X10496377Y-11466728D01*
X10496377Y-11466728D02*
X10496377Y-11457204D01*
X10496377Y-11457204D02*
X10505901Y-11438157D01*
X10505901Y-11438157D02*
X10515425Y-11428633D01*
X10515425Y-11428633D02*
X10534473Y-11419109D01*
X10534473Y-11419109D02*
X10572568Y-11419109D01*
X10572568Y-11419109D02*
X10591616Y-11428633D01*
X10591616Y-11428633D02*
X10601139Y-11438157D01*
X10601139Y-11438157D02*
X10610663Y-11457204D01*
X10610663Y-11457204D02*
X10610663Y-11466728D01*
X10610663Y-11466728D02*
X10601139Y-11485776D01*
X10601139Y-11485776D02*
X10591616Y-11495299D01*
X10591616Y-11495299D02*
X10572568Y-11504823D01*
X10572568Y-11504823D02*
X10534473Y-11504823D01*
X10534473Y-11504823D02*
X10515425Y-11514347D01*
X10515425Y-11514347D02*
X10505901Y-11523871D01*
X10505901Y-11523871D02*
X10496377Y-11542919D01*
X10496377Y-11542919D02*
X10496377Y-11581014D01*
X10496377Y-11581014D02*
X10505901Y-11600061D01*
X10505901Y-11600061D02*
X10515425Y-11609585D01*
X10515425Y-11609585D02*
X10534473Y-11619109D01*
X10534473Y-11619109D02*
X10572568Y-11619109D01*
X10572568Y-11619109D02*
X10591616Y-11609585D01*
X10591616Y-11609585D02*
X10601139Y-11600061D01*
X10601139Y-11600061D02*
X10610663Y-11581014D01*
X10610663Y-11581014D02*
X10610663Y-11542919D01*
X10610663Y-11542919D02*
X10601139Y-11523871D01*
X10601139Y-11523871D02*
X10591616Y-11514347D01*
X10591616Y-11514347D02*
X10572568Y-11504823D01*
X10734473Y-11419109D02*
X10753520Y-11419109D01*
X10753520Y-11419109D02*
X10772568Y-11428633D01*
X10772568Y-11428633D02*
X10782092Y-11438157D01*
X10782092Y-11438157D02*
X10791616Y-11457204D01*
X10791616Y-11457204D02*
X10801139Y-11495299D01*
X10801139Y-11495299D02*
X10801139Y-11542919D01*
X10801139Y-11542919D02*
X10791616Y-11581014D01*
X10791616Y-11581014D02*
X10782092Y-11600061D01*
X10782092Y-11600061D02*
X10772568Y-11609585D01*
X10772568Y-11609585D02*
X10753520Y-11619109D01*
X10753520Y-11619109D02*
X10734473Y-11619109D01*
X10734473Y-11619109D02*
X10715425Y-11609585D01*
X10715425Y-11609585D02*
X10705901Y-11600061D01*
X10705901Y-11600061D02*
X10696377Y-11581014D01*
X10696377Y-11581014D02*
X10686854Y-11542919D01*
X10686854Y-11542919D02*
X10686854Y-11495299D01*
X10686854Y-11495299D02*
X10696377Y-11457204D01*
X10696377Y-11457204D02*
X10705901Y-11438157D01*
X10705901Y-11438157D02*
X10715425Y-11428633D01*
X10715425Y-11428633D02*
X10734473Y-11419109D01*
X11039235Y-11619109D02*
X11039235Y-11419109D01*
X11124949Y-11619109D02*
X11124949Y-11514347D01*
X11124949Y-11514347D02*
X11115425Y-11495299D01*
X11115425Y-11495299D02*
X11096378Y-11485776D01*
X11096378Y-11485776D02*
X11067806Y-11485776D01*
X11067806Y-11485776D02*
X11048758Y-11495299D01*
X11048758Y-11495299D02*
X11039235Y-11504823D01*
X11248758Y-11619109D02*
X11229711Y-11609585D01*
X11229711Y-11609585D02*
X11220187Y-11600061D01*
X11220187Y-11600061D02*
X11210663Y-11581014D01*
X11210663Y-11581014D02*
X11210663Y-11523871D01*
X11210663Y-11523871D02*
X11220187Y-11504823D01*
X11220187Y-11504823D02*
X11229711Y-11495299D01*
X11229711Y-11495299D02*
X11248758Y-11485776D01*
X11248758Y-11485776D02*
X11277330Y-11485776D01*
X11277330Y-11485776D02*
X11296377Y-11495299D01*
X11296377Y-11495299D02*
X11305901Y-11504823D01*
X11305901Y-11504823D02*
X11315425Y-11523871D01*
X11315425Y-11523871D02*
X11315425Y-11581014D01*
X11315425Y-11581014D02*
X11305901Y-11600061D01*
X11305901Y-11600061D02*
X11296377Y-11609585D01*
X11296377Y-11609585D02*
X11277330Y-11619109D01*
X11277330Y-11619109D02*
X11248758Y-11619109D01*
X11429711Y-11619109D02*
X11410663Y-11609585D01*
X11410663Y-11609585D02*
X11401139Y-11590538D01*
X11401139Y-11590538D02*
X11401139Y-11419109D01*
X11582092Y-11609585D02*
X11563044Y-11619109D01*
X11563044Y-11619109D02*
X11524949Y-11619109D01*
X11524949Y-11619109D02*
X11505901Y-11609585D01*
X11505901Y-11609585D02*
X11496377Y-11590538D01*
X11496377Y-11590538D02*
X11496377Y-11514347D01*
X11496377Y-11514347D02*
X11505901Y-11495299D01*
X11505901Y-11495299D02*
X11524949Y-11485776D01*
X11524949Y-11485776D02*
X11563044Y-11485776D01*
X11563044Y-11485776D02*
X11582092Y-11495299D01*
X11582092Y-11495299D02*
X11591616Y-11514347D01*
X11591616Y-11514347D02*
X11591616Y-11533395D01*
X11591616Y-11533395D02*
X11496377Y-11552442D01*
X11667806Y-11609585D02*
X11686854Y-11619109D01*
X11686854Y-11619109D02*
X11724949Y-11619109D01*
X11724949Y-11619109D02*
X11743997Y-11609585D01*
X11743997Y-11609585D02*
X11753520Y-11590538D01*
X11753520Y-11590538D02*
X11753520Y-11581014D01*
X11753520Y-11581014D02*
X11743997Y-11561966D01*
X11743997Y-11561966D02*
X11724949Y-11552442D01*
X11724949Y-11552442D02*
X11696377Y-11552442D01*
X11696377Y-11552442D02*
X11677330Y-11542919D01*
X11677330Y-11542919D02*
X11667806Y-11523871D01*
X11667806Y-11523871D02*
X11667806Y-11514347D01*
X11667806Y-11514347D02*
X11677330Y-11495299D01*
X11677330Y-11495299D02*
X11696377Y-11485776D01*
X11696377Y-11485776D02*
X11724949Y-11485776D01*
X11724949Y-11485776D02*
X11743997Y-11495299D01*
X11820187Y-11695299D02*
X11829711Y-11685776D01*
X11829711Y-11685776D02*
X11848758Y-11657204D01*
X11848758Y-11657204D02*
X11858282Y-11638157D01*
X11858282Y-11638157D02*
X11867806Y-11609585D01*
X11867806Y-11609585D02*
X11877330Y-11561966D01*
X11877330Y-11561966D02*
X11877330Y-11523871D01*
X11877330Y-11523871D02*
X11867806Y-11476252D01*
X11867806Y-11476252D02*
X11858282Y-11447680D01*
X11858282Y-11447680D02*
X11848758Y-11428633D01*
X11848758Y-11428633D02*
X11829711Y-11400061D01*
X11829711Y-11400061D02*
X11820187Y-11390538D01*
D13*
X6614172Y-11741625D02*
X6614172Y-11841625D01*
X6564172Y-11791625D02*
X6664172Y-11791625D01*
D10*
X7029710Y-11883109D02*
X6915425Y-11883109D01*
X6972567Y-11883109D02*
X6972567Y-11683109D01*
X6972567Y-11683109D02*
X6953520Y-11711680D01*
X6953520Y-11711680D02*
X6934472Y-11730728D01*
X6934472Y-11730728D02*
X6915425Y-11740252D01*
X7115425Y-11864061D02*
X7124948Y-11873585D01*
X7124948Y-11873585D02*
X7115425Y-11883109D01*
X7115425Y-11883109D02*
X7105901Y-11873585D01*
X7105901Y-11873585D02*
X7115425Y-11864061D01*
X7115425Y-11864061D02*
X7115425Y-11883109D01*
X7248758Y-11683109D02*
X7267806Y-11683109D01*
X7267806Y-11683109D02*
X7286853Y-11692633D01*
X7286853Y-11692633D02*
X7296377Y-11702157D01*
X7296377Y-11702157D02*
X7305901Y-11721204D01*
X7305901Y-11721204D02*
X7315425Y-11759299D01*
X7315425Y-11759299D02*
X7315425Y-11806919D01*
X7315425Y-11806919D02*
X7305901Y-11845014D01*
X7305901Y-11845014D02*
X7296377Y-11864061D01*
X7296377Y-11864061D02*
X7286853Y-11873585D01*
X7286853Y-11873585D02*
X7267806Y-11883109D01*
X7267806Y-11883109D02*
X7248758Y-11883109D01*
X7248758Y-11883109D02*
X7229710Y-11873585D01*
X7229710Y-11873585D02*
X7220187Y-11864061D01*
X7220187Y-11864061D02*
X7210663Y-11845014D01*
X7210663Y-11845014D02*
X7201139Y-11806919D01*
X7201139Y-11806919D02*
X7201139Y-11759299D01*
X7201139Y-11759299D02*
X7210663Y-11721204D01*
X7210663Y-11721204D02*
X7220187Y-11702157D01*
X7220187Y-11702157D02*
X7229710Y-11692633D01*
X7229710Y-11692633D02*
X7248758Y-11683109D01*
X7439234Y-11683109D02*
X7458282Y-11683109D01*
X7458282Y-11683109D02*
X7477329Y-11692633D01*
X7477329Y-11692633D02*
X7486853Y-11702157D01*
X7486853Y-11702157D02*
X7496377Y-11721204D01*
X7496377Y-11721204D02*
X7505901Y-11759299D01*
X7505901Y-11759299D02*
X7505901Y-11806919D01*
X7505901Y-11806919D02*
X7496377Y-11845014D01*
X7496377Y-11845014D02*
X7486853Y-11864061D01*
X7486853Y-11864061D02*
X7477329Y-11873585D01*
X7477329Y-11873585D02*
X7458282Y-11883109D01*
X7458282Y-11883109D02*
X7439234Y-11883109D01*
X7439234Y-11883109D02*
X7420187Y-11873585D01*
X7420187Y-11873585D02*
X7410663Y-11864061D01*
X7410663Y-11864061D02*
X7401139Y-11845014D01*
X7401139Y-11845014D02*
X7391615Y-11806919D01*
X7391615Y-11806919D02*
X7391615Y-11759299D01*
X7391615Y-11759299D02*
X7401139Y-11721204D01*
X7401139Y-11721204D02*
X7410663Y-11702157D01*
X7410663Y-11702157D02*
X7420187Y-11692633D01*
X7420187Y-11692633D02*
X7439234Y-11683109D01*
X7629710Y-11683109D02*
X7648758Y-11683109D01*
X7648758Y-11683109D02*
X7667806Y-11692633D01*
X7667806Y-11692633D02*
X7677329Y-11702157D01*
X7677329Y-11702157D02*
X7686853Y-11721204D01*
X7686853Y-11721204D02*
X7696377Y-11759299D01*
X7696377Y-11759299D02*
X7696377Y-11806919D01*
X7696377Y-11806919D02*
X7686853Y-11845014D01*
X7686853Y-11845014D02*
X7677329Y-11864061D01*
X7677329Y-11864061D02*
X7667806Y-11873585D01*
X7667806Y-11873585D02*
X7648758Y-11883109D01*
X7648758Y-11883109D02*
X7629710Y-11883109D01*
X7629710Y-11883109D02*
X7610663Y-11873585D01*
X7610663Y-11873585D02*
X7601139Y-11864061D01*
X7601139Y-11864061D02*
X7591615Y-11845014D01*
X7591615Y-11845014D02*
X7582091Y-11806919D01*
X7582091Y-11806919D02*
X7582091Y-11759299D01*
X7582091Y-11759299D02*
X7591615Y-11721204D01*
X7591615Y-11721204D02*
X7601139Y-11702157D01*
X7601139Y-11702157D02*
X7610663Y-11692633D01*
X7610663Y-11692633D02*
X7629710Y-11683109D01*
X7782091Y-11883109D02*
X7782091Y-11749776D01*
X7782091Y-11768823D02*
X7791615Y-11759299D01*
X7791615Y-11759299D02*
X7810663Y-11749776D01*
X7810663Y-11749776D02*
X7839234Y-11749776D01*
X7839234Y-11749776D02*
X7858282Y-11759299D01*
X7858282Y-11759299D02*
X7867806Y-11778347D01*
X7867806Y-11778347D02*
X7867806Y-11883109D01*
X7867806Y-11778347D02*
X7877329Y-11759299D01*
X7877329Y-11759299D02*
X7896377Y-11749776D01*
X7896377Y-11749776D02*
X7924948Y-11749776D01*
X7924948Y-11749776D02*
X7943996Y-11759299D01*
X7943996Y-11759299D02*
X7953520Y-11778347D01*
X7953520Y-11778347D02*
X7953520Y-11883109D01*
X8048758Y-11883109D02*
X8048758Y-11749776D01*
X8048758Y-11768823D02*
X8058282Y-11759299D01*
X8058282Y-11759299D02*
X8077329Y-11749776D01*
X8077329Y-11749776D02*
X8105901Y-11749776D01*
X8105901Y-11749776D02*
X8124949Y-11759299D01*
X8124949Y-11759299D02*
X8134472Y-11778347D01*
X8134472Y-11778347D02*
X8134472Y-11883109D01*
X8134472Y-11778347D02*
X8143996Y-11759299D01*
X8143996Y-11759299D02*
X8163044Y-11749776D01*
X8163044Y-11749776D02*
X8191615Y-11749776D01*
X8191615Y-11749776D02*
X8210663Y-11759299D01*
X8210663Y-11759299D02*
X8220187Y-11778347D01*
X8220187Y-11778347D02*
X8220187Y-11883109D01*
X8610663Y-11673585D02*
X8439234Y-11930728D01*
X8867806Y-11683109D02*
X8886854Y-11683109D01*
X8886854Y-11683109D02*
X8905901Y-11692633D01*
X8905901Y-11692633D02*
X8915425Y-11702157D01*
X8915425Y-11702157D02*
X8924949Y-11721204D01*
X8924949Y-11721204D02*
X8934473Y-11759299D01*
X8934473Y-11759299D02*
X8934473Y-11806919D01*
X8934473Y-11806919D02*
X8924949Y-11845014D01*
X8924949Y-11845014D02*
X8915425Y-11864061D01*
X8915425Y-11864061D02*
X8905901Y-11873585D01*
X8905901Y-11873585D02*
X8886854Y-11883109D01*
X8886854Y-11883109D02*
X8867806Y-11883109D01*
X8867806Y-11883109D02*
X8848758Y-11873585D01*
X8848758Y-11873585D02*
X8839234Y-11864061D01*
X8839234Y-11864061D02*
X8829711Y-11845014D01*
X8829711Y-11845014D02*
X8820187Y-11806919D01*
X8820187Y-11806919D02*
X8820187Y-11759299D01*
X8820187Y-11759299D02*
X8829711Y-11721204D01*
X8829711Y-11721204D02*
X8839234Y-11702157D01*
X8839234Y-11702157D02*
X8848758Y-11692633D01*
X8848758Y-11692633D02*
X8867806Y-11683109D01*
X9020187Y-11864061D02*
X9029711Y-11873585D01*
X9029711Y-11873585D02*
X9020187Y-11883109D01*
X9020187Y-11883109D02*
X9010663Y-11873585D01*
X9010663Y-11873585D02*
X9020187Y-11864061D01*
X9020187Y-11864061D02*
X9020187Y-11883109D01*
X9153520Y-11683109D02*
X9172568Y-11683109D01*
X9172568Y-11683109D02*
X9191615Y-11692633D01*
X9191615Y-11692633D02*
X9201139Y-11702157D01*
X9201139Y-11702157D02*
X9210663Y-11721204D01*
X9210663Y-11721204D02*
X9220187Y-11759299D01*
X9220187Y-11759299D02*
X9220187Y-11806919D01*
X9220187Y-11806919D02*
X9210663Y-11845014D01*
X9210663Y-11845014D02*
X9201139Y-11864061D01*
X9201139Y-11864061D02*
X9191615Y-11873585D01*
X9191615Y-11873585D02*
X9172568Y-11883109D01*
X9172568Y-11883109D02*
X9153520Y-11883109D01*
X9153520Y-11883109D02*
X9134473Y-11873585D01*
X9134473Y-11873585D02*
X9124949Y-11864061D01*
X9124949Y-11864061D02*
X9115425Y-11845014D01*
X9115425Y-11845014D02*
X9105901Y-11806919D01*
X9105901Y-11806919D02*
X9105901Y-11759299D01*
X9105901Y-11759299D02*
X9115425Y-11721204D01*
X9115425Y-11721204D02*
X9124949Y-11702157D01*
X9124949Y-11702157D02*
X9134473Y-11692633D01*
X9134473Y-11692633D02*
X9153520Y-11683109D01*
X9286854Y-11683109D02*
X9410663Y-11683109D01*
X9410663Y-11683109D02*
X9343996Y-11759299D01*
X9343996Y-11759299D02*
X9372568Y-11759299D01*
X9372568Y-11759299D02*
X9391615Y-11768823D01*
X9391615Y-11768823D02*
X9401139Y-11778347D01*
X9401139Y-11778347D02*
X9410663Y-11797395D01*
X9410663Y-11797395D02*
X9410663Y-11845014D01*
X9410663Y-11845014D02*
X9401139Y-11864061D01*
X9401139Y-11864061D02*
X9391615Y-11873585D01*
X9391615Y-11873585D02*
X9372568Y-11883109D01*
X9372568Y-11883109D02*
X9315425Y-11883109D01*
X9315425Y-11883109D02*
X9296377Y-11873585D01*
X9296377Y-11873585D02*
X9286854Y-11864061D01*
X9505901Y-11883109D02*
X9543996Y-11883109D01*
X9543996Y-11883109D02*
X9563044Y-11873585D01*
X9563044Y-11873585D02*
X9572568Y-11864061D01*
X9572568Y-11864061D02*
X9591615Y-11835490D01*
X9591615Y-11835490D02*
X9601139Y-11797395D01*
X9601139Y-11797395D02*
X9601139Y-11721204D01*
X9601139Y-11721204D02*
X9591615Y-11702157D01*
X9591615Y-11702157D02*
X9582092Y-11692633D01*
X9582092Y-11692633D02*
X9563044Y-11683109D01*
X9563044Y-11683109D02*
X9524949Y-11683109D01*
X9524949Y-11683109D02*
X9505901Y-11692633D01*
X9505901Y-11692633D02*
X9496377Y-11702157D01*
X9496377Y-11702157D02*
X9486854Y-11721204D01*
X9486854Y-11721204D02*
X9486854Y-11768823D01*
X9486854Y-11768823D02*
X9496377Y-11787871D01*
X9496377Y-11787871D02*
X9505901Y-11797395D01*
X9505901Y-11797395D02*
X9524949Y-11806919D01*
X9524949Y-11806919D02*
X9563044Y-11806919D01*
X9563044Y-11806919D02*
X9582092Y-11797395D01*
X9582092Y-11797395D02*
X9591615Y-11787871D01*
X9591615Y-11787871D02*
X9601139Y-11768823D01*
X9772568Y-11749776D02*
X9772568Y-11883109D01*
X9724949Y-11673585D02*
X9677330Y-11816442D01*
X9677330Y-11816442D02*
X9801139Y-11816442D01*
X9867806Y-11683109D02*
X9867806Y-11721204D01*
X9943996Y-11683109D02*
X9943996Y-11721204D01*
X10239235Y-11959299D02*
X10229711Y-11949776D01*
X10229711Y-11949776D02*
X10210663Y-11921204D01*
X10210663Y-11921204D02*
X10201139Y-11902157D01*
X10201139Y-11902157D02*
X10191616Y-11873585D01*
X10191616Y-11873585D02*
X10182092Y-11825966D01*
X10182092Y-11825966D02*
X10182092Y-11787871D01*
X10182092Y-11787871D02*
X10191616Y-11740252D01*
X10191616Y-11740252D02*
X10201139Y-11711680D01*
X10201139Y-11711680D02*
X10210663Y-11692633D01*
X10210663Y-11692633D02*
X10229711Y-11664061D01*
X10229711Y-11664061D02*
X10239235Y-11654538D01*
X10420187Y-11883109D02*
X10305901Y-11883109D01*
X10363044Y-11883109D02*
X10363044Y-11683109D01*
X10363044Y-11683109D02*
X10343996Y-11711680D01*
X10343996Y-11711680D02*
X10324949Y-11730728D01*
X10324949Y-11730728D02*
X10305901Y-11740252D01*
X10486854Y-11683109D02*
X10610663Y-11683109D01*
X10610663Y-11683109D02*
X10543996Y-11759299D01*
X10543996Y-11759299D02*
X10572568Y-11759299D01*
X10572568Y-11759299D02*
X10591616Y-11768823D01*
X10591616Y-11768823D02*
X10601139Y-11778347D01*
X10601139Y-11778347D02*
X10610663Y-11797395D01*
X10610663Y-11797395D02*
X10610663Y-11845014D01*
X10610663Y-11845014D02*
X10601139Y-11864061D01*
X10601139Y-11864061D02*
X10591616Y-11873585D01*
X10591616Y-11873585D02*
X10572568Y-11883109D01*
X10572568Y-11883109D02*
X10515425Y-11883109D01*
X10515425Y-11883109D02*
X10496377Y-11873585D01*
X10496377Y-11873585D02*
X10486854Y-11864061D01*
X10791616Y-11683109D02*
X10696377Y-11683109D01*
X10696377Y-11683109D02*
X10686854Y-11778347D01*
X10686854Y-11778347D02*
X10696377Y-11768823D01*
X10696377Y-11768823D02*
X10715425Y-11759299D01*
X10715425Y-11759299D02*
X10763044Y-11759299D01*
X10763044Y-11759299D02*
X10782092Y-11768823D01*
X10782092Y-11768823D02*
X10791616Y-11778347D01*
X10791616Y-11778347D02*
X10801139Y-11797395D01*
X10801139Y-11797395D02*
X10801139Y-11845014D01*
X10801139Y-11845014D02*
X10791616Y-11864061D01*
X10791616Y-11864061D02*
X10782092Y-11873585D01*
X10782092Y-11873585D02*
X10763044Y-11883109D01*
X10763044Y-11883109D02*
X10715425Y-11883109D01*
X10715425Y-11883109D02*
X10696377Y-11873585D01*
X10696377Y-11873585D02*
X10686854Y-11864061D01*
X11039235Y-11883109D02*
X11039235Y-11683109D01*
X11124949Y-11883109D02*
X11124949Y-11778347D01*
X11124949Y-11778347D02*
X11115425Y-11759299D01*
X11115425Y-11759299D02*
X11096378Y-11749776D01*
X11096378Y-11749776D02*
X11067806Y-11749776D01*
X11067806Y-11749776D02*
X11048758Y-11759299D01*
X11048758Y-11759299D02*
X11039235Y-11768823D01*
X11248758Y-11883109D02*
X11229711Y-11873585D01*
X11229711Y-11873585D02*
X11220187Y-11864061D01*
X11220187Y-11864061D02*
X11210663Y-11845014D01*
X11210663Y-11845014D02*
X11210663Y-11787871D01*
X11210663Y-11787871D02*
X11220187Y-11768823D01*
X11220187Y-11768823D02*
X11229711Y-11759299D01*
X11229711Y-11759299D02*
X11248758Y-11749776D01*
X11248758Y-11749776D02*
X11277330Y-11749776D01*
X11277330Y-11749776D02*
X11296377Y-11759299D01*
X11296377Y-11759299D02*
X11305901Y-11768823D01*
X11305901Y-11768823D02*
X11315425Y-11787871D01*
X11315425Y-11787871D02*
X11315425Y-11845014D01*
X11315425Y-11845014D02*
X11305901Y-11864061D01*
X11305901Y-11864061D02*
X11296377Y-11873585D01*
X11296377Y-11873585D02*
X11277330Y-11883109D01*
X11277330Y-11883109D02*
X11248758Y-11883109D01*
X11429711Y-11883109D02*
X11410663Y-11873585D01*
X11410663Y-11873585D02*
X11401139Y-11854538D01*
X11401139Y-11854538D02*
X11401139Y-11683109D01*
X11582092Y-11873585D02*
X11563044Y-11883109D01*
X11563044Y-11883109D02*
X11524949Y-11883109D01*
X11524949Y-11883109D02*
X11505901Y-11873585D01*
X11505901Y-11873585D02*
X11496377Y-11854538D01*
X11496377Y-11854538D02*
X11496377Y-11778347D01*
X11496377Y-11778347D02*
X11505901Y-11759299D01*
X11505901Y-11759299D02*
X11524949Y-11749776D01*
X11524949Y-11749776D02*
X11563044Y-11749776D01*
X11563044Y-11749776D02*
X11582092Y-11759299D01*
X11582092Y-11759299D02*
X11591616Y-11778347D01*
X11591616Y-11778347D02*
X11591616Y-11797395D01*
X11591616Y-11797395D02*
X11496377Y-11816442D01*
X11667806Y-11873585D02*
X11686854Y-11883109D01*
X11686854Y-11883109D02*
X11724949Y-11883109D01*
X11724949Y-11883109D02*
X11743997Y-11873585D01*
X11743997Y-11873585D02*
X11753520Y-11854538D01*
X11753520Y-11854538D02*
X11753520Y-11845014D01*
X11753520Y-11845014D02*
X11743997Y-11825966D01*
X11743997Y-11825966D02*
X11724949Y-11816442D01*
X11724949Y-11816442D02*
X11696377Y-11816442D01*
X11696377Y-11816442D02*
X11677330Y-11806919D01*
X11677330Y-11806919D02*
X11667806Y-11787871D01*
X11667806Y-11787871D02*
X11667806Y-11778347D01*
X11667806Y-11778347D02*
X11677330Y-11759299D01*
X11677330Y-11759299D02*
X11696377Y-11749776D01*
X11696377Y-11749776D02*
X11724949Y-11749776D01*
X11724949Y-11749776D02*
X11743997Y-11759299D01*
X11820187Y-11959299D02*
X11829711Y-11949776D01*
X11829711Y-11949776D02*
X11848758Y-11921204D01*
X11848758Y-11921204D02*
X11858282Y-11902157D01*
X11858282Y-11902157D02*
X11867806Y-11873585D01*
X11867806Y-11873585D02*
X11877330Y-11825966D01*
X11877330Y-11825966D02*
X11877330Y-11787871D01*
X11877330Y-11787871D02*
X11867806Y-11740252D01*
X11867806Y-11740252D02*
X11858282Y-11711680D01*
X11858282Y-11711680D02*
X11848758Y-11692633D01*
X11848758Y-11692633D02*
X11829711Y-11664061D01*
X11829711Y-11664061D02*
X11820187Y-11654538D01*
X6634883Y-12126337D02*
X6634883Y-11984914D01*
X6493460Y-11984914D01*
X6493460Y-12126337D01*
X6634883Y-12126337D01*
X6905901Y-11947109D02*
X7029710Y-11947109D01*
X7029710Y-11947109D02*
X6963044Y-12023299D01*
X6963044Y-12023299D02*
X6991615Y-12023299D01*
X6991615Y-12023299D02*
X7010663Y-12032823D01*
X7010663Y-12032823D02*
X7020187Y-12042347D01*
X7020187Y-12042347D02*
X7029710Y-12061395D01*
X7029710Y-12061395D02*
X7029710Y-12109014D01*
X7029710Y-12109014D02*
X7020187Y-12128061D01*
X7020187Y-12128061D02*
X7010663Y-12137585D01*
X7010663Y-12137585D02*
X6991615Y-12147109D01*
X6991615Y-12147109D02*
X6934472Y-12147109D01*
X6934472Y-12147109D02*
X6915425Y-12137585D01*
X6915425Y-12137585D02*
X6905901Y-12128061D01*
X7115425Y-12128061D02*
X7124948Y-12137585D01*
X7124948Y-12137585D02*
X7115425Y-12147109D01*
X7115425Y-12147109D02*
X7105901Y-12137585D01*
X7105901Y-12137585D02*
X7115425Y-12128061D01*
X7115425Y-12128061D02*
X7115425Y-12147109D01*
X7201139Y-11966157D02*
X7210663Y-11956633D01*
X7210663Y-11956633D02*
X7229710Y-11947109D01*
X7229710Y-11947109D02*
X7277329Y-11947109D01*
X7277329Y-11947109D02*
X7296377Y-11956633D01*
X7296377Y-11956633D02*
X7305901Y-11966157D01*
X7305901Y-11966157D02*
X7315425Y-11985204D01*
X7315425Y-11985204D02*
X7315425Y-12004252D01*
X7315425Y-12004252D02*
X7305901Y-12032823D01*
X7305901Y-12032823D02*
X7191615Y-12147109D01*
X7191615Y-12147109D02*
X7315425Y-12147109D01*
X7439234Y-11947109D02*
X7458282Y-11947109D01*
X7458282Y-11947109D02*
X7477329Y-11956633D01*
X7477329Y-11956633D02*
X7486853Y-11966157D01*
X7486853Y-11966157D02*
X7496377Y-11985204D01*
X7496377Y-11985204D02*
X7505901Y-12023299D01*
X7505901Y-12023299D02*
X7505901Y-12070919D01*
X7505901Y-12070919D02*
X7496377Y-12109014D01*
X7496377Y-12109014D02*
X7486853Y-12128061D01*
X7486853Y-12128061D02*
X7477329Y-12137585D01*
X7477329Y-12137585D02*
X7458282Y-12147109D01*
X7458282Y-12147109D02*
X7439234Y-12147109D01*
X7439234Y-12147109D02*
X7420187Y-12137585D01*
X7420187Y-12137585D02*
X7410663Y-12128061D01*
X7410663Y-12128061D02*
X7401139Y-12109014D01*
X7401139Y-12109014D02*
X7391615Y-12070919D01*
X7391615Y-12070919D02*
X7391615Y-12023299D01*
X7391615Y-12023299D02*
X7401139Y-11985204D01*
X7401139Y-11985204D02*
X7410663Y-11966157D01*
X7410663Y-11966157D02*
X7420187Y-11956633D01*
X7420187Y-11956633D02*
X7439234Y-11947109D01*
X7629710Y-11947109D02*
X7648758Y-11947109D01*
X7648758Y-11947109D02*
X7667806Y-11956633D01*
X7667806Y-11956633D02*
X7677329Y-11966157D01*
X7677329Y-11966157D02*
X7686853Y-11985204D01*
X7686853Y-11985204D02*
X7696377Y-12023299D01*
X7696377Y-12023299D02*
X7696377Y-12070919D01*
X7696377Y-12070919D02*
X7686853Y-12109014D01*
X7686853Y-12109014D02*
X7677329Y-12128061D01*
X7677329Y-12128061D02*
X7667806Y-12137585D01*
X7667806Y-12137585D02*
X7648758Y-12147109D01*
X7648758Y-12147109D02*
X7629710Y-12147109D01*
X7629710Y-12147109D02*
X7610663Y-12137585D01*
X7610663Y-12137585D02*
X7601139Y-12128061D01*
X7601139Y-12128061D02*
X7591615Y-12109014D01*
X7591615Y-12109014D02*
X7582091Y-12070919D01*
X7582091Y-12070919D02*
X7582091Y-12023299D01*
X7582091Y-12023299D02*
X7591615Y-11985204D01*
X7591615Y-11985204D02*
X7601139Y-11966157D01*
X7601139Y-11966157D02*
X7610663Y-11956633D01*
X7610663Y-11956633D02*
X7629710Y-11947109D01*
X7782091Y-12147109D02*
X7782091Y-12013776D01*
X7782091Y-12032823D02*
X7791615Y-12023299D01*
X7791615Y-12023299D02*
X7810663Y-12013776D01*
X7810663Y-12013776D02*
X7839234Y-12013776D01*
X7839234Y-12013776D02*
X7858282Y-12023299D01*
X7858282Y-12023299D02*
X7867806Y-12042347D01*
X7867806Y-12042347D02*
X7867806Y-12147109D01*
X7867806Y-12042347D02*
X7877329Y-12023299D01*
X7877329Y-12023299D02*
X7896377Y-12013776D01*
X7896377Y-12013776D02*
X7924948Y-12013776D01*
X7924948Y-12013776D02*
X7943996Y-12023299D01*
X7943996Y-12023299D02*
X7953520Y-12042347D01*
X7953520Y-12042347D02*
X7953520Y-12147109D01*
X8048758Y-12147109D02*
X8048758Y-12013776D01*
X8048758Y-12032823D02*
X8058282Y-12023299D01*
X8058282Y-12023299D02*
X8077329Y-12013776D01*
X8077329Y-12013776D02*
X8105901Y-12013776D01*
X8105901Y-12013776D02*
X8124949Y-12023299D01*
X8124949Y-12023299D02*
X8134472Y-12042347D01*
X8134472Y-12042347D02*
X8134472Y-12147109D01*
X8134472Y-12042347D02*
X8143996Y-12023299D01*
X8143996Y-12023299D02*
X8163044Y-12013776D01*
X8163044Y-12013776D02*
X8191615Y-12013776D01*
X8191615Y-12013776D02*
X8210663Y-12023299D01*
X8210663Y-12023299D02*
X8220187Y-12042347D01*
X8220187Y-12042347D02*
X8220187Y-12147109D01*
X8610663Y-11937585D02*
X8439234Y-12194728D01*
X8867806Y-11947109D02*
X8886854Y-11947109D01*
X8886854Y-11947109D02*
X8905901Y-11956633D01*
X8905901Y-11956633D02*
X8915425Y-11966157D01*
X8915425Y-11966157D02*
X8924949Y-11985204D01*
X8924949Y-11985204D02*
X8934473Y-12023299D01*
X8934473Y-12023299D02*
X8934473Y-12070919D01*
X8934473Y-12070919D02*
X8924949Y-12109014D01*
X8924949Y-12109014D02*
X8915425Y-12128061D01*
X8915425Y-12128061D02*
X8905901Y-12137585D01*
X8905901Y-12137585D02*
X8886854Y-12147109D01*
X8886854Y-12147109D02*
X8867806Y-12147109D01*
X8867806Y-12147109D02*
X8848758Y-12137585D01*
X8848758Y-12137585D02*
X8839234Y-12128061D01*
X8839234Y-12128061D02*
X8829711Y-12109014D01*
X8829711Y-12109014D02*
X8820187Y-12070919D01*
X8820187Y-12070919D02*
X8820187Y-12023299D01*
X8820187Y-12023299D02*
X8829711Y-11985204D01*
X8829711Y-11985204D02*
X8839234Y-11966157D01*
X8839234Y-11966157D02*
X8848758Y-11956633D01*
X8848758Y-11956633D02*
X8867806Y-11947109D01*
X9020187Y-12128061D02*
X9029711Y-12137585D01*
X9029711Y-12137585D02*
X9020187Y-12147109D01*
X9020187Y-12147109D02*
X9010663Y-12137585D01*
X9010663Y-12137585D02*
X9020187Y-12128061D01*
X9020187Y-12128061D02*
X9020187Y-12147109D01*
X9220187Y-12147109D02*
X9105901Y-12147109D01*
X9163044Y-12147109D02*
X9163044Y-11947109D01*
X9163044Y-11947109D02*
X9143996Y-11975680D01*
X9143996Y-11975680D02*
X9124949Y-11994728D01*
X9124949Y-11994728D02*
X9105901Y-12004252D01*
X9296377Y-11966157D02*
X9305901Y-11956633D01*
X9305901Y-11956633D02*
X9324949Y-11947109D01*
X9324949Y-11947109D02*
X9372568Y-11947109D01*
X9372568Y-11947109D02*
X9391615Y-11956633D01*
X9391615Y-11956633D02*
X9401139Y-11966157D01*
X9401139Y-11966157D02*
X9410663Y-11985204D01*
X9410663Y-11985204D02*
X9410663Y-12004252D01*
X9410663Y-12004252D02*
X9401139Y-12032823D01*
X9401139Y-12032823D02*
X9286854Y-12147109D01*
X9286854Y-12147109D02*
X9410663Y-12147109D01*
X9582092Y-11947109D02*
X9543996Y-11947109D01*
X9543996Y-11947109D02*
X9524949Y-11956633D01*
X9524949Y-11956633D02*
X9515425Y-11966157D01*
X9515425Y-11966157D02*
X9496377Y-11994728D01*
X9496377Y-11994728D02*
X9486854Y-12032823D01*
X9486854Y-12032823D02*
X9486854Y-12109014D01*
X9486854Y-12109014D02*
X9496377Y-12128061D01*
X9496377Y-12128061D02*
X9505901Y-12137585D01*
X9505901Y-12137585D02*
X9524949Y-12147109D01*
X9524949Y-12147109D02*
X9563044Y-12147109D01*
X9563044Y-12147109D02*
X9582092Y-12137585D01*
X9582092Y-12137585D02*
X9591615Y-12128061D01*
X9591615Y-12128061D02*
X9601139Y-12109014D01*
X9601139Y-12109014D02*
X9601139Y-12061395D01*
X9601139Y-12061395D02*
X9591615Y-12042347D01*
X9591615Y-12042347D02*
X9582092Y-12032823D01*
X9582092Y-12032823D02*
X9563044Y-12023299D01*
X9563044Y-12023299D02*
X9524949Y-12023299D01*
X9524949Y-12023299D02*
X9505901Y-12032823D01*
X9505901Y-12032823D02*
X9496377Y-12042347D01*
X9496377Y-12042347D02*
X9486854Y-12061395D01*
X9724949Y-11947109D02*
X9743996Y-11947109D01*
X9743996Y-11947109D02*
X9763044Y-11956633D01*
X9763044Y-11956633D02*
X9772568Y-11966157D01*
X9772568Y-11966157D02*
X9782092Y-11985204D01*
X9782092Y-11985204D02*
X9791615Y-12023299D01*
X9791615Y-12023299D02*
X9791615Y-12070919D01*
X9791615Y-12070919D02*
X9782092Y-12109014D01*
X9782092Y-12109014D02*
X9772568Y-12128061D01*
X9772568Y-12128061D02*
X9763044Y-12137585D01*
X9763044Y-12137585D02*
X9743996Y-12147109D01*
X9743996Y-12147109D02*
X9724949Y-12147109D01*
X9724949Y-12147109D02*
X9705901Y-12137585D01*
X9705901Y-12137585D02*
X9696377Y-12128061D01*
X9696377Y-12128061D02*
X9686854Y-12109014D01*
X9686854Y-12109014D02*
X9677330Y-12070919D01*
X9677330Y-12070919D02*
X9677330Y-12023299D01*
X9677330Y-12023299D02*
X9686854Y-11985204D01*
X9686854Y-11985204D02*
X9696377Y-11966157D01*
X9696377Y-11966157D02*
X9705901Y-11956633D01*
X9705901Y-11956633D02*
X9724949Y-11947109D01*
X9867806Y-11947109D02*
X9867806Y-11985204D01*
X9943996Y-11947109D02*
X9943996Y-11985204D01*
X10239235Y-12223299D02*
X10229711Y-12213776D01*
X10229711Y-12213776D02*
X10210663Y-12185204D01*
X10210663Y-12185204D02*
X10201139Y-12166157D01*
X10201139Y-12166157D02*
X10191616Y-12137585D01*
X10191616Y-12137585D02*
X10182092Y-12089966D01*
X10182092Y-12089966D02*
X10182092Y-12051871D01*
X10182092Y-12051871D02*
X10191616Y-12004252D01*
X10191616Y-12004252D02*
X10201139Y-11975680D01*
X10201139Y-11975680D02*
X10210663Y-11956633D01*
X10210663Y-11956633D02*
X10229711Y-11928061D01*
X10229711Y-11928061D02*
X10239235Y-11918538D01*
X10401139Y-12013776D02*
X10401139Y-12147109D01*
X10353520Y-11937585D02*
X10305901Y-12080442D01*
X10305901Y-12080442D02*
X10429711Y-12080442D01*
X10658282Y-12147109D02*
X10658282Y-11947109D01*
X10743997Y-12147109D02*
X10743997Y-12042347D01*
X10743997Y-12042347D02*
X10734473Y-12023299D01*
X10734473Y-12023299D02*
X10715425Y-12013776D01*
X10715425Y-12013776D02*
X10686854Y-12013776D01*
X10686854Y-12013776D02*
X10667806Y-12023299D01*
X10667806Y-12023299D02*
X10658282Y-12032823D01*
X10867806Y-12147109D02*
X10848758Y-12137585D01*
X10848758Y-12137585D02*
X10839235Y-12128061D01*
X10839235Y-12128061D02*
X10829711Y-12109014D01*
X10829711Y-12109014D02*
X10829711Y-12051871D01*
X10829711Y-12051871D02*
X10839235Y-12032823D01*
X10839235Y-12032823D02*
X10848758Y-12023299D01*
X10848758Y-12023299D02*
X10867806Y-12013776D01*
X10867806Y-12013776D02*
X10896378Y-12013776D01*
X10896378Y-12013776D02*
X10915425Y-12023299D01*
X10915425Y-12023299D02*
X10924949Y-12032823D01*
X10924949Y-12032823D02*
X10934473Y-12051871D01*
X10934473Y-12051871D02*
X10934473Y-12109014D01*
X10934473Y-12109014D02*
X10924949Y-12128061D01*
X10924949Y-12128061D02*
X10915425Y-12137585D01*
X10915425Y-12137585D02*
X10896378Y-12147109D01*
X10896378Y-12147109D02*
X10867806Y-12147109D01*
X11048758Y-12147109D02*
X11029711Y-12137585D01*
X11029711Y-12137585D02*
X11020187Y-12118538D01*
X11020187Y-12118538D02*
X11020187Y-11947109D01*
X11201139Y-12137585D02*
X11182092Y-12147109D01*
X11182092Y-12147109D02*
X11143997Y-12147109D01*
X11143997Y-12147109D02*
X11124949Y-12137585D01*
X11124949Y-12137585D02*
X11115425Y-12118538D01*
X11115425Y-12118538D02*
X11115425Y-12042347D01*
X11115425Y-12042347D02*
X11124949Y-12023299D01*
X11124949Y-12023299D02*
X11143997Y-12013776D01*
X11143997Y-12013776D02*
X11182092Y-12013776D01*
X11182092Y-12013776D02*
X11201139Y-12023299D01*
X11201139Y-12023299D02*
X11210663Y-12042347D01*
X11210663Y-12042347D02*
X11210663Y-12061395D01*
X11210663Y-12061395D02*
X11115425Y-12080442D01*
X11286854Y-12137585D02*
X11305901Y-12147109D01*
X11305901Y-12147109D02*
X11343996Y-12147109D01*
X11343996Y-12147109D02*
X11363044Y-12137585D01*
X11363044Y-12137585D02*
X11372568Y-12118538D01*
X11372568Y-12118538D02*
X11372568Y-12109014D01*
X11372568Y-12109014D02*
X11363044Y-12089966D01*
X11363044Y-12089966D02*
X11343996Y-12080442D01*
X11343996Y-12080442D02*
X11315425Y-12080442D01*
X11315425Y-12080442D02*
X11296377Y-12070919D01*
X11296377Y-12070919D02*
X11286854Y-12051871D01*
X11286854Y-12051871D02*
X11286854Y-12042347D01*
X11286854Y-12042347D02*
X11296377Y-12023299D01*
X11296377Y-12023299D02*
X11315425Y-12013776D01*
X11315425Y-12013776D02*
X11343996Y-12013776D01*
X11343996Y-12013776D02*
X11363044Y-12023299D01*
X11439235Y-12223299D02*
X11448758Y-12213776D01*
X11448758Y-12213776D02*
X11467806Y-12185204D01*
X11467806Y-12185204D02*
X11477330Y-12166157D01*
X11477330Y-12166157D02*
X11486854Y-12137585D01*
X11486854Y-12137585D02*
X11496377Y-12089966D01*
X11496377Y-12089966D02*
X11496377Y-12051871D01*
X11496377Y-12051871D02*
X11486854Y-12004252D01*
X11486854Y-12004252D02*
X11477330Y-11975680D01*
X11477330Y-11975680D02*
X11467806Y-11956633D01*
X11467806Y-11956633D02*
X11448758Y-11928061D01*
X11448758Y-11928061D02*
X11439235Y-11918538D01*
M02*
