%TF.GenerationSoftware,KiCad,Pcbnew,7.0.5-4d25ed1034~172~ubuntu22.04.1*%
%TF.CreationDate,2023-06-04T17:51:53+03:00*%
%TF.ProjectId,STM32L475daughter,53544d33-324c-4343-9735-646175676874,rev?*%
%TF.SameCoordinates,Original*%
%TF.FileFunction,Drillmap*%
%TF.FilePolarity,Positive*%
%FSLAX45Y45*%
G04 Gerber Fmt 4.5, Leading zero omitted, Abs format (unit mm)*
G04 Created by KiCad (PCBNEW 7.0.5-4d25ed1034~172~ubuntu22.04.1) date 2023-06-04 17:51:53*
%MOMM*%
%LPD*%
G01*
G04 APERTURE LIST*
%ADD10C,0.200000*%
G04 APERTURE END LIST*
D10*
X11616281Y-10473450D02*
X11614051Y-9472371D01*
X7084202Y-4926610D02*
X13615197Y-4926993D01*
X14046094Y-5336196D02*
G75*
G03*
X13615197Y-4926993I-405005J4996D01*
G01*
X7084202Y-4926613D02*
G75*
G03*
X6675000Y-5357500I-5003J-404997D01*
G01*
X11755000Y-10612500D02*
X13636304Y-10613586D01*
X8774007Y-9323129D02*
X11474204Y-9319530D01*
X11616284Y-10473450D02*
G75*
G03*
X11755000Y-10612500I128796J-10230D01*
G01*
X8656115Y-10463040D02*
X8653885Y-9461960D01*
X6678905Y-10193804D02*
G75*
G03*
X7109803Y-10603007I405005J-4996D01*
G01*
X14045507Y-10182697D02*
X14046086Y-5336196D01*
X8774006Y-9323127D02*
G75*
G03*
X8653885Y-9461960I8704J-128913D01*
G01*
X11614051Y-9472371D02*
G75*
G03*
X11474204Y-9319530I-159051J-5129D01*
G01*
X7109803Y-10603007D02*
X8535994Y-10601871D01*
X6678914Y-10193804D02*
X6675000Y-5357500D01*
X13636304Y-10613595D02*
G75*
G03*
X14045507Y-10182697I4996J405005D01*
G01*
X8535994Y-10601873D02*
G75*
G03*
X8656115Y-10463040I-8704J128913D01*
G01*
X6924948Y-10935109D02*
X6924948Y-10735109D01*
X6924948Y-10735109D02*
X6972567Y-10735109D01*
X6972567Y-10735109D02*
X7001139Y-10744633D01*
X7001139Y-10744633D02*
X7020187Y-10763681D01*
X7020187Y-10763681D02*
X7029710Y-10782728D01*
X7029710Y-10782728D02*
X7039234Y-10820823D01*
X7039234Y-10820823D02*
X7039234Y-10849395D01*
X7039234Y-10849395D02*
X7029710Y-10887490D01*
X7029710Y-10887490D02*
X7020187Y-10906538D01*
X7020187Y-10906538D02*
X7001139Y-10925585D01*
X7001139Y-10925585D02*
X6972567Y-10935109D01*
X6972567Y-10935109D02*
X6924948Y-10935109D01*
X7124948Y-10935109D02*
X7124948Y-10801776D01*
X7124948Y-10839871D02*
X7134472Y-10820823D01*
X7134472Y-10820823D02*
X7143996Y-10811300D01*
X7143996Y-10811300D02*
X7163044Y-10801776D01*
X7163044Y-10801776D02*
X7182091Y-10801776D01*
X7248758Y-10935109D02*
X7248758Y-10801776D01*
X7248758Y-10735109D02*
X7239234Y-10744633D01*
X7239234Y-10744633D02*
X7248758Y-10754157D01*
X7248758Y-10754157D02*
X7258282Y-10744633D01*
X7258282Y-10744633D02*
X7248758Y-10735109D01*
X7248758Y-10735109D02*
X7248758Y-10754157D01*
X7372567Y-10935109D02*
X7353520Y-10925585D01*
X7353520Y-10925585D02*
X7343996Y-10906538D01*
X7343996Y-10906538D02*
X7343996Y-10735109D01*
X7477329Y-10935109D02*
X7458282Y-10925585D01*
X7458282Y-10925585D02*
X7448758Y-10906538D01*
X7448758Y-10906538D02*
X7448758Y-10735109D01*
X7705901Y-10935109D02*
X7705901Y-10735109D01*
X7705901Y-10735109D02*
X7772568Y-10877966D01*
X7772568Y-10877966D02*
X7839234Y-10735109D01*
X7839234Y-10735109D02*
X7839234Y-10935109D01*
X8020187Y-10935109D02*
X8020187Y-10830347D01*
X8020187Y-10830347D02*
X8010663Y-10811300D01*
X8010663Y-10811300D02*
X7991615Y-10801776D01*
X7991615Y-10801776D02*
X7953520Y-10801776D01*
X7953520Y-10801776D02*
X7934472Y-10811300D01*
X8020187Y-10925585D02*
X8001139Y-10935109D01*
X8001139Y-10935109D02*
X7953520Y-10935109D01*
X7953520Y-10935109D02*
X7934472Y-10925585D01*
X7934472Y-10925585D02*
X7924948Y-10906538D01*
X7924948Y-10906538D02*
X7924948Y-10887490D01*
X7924948Y-10887490D02*
X7934472Y-10868442D01*
X7934472Y-10868442D02*
X7953520Y-10858919D01*
X7953520Y-10858919D02*
X8001139Y-10858919D01*
X8001139Y-10858919D02*
X8020187Y-10849395D01*
X8115425Y-10801776D02*
X8115425Y-11001776D01*
X8115425Y-10811300D02*
X8134472Y-10801776D01*
X8134472Y-10801776D02*
X8172568Y-10801776D01*
X8172568Y-10801776D02*
X8191615Y-10811300D01*
X8191615Y-10811300D02*
X8201139Y-10820823D01*
X8201139Y-10820823D02*
X8210663Y-10839871D01*
X8210663Y-10839871D02*
X8210663Y-10897014D01*
X8210663Y-10897014D02*
X8201139Y-10916061D01*
X8201139Y-10916061D02*
X8191615Y-10925585D01*
X8191615Y-10925585D02*
X8172568Y-10935109D01*
X8172568Y-10935109D02*
X8134472Y-10935109D01*
X8134472Y-10935109D02*
X8115425Y-10925585D01*
X8296377Y-10916061D02*
X8305901Y-10925585D01*
X8305901Y-10925585D02*
X8296377Y-10935109D01*
X8296377Y-10935109D02*
X8286853Y-10925585D01*
X8286853Y-10925585D02*
X8296377Y-10916061D01*
X8296377Y-10916061D02*
X8296377Y-10935109D01*
X8296377Y-10811300D02*
X8305901Y-10820823D01*
X8305901Y-10820823D02*
X8296377Y-10830347D01*
X8296377Y-10830347D02*
X8286853Y-10820823D01*
X8286853Y-10820823D02*
X8296377Y-10811300D01*
X8296377Y-10811300D02*
X8296377Y-10830347D01*
M02*
