G04 #@! TF.GenerationSoftware,KiCad,Pcbnew,7.0.5-4d25ed1034~172~ubuntu22.04.1*
G04 #@! TF.CreationDate,2023-06-04T17:51:52+03:00*
G04 #@! TF.ProjectId,STM32L475daughter,53544d33-324c-4343-9735-646175676874,rev?*
G04 #@! TF.SameCoordinates,Original*
G04 #@! TF.FileFunction,Legend,Top*
G04 #@! TF.FilePolarity,Positive*
%FSLAX46Y46*%
G04 Gerber Fmt 4.6, Leading zero omitted, Abs format (unit mm)*
G04 Created by KiCad (PCBNEW 7.0.5-4d25ed1034~172~ubuntu22.04.1) date 2023-06-04 17:51:52*
%MOMM*%
%LPD*%
G01*
G04 APERTURE LIST*
G04 Aperture macros list*
%AMRoundRect*
0 Rectangle with rounded corners*
0 $1 Rounding radius*
0 $2 $3 $4 $5 $6 $7 $8 $9 X,Y pos of 4 corners*
0 Add a 4 corners polygon primitive as box body*
4,1,4,$2,$3,$4,$5,$6,$7,$8,$9,$2,$3,0*
0 Add four circle primitives for the rounded corners*
1,1,$1+$1,$2,$3*
1,1,$1+$1,$4,$5*
1,1,$1+$1,$6,$7*
1,1,$1+$1,$8,$9*
0 Add four rect primitives between the rounded corners*
20,1,$1+$1,$2,$3,$4,$5,0*
20,1,$1+$1,$4,$5,$6,$7,0*
20,1,$1+$1,$6,$7,$8,$9,0*
20,1,$1+$1,$8,$9,$2,$3,0*%
G04 Aperture macros list end*
%ADD10C,0.300000*%
%ADD11C,0.250000*%
%ADD12C,0.200000*%
%ADD13C,0.150000*%
%ADD14C,0.120000*%
%ADD15RoundRect,0.250000X0.750000X-0.250000X0.750000X0.250000X-0.750000X0.250000X-0.750000X-0.250000X0*%
%ADD16C,1.700000*%
%ADD17O,1.700000X1.700000*%
%ADD18C,1.524000*%
%ADD19RoundRect,0.250000X0.250000X0.750000X-0.250000X0.750000X-0.250000X-0.750000X0.250000X-0.750000X0*%
%ADD20RoundRect,0.250000X-0.750000X0.250000X-0.750000X-0.250000X0.750000X-0.250000X0.750000X0.250000X0*%
%ADD21RoundRect,0.250000X-0.412500X-0.650000X0.412500X-0.650000X0.412500X0.650000X-0.412500X0.650000X0*%
%ADD22RoundRect,0.237500X-0.237500X0.250000X-0.237500X-0.250000X0.237500X-0.250000X0.237500X0.250000X0*%
%ADD23RoundRect,0.237500X-0.250000X-0.237500X0.250000X-0.237500X0.250000X0.237500X-0.250000X0.237500X0*%
%ADD24R,1.700000X1.700000*%
%ADD25C,3.600000*%
%ADD26C,5.600000*%
G04 APERTURE END LIST*
D10*
X135986685Y-75369285D02*
X135929542Y-75483571D01*
X135929542Y-75483571D02*
X135929542Y-75654999D01*
X135929542Y-75654999D02*
X135986685Y-75826428D01*
X135986685Y-75826428D02*
X136100971Y-75940713D01*
X136100971Y-75940713D02*
X136215257Y-75997856D01*
X136215257Y-75997856D02*
X136443828Y-76054999D01*
X136443828Y-76054999D02*
X136615257Y-76054999D01*
X136615257Y-76054999D02*
X136843828Y-75997856D01*
X136843828Y-75997856D02*
X136958114Y-75940713D01*
X136958114Y-75940713D02*
X137072400Y-75826428D01*
X137072400Y-75826428D02*
X137129542Y-75654999D01*
X137129542Y-75654999D02*
X137129542Y-75540713D01*
X137129542Y-75540713D02*
X137072400Y-75369285D01*
X137072400Y-75369285D02*
X137015257Y-75312142D01*
X137015257Y-75312142D02*
X136615257Y-75312142D01*
X136615257Y-75312142D02*
X136615257Y-75540713D01*
X137129542Y-74797856D02*
X135929542Y-74797856D01*
X135929542Y-74797856D02*
X137129542Y-74112142D01*
X137129542Y-74112142D02*
X135929542Y-74112142D01*
X137129542Y-73540713D02*
X135929542Y-73540713D01*
X135929542Y-73540713D02*
X135929542Y-73254999D01*
X135929542Y-73254999D02*
X135986685Y-73083570D01*
X135986685Y-73083570D02*
X136100971Y-72969285D01*
X136100971Y-72969285D02*
X136215257Y-72912142D01*
X136215257Y-72912142D02*
X136443828Y-72854999D01*
X136443828Y-72854999D02*
X136615257Y-72854999D01*
X136615257Y-72854999D02*
X136843828Y-72912142D01*
X136843828Y-72912142D02*
X136958114Y-72969285D01*
X136958114Y-72969285D02*
X137072400Y-73083570D01*
X137072400Y-73083570D02*
X137129542Y-73254999D01*
X137129542Y-73254999D02*
X137129542Y-73540713D01*
X134535714Y-88001685D02*
X134421429Y-87944542D01*
X134421429Y-87944542D02*
X134250000Y-87944542D01*
X134250000Y-87944542D02*
X134078571Y-88001685D01*
X134078571Y-88001685D02*
X133964286Y-88115971D01*
X133964286Y-88115971D02*
X133907143Y-88230257D01*
X133907143Y-88230257D02*
X133850000Y-88458828D01*
X133850000Y-88458828D02*
X133850000Y-88630257D01*
X133850000Y-88630257D02*
X133907143Y-88858828D01*
X133907143Y-88858828D02*
X133964286Y-88973114D01*
X133964286Y-88973114D02*
X134078571Y-89087400D01*
X134078571Y-89087400D02*
X134250000Y-89144542D01*
X134250000Y-89144542D02*
X134364286Y-89144542D01*
X134364286Y-89144542D02*
X134535714Y-89087400D01*
X134535714Y-89087400D02*
X134592857Y-89030257D01*
X134592857Y-89030257D02*
X134592857Y-88630257D01*
X134592857Y-88630257D02*
X134364286Y-88630257D01*
X135107143Y-89144542D02*
X135107143Y-87944542D01*
X135107143Y-87944542D02*
X135792857Y-89144542D01*
X135792857Y-89144542D02*
X135792857Y-87944542D01*
X136364286Y-89144542D02*
X136364286Y-87944542D01*
X136364286Y-87944542D02*
X136650000Y-87944542D01*
X136650000Y-87944542D02*
X136821429Y-88001685D01*
X136821429Y-88001685D02*
X136935714Y-88115971D01*
X136935714Y-88115971D02*
X136992857Y-88230257D01*
X136992857Y-88230257D02*
X137050000Y-88458828D01*
X137050000Y-88458828D02*
X137050000Y-88630257D01*
X137050000Y-88630257D02*
X136992857Y-88858828D01*
X136992857Y-88858828D02*
X136935714Y-88973114D01*
X136935714Y-88973114D02*
X136821429Y-89087400D01*
X136821429Y-89087400D02*
X136650000Y-89144542D01*
X136650000Y-89144542D02*
X136364286Y-89144542D01*
X73464286Y-85364542D02*
X74207143Y-85364542D01*
X74207143Y-85364542D02*
X73807143Y-85821685D01*
X73807143Y-85821685D02*
X73978572Y-85821685D01*
X73978572Y-85821685D02*
X74092858Y-85878828D01*
X74092858Y-85878828D02*
X74150000Y-85935971D01*
X74150000Y-85935971D02*
X74207143Y-86050257D01*
X74207143Y-86050257D02*
X74207143Y-86335971D01*
X74207143Y-86335971D02*
X74150000Y-86450257D01*
X74150000Y-86450257D02*
X74092858Y-86507400D01*
X74092858Y-86507400D02*
X73978572Y-86564542D01*
X73978572Y-86564542D02*
X73635715Y-86564542D01*
X73635715Y-86564542D02*
X73521429Y-86507400D01*
X73521429Y-86507400D02*
X73464286Y-86450257D01*
X74550000Y-85364542D02*
X74950000Y-86564542D01*
X74950000Y-86564542D02*
X75350000Y-85364542D01*
X75635714Y-85364542D02*
X76378571Y-85364542D01*
X76378571Y-85364542D02*
X75978571Y-85821685D01*
X75978571Y-85821685D02*
X76150000Y-85821685D01*
X76150000Y-85821685D02*
X76264286Y-85878828D01*
X76264286Y-85878828D02*
X76321428Y-85935971D01*
X76321428Y-85935971D02*
X76378571Y-86050257D01*
X76378571Y-86050257D02*
X76378571Y-86335971D01*
X76378571Y-86335971D02*
X76321428Y-86450257D01*
X76321428Y-86450257D02*
X76264286Y-86507400D01*
X76264286Y-86507400D02*
X76150000Y-86564542D01*
X76150000Y-86564542D02*
X75807143Y-86564542D01*
X75807143Y-86564542D02*
X75692857Y-86507400D01*
X75692857Y-86507400D02*
X75635714Y-86450257D01*
X73350000Y-80344542D02*
X73750000Y-81544542D01*
X73750000Y-81544542D02*
X74150000Y-80344542D01*
X74550000Y-81544542D02*
X74550000Y-80344542D01*
X74550000Y-80344542D02*
X74835714Y-80344542D01*
X74835714Y-80344542D02*
X75007143Y-80401685D01*
X75007143Y-80401685D02*
X75121428Y-80515971D01*
X75121428Y-80515971D02*
X75178571Y-80630257D01*
X75178571Y-80630257D02*
X75235714Y-80858828D01*
X75235714Y-80858828D02*
X75235714Y-81030257D01*
X75235714Y-81030257D02*
X75178571Y-81258828D01*
X75178571Y-81258828D02*
X75121428Y-81373114D01*
X75121428Y-81373114D02*
X75007143Y-81487400D01*
X75007143Y-81487400D02*
X74835714Y-81544542D01*
X74835714Y-81544542D02*
X74550000Y-81544542D01*
X76435714Y-81430257D02*
X76378571Y-81487400D01*
X76378571Y-81487400D02*
X76207143Y-81544542D01*
X76207143Y-81544542D02*
X76092857Y-81544542D01*
X76092857Y-81544542D02*
X75921428Y-81487400D01*
X75921428Y-81487400D02*
X75807143Y-81373114D01*
X75807143Y-81373114D02*
X75750000Y-81258828D01*
X75750000Y-81258828D02*
X75692857Y-81030257D01*
X75692857Y-81030257D02*
X75692857Y-80858828D01*
X75692857Y-80858828D02*
X75750000Y-80630257D01*
X75750000Y-80630257D02*
X75807143Y-80515971D01*
X75807143Y-80515971D02*
X75921428Y-80401685D01*
X75921428Y-80401685D02*
X76092857Y-80344542D01*
X76092857Y-80344542D02*
X76207143Y-80344542D01*
X76207143Y-80344542D02*
X76378571Y-80401685D01*
X76378571Y-80401685D02*
X76435714Y-80458828D01*
X87200000Y-75112500D02*
X87200000Y-83387500D01*
X83213346Y-75661042D02*
X83613346Y-76861042D01*
X83613346Y-76861042D02*
X84013346Y-75661042D01*
X84413346Y-76861042D02*
X84413346Y-75661042D01*
X84413346Y-75661042D02*
X84699060Y-75661042D01*
X84699060Y-75661042D02*
X84870489Y-75718185D01*
X84870489Y-75718185D02*
X84984774Y-75832471D01*
X84984774Y-75832471D02*
X85041917Y-75946757D01*
X85041917Y-75946757D02*
X85099060Y-76175328D01*
X85099060Y-76175328D02*
X85099060Y-76346757D01*
X85099060Y-76346757D02*
X85041917Y-76575328D01*
X85041917Y-76575328D02*
X84984774Y-76689614D01*
X84984774Y-76689614D02*
X84870489Y-76803900D01*
X84870489Y-76803900D02*
X84699060Y-76861042D01*
X84699060Y-76861042D02*
X84413346Y-76861042D01*
X86299060Y-76746757D02*
X86241917Y-76803900D01*
X86241917Y-76803900D02*
X86070489Y-76861042D01*
X86070489Y-76861042D02*
X85956203Y-76861042D01*
X85956203Y-76861042D02*
X85784774Y-76803900D01*
X85784774Y-76803900D02*
X85670489Y-76689614D01*
X85670489Y-76689614D02*
X85613346Y-76575328D01*
X85613346Y-76575328D02*
X85556203Y-76346757D01*
X85556203Y-76346757D02*
X85556203Y-76175328D01*
X85556203Y-76175328D02*
X85613346Y-75946757D01*
X85613346Y-75946757D02*
X85670489Y-75832471D01*
X85670489Y-75832471D02*
X85784774Y-75718185D01*
X85784774Y-75718185D02*
X85956203Y-75661042D01*
X85956203Y-75661042D02*
X86070489Y-75661042D01*
X86070489Y-75661042D02*
X86241917Y-75718185D01*
X86241917Y-75718185D02*
X86299060Y-75775328D01*
X84241917Y-78793042D02*
X83841917Y-78221614D01*
X83556203Y-78793042D02*
X83556203Y-77593042D01*
X83556203Y-77593042D02*
X84013346Y-77593042D01*
X84013346Y-77593042D02*
X84127631Y-77650185D01*
X84127631Y-77650185D02*
X84184774Y-77707328D01*
X84184774Y-77707328D02*
X84241917Y-77821614D01*
X84241917Y-77821614D02*
X84241917Y-77993042D01*
X84241917Y-77993042D02*
X84184774Y-78107328D01*
X84184774Y-78107328D02*
X84127631Y-78164471D01*
X84127631Y-78164471D02*
X84013346Y-78221614D01*
X84013346Y-78221614D02*
X83556203Y-78221614D01*
X84699060Y-78735900D02*
X84870489Y-78793042D01*
X84870489Y-78793042D02*
X85156203Y-78793042D01*
X85156203Y-78793042D02*
X85270489Y-78735900D01*
X85270489Y-78735900D02*
X85327631Y-78678757D01*
X85327631Y-78678757D02*
X85384774Y-78564471D01*
X85384774Y-78564471D02*
X85384774Y-78450185D01*
X85384774Y-78450185D02*
X85327631Y-78335900D01*
X85327631Y-78335900D02*
X85270489Y-78278757D01*
X85270489Y-78278757D02*
X85156203Y-78221614D01*
X85156203Y-78221614D02*
X84927631Y-78164471D01*
X84927631Y-78164471D02*
X84813346Y-78107328D01*
X84813346Y-78107328D02*
X84756203Y-78050185D01*
X84756203Y-78050185D02*
X84699060Y-77935900D01*
X84699060Y-77935900D02*
X84699060Y-77821614D01*
X84699060Y-77821614D02*
X84756203Y-77707328D01*
X84756203Y-77707328D02*
X84813346Y-77650185D01*
X84813346Y-77650185D02*
X84927631Y-77593042D01*
X84927631Y-77593042D02*
X85213346Y-77593042D01*
X85213346Y-77593042D02*
X85384774Y-77650185D01*
X85727631Y-77593042D02*
X86413346Y-77593042D01*
X86070488Y-78793042D02*
X86070488Y-77593042D01*
X84070488Y-80725042D02*
X84070488Y-79525042D01*
X84641917Y-80725042D02*
X84641917Y-79525042D01*
X84641917Y-79525042D02*
X85327631Y-80725042D01*
X85327631Y-80725042D02*
X85327631Y-79525042D01*
X85727631Y-79525042D02*
X86413346Y-79525042D01*
X86070488Y-80725042D02*
X86070488Y-79525042D01*
X87833082Y-76904042D02*
X87833082Y-75704042D01*
X87833082Y-75704042D02*
X88233082Y-76561185D01*
X88233082Y-76561185D02*
X88633082Y-75704042D01*
X88633082Y-75704042D02*
X88633082Y-76904042D01*
X89204511Y-76904042D02*
X89204511Y-75704042D01*
X89718797Y-76846900D02*
X89890226Y-76904042D01*
X89890226Y-76904042D02*
X90175940Y-76904042D01*
X90175940Y-76904042D02*
X90290226Y-76846900D01*
X90290226Y-76846900D02*
X90347368Y-76789757D01*
X90347368Y-76789757D02*
X90404511Y-76675471D01*
X90404511Y-76675471D02*
X90404511Y-76561185D01*
X90404511Y-76561185D02*
X90347368Y-76446900D01*
X90347368Y-76446900D02*
X90290226Y-76389757D01*
X90290226Y-76389757D02*
X90175940Y-76332614D01*
X90175940Y-76332614D02*
X89947368Y-76275471D01*
X89947368Y-76275471D02*
X89833083Y-76218328D01*
X89833083Y-76218328D02*
X89775940Y-76161185D01*
X89775940Y-76161185D02*
X89718797Y-76046900D01*
X89718797Y-76046900D02*
X89718797Y-75932614D01*
X89718797Y-75932614D02*
X89775940Y-75818328D01*
X89775940Y-75818328D02*
X89833083Y-75761185D01*
X89833083Y-75761185D02*
X89947368Y-75704042D01*
X89947368Y-75704042D02*
X90233083Y-75704042D01*
X90233083Y-75704042D02*
X90404511Y-75761185D01*
X91147368Y-75704042D02*
X91375940Y-75704042D01*
X91375940Y-75704042D02*
X91490225Y-75761185D01*
X91490225Y-75761185D02*
X91604511Y-75875471D01*
X91604511Y-75875471D02*
X91661654Y-76104042D01*
X91661654Y-76104042D02*
X91661654Y-76504042D01*
X91661654Y-76504042D02*
X91604511Y-76732614D01*
X91604511Y-76732614D02*
X91490225Y-76846900D01*
X91490225Y-76846900D02*
X91375940Y-76904042D01*
X91375940Y-76904042D02*
X91147368Y-76904042D01*
X91147368Y-76904042D02*
X91033083Y-76846900D01*
X91033083Y-76846900D02*
X90918797Y-76732614D01*
X90918797Y-76732614D02*
X90861654Y-76504042D01*
X90861654Y-76504042D02*
X90861654Y-76104042D01*
X90861654Y-76104042D02*
X90918797Y-75875471D01*
X90918797Y-75875471D02*
X91033083Y-75761185D01*
X91033083Y-75761185D02*
X91147368Y-75704042D01*
X87833082Y-78836042D02*
X87833082Y-77636042D01*
X87833082Y-77636042D02*
X88233082Y-78493185D01*
X88233082Y-78493185D02*
X88633082Y-77636042D01*
X88633082Y-77636042D02*
X88633082Y-78836042D01*
X89433082Y-77636042D02*
X89661654Y-77636042D01*
X89661654Y-77636042D02*
X89775939Y-77693185D01*
X89775939Y-77693185D02*
X89890225Y-77807471D01*
X89890225Y-77807471D02*
X89947368Y-78036042D01*
X89947368Y-78036042D02*
X89947368Y-78436042D01*
X89947368Y-78436042D02*
X89890225Y-78664614D01*
X89890225Y-78664614D02*
X89775939Y-78778900D01*
X89775939Y-78778900D02*
X89661654Y-78836042D01*
X89661654Y-78836042D02*
X89433082Y-78836042D01*
X89433082Y-78836042D02*
X89318797Y-78778900D01*
X89318797Y-78778900D02*
X89204511Y-78664614D01*
X89204511Y-78664614D02*
X89147368Y-78436042D01*
X89147368Y-78436042D02*
X89147368Y-78036042D01*
X89147368Y-78036042D02*
X89204511Y-77807471D01*
X89204511Y-77807471D02*
X89318797Y-77693185D01*
X89318797Y-77693185D02*
X89433082Y-77636042D01*
X90404511Y-78778900D02*
X90575940Y-78836042D01*
X90575940Y-78836042D02*
X90861654Y-78836042D01*
X90861654Y-78836042D02*
X90975940Y-78778900D01*
X90975940Y-78778900D02*
X91033082Y-78721757D01*
X91033082Y-78721757D02*
X91090225Y-78607471D01*
X91090225Y-78607471D02*
X91090225Y-78493185D01*
X91090225Y-78493185D02*
X91033082Y-78378900D01*
X91033082Y-78378900D02*
X90975940Y-78321757D01*
X90975940Y-78321757D02*
X90861654Y-78264614D01*
X90861654Y-78264614D02*
X90633082Y-78207471D01*
X90633082Y-78207471D02*
X90518797Y-78150328D01*
X90518797Y-78150328D02*
X90461654Y-78093185D01*
X90461654Y-78093185D02*
X90404511Y-77978900D01*
X90404511Y-77978900D02*
X90404511Y-77864614D01*
X90404511Y-77864614D02*
X90461654Y-77750328D01*
X90461654Y-77750328D02*
X90518797Y-77693185D01*
X90518797Y-77693185D02*
X90633082Y-77636042D01*
X90633082Y-77636042D02*
X90918797Y-77636042D01*
X90918797Y-77636042D02*
X91090225Y-77693185D01*
X91604511Y-78836042D02*
X91604511Y-77636042D01*
X88518796Y-80653757D02*
X88461653Y-80710900D01*
X88461653Y-80710900D02*
X88290225Y-80768042D01*
X88290225Y-80768042D02*
X88175939Y-80768042D01*
X88175939Y-80768042D02*
X88004510Y-80710900D01*
X88004510Y-80710900D02*
X87890225Y-80596614D01*
X87890225Y-80596614D02*
X87833082Y-80482328D01*
X87833082Y-80482328D02*
X87775939Y-80253757D01*
X87775939Y-80253757D02*
X87775939Y-80082328D01*
X87775939Y-80082328D02*
X87833082Y-79853757D01*
X87833082Y-79853757D02*
X87890225Y-79739471D01*
X87890225Y-79739471D02*
X88004510Y-79625185D01*
X88004510Y-79625185D02*
X88175939Y-79568042D01*
X88175939Y-79568042D02*
X88290225Y-79568042D01*
X88290225Y-79568042D02*
X88461653Y-79625185D01*
X88461653Y-79625185D02*
X88518796Y-79682328D01*
X88975939Y-80710900D02*
X89147368Y-80768042D01*
X89147368Y-80768042D02*
X89433082Y-80768042D01*
X89433082Y-80768042D02*
X89547368Y-80710900D01*
X89547368Y-80710900D02*
X89604510Y-80653757D01*
X89604510Y-80653757D02*
X89661653Y-80539471D01*
X89661653Y-80539471D02*
X89661653Y-80425185D01*
X89661653Y-80425185D02*
X89604510Y-80310900D01*
X89604510Y-80310900D02*
X89547368Y-80253757D01*
X89547368Y-80253757D02*
X89433082Y-80196614D01*
X89433082Y-80196614D02*
X89204510Y-80139471D01*
X89204510Y-80139471D02*
X89090225Y-80082328D01*
X89090225Y-80082328D02*
X89033082Y-80025185D01*
X89033082Y-80025185D02*
X88975939Y-79910900D01*
X88975939Y-79910900D02*
X88975939Y-79796614D01*
X88975939Y-79796614D02*
X89033082Y-79682328D01*
X89033082Y-79682328D02*
X89090225Y-79625185D01*
X89090225Y-79625185D02*
X89204510Y-79568042D01*
X89204510Y-79568042D02*
X89490225Y-79568042D01*
X89490225Y-79568042D02*
X89661653Y-79625185D01*
X88518796Y-82585757D02*
X88461653Y-82642900D01*
X88461653Y-82642900D02*
X88290225Y-82700042D01*
X88290225Y-82700042D02*
X88175939Y-82700042D01*
X88175939Y-82700042D02*
X88004510Y-82642900D01*
X88004510Y-82642900D02*
X87890225Y-82528614D01*
X87890225Y-82528614D02*
X87833082Y-82414328D01*
X87833082Y-82414328D02*
X87775939Y-82185757D01*
X87775939Y-82185757D02*
X87775939Y-82014328D01*
X87775939Y-82014328D02*
X87833082Y-81785757D01*
X87833082Y-81785757D02*
X87890225Y-81671471D01*
X87890225Y-81671471D02*
X88004510Y-81557185D01*
X88004510Y-81557185D02*
X88175939Y-81500042D01*
X88175939Y-81500042D02*
X88290225Y-81500042D01*
X88290225Y-81500042D02*
X88461653Y-81557185D01*
X88461653Y-81557185D02*
X88518796Y-81614328D01*
X89604510Y-82700042D02*
X89033082Y-82700042D01*
X89033082Y-82700042D02*
X89033082Y-81500042D01*
X90004511Y-82700042D02*
X90004511Y-81500042D01*
X90690225Y-82700042D02*
X90175939Y-82014328D01*
X90690225Y-81500042D02*
X90004511Y-82185757D01*
D11*
X75588095Y-75272238D02*
X75492857Y-75224619D01*
X75492857Y-75224619D02*
X75350000Y-75224619D01*
X75350000Y-75224619D02*
X75207143Y-75272238D01*
X75207143Y-75272238D02*
X75111905Y-75367476D01*
X75111905Y-75367476D02*
X75064286Y-75462714D01*
X75064286Y-75462714D02*
X75016667Y-75653190D01*
X75016667Y-75653190D02*
X75016667Y-75796047D01*
X75016667Y-75796047D02*
X75064286Y-75986523D01*
X75064286Y-75986523D02*
X75111905Y-76081761D01*
X75111905Y-76081761D02*
X75207143Y-76177000D01*
X75207143Y-76177000D02*
X75350000Y-76224619D01*
X75350000Y-76224619D02*
X75445238Y-76224619D01*
X75445238Y-76224619D02*
X75588095Y-76177000D01*
X75588095Y-76177000D02*
X75635714Y-76129380D01*
X75635714Y-76129380D02*
X75635714Y-75796047D01*
X75635714Y-75796047D02*
X75445238Y-75796047D01*
X76064286Y-76224619D02*
X76064286Y-75224619D01*
X76064286Y-75224619D02*
X76635714Y-76224619D01*
X76635714Y-76224619D02*
X76635714Y-75224619D01*
X77111905Y-76224619D02*
X77111905Y-75224619D01*
X77111905Y-75224619D02*
X77350000Y-75224619D01*
X77350000Y-75224619D02*
X77492857Y-75272238D01*
X77492857Y-75272238D02*
X77588095Y-75367476D01*
X77588095Y-75367476D02*
X77635714Y-75462714D01*
X77635714Y-75462714D02*
X77683333Y-75653190D01*
X77683333Y-75653190D02*
X77683333Y-75796047D01*
X77683333Y-75796047D02*
X77635714Y-75986523D01*
X77635714Y-75986523D02*
X77588095Y-76081761D01*
X77588095Y-76081761D02*
X77492857Y-76177000D01*
X77492857Y-76177000D02*
X77350000Y-76224619D01*
X77350000Y-76224619D02*
X77111905Y-76224619D01*
X133726377Y-59037238D02*
X133631139Y-58989619D01*
X133631139Y-58989619D02*
X133488282Y-58989619D01*
X133488282Y-58989619D02*
X133345425Y-59037238D01*
X133345425Y-59037238D02*
X133250187Y-59132476D01*
X133250187Y-59132476D02*
X133202568Y-59227714D01*
X133202568Y-59227714D02*
X133154949Y-59418190D01*
X133154949Y-59418190D02*
X133154949Y-59561047D01*
X133154949Y-59561047D02*
X133202568Y-59751523D01*
X133202568Y-59751523D02*
X133250187Y-59846761D01*
X133250187Y-59846761D02*
X133345425Y-59942000D01*
X133345425Y-59942000D02*
X133488282Y-59989619D01*
X133488282Y-59989619D02*
X133583520Y-59989619D01*
X133583520Y-59989619D02*
X133726377Y-59942000D01*
X133726377Y-59942000D02*
X133773996Y-59894380D01*
X133773996Y-59894380D02*
X133773996Y-59561047D01*
X133773996Y-59561047D02*
X133583520Y-59561047D01*
X134202568Y-59989619D02*
X134202568Y-58989619D01*
X134202568Y-58989619D02*
X134773996Y-59989619D01*
X134773996Y-59989619D02*
X134773996Y-58989619D01*
X135250187Y-59989619D02*
X135250187Y-58989619D01*
X135250187Y-58989619D02*
X135488282Y-58989619D01*
X135488282Y-58989619D02*
X135631139Y-59037238D01*
X135631139Y-59037238D02*
X135726377Y-59132476D01*
X135726377Y-59132476D02*
X135773996Y-59227714D01*
X135773996Y-59227714D02*
X135821615Y-59418190D01*
X135821615Y-59418190D02*
X135821615Y-59561047D01*
X135821615Y-59561047D02*
X135773996Y-59751523D01*
X135773996Y-59751523D02*
X135726377Y-59846761D01*
X135726377Y-59846761D02*
X135631139Y-59942000D01*
X135631139Y-59942000D02*
X135488282Y-59989619D01*
X135488282Y-59989619D02*
X135250187Y-59989619D01*
D10*
X73975714Y-87991685D02*
X73861429Y-87934542D01*
X73861429Y-87934542D02*
X73690000Y-87934542D01*
X73690000Y-87934542D02*
X73518571Y-87991685D01*
X73518571Y-87991685D02*
X73404286Y-88105971D01*
X73404286Y-88105971D02*
X73347143Y-88220257D01*
X73347143Y-88220257D02*
X73290000Y-88448828D01*
X73290000Y-88448828D02*
X73290000Y-88620257D01*
X73290000Y-88620257D02*
X73347143Y-88848828D01*
X73347143Y-88848828D02*
X73404286Y-88963114D01*
X73404286Y-88963114D02*
X73518571Y-89077400D01*
X73518571Y-89077400D02*
X73690000Y-89134542D01*
X73690000Y-89134542D02*
X73804286Y-89134542D01*
X73804286Y-89134542D02*
X73975714Y-89077400D01*
X73975714Y-89077400D02*
X74032857Y-89020257D01*
X74032857Y-89020257D02*
X74032857Y-88620257D01*
X74032857Y-88620257D02*
X73804286Y-88620257D01*
X74547143Y-89134542D02*
X74547143Y-87934542D01*
X74547143Y-87934542D02*
X75232857Y-89134542D01*
X75232857Y-89134542D02*
X75232857Y-87934542D01*
X75804286Y-89134542D02*
X75804286Y-87934542D01*
X75804286Y-87934542D02*
X76090000Y-87934542D01*
X76090000Y-87934542D02*
X76261429Y-87991685D01*
X76261429Y-87991685D02*
X76375714Y-88105971D01*
X76375714Y-88105971D02*
X76432857Y-88220257D01*
X76432857Y-88220257D02*
X76490000Y-88448828D01*
X76490000Y-88448828D02*
X76490000Y-88620257D01*
X76490000Y-88620257D02*
X76432857Y-88848828D01*
X76432857Y-88848828D02*
X76375714Y-88963114D01*
X76375714Y-88963114D02*
X76261429Y-89077400D01*
X76261429Y-89077400D02*
X76090000Y-89134542D01*
X76090000Y-89134542D02*
X75804286Y-89134542D01*
X73504286Y-82884542D02*
X74247143Y-82884542D01*
X74247143Y-82884542D02*
X73847143Y-83341685D01*
X73847143Y-83341685D02*
X74018572Y-83341685D01*
X74018572Y-83341685D02*
X74132858Y-83398828D01*
X74132858Y-83398828D02*
X74190000Y-83455971D01*
X74190000Y-83455971D02*
X74247143Y-83570257D01*
X74247143Y-83570257D02*
X74247143Y-83855971D01*
X74247143Y-83855971D02*
X74190000Y-83970257D01*
X74190000Y-83970257D02*
X74132858Y-84027400D01*
X74132858Y-84027400D02*
X74018572Y-84084542D01*
X74018572Y-84084542D02*
X73675715Y-84084542D01*
X73675715Y-84084542D02*
X73561429Y-84027400D01*
X73561429Y-84027400D02*
X73504286Y-83970257D01*
X74590000Y-82884542D02*
X74990000Y-84084542D01*
X74990000Y-84084542D02*
X75390000Y-82884542D01*
X75675714Y-82884542D02*
X76418571Y-82884542D01*
X76418571Y-82884542D02*
X76018571Y-83341685D01*
X76018571Y-83341685D02*
X76190000Y-83341685D01*
X76190000Y-83341685D02*
X76304286Y-83398828D01*
X76304286Y-83398828D02*
X76361428Y-83455971D01*
X76361428Y-83455971D02*
X76418571Y-83570257D01*
X76418571Y-83570257D02*
X76418571Y-83855971D01*
X76418571Y-83855971D02*
X76361428Y-83970257D01*
X76361428Y-83970257D02*
X76304286Y-84027400D01*
X76304286Y-84027400D02*
X76190000Y-84084542D01*
X76190000Y-84084542D02*
X75847143Y-84084542D01*
X75847143Y-84084542D02*
X75732857Y-84027400D01*
X75732857Y-84027400D02*
X75675714Y-83970257D01*
X136178796Y-85442542D02*
X136921653Y-85442542D01*
X136921653Y-85442542D02*
X136521653Y-85899685D01*
X136521653Y-85899685D02*
X136693082Y-85899685D01*
X136693082Y-85899685D02*
X136807368Y-85956828D01*
X136807368Y-85956828D02*
X136864510Y-86013971D01*
X136864510Y-86013971D02*
X136921653Y-86128257D01*
X136921653Y-86128257D02*
X136921653Y-86413971D01*
X136921653Y-86413971D02*
X136864510Y-86528257D01*
X136864510Y-86528257D02*
X136807368Y-86585400D01*
X136807368Y-86585400D02*
X136693082Y-86642542D01*
X136693082Y-86642542D02*
X136350225Y-86642542D01*
X136350225Y-86642542D02*
X136235939Y-86585400D01*
X136235939Y-86585400D02*
X136178796Y-86528257D01*
X137264510Y-85442542D02*
X137664510Y-86642542D01*
X137664510Y-86642542D02*
X138064510Y-85442542D01*
X138350224Y-85442542D02*
X139093081Y-85442542D01*
X139093081Y-85442542D02*
X138693081Y-85899685D01*
X138693081Y-85899685D02*
X138864510Y-85899685D01*
X138864510Y-85899685D02*
X138978796Y-85956828D01*
X138978796Y-85956828D02*
X139035938Y-86013971D01*
X139035938Y-86013971D02*
X139093081Y-86128257D01*
X139093081Y-86128257D02*
X139093081Y-86413971D01*
X139093081Y-86413971D02*
X139035938Y-86528257D01*
X139035938Y-86528257D02*
X138978796Y-86585400D01*
X138978796Y-86585400D02*
X138864510Y-86642542D01*
X138864510Y-86642542D02*
X138521653Y-86642542D01*
X138521653Y-86642542D02*
X138407367Y-86585400D01*
X138407367Y-86585400D02*
X138350224Y-86528257D01*
X73190000Y-77704542D02*
X73590000Y-78904542D01*
X73590000Y-78904542D02*
X73990000Y-77704542D01*
X74390000Y-78904542D02*
X74390000Y-77704542D01*
X74390000Y-77704542D02*
X74675714Y-77704542D01*
X74675714Y-77704542D02*
X74847143Y-77761685D01*
X74847143Y-77761685D02*
X74961428Y-77875971D01*
X74961428Y-77875971D02*
X75018571Y-77990257D01*
X75018571Y-77990257D02*
X75075714Y-78218828D01*
X75075714Y-78218828D02*
X75075714Y-78390257D01*
X75075714Y-78390257D02*
X75018571Y-78618828D01*
X75018571Y-78618828D02*
X74961428Y-78733114D01*
X74961428Y-78733114D02*
X74847143Y-78847400D01*
X74847143Y-78847400D02*
X74675714Y-78904542D01*
X74675714Y-78904542D02*
X74390000Y-78904542D01*
X76275714Y-78790257D02*
X76218571Y-78847400D01*
X76218571Y-78847400D02*
X76047143Y-78904542D01*
X76047143Y-78904542D02*
X75932857Y-78904542D01*
X75932857Y-78904542D02*
X75761428Y-78847400D01*
X75761428Y-78847400D02*
X75647143Y-78733114D01*
X75647143Y-78733114D02*
X75590000Y-78618828D01*
X75590000Y-78618828D02*
X75532857Y-78390257D01*
X75532857Y-78390257D02*
X75532857Y-78218828D01*
X75532857Y-78218828D02*
X75590000Y-77990257D01*
X75590000Y-77990257D02*
X75647143Y-77875971D01*
X75647143Y-77875971D02*
X75761428Y-77761685D01*
X75761428Y-77761685D02*
X75932857Y-77704542D01*
X75932857Y-77704542D02*
X76047143Y-77704542D01*
X76047143Y-77704542D02*
X76218571Y-77761685D01*
X76218571Y-77761685D02*
X76275714Y-77818828D01*
D11*
X91742856Y-92417142D02*
X91742856Y-91217142D01*
X91742856Y-91217142D02*
X92142856Y-92074285D01*
X92142856Y-92074285D02*
X92542856Y-91217142D01*
X92542856Y-91217142D02*
X92542856Y-92417142D01*
X93799999Y-92302857D02*
X93742856Y-92360000D01*
X93742856Y-92360000D02*
X93571428Y-92417142D01*
X93571428Y-92417142D02*
X93457142Y-92417142D01*
X93457142Y-92417142D02*
X93285713Y-92360000D01*
X93285713Y-92360000D02*
X93171428Y-92245714D01*
X93171428Y-92245714D02*
X93114285Y-92131428D01*
X93114285Y-92131428D02*
X93057142Y-91902857D01*
X93057142Y-91902857D02*
X93057142Y-91731428D01*
X93057142Y-91731428D02*
X93114285Y-91502857D01*
X93114285Y-91502857D02*
X93171428Y-91388571D01*
X93171428Y-91388571D02*
X93285713Y-91274285D01*
X93285713Y-91274285D02*
X93457142Y-91217142D01*
X93457142Y-91217142D02*
X93571428Y-91217142D01*
X93571428Y-91217142D02*
X93742856Y-91274285D01*
X93742856Y-91274285D02*
X93799999Y-91331428D01*
X94314285Y-91217142D02*
X94314285Y-92188571D01*
X94314285Y-92188571D02*
X94371428Y-92302857D01*
X94371428Y-92302857D02*
X94428571Y-92360000D01*
X94428571Y-92360000D02*
X94542856Y-92417142D01*
X94542856Y-92417142D02*
X94771428Y-92417142D01*
X94771428Y-92417142D02*
X94885713Y-92360000D01*
X94885713Y-92360000D02*
X94942856Y-92302857D01*
X94942856Y-92302857D02*
X94999999Y-92188571D01*
X94999999Y-92188571D02*
X94999999Y-91217142D01*
X95571428Y-92302857D02*
X95628571Y-92360000D01*
X95628571Y-92360000D02*
X95571428Y-92417142D01*
X95571428Y-92417142D02*
X95514285Y-92360000D01*
X95514285Y-92360000D02*
X95571428Y-92302857D01*
X95571428Y-92302857D02*
X95571428Y-92417142D01*
X95571428Y-91674285D02*
X95628571Y-91731428D01*
X95628571Y-91731428D02*
X95571428Y-91788571D01*
X95571428Y-91788571D02*
X95514285Y-91731428D01*
X95514285Y-91731428D02*
X95571428Y-91674285D01*
X95571428Y-91674285D02*
X95571428Y-91788571D01*
X97000000Y-92360000D02*
X97171429Y-92417142D01*
X97171429Y-92417142D02*
X97457143Y-92417142D01*
X97457143Y-92417142D02*
X97571429Y-92360000D01*
X97571429Y-92360000D02*
X97628571Y-92302857D01*
X97628571Y-92302857D02*
X97685714Y-92188571D01*
X97685714Y-92188571D02*
X97685714Y-92074285D01*
X97685714Y-92074285D02*
X97628571Y-91960000D01*
X97628571Y-91960000D02*
X97571429Y-91902857D01*
X97571429Y-91902857D02*
X97457143Y-91845714D01*
X97457143Y-91845714D02*
X97228571Y-91788571D01*
X97228571Y-91788571D02*
X97114286Y-91731428D01*
X97114286Y-91731428D02*
X97057143Y-91674285D01*
X97057143Y-91674285D02*
X97000000Y-91560000D01*
X97000000Y-91560000D02*
X97000000Y-91445714D01*
X97000000Y-91445714D02*
X97057143Y-91331428D01*
X97057143Y-91331428D02*
X97114286Y-91274285D01*
X97114286Y-91274285D02*
X97228571Y-91217142D01*
X97228571Y-91217142D02*
X97514286Y-91217142D01*
X97514286Y-91217142D02*
X97685714Y-91274285D01*
X98028571Y-91217142D02*
X98714286Y-91217142D01*
X98371428Y-92417142D02*
X98371428Y-91217142D01*
X99114286Y-92417142D02*
X99114286Y-91217142D01*
X99114286Y-91217142D02*
X99514286Y-92074285D01*
X99514286Y-92074285D02*
X99914286Y-91217142D01*
X99914286Y-91217142D02*
X99914286Y-92417142D01*
X100371429Y-91217142D02*
X101114286Y-91217142D01*
X101114286Y-91217142D02*
X100714286Y-91674285D01*
X100714286Y-91674285D02*
X100885715Y-91674285D01*
X100885715Y-91674285D02*
X101000001Y-91731428D01*
X101000001Y-91731428D02*
X101057143Y-91788571D01*
X101057143Y-91788571D02*
X101114286Y-91902857D01*
X101114286Y-91902857D02*
X101114286Y-92188571D01*
X101114286Y-92188571D02*
X101057143Y-92302857D01*
X101057143Y-92302857D02*
X101000001Y-92360000D01*
X101000001Y-92360000D02*
X100885715Y-92417142D01*
X100885715Y-92417142D02*
X100542858Y-92417142D01*
X100542858Y-92417142D02*
X100428572Y-92360000D01*
X100428572Y-92360000D02*
X100371429Y-92302857D01*
X101571429Y-91331428D02*
X101628572Y-91274285D01*
X101628572Y-91274285D02*
X101742858Y-91217142D01*
X101742858Y-91217142D02*
X102028572Y-91217142D01*
X102028572Y-91217142D02*
X102142858Y-91274285D01*
X102142858Y-91274285D02*
X102200000Y-91331428D01*
X102200000Y-91331428D02*
X102257143Y-91445714D01*
X102257143Y-91445714D02*
X102257143Y-91560000D01*
X102257143Y-91560000D02*
X102200000Y-91731428D01*
X102200000Y-91731428D02*
X101514286Y-92417142D01*
X101514286Y-92417142D02*
X102257143Y-92417142D01*
X103342857Y-92417142D02*
X102771429Y-92417142D01*
X102771429Y-92417142D02*
X102771429Y-91217142D01*
X104257144Y-91617142D02*
X104257144Y-92417142D01*
X103971429Y-91160000D02*
X103685715Y-92017142D01*
X103685715Y-92017142D02*
X104428572Y-92017142D01*
X104771429Y-91217142D02*
X105571429Y-91217142D01*
X105571429Y-91217142D02*
X105057143Y-92417142D01*
X106600000Y-91217142D02*
X106028572Y-91217142D01*
X106028572Y-91217142D02*
X105971429Y-91788571D01*
X105971429Y-91788571D02*
X106028572Y-91731428D01*
X106028572Y-91731428D02*
X106142858Y-91674285D01*
X106142858Y-91674285D02*
X106428572Y-91674285D01*
X106428572Y-91674285D02*
X106542858Y-91731428D01*
X106542858Y-91731428D02*
X106600000Y-91788571D01*
X106600000Y-91788571D02*
X106657143Y-91902857D01*
X106657143Y-91902857D02*
X106657143Y-92188571D01*
X106657143Y-92188571D02*
X106600000Y-92302857D01*
X106600000Y-92302857D02*
X106542858Y-92360000D01*
X106542858Y-92360000D02*
X106428572Y-92417142D01*
X106428572Y-92417142D02*
X106142858Y-92417142D01*
X106142858Y-92417142D02*
X106028572Y-92360000D01*
X106028572Y-92360000D02*
X105971429Y-92302857D01*
X107857143Y-92417142D02*
X107457143Y-91845714D01*
X107171429Y-92417142D02*
X107171429Y-91217142D01*
X107171429Y-91217142D02*
X107628572Y-91217142D01*
X107628572Y-91217142D02*
X107742857Y-91274285D01*
X107742857Y-91274285D02*
X107800000Y-91331428D01*
X107800000Y-91331428D02*
X107857143Y-91445714D01*
X107857143Y-91445714D02*
X107857143Y-91617142D01*
X107857143Y-91617142D02*
X107800000Y-91731428D01*
X107800000Y-91731428D02*
X107742857Y-91788571D01*
X107742857Y-91788571D02*
X107628572Y-91845714D01*
X107628572Y-91845714D02*
X107171429Y-91845714D01*
X109057143Y-92302857D02*
X109000000Y-92360000D01*
X109000000Y-92360000D02*
X108828572Y-92417142D01*
X108828572Y-92417142D02*
X108714286Y-92417142D01*
X108714286Y-92417142D02*
X108542857Y-92360000D01*
X108542857Y-92360000D02*
X108428572Y-92245714D01*
X108428572Y-92245714D02*
X108371429Y-92131428D01*
X108371429Y-92131428D02*
X108314286Y-91902857D01*
X108314286Y-91902857D02*
X108314286Y-91731428D01*
X108314286Y-91731428D02*
X108371429Y-91502857D01*
X108371429Y-91502857D02*
X108428572Y-91388571D01*
X108428572Y-91388571D02*
X108542857Y-91274285D01*
X108542857Y-91274285D02*
X108714286Y-91217142D01*
X108714286Y-91217142D02*
X108828572Y-91217142D01*
X108828572Y-91217142D02*
X109000000Y-91274285D01*
X109000000Y-91274285D02*
X109057143Y-91331428D01*
X109400000Y-91217142D02*
X110085715Y-91217142D01*
X109742857Y-92417142D02*
X109742857Y-91217142D01*
X111000001Y-91217142D02*
X110771429Y-91217142D01*
X110771429Y-91217142D02*
X110657143Y-91274285D01*
X110657143Y-91274285D02*
X110600001Y-91331428D01*
X110600001Y-91331428D02*
X110485715Y-91502857D01*
X110485715Y-91502857D02*
X110428572Y-91731428D01*
X110428572Y-91731428D02*
X110428572Y-92188571D01*
X110428572Y-92188571D02*
X110485715Y-92302857D01*
X110485715Y-92302857D02*
X110542858Y-92360000D01*
X110542858Y-92360000D02*
X110657143Y-92417142D01*
X110657143Y-92417142D02*
X110885715Y-92417142D01*
X110885715Y-92417142D02*
X111000001Y-92360000D01*
X111000001Y-92360000D02*
X111057143Y-92302857D01*
X111057143Y-92302857D02*
X111114286Y-92188571D01*
X111114286Y-92188571D02*
X111114286Y-91902857D01*
X111114286Y-91902857D02*
X111057143Y-91788571D01*
X111057143Y-91788571D02*
X111000001Y-91731428D01*
X111000001Y-91731428D02*
X110885715Y-91674285D01*
X110885715Y-91674285D02*
X110657143Y-91674285D01*
X110657143Y-91674285D02*
X110542858Y-91731428D01*
X110542858Y-91731428D02*
X110485715Y-91788571D01*
X110485715Y-91788571D02*
X110428572Y-91902857D01*
D12*
X99392219Y-58626428D02*
X98392219Y-58626428D01*
X98392219Y-58626428D02*
X98392219Y-58321666D01*
X98392219Y-58321666D02*
X98439838Y-58245476D01*
X98439838Y-58245476D02*
X98487457Y-58207381D01*
X98487457Y-58207381D02*
X98582695Y-58169285D01*
X98582695Y-58169285D02*
X98725552Y-58169285D01*
X98725552Y-58169285D02*
X98820790Y-58207381D01*
X98820790Y-58207381D02*
X98868409Y-58245476D01*
X98868409Y-58245476D02*
X98916028Y-58321666D01*
X98916028Y-58321666D02*
X98916028Y-58626428D01*
X98868409Y-57559762D02*
X98916028Y-57445476D01*
X98916028Y-57445476D02*
X98963647Y-57407381D01*
X98963647Y-57407381D02*
X99058885Y-57369285D01*
X99058885Y-57369285D02*
X99201742Y-57369285D01*
X99201742Y-57369285D02*
X99296980Y-57407381D01*
X99296980Y-57407381D02*
X99344600Y-57445476D01*
X99344600Y-57445476D02*
X99392219Y-57521666D01*
X99392219Y-57521666D02*
X99392219Y-57826428D01*
X99392219Y-57826428D02*
X98392219Y-57826428D01*
X98392219Y-57826428D02*
X98392219Y-57559762D01*
X98392219Y-57559762D02*
X98439838Y-57483571D01*
X98439838Y-57483571D02*
X98487457Y-57445476D01*
X98487457Y-57445476D02*
X98582695Y-57407381D01*
X98582695Y-57407381D02*
X98677933Y-57407381D01*
X98677933Y-57407381D02*
X98773171Y-57445476D01*
X98773171Y-57445476D02*
X98820790Y-57483571D01*
X98820790Y-57483571D02*
X98868409Y-57559762D01*
X98868409Y-57559762D02*
X98868409Y-57826428D01*
X99392219Y-56607381D02*
X99392219Y-57064524D01*
X99392219Y-56835952D02*
X98392219Y-56835952D01*
X98392219Y-56835952D02*
X98535076Y-56912143D01*
X98535076Y-56912143D02*
X98630314Y-56988333D01*
X98630314Y-56988333D02*
X98677933Y-57064524D01*
X98392219Y-56112142D02*
X98392219Y-56035952D01*
X98392219Y-56035952D02*
X98439838Y-55959761D01*
X98439838Y-55959761D02*
X98487457Y-55921666D01*
X98487457Y-55921666D02*
X98582695Y-55883571D01*
X98582695Y-55883571D02*
X98773171Y-55845476D01*
X98773171Y-55845476D02*
X99011266Y-55845476D01*
X99011266Y-55845476D02*
X99201742Y-55883571D01*
X99201742Y-55883571D02*
X99296980Y-55921666D01*
X99296980Y-55921666D02*
X99344600Y-55959761D01*
X99344600Y-55959761D02*
X99392219Y-56035952D01*
X99392219Y-56035952D02*
X99392219Y-56112142D01*
X99392219Y-56112142D02*
X99344600Y-56188333D01*
X99344600Y-56188333D02*
X99296980Y-56226428D01*
X99296980Y-56226428D02*
X99201742Y-56264523D01*
X99201742Y-56264523D02*
X99011266Y-56302619D01*
X99011266Y-56302619D02*
X98773171Y-56302619D01*
X98773171Y-56302619D02*
X98582695Y-56264523D01*
X98582695Y-56264523D02*
X98487457Y-56226428D01*
X98487457Y-56226428D02*
X98439838Y-56188333D01*
X98439838Y-56188333D02*
X98392219Y-56112142D01*
X109662219Y-58105475D02*
X108662219Y-58105475D01*
X108662219Y-58105475D02*
X108662219Y-57800713D01*
X108662219Y-57800713D02*
X108709838Y-57724523D01*
X108709838Y-57724523D02*
X108757457Y-57686428D01*
X108757457Y-57686428D02*
X108852695Y-57648332D01*
X108852695Y-57648332D02*
X108995552Y-57648332D01*
X108995552Y-57648332D02*
X109090790Y-57686428D01*
X109090790Y-57686428D02*
X109138409Y-57724523D01*
X109138409Y-57724523D02*
X109186028Y-57800713D01*
X109186028Y-57800713D02*
X109186028Y-58105475D01*
X109566980Y-56848332D02*
X109614600Y-56886428D01*
X109614600Y-56886428D02*
X109662219Y-57000713D01*
X109662219Y-57000713D02*
X109662219Y-57076904D01*
X109662219Y-57076904D02*
X109614600Y-57191190D01*
X109614600Y-57191190D02*
X109519361Y-57267380D01*
X109519361Y-57267380D02*
X109424123Y-57305475D01*
X109424123Y-57305475D02*
X109233647Y-57343571D01*
X109233647Y-57343571D02*
X109090790Y-57343571D01*
X109090790Y-57343571D02*
X108900314Y-57305475D01*
X108900314Y-57305475D02*
X108805076Y-57267380D01*
X108805076Y-57267380D02*
X108709838Y-57191190D01*
X108709838Y-57191190D02*
X108662219Y-57076904D01*
X108662219Y-57076904D02*
X108662219Y-57000713D01*
X108662219Y-57000713D02*
X108709838Y-56886428D01*
X108709838Y-56886428D02*
X108757457Y-56848332D01*
X108757457Y-56543571D02*
X108709838Y-56505475D01*
X108709838Y-56505475D02*
X108662219Y-56429285D01*
X108662219Y-56429285D02*
X108662219Y-56238809D01*
X108662219Y-56238809D02*
X108709838Y-56162618D01*
X108709838Y-56162618D02*
X108757457Y-56124523D01*
X108757457Y-56124523D02*
X108852695Y-56086428D01*
X108852695Y-56086428D02*
X108947933Y-56086428D01*
X108947933Y-56086428D02*
X109090790Y-56124523D01*
X109090790Y-56124523D02*
X109662219Y-56581666D01*
X109662219Y-56581666D02*
X109662219Y-56086428D01*
X102082219Y-58158332D02*
X101082219Y-58158332D01*
X101082219Y-58158332D02*
X101082219Y-57853570D01*
X101082219Y-57853570D02*
X101129838Y-57777380D01*
X101129838Y-57777380D02*
X101177457Y-57739285D01*
X101177457Y-57739285D02*
X101272695Y-57701189D01*
X101272695Y-57701189D02*
X101415552Y-57701189D01*
X101415552Y-57701189D02*
X101510790Y-57739285D01*
X101510790Y-57739285D02*
X101558409Y-57777380D01*
X101558409Y-57777380D02*
X101606028Y-57853570D01*
X101606028Y-57853570D02*
X101606028Y-58158332D01*
X101796504Y-57396428D02*
X101796504Y-57015475D01*
X102082219Y-57472618D02*
X101082219Y-57205951D01*
X101082219Y-57205951D02*
X102082219Y-56939285D01*
X101082219Y-56748809D02*
X101082219Y-56215475D01*
X101082219Y-56215475D02*
X102082219Y-56558333D01*
X96962219Y-58656428D02*
X95962219Y-58656428D01*
X95962219Y-58656428D02*
X95962219Y-58351666D01*
X95962219Y-58351666D02*
X96009838Y-58275476D01*
X96009838Y-58275476D02*
X96057457Y-58237381D01*
X96057457Y-58237381D02*
X96152695Y-58199285D01*
X96152695Y-58199285D02*
X96295552Y-58199285D01*
X96295552Y-58199285D02*
X96390790Y-58237381D01*
X96390790Y-58237381D02*
X96438409Y-58275476D01*
X96438409Y-58275476D02*
X96486028Y-58351666D01*
X96486028Y-58351666D02*
X96486028Y-58656428D01*
X96438409Y-57589762D02*
X96486028Y-57475476D01*
X96486028Y-57475476D02*
X96533647Y-57437381D01*
X96533647Y-57437381D02*
X96628885Y-57399285D01*
X96628885Y-57399285D02*
X96771742Y-57399285D01*
X96771742Y-57399285D02*
X96866980Y-57437381D01*
X96866980Y-57437381D02*
X96914600Y-57475476D01*
X96914600Y-57475476D02*
X96962219Y-57551666D01*
X96962219Y-57551666D02*
X96962219Y-57856428D01*
X96962219Y-57856428D02*
X95962219Y-57856428D01*
X95962219Y-57856428D02*
X95962219Y-57589762D01*
X95962219Y-57589762D02*
X96009838Y-57513571D01*
X96009838Y-57513571D02*
X96057457Y-57475476D01*
X96057457Y-57475476D02*
X96152695Y-57437381D01*
X96152695Y-57437381D02*
X96247933Y-57437381D01*
X96247933Y-57437381D02*
X96343171Y-57475476D01*
X96343171Y-57475476D02*
X96390790Y-57513571D01*
X96390790Y-57513571D02*
X96438409Y-57589762D01*
X96438409Y-57589762D02*
X96438409Y-57856428D01*
X96962219Y-56637381D02*
X96962219Y-57094524D01*
X96962219Y-56865952D02*
X95962219Y-56865952D01*
X95962219Y-56865952D02*
X96105076Y-56942143D01*
X96105076Y-56942143D02*
X96200314Y-57018333D01*
X96200314Y-57018333D02*
X96247933Y-57094524D01*
X96962219Y-55875476D02*
X96962219Y-56332619D01*
X96962219Y-56104047D02*
X95962219Y-56104047D01*
X95962219Y-56104047D02*
X96105076Y-56180238D01*
X96105076Y-56180238D02*
X96200314Y-56256428D01*
X96200314Y-56256428D02*
X96247933Y-56332619D01*
X114702219Y-58075475D02*
X113702219Y-58075475D01*
X113702219Y-58075475D02*
X113702219Y-57770713D01*
X113702219Y-57770713D02*
X113749838Y-57694523D01*
X113749838Y-57694523D02*
X113797457Y-57656428D01*
X113797457Y-57656428D02*
X113892695Y-57618332D01*
X113892695Y-57618332D02*
X114035552Y-57618332D01*
X114035552Y-57618332D02*
X114130790Y-57656428D01*
X114130790Y-57656428D02*
X114178409Y-57694523D01*
X114178409Y-57694523D02*
X114226028Y-57770713D01*
X114226028Y-57770713D02*
X114226028Y-58075475D01*
X114606980Y-56818332D02*
X114654600Y-56856428D01*
X114654600Y-56856428D02*
X114702219Y-56970713D01*
X114702219Y-56970713D02*
X114702219Y-57046904D01*
X114702219Y-57046904D02*
X114654600Y-57161190D01*
X114654600Y-57161190D02*
X114559361Y-57237380D01*
X114559361Y-57237380D02*
X114464123Y-57275475D01*
X114464123Y-57275475D02*
X114273647Y-57313571D01*
X114273647Y-57313571D02*
X114130790Y-57313571D01*
X114130790Y-57313571D02*
X113940314Y-57275475D01*
X113940314Y-57275475D02*
X113845076Y-57237380D01*
X113845076Y-57237380D02*
X113749838Y-57161190D01*
X113749838Y-57161190D02*
X113702219Y-57046904D01*
X113702219Y-57046904D02*
X113702219Y-56970713D01*
X113702219Y-56970713D02*
X113749838Y-56856428D01*
X113749838Y-56856428D02*
X113797457Y-56818332D01*
X113702219Y-56323094D02*
X113702219Y-56246904D01*
X113702219Y-56246904D02*
X113749838Y-56170713D01*
X113749838Y-56170713D02*
X113797457Y-56132618D01*
X113797457Y-56132618D02*
X113892695Y-56094523D01*
X113892695Y-56094523D02*
X114083171Y-56056428D01*
X114083171Y-56056428D02*
X114321266Y-56056428D01*
X114321266Y-56056428D02*
X114511742Y-56094523D01*
X114511742Y-56094523D02*
X114606980Y-56132618D01*
X114606980Y-56132618D02*
X114654600Y-56170713D01*
X114654600Y-56170713D02*
X114702219Y-56246904D01*
X114702219Y-56246904D02*
X114702219Y-56323094D01*
X114702219Y-56323094D02*
X114654600Y-56399285D01*
X114654600Y-56399285D02*
X114606980Y-56437380D01*
X114606980Y-56437380D02*
X114511742Y-56475475D01*
X114511742Y-56475475D02*
X114321266Y-56513571D01*
X114321266Y-56513571D02*
X114083171Y-56513571D01*
X114083171Y-56513571D02*
X113892695Y-56475475D01*
X113892695Y-56475475D02*
X113797457Y-56437380D01*
X113797457Y-56437380D02*
X113749838Y-56399285D01*
X113749838Y-56399285D02*
X113702219Y-56323094D01*
X85782219Y-58005476D02*
X85782219Y-57510238D01*
X85782219Y-57510238D02*
X86163171Y-57776904D01*
X86163171Y-57776904D02*
X86163171Y-57662619D01*
X86163171Y-57662619D02*
X86210790Y-57586428D01*
X86210790Y-57586428D02*
X86258409Y-57548333D01*
X86258409Y-57548333D02*
X86353647Y-57510238D01*
X86353647Y-57510238D02*
X86591742Y-57510238D01*
X86591742Y-57510238D02*
X86686980Y-57548333D01*
X86686980Y-57548333D02*
X86734600Y-57586428D01*
X86734600Y-57586428D02*
X86782219Y-57662619D01*
X86782219Y-57662619D02*
X86782219Y-57891190D01*
X86782219Y-57891190D02*
X86734600Y-57967381D01*
X86734600Y-57967381D02*
X86686980Y-58005476D01*
X85782219Y-57281666D02*
X86782219Y-57014999D01*
X86782219Y-57014999D02*
X85782219Y-56748333D01*
X85782219Y-56557857D02*
X85782219Y-56062619D01*
X85782219Y-56062619D02*
X86163171Y-56329285D01*
X86163171Y-56329285D02*
X86163171Y-56215000D01*
X86163171Y-56215000D02*
X86210790Y-56138809D01*
X86210790Y-56138809D02*
X86258409Y-56100714D01*
X86258409Y-56100714D02*
X86353647Y-56062619D01*
X86353647Y-56062619D02*
X86591742Y-56062619D01*
X86591742Y-56062619D02*
X86686980Y-56100714D01*
X86686980Y-56100714D02*
X86734600Y-56138809D01*
X86734600Y-56138809D02*
X86782219Y-56215000D01*
X86782219Y-56215000D02*
X86782219Y-56443571D01*
X86782219Y-56443571D02*
X86734600Y-56519762D01*
X86734600Y-56519762D02*
X86686980Y-56557857D01*
X129851760Y-57967873D02*
X128851760Y-57967873D01*
X128851760Y-57967873D02*
X128851760Y-57663111D01*
X128851760Y-57663111D02*
X128899379Y-57586921D01*
X128899379Y-57586921D02*
X128946998Y-57548826D01*
X128946998Y-57548826D02*
X129042236Y-57510730D01*
X129042236Y-57510730D02*
X129185093Y-57510730D01*
X129185093Y-57510730D02*
X129280331Y-57548826D01*
X129280331Y-57548826D02*
X129327950Y-57586921D01*
X129327950Y-57586921D02*
X129375569Y-57663111D01*
X129375569Y-57663111D02*
X129375569Y-57967873D01*
X129566045Y-57205969D02*
X129566045Y-56825016D01*
X129851760Y-57282159D02*
X128851760Y-57015492D01*
X128851760Y-57015492D02*
X129851760Y-56748826D01*
X128851760Y-56329778D02*
X128851760Y-56253588D01*
X128851760Y-56253588D02*
X128899379Y-56177397D01*
X128899379Y-56177397D02*
X128946998Y-56139302D01*
X128946998Y-56139302D02*
X129042236Y-56101207D01*
X129042236Y-56101207D02*
X129232712Y-56063112D01*
X129232712Y-56063112D02*
X129470807Y-56063112D01*
X129470807Y-56063112D02*
X129661283Y-56101207D01*
X129661283Y-56101207D02*
X129756521Y-56139302D01*
X129756521Y-56139302D02*
X129804141Y-56177397D01*
X129804141Y-56177397D02*
X129851760Y-56253588D01*
X129851760Y-56253588D02*
X129851760Y-56329778D01*
X129851760Y-56329778D02*
X129804141Y-56405969D01*
X129804141Y-56405969D02*
X129756521Y-56444064D01*
X129756521Y-56444064D02*
X129661283Y-56482159D01*
X129661283Y-56482159D02*
X129470807Y-56520255D01*
X129470807Y-56520255D02*
X129232712Y-56520255D01*
X129232712Y-56520255D02*
X129042236Y-56482159D01*
X129042236Y-56482159D02*
X128946998Y-56444064D01*
X128946998Y-56444064D02*
X128899379Y-56405969D01*
X128899379Y-56405969D02*
X128851760Y-56329778D01*
D11*
X77388095Y-51022238D02*
X77292857Y-50974619D01*
X77292857Y-50974619D02*
X77150000Y-50974619D01*
X77150000Y-50974619D02*
X77007143Y-51022238D01*
X77007143Y-51022238D02*
X76911905Y-51117476D01*
X76911905Y-51117476D02*
X76864286Y-51212714D01*
X76864286Y-51212714D02*
X76816667Y-51403190D01*
X76816667Y-51403190D02*
X76816667Y-51546047D01*
X76816667Y-51546047D02*
X76864286Y-51736523D01*
X76864286Y-51736523D02*
X76911905Y-51831761D01*
X76911905Y-51831761D02*
X77007143Y-51927000D01*
X77007143Y-51927000D02*
X77150000Y-51974619D01*
X77150000Y-51974619D02*
X77245238Y-51974619D01*
X77245238Y-51974619D02*
X77388095Y-51927000D01*
X77388095Y-51927000D02*
X77435714Y-51879380D01*
X77435714Y-51879380D02*
X77435714Y-51546047D01*
X77435714Y-51546047D02*
X77245238Y-51546047D01*
X77864286Y-51974619D02*
X77864286Y-50974619D01*
X77864286Y-50974619D02*
X78435714Y-51974619D01*
X78435714Y-51974619D02*
X78435714Y-50974619D01*
X78911905Y-51974619D02*
X78911905Y-50974619D01*
X78911905Y-50974619D02*
X79150000Y-50974619D01*
X79150000Y-50974619D02*
X79292857Y-51022238D01*
X79292857Y-51022238D02*
X79388095Y-51117476D01*
X79388095Y-51117476D02*
X79435714Y-51212714D01*
X79435714Y-51212714D02*
X79483333Y-51403190D01*
X79483333Y-51403190D02*
X79483333Y-51546047D01*
X79483333Y-51546047D02*
X79435714Y-51736523D01*
X79435714Y-51736523D02*
X79388095Y-51831761D01*
X79388095Y-51831761D02*
X79292857Y-51927000D01*
X79292857Y-51927000D02*
X79150000Y-51974619D01*
X79150000Y-51974619D02*
X78911905Y-51974619D01*
D12*
X83102219Y-58116666D02*
X84102219Y-57849999D01*
X84102219Y-57849999D02*
X83102219Y-57583333D01*
X84102219Y-57316666D02*
X83102219Y-57316666D01*
X83102219Y-57316666D02*
X83102219Y-57126190D01*
X83102219Y-57126190D02*
X83149838Y-57011904D01*
X83149838Y-57011904D02*
X83245076Y-56935714D01*
X83245076Y-56935714D02*
X83340314Y-56897619D01*
X83340314Y-56897619D02*
X83530790Y-56859523D01*
X83530790Y-56859523D02*
X83673647Y-56859523D01*
X83673647Y-56859523D02*
X83864123Y-56897619D01*
X83864123Y-56897619D02*
X83959361Y-56935714D01*
X83959361Y-56935714D02*
X84054600Y-57011904D01*
X84054600Y-57011904D02*
X84102219Y-57126190D01*
X84102219Y-57126190D02*
X84102219Y-57316666D01*
X84006980Y-56059523D02*
X84054600Y-56097619D01*
X84054600Y-56097619D02*
X84102219Y-56211904D01*
X84102219Y-56211904D02*
X84102219Y-56288095D01*
X84102219Y-56288095D02*
X84054600Y-56402381D01*
X84054600Y-56402381D02*
X83959361Y-56478571D01*
X83959361Y-56478571D02*
X83864123Y-56516666D01*
X83864123Y-56516666D02*
X83673647Y-56554762D01*
X83673647Y-56554762D02*
X83530790Y-56554762D01*
X83530790Y-56554762D02*
X83340314Y-56516666D01*
X83340314Y-56516666D02*
X83245076Y-56478571D01*
X83245076Y-56478571D02*
X83149838Y-56402381D01*
X83149838Y-56402381D02*
X83102219Y-56288095D01*
X83102219Y-56288095D02*
X83102219Y-56211904D01*
X83102219Y-56211904D02*
X83149838Y-56097619D01*
X83149838Y-56097619D02*
X83197457Y-56059523D01*
D11*
X139632142Y-65657857D02*
X139632142Y-66229285D01*
X139632142Y-66229285D02*
X138432142Y-66229285D01*
X139632142Y-64686428D02*
X139632142Y-65257856D01*
X139632142Y-65257856D02*
X138432142Y-65257856D01*
X138432142Y-64229284D02*
X138660714Y-64343570D01*
X138546428Y-63772141D02*
X138489285Y-63714998D01*
X138489285Y-63714998D02*
X138432142Y-63600713D01*
X138432142Y-63600713D02*
X138432142Y-63314998D01*
X138432142Y-63314998D02*
X138489285Y-63200713D01*
X138489285Y-63200713D02*
X138546428Y-63143570D01*
X138546428Y-63143570D02*
X138660714Y-63086427D01*
X138660714Y-63086427D02*
X138775000Y-63086427D01*
X138775000Y-63086427D02*
X138946428Y-63143570D01*
X138946428Y-63143570D02*
X139632142Y-63829284D01*
X139632142Y-63829284D02*
X139632142Y-63086427D01*
X138432142Y-62686427D02*
X138432142Y-61943570D01*
X138432142Y-61943570D02*
X138889285Y-62343570D01*
X138889285Y-62343570D02*
X138889285Y-62172141D01*
X138889285Y-62172141D02*
X138946428Y-62057856D01*
X138946428Y-62057856D02*
X139003571Y-62000713D01*
X139003571Y-62000713D02*
X139117857Y-61943570D01*
X139117857Y-61943570D02*
X139403571Y-61943570D01*
X139403571Y-61943570D02*
X139517857Y-62000713D01*
X139517857Y-62000713D02*
X139575000Y-62057856D01*
X139575000Y-62057856D02*
X139632142Y-62172141D01*
X139632142Y-62172141D02*
X139632142Y-62514998D01*
X139632142Y-62514998D02*
X139575000Y-62629284D01*
X139575000Y-62629284D02*
X139517857Y-62686427D01*
D12*
X124812219Y-57958332D02*
X123812219Y-57958332D01*
X123812219Y-57958332D02*
X123812219Y-57653570D01*
X123812219Y-57653570D02*
X123859838Y-57577380D01*
X123859838Y-57577380D02*
X123907457Y-57539285D01*
X123907457Y-57539285D02*
X124002695Y-57501189D01*
X124002695Y-57501189D02*
X124145552Y-57501189D01*
X124145552Y-57501189D02*
X124240790Y-57539285D01*
X124240790Y-57539285D02*
X124288409Y-57577380D01*
X124288409Y-57577380D02*
X124336028Y-57653570D01*
X124336028Y-57653570D02*
X124336028Y-57958332D01*
X124526504Y-57196428D02*
X124526504Y-56815475D01*
X124812219Y-57272618D02*
X123812219Y-57005951D01*
X123812219Y-57005951D02*
X124812219Y-56739285D01*
X123907457Y-56510714D02*
X123859838Y-56472618D01*
X123859838Y-56472618D02*
X123812219Y-56396428D01*
X123812219Y-56396428D02*
X123812219Y-56205952D01*
X123812219Y-56205952D02*
X123859838Y-56129761D01*
X123859838Y-56129761D02*
X123907457Y-56091666D01*
X123907457Y-56091666D02*
X124002695Y-56053571D01*
X124002695Y-56053571D02*
X124097933Y-56053571D01*
X124097933Y-56053571D02*
X124240790Y-56091666D01*
X124240790Y-56091666D02*
X124812219Y-56548809D01*
X124812219Y-56548809D02*
X124812219Y-56053571D01*
X119772219Y-57948332D02*
X118772219Y-57948332D01*
X118772219Y-57948332D02*
X118772219Y-57643570D01*
X118772219Y-57643570D02*
X118819838Y-57567380D01*
X118819838Y-57567380D02*
X118867457Y-57529285D01*
X118867457Y-57529285D02*
X118962695Y-57491189D01*
X118962695Y-57491189D02*
X119105552Y-57491189D01*
X119105552Y-57491189D02*
X119200790Y-57529285D01*
X119200790Y-57529285D02*
X119248409Y-57567380D01*
X119248409Y-57567380D02*
X119296028Y-57643570D01*
X119296028Y-57643570D02*
X119296028Y-57948332D01*
X119486504Y-57186428D02*
X119486504Y-56805475D01*
X119772219Y-57262618D02*
X118772219Y-56995951D01*
X118772219Y-56995951D02*
X119772219Y-56729285D01*
X119105552Y-56119761D02*
X119772219Y-56119761D01*
X118724600Y-56310237D02*
X119438885Y-56500714D01*
X119438885Y-56500714D02*
X119438885Y-56005475D01*
X122431760Y-58107873D02*
X121431760Y-58107873D01*
X121431760Y-58107873D02*
X121431760Y-57803111D01*
X121431760Y-57803111D02*
X121479379Y-57726921D01*
X121479379Y-57726921D02*
X121526998Y-57688826D01*
X121526998Y-57688826D02*
X121622236Y-57650730D01*
X121622236Y-57650730D02*
X121765093Y-57650730D01*
X121765093Y-57650730D02*
X121860331Y-57688826D01*
X121860331Y-57688826D02*
X121907950Y-57726921D01*
X121907950Y-57726921D02*
X121955569Y-57803111D01*
X121955569Y-57803111D02*
X121955569Y-58107873D01*
X122146045Y-57345969D02*
X122146045Y-56965016D01*
X122431760Y-57422159D02*
X121431760Y-57155492D01*
X121431760Y-57155492D02*
X122431760Y-56888826D01*
X121431760Y-56698350D02*
X121431760Y-56203112D01*
X121431760Y-56203112D02*
X121812712Y-56469778D01*
X121812712Y-56469778D02*
X121812712Y-56355493D01*
X121812712Y-56355493D02*
X121860331Y-56279302D01*
X121860331Y-56279302D02*
X121907950Y-56241207D01*
X121907950Y-56241207D02*
X122003188Y-56203112D01*
X122003188Y-56203112D02*
X122241283Y-56203112D01*
X122241283Y-56203112D02*
X122336521Y-56241207D01*
X122336521Y-56241207D02*
X122384141Y-56279302D01*
X122384141Y-56279302D02*
X122431760Y-56355493D01*
X122431760Y-56355493D02*
X122431760Y-56584064D01*
X122431760Y-56584064D02*
X122384141Y-56660255D01*
X122384141Y-56660255D02*
X122336521Y-56698350D01*
X127331760Y-57967873D02*
X126331760Y-57967873D01*
X126331760Y-57967873D02*
X126331760Y-57663111D01*
X126331760Y-57663111D02*
X126379379Y-57586921D01*
X126379379Y-57586921D02*
X126426998Y-57548826D01*
X126426998Y-57548826D02*
X126522236Y-57510730D01*
X126522236Y-57510730D02*
X126665093Y-57510730D01*
X126665093Y-57510730D02*
X126760331Y-57548826D01*
X126760331Y-57548826D02*
X126807950Y-57586921D01*
X126807950Y-57586921D02*
X126855569Y-57663111D01*
X126855569Y-57663111D02*
X126855569Y-57967873D01*
X127046045Y-57205969D02*
X127046045Y-56825016D01*
X127331760Y-57282159D02*
X126331760Y-57015492D01*
X126331760Y-57015492D02*
X127331760Y-56748826D01*
X127331760Y-56063112D02*
X127331760Y-56520255D01*
X127331760Y-56291683D02*
X126331760Y-56291683D01*
X126331760Y-56291683D02*
X126474617Y-56367874D01*
X126474617Y-56367874D02*
X126569855Y-56444064D01*
X126569855Y-56444064D02*
X126617474Y-56520255D01*
X117231760Y-58097873D02*
X116231760Y-58097873D01*
X116231760Y-58097873D02*
X116231760Y-57793111D01*
X116231760Y-57793111D02*
X116279379Y-57716921D01*
X116279379Y-57716921D02*
X116326998Y-57678826D01*
X116326998Y-57678826D02*
X116422236Y-57640730D01*
X116422236Y-57640730D02*
X116565093Y-57640730D01*
X116565093Y-57640730D02*
X116660331Y-57678826D01*
X116660331Y-57678826D02*
X116707950Y-57716921D01*
X116707950Y-57716921D02*
X116755569Y-57793111D01*
X116755569Y-57793111D02*
X116755569Y-58097873D01*
X116946045Y-57335969D02*
X116946045Y-56955016D01*
X117231760Y-57412159D02*
X116231760Y-57145492D01*
X116231760Y-57145492D02*
X117231760Y-56878826D01*
X116231760Y-56231207D02*
X116231760Y-56612159D01*
X116231760Y-56612159D02*
X116707950Y-56650255D01*
X116707950Y-56650255D02*
X116660331Y-56612159D01*
X116660331Y-56612159D02*
X116612712Y-56535969D01*
X116612712Y-56535969D02*
X116612712Y-56345493D01*
X116612712Y-56345493D02*
X116660331Y-56269302D01*
X116660331Y-56269302D02*
X116707950Y-56231207D01*
X116707950Y-56231207D02*
X116803188Y-56193112D01*
X116803188Y-56193112D02*
X117041283Y-56193112D01*
X117041283Y-56193112D02*
X117136521Y-56231207D01*
X117136521Y-56231207D02*
X117184141Y-56269302D01*
X117184141Y-56269302D02*
X117231760Y-56345493D01*
X117231760Y-56345493D02*
X117231760Y-56535969D01*
X117231760Y-56535969D02*
X117184141Y-56612159D01*
X117184141Y-56612159D02*
X117136521Y-56650255D01*
X94232219Y-58656428D02*
X93232219Y-58656428D01*
X93232219Y-58656428D02*
X93232219Y-58351666D01*
X93232219Y-58351666D02*
X93279838Y-58275476D01*
X93279838Y-58275476D02*
X93327457Y-58237381D01*
X93327457Y-58237381D02*
X93422695Y-58199285D01*
X93422695Y-58199285D02*
X93565552Y-58199285D01*
X93565552Y-58199285D02*
X93660790Y-58237381D01*
X93660790Y-58237381D02*
X93708409Y-58275476D01*
X93708409Y-58275476D02*
X93756028Y-58351666D01*
X93756028Y-58351666D02*
X93756028Y-58656428D01*
X93708409Y-57589762D02*
X93756028Y-57475476D01*
X93756028Y-57475476D02*
X93803647Y-57437381D01*
X93803647Y-57437381D02*
X93898885Y-57399285D01*
X93898885Y-57399285D02*
X94041742Y-57399285D01*
X94041742Y-57399285D02*
X94136980Y-57437381D01*
X94136980Y-57437381D02*
X94184600Y-57475476D01*
X94184600Y-57475476D02*
X94232219Y-57551666D01*
X94232219Y-57551666D02*
X94232219Y-57856428D01*
X94232219Y-57856428D02*
X93232219Y-57856428D01*
X93232219Y-57856428D02*
X93232219Y-57589762D01*
X93232219Y-57589762D02*
X93279838Y-57513571D01*
X93279838Y-57513571D02*
X93327457Y-57475476D01*
X93327457Y-57475476D02*
X93422695Y-57437381D01*
X93422695Y-57437381D02*
X93517933Y-57437381D01*
X93517933Y-57437381D02*
X93613171Y-57475476D01*
X93613171Y-57475476D02*
X93660790Y-57513571D01*
X93660790Y-57513571D02*
X93708409Y-57589762D01*
X93708409Y-57589762D02*
X93708409Y-57856428D01*
X94232219Y-56637381D02*
X94232219Y-57094524D01*
X94232219Y-56865952D02*
X93232219Y-56865952D01*
X93232219Y-56865952D02*
X93375076Y-56942143D01*
X93375076Y-56942143D02*
X93470314Y-57018333D01*
X93470314Y-57018333D02*
X93517933Y-57094524D01*
X93327457Y-56332619D02*
X93279838Y-56294523D01*
X93279838Y-56294523D02*
X93232219Y-56218333D01*
X93232219Y-56218333D02*
X93232219Y-56027857D01*
X93232219Y-56027857D02*
X93279838Y-55951666D01*
X93279838Y-55951666D02*
X93327457Y-55913571D01*
X93327457Y-55913571D02*
X93422695Y-55875476D01*
X93422695Y-55875476D02*
X93517933Y-55875476D01*
X93517933Y-55875476D02*
X93660790Y-55913571D01*
X93660790Y-55913571D02*
X94232219Y-56370714D01*
X94232219Y-56370714D02*
X94232219Y-55875476D01*
X80602219Y-58041666D02*
X81602219Y-57774999D01*
X81602219Y-57774999D02*
X80602219Y-57508333D01*
X81602219Y-57241666D02*
X80602219Y-57241666D01*
X80602219Y-57241666D02*
X80602219Y-57051190D01*
X80602219Y-57051190D02*
X80649838Y-56936904D01*
X80649838Y-56936904D02*
X80745076Y-56860714D01*
X80745076Y-56860714D02*
X80840314Y-56822619D01*
X80840314Y-56822619D02*
X81030790Y-56784523D01*
X81030790Y-56784523D02*
X81173647Y-56784523D01*
X81173647Y-56784523D02*
X81364123Y-56822619D01*
X81364123Y-56822619D02*
X81459361Y-56860714D01*
X81459361Y-56860714D02*
X81554600Y-56936904D01*
X81554600Y-56936904D02*
X81602219Y-57051190D01*
X81602219Y-57051190D02*
X81602219Y-57241666D01*
X81506980Y-55984523D02*
X81554600Y-56022619D01*
X81554600Y-56022619D02*
X81602219Y-56136904D01*
X81602219Y-56136904D02*
X81602219Y-56213095D01*
X81602219Y-56213095D02*
X81554600Y-56327381D01*
X81554600Y-56327381D02*
X81459361Y-56403571D01*
X81459361Y-56403571D02*
X81364123Y-56441666D01*
X81364123Y-56441666D02*
X81173647Y-56479762D01*
X81173647Y-56479762D02*
X81030790Y-56479762D01*
X81030790Y-56479762D02*
X80840314Y-56441666D01*
X80840314Y-56441666D02*
X80745076Y-56403571D01*
X80745076Y-56403571D02*
X80649838Y-56327381D01*
X80649838Y-56327381D02*
X80602219Y-56213095D01*
X80602219Y-56213095D02*
X80602219Y-56136904D01*
X80602219Y-56136904D02*
X80649838Y-56022619D01*
X80649838Y-56022619D02*
X80697457Y-55984523D01*
X112102219Y-58215475D02*
X111102219Y-58215475D01*
X111102219Y-58215475D02*
X111102219Y-57910713D01*
X111102219Y-57910713D02*
X111149838Y-57834523D01*
X111149838Y-57834523D02*
X111197457Y-57796428D01*
X111197457Y-57796428D02*
X111292695Y-57758332D01*
X111292695Y-57758332D02*
X111435552Y-57758332D01*
X111435552Y-57758332D02*
X111530790Y-57796428D01*
X111530790Y-57796428D02*
X111578409Y-57834523D01*
X111578409Y-57834523D02*
X111626028Y-57910713D01*
X111626028Y-57910713D02*
X111626028Y-58215475D01*
X112006980Y-56958332D02*
X112054600Y-56996428D01*
X112054600Y-56996428D02*
X112102219Y-57110713D01*
X112102219Y-57110713D02*
X112102219Y-57186904D01*
X112102219Y-57186904D02*
X112054600Y-57301190D01*
X112054600Y-57301190D02*
X111959361Y-57377380D01*
X111959361Y-57377380D02*
X111864123Y-57415475D01*
X111864123Y-57415475D02*
X111673647Y-57453571D01*
X111673647Y-57453571D02*
X111530790Y-57453571D01*
X111530790Y-57453571D02*
X111340314Y-57415475D01*
X111340314Y-57415475D02*
X111245076Y-57377380D01*
X111245076Y-57377380D02*
X111149838Y-57301190D01*
X111149838Y-57301190D02*
X111102219Y-57186904D01*
X111102219Y-57186904D02*
X111102219Y-57110713D01*
X111102219Y-57110713D02*
X111149838Y-56996428D01*
X111149838Y-56996428D02*
X111197457Y-56958332D01*
X112102219Y-56196428D02*
X112102219Y-56653571D01*
X112102219Y-56424999D02*
X111102219Y-56424999D01*
X111102219Y-56424999D02*
X111245076Y-56501190D01*
X111245076Y-56501190D02*
X111340314Y-56577380D01*
X111340314Y-56577380D02*
X111387933Y-56653571D01*
X104552219Y-57988332D02*
X103552219Y-57988332D01*
X103552219Y-57988332D02*
X103552219Y-57683570D01*
X103552219Y-57683570D02*
X103599838Y-57607380D01*
X103599838Y-57607380D02*
X103647457Y-57569285D01*
X103647457Y-57569285D02*
X103742695Y-57531189D01*
X103742695Y-57531189D02*
X103885552Y-57531189D01*
X103885552Y-57531189D02*
X103980790Y-57569285D01*
X103980790Y-57569285D02*
X104028409Y-57607380D01*
X104028409Y-57607380D02*
X104076028Y-57683570D01*
X104076028Y-57683570D02*
X104076028Y-57988332D01*
X104266504Y-57226428D02*
X104266504Y-56845475D01*
X104552219Y-57302618D02*
X103552219Y-57035951D01*
X103552219Y-57035951D02*
X104552219Y-56769285D01*
X103552219Y-56159761D02*
X103552219Y-56312142D01*
X103552219Y-56312142D02*
X103599838Y-56388333D01*
X103599838Y-56388333D02*
X103647457Y-56426428D01*
X103647457Y-56426428D02*
X103790314Y-56502618D01*
X103790314Y-56502618D02*
X103980790Y-56540714D01*
X103980790Y-56540714D02*
X104361742Y-56540714D01*
X104361742Y-56540714D02*
X104456980Y-56502618D01*
X104456980Y-56502618D02*
X104504600Y-56464523D01*
X104504600Y-56464523D02*
X104552219Y-56388333D01*
X104552219Y-56388333D02*
X104552219Y-56235952D01*
X104552219Y-56235952D02*
X104504600Y-56159761D01*
X104504600Y-56159761D02*
X104456980Y-56121666D01*
X104456980Y-56121666D02*
X104361742Y-56083571D01*
X104361742Y-56083571D02*
X104123647Y-56083571D01*
X104123647Y-56083571D02*
X104028409Y-56121666D01*
X104028409Y-56121666D02*
X103980790Y-56159761D01*
X103980790Y-56159761D02*
X103933171Y-56235952D01*
X103933171Y-56235952D02*
X103933171Y-56388333D01*
X103933171Y-56388333D02*
X103980790Y-56464523D01*
X103980790Y-56464523D02*
X104028409Y-56502618D01*
X104028409Y-56502618D02*
X104123647Y-56540714D01*
X107202219Y-58265475D02*
X106202219Y-58265475D01*
X106202219Y-58265475D02*
X106202219Y-57960713D01*
X106202219Y-57960713D02*
X106249838Y-57884523D01*
X106249838Y-57884523D02*
X106297457Y-57846428D01*
X106297457Y-57846428D02*
X106392695Y-57808332D01*
X106392695Y-57808332D02*
X106535552Y-57808332D01*
X106535552Y-57808332D02*
X106630790Y-57846428D01*
X106630790Y-57846428D02*
X106678409Y-57884523D01*
X106678409Y-57884523D02*
X106726028Y-57960713D01*
X106726028Y-57960713D02*
X106726028Y-58265475D01*
X107106980Y-57008332D02*
X107154600Y-57046428D01*
X107154600Y-57046428D02*
X107202219Y-57160713D01*
X107202219Y-57160713D02*
X107202219Y-57236904D01*
X107202219Y-57236904D02*
X107154600Y-57351190D01*
X107154600Y-57351190D02*
X107059361Y-57427380D01*
X107059361Y-57427380D02*
X106964123Y-57465475D01*
X106964123Y-57465475D02*
X106773647Y-57503571D01*
X106773647Y-57503571D02*
X106630790Y-57503571D01*
X106630790Y-57503571D02*
X106440314Y-57465475D01*
X106440314Y-57465475D02*
X106345076Y-57427380D01*
X106345076Y-57427380D02*
X106249838Y-57351190D01*
X106249838Y-57351190D02*
X106202219Y-57236904D01*
X106202219Y-57236904D02*
X106202219Y-57160713D01*
X106202219Y-57160713D02*
X106249838Y-57046428D01*
X106249838Y-57046428D02*
X106297457Y-57008332D01*
X106202219Y-56741666D02*
X106202219Y-56246428D01*
X106202219Y-56246428D02*
X106583171Y-56513094D01*
X106583171Y-56513094D02*
X106583171Y-56398809D01*
X106583171Y-56398809D02*
X106630790Y-56322618D01*
X106630790Y-56322618D02*
X106678409Y-56284523D01*
X106678409Y-56284523D02*
X106773647Y-56246428D01*
X106773647Y-56246428D02*
X107011742Y-56246428D01*
X107011742Y-56246428D02*
X107106980Y-56284523D01*
X107106980Y-56284523D02*
X107154600Y-56322618D01*
X107154600Y-56322618D02*
X107202219Y-56398809D01*
X107202219Y-56398809D02*
X107202219Y-56627380D01*
X107202219Y-56627380D02*
X107154600Y-56703571D01*
X107154600Y-56703571D02*
X107106980Y-56741666D01*
D13*
X89658333Y-59559580D02*
X89610714Y-59607200D01*
X89610714Y-59607200D02*
X89467857Y-59654819D01*
X89467857Y-59654819D02*
X89372619Y-59654819D01*
X89372619Y-59654819D02*
X89229762Y-59607200D01*
X89229762Y-59607200D02*
X89134524Y-59511961D01*
X89134524Y-59511961D02*
X89086905Y-59416723D01*
X89086905Y-59416723D02*
X89039286Y-59226247D01*
X89039286Y-59226247D02*
X89039286Y-59083390D01*
X89039286Y-59083390D02*
X89086905Y-58892914D01*
X89086905Y-58892914D02*
X89134524Y-58797676D01*
X89134524Y-58797676D02*
X89229762Y-58702438D01*
X89229762Y-58702438D02*
X89372619Y-58654819D01*
X89372619Y-58654819D02*
X89467857Y-58654819D01*
X89467857Y-58654819D02*
X89610714Y-58702438D01*
X89610714Y-58702438D02*
X89658333Y-58750057D01*
X90610714Y-59654819D02*
X90039286Y-59654819D01*
X90325000Y-59654819D02*
X90325000Y-58654819D01*
X90325000Y-58654819D02*
X90229762Y-58797676D01*
X90229762Y-58797676D02*
X90134524Y-58892914D01*
X90134524Y-58892914D02*
X90039286Y-58940533D01*
D14*
X89138748Y-58235000D02*
X90561252Y-58235000D01*
X89138748Y-56415000D02*
X90561252Y-56415000D01*
X138222500Y-96370276D02*
X138222500Y-96879724D01*
X137177500Y-96370276D02*
X137177500Y-96879724D01*
X137232776Y-58002500D02*
X137742224Y-58002500D01*
X137232776Y-59047500D02*
X137742224Y-59047500D01*
X85780000Y-61095000D02*
X85780000Y-73915000D01*
X85780000Y-61095000D02*
X88380000Y-61095000D01*
X85780000Y-73915000D02*
X90980000Y-73915000D01*
X88380000Y-61095000D02*
X88380000Y-63695000D01*
X88380000Y-63695000D02*
X90980000Y-63695000D01*
X89650000Y-61095000D02*
X90980000Y-61095000D01*
X90980000Y-61095000D02*
X90980000Y-62425000D01*
X90980000Y-63695000D02*
X90980000Y-73915000D01*
X76072500Y-51382776D02*
X76072500Y-51892224D01*
X75027500Y-51382776D02*
X75027500Y-51892224D01*
X92500000Y-61905000D02*
X92500000Y-60575000D01*
X93830000Y-61905000D02*
X92500000Y-61905000D01*
X95100000Y-61905000D02*
X130720000Y-61905000D01*
X95100000Y-61905000D02*
X95100000Y-59245000D01*
X130720000Y-61905000D02*
X130720000Y-59245000D01*
X95100000Y-59245000D02*
X130720000Y-59245000D01*
X79820000Y-55445000D02*
X79820000Y-54115000D01*
X81150000Y-55445000D02*
X79820000Y-55445000D01*
X82420000Y-55445000D02*
X130740000Y-55445000D01*
X82420000Y-55445000D02*
X82420000Y-52845000D01*
X130740000Y-55445000D02*
X130740000Y-50245000D01*
X79820000Y-52845000D02*
X79820000Y-50245000D01*
X82420000Y-52845000D02*
X79820000Y-52845000D01*
X79820000Y-50245000D02*
X130740000Y-50245000D01*
X70895276Y-95802500D02*
X71404724Y-95802500D01*
X70895276Y-96847500D02*
X71404724Y-96847500D01*
%LPC*%
D15*
X83160000Y-62455000D03*
D16*
X70970000Y-75815000D03*
D17*
X73510000Y-75815000D03*
D15*
X83200000Y-70025000D03*
X83200000Y-67525000D03*
D18*
X119250000Y-93025000D03*
X121790000Y-93025000D03*
X124330000Y-93025000D03*
X126870000Y-93025000D03*
X129410000Y-93025000D03*
D17*
X131950000Y-93025000D03*
X119250000Y-95565000D03*
X121790000Y-95565000D03*
X124330000Y-95565000D03*
X126870000Y-95565000D03*
X129410000Y-95565000D03*
X131950000Y-95565000D03*
X119250000Y-98105000D03*
X121790000Y-98105000D03*
X124330000Y-98105000D03*
X126870000Y-98105000D03*
X129410000Y-98105000D03*
X131950000Y-98105000D03*
X119250000Y-100645000D03*
X121790000Y-100645000D03*
X124330000Y-100645000D03*
X126870000Y-100645000D03*
X129410000Y-100645000D03*
X131950000Y-100645000D03*
D19*
X92075000Y-73025000D03*
X92050000Y-70075000D03*
X92050000Y-67325000D03*
X92050000Y-64575000D03*
D18*
X70970000Y-73275000D03*
X70970000Y-70735000D03*
X70970000Y-68195000D03*
X70970000Y-65655000D03*
X70970000Y-63115000D03*
D17*
X70970000Y-60575000D03*
X73510000Y-73275000D03*
X73510000Y-70735000D03*
X73510000Y-68195000D03*
X73510000Y-65655000D03*
X73510000Y-63115000D03*
X73510000Y-60575000D03*
X76050000Y-73275000D03*
X76050000Y-70735000D03*
X76050000Y-68195000D03*
X76050000Y-65655000D03*
X76050000Y-63115000D03*
X76050000Y-60575000D03*
X78590000Y-73275000D03*
X78590000Y-70735000D03*
X78590000Y-68195000D03*
X78590000Y-65655000D03*
X78590000Y-63115000D03*
X78590000Y-60575000D03*
D20*
X134450000Y-61025000D03*
D17*
X83670000Y-88515000D03*
X86210000Y-88515000D03*
X88750000Y-88515000D03*
X91290000Y-88515000D03*
X93830000Y-88515000D03*
X96370000Y-88515000D03*
X98910000Y-88515000D03*
X101450000Y-88515000D03*
X103990000Y-88515000D03*
X106530000Y-88515000D03*
X109070000Y-88515000D03*
X111610000Y-88515000D03*
X114150000Y-88515000D03*
X116690000Y-88515000D03*
X119230000Y-88515000D03*
X121770000Y-88515000D03*
X124310000Y-88515000D03*
X126850000Y-88515000D03*
X129390000Y-88515000D03*
X131930000Y-88515000D03*
D15*
X91500000Y-85925000D03*
D16*
X78590000Y-78355000D03*
D17*
X81130000Y-78355000D03*
X78590000Y-80895000D03*
X81130000Y-80895000D03*
X78590000Y-83435000D03*
X81130000Y-83435000D03*
X78590000Y-85975000D03*
X81130000Y-85975000D03*
X78590000Y-88515000D03*
X81130000Y-88515000D03*
D18*
X131930000Y-85975000D03*
X131930000Y-83435000D03*
X131930000Y-80895000D03*
X131930000Y-78355000D03*
X131930000Y-75815000D03*
X131930000Y-73275000D03*
X131930000Y-70735000D03*
X131930000Y-68195000D03*
X131930000Y-65655000D03*
X131930000Y-63115000D03*
X134470000Y-85975000D03*
X134470000Y-83435000D03*
X134470000Y-80895000D03*
X134470000Y-78355000D03*
X134470000Y-75815000D03*
X134470000Y-73275000D03*
X134470000Y-70735000D03*
X134470000Y-68195000D03*
X134470000Y-65655000D03*
X134470000Y-63115000D03*
X119230000Y-85975000D03*
X119230000Y-83435000D03*
X119230000Y-80895000D03*
X119230000Y-78355000D03*
X119230000Y-75815000D03*
X119230000Y-73275000D03*
X119230000Y-70735000D03*
X119230000Y-68195000D03*
X119230000Y-65655000D03*
X119230000Y-63115000D03*
X121770000Y-85975000D03*
X121770000Y-83435000D03*
X121770000Y-80895000D03*
X121770000Y-78355000D03*
X121770000Y-75815000D03*
X121770000Y-73275000D03*
X121770000Y-70735000D03*
X121770000Y-68195000D03*
X121770000Y-65655000D03*
X121770000Y-63115000D03*
X124310000Y-85975000D03*
X124310000Y-83435000D03*
X124310000Y-80895000D03*
X124310000Y-78355000D03*
X124310000Y-75815000D03*
X124310000Y-73275000D03*
X124310000Y-70735000D03*
X124310000Y-68195000D03*
X124310000Y-65655000D03*
X124310000Y-63115000D03*
X126850000Y-85975000D03*
X126850000Y-83435000D03*
X126850000Y-80895000D03*
X126850000Y-78355000D03*
X126850000Y-75815000D03*
X126850000Y-73275000D03*
X126850000Y-70735000D03*
X126850000Y-68195000D03*
X126850000Y-65655000D03*
X126850000Y-63115000D03*
X129390000Y-85975000D03*
X129390000Y-83435000D03*
X129390000Y-80895000D03*
X129390000Y-78355000D03*
X129390000Y-75815000D03*
X129390000Y-73275000D03*
X129390000Y-70735000D03*
X129390000Y-68195000D03*
X129390000Y-65655000D03*
X129390000Y-63115000D03*
X116690000Y-63115000D03*
X116690000Y-65655000D03*
X116690000Y-68195000D03*
X116690000Y-70735000D03*
X116690000Y-73275000D03*
X116690000Y-75815000D03*
X116690000Y-78355000D03*
X116690000Y-80895000D03*
X116690000Y-83435000D03*
X116690000Y-85975000D03*
X114150000Y-63115000D03*
X114150000Y-65655000D03*
X114150000Y-68195000D03*
X114150000Y-70735000D03*
X114150000Y-73275000D03*
X114150000Y-75815000D03*
X114150000Y-78355000D03*
X114150000Y-80895000D03*
X114150000Y-83435000D03*
X114150000Y-85975000D03*
X111610000Y-63115000D03*
X111610000Y-65655000D03*
X111610000Y-68195000D03*
X111610000Y-70735000D03*
X111610000Y-73275000D03*
X111610000Y-75815000D03*
X111610000Y-78355000D03*
X111610000Y-80895000D03*
X111610000Y-83435000D03*
X111610000Y-85975000D03*
X109070000Y-63115000D03*
X109070000Y-65655000D03*
X109070000Y-68195000D03*
X109070000Y-70735000D03*
X109070000Y-73275000D03*
X109070000Y-75815000D03*
X109070000Y-78355000D03*
X109070000Y-80895000D03*
X109070000Y-83435000D03*
X109070000Y-85975000D03*
X106530000Y-63115000D03*
X106530000Y-65655000D03*
X106530000Y-68195000D03*
X106530000Y-70735000D03*
X106530000Y-73275000D03*
X106530000Y-75815000D03*
X106530000Y-78355000D03*
X106530000Y-80895000D03*
X106530000Y-83435000D03*
X106530000Y-85975000D03*
X103990000Y-63115000D03*
X103990000Y-65655000D03*
X103990000Y-68195000D03*
X103990000Y-70735000D03*
X103990000Y-73275000D03*
X103990000Y-75815000D03*
X103990000Y-78355000D03*
X103990000Y-80895000D03*
X103990000Y-83435000D03*
X103990000Y-85975000D03*
X101450000Y-63115000D03*
X101450000Y-65655000D03*
X101450000Y-68195000D03*
X101450000Y-70735000D03*
X101450000Y-73275000D03*
X101450000Y-75815000D03*
X101450000Y-78355000D03*
X101450000Y-80895000D03*
X101450000Y-83435000D03*
X101450000Y-85975000D03*
X98910000Y-63115000D03*
X98910000Y-65655000D03*
X98910000Y-68195000D03*
X98910000Y-70735000D03*
X98910000Y-73275000D03*
X98910000Y-75815000D03*
X98910000Y-78355000D03*
X98910000Y-80895000D03*
X98910000Y-83435000D03*
X98910000Y-85975000D03*
X96370000Y-63115000D03*
X96370000Y-65655000D03*
X96370000Y-68195000D03*
X96370000Y-70735000D03*
X96370000Y-73275000D03*
X96370000Y-75815000D03*
X96370000Y-78355000D03*
X96370000Y-80895000D03*
X96370000Y-83435000D03*
X96370000Y-85975000D03*
X93830000Y-63115000D03*
X93830000Y-65655000D03*
X93830000Y-68195000D03*
X93830000Y-70735000D03*
X93830000Y-73275000D03*
X93830000Y-75815000D03*
X93830000Y-78355000D03*
X93830000Y-80895000D03*
X93830000Y-83435000D03*
X93830000Y-85975000D03*
D21*
X88287500Y-57325000D03*
X91412500Y-57325000D03*
D22*
X137700000Y-95712500D03*
X137700000Y-97537500D03*
D23*
X136575000Y-58525000D03*
X138400000Y-58525000D03*
D24*
X89650000Y-62425000D03*
D17*
X87110000Y-62425000D03*
X89650000Y-64965000D03*
X87110000Y-64965000D03*
X89650000Y-67505000D03*
X87110000Y-67505000D03*
X89650000Y-70045000D03*
X87110000Y-70045000D03*
X89650000Y-72585000D03*
X87110000Y-72585000D03*
D22*
X75550000Y-50725000D03*
X75550000Y-52550000D03*
D25*
X71300000Y-101955000D03*
D26*
X71300000Y-101955000D03*
D24*
X93830000Y-60575000D03*
D17*
X96370000Y-60575000D03*
X98910000Y-60575000D03*
X101450000Y-60575000D03*
X103990000Y-60575000D03*
X106530000Y-60575000D03*
X109070000Y-60575000D03*
X111610000Y-60575000D03*
X114150000Y-60575000D03*
X116690000Y-60575000D03*
X119230000Y-60575000D03*
X121770000Y-60575000D03*
X124310000Y-60575000D03*
X126850000Y-60575000D03*
X129390000Y-60575000D03*
D25*
X136300000Y-101955000D03*
D26*
X136300000Y-101955000D03*
D25*
X71300000Y-53955000D03*
D26*
X71300000Y-53955000D03*
D24*
X81150000Y-54115000D03*
D17*
X81150000Y-51575000D03*
X83690000Y-54115000D03*
X83690000Y-51575000D03*
X86230000Y-54115000D03*
X86230000Y-51575000D03*
X88770000Y-54115000D03*
X88770000Y-51575000D03*
X91310000Y-54115000D03*
X91310000Y-51575000D03*
X93850000Y-54115000D03*
X93850000Y-51575000D03*
X96390000Y-54115000D03*
X96390000Y-51575000D03*
X98930000Y-54115000D03*
X98930000Y-51575000D03*
X101470000Y-54115000D03*
X101470000Y-51575000D03*
X104010000Y-54115000D03*
X104010000Y-51575000D03*
X106550000Y-54115000D03*
X106550000Y-51575000D03*
X109090000Y-54115000D03*
X109090000Y-51575000D03*
X111630000Y-54115000D03*
X111630000Y-51575000D03*
X114170000Y-54115000D03*
X114170000Y-51575000D03*
X116710000Y-54115000D03*
X116710000Y-51575000D03*
X119250000Y-54115000D03*
X119250000Y-51575000D03*
X121790000Y-54115000D03*
X121790000Y-51575000D03*
X124330000Y-54115000D03*
X124330000Y-51575000D03*
X126870000Y-54115000D03*
X126870000Y-51575000D03*
X129410000Y-54115000D03*
X129410000Y-51575000D03*
D25*
X136300000Y-53955000D03*
D26*
X136300000Y-53955000D03*
D23*
X70237500Y-96325000D03*
X72062500Y-96325000D03*
%LPD*%
M02*
