G04 #@! TF.GenerationSoftware,KiCad,Pcbnew,7.0.5-4d25ed1034~172~ubuntu22.04.1*
G04 #@! TF.CreationDate,2023-06-04T17:51:51+03:00*
G04 #@! TF.ProjectId,STM32L475daughter,53544d33-324c-4343-9735-646175676874,rev?*
G04 #@! TF.SameCoordinates,Original*
G04 #@! TF.FileFunction,Copper,L2,Bot*
G04 #@! TF.FilePolarity,Positive*
%FSLAX46Y46*%
G04 Gerber Fmt 4.6, Leading zero omitted, Abs format (unit mm)*
G04 Created by KiCad (PCBNEW 7.0.5-4d25ed1034~172~ubuntu22.04.1) date 2023-06-04 17:51:51*
%MOMM*%
%LPD*%
G01*
G04 APERTURE LIST*
%ADD10C,0.300000*%
G04 #@! TA.AperFunction,NonConductor*
%ADD11C,0.300000*%
G04 #@! TD*
G04 #@! TA.AperFunction,ComponentPad*
%ADD12C,1.700000*%
G04 #@! TD*
G04 #@! TA.AperFunction,ComponentPad*
%ADD13O,1.700000X1.700000*%
G04 #@! TD*
G04 #@! TA.AperFunction,ComponentPad*
%ADD14C,1.524000*%
G04 #@! TD*
G04 #@! TA.AperFunction,ComponentPad*
%ADD15R,1.700000X1.700000*%
G04 #@! TD*
G04 #@! TA.AperFunction,ComponentPad*
%ADD16C,3.600000*%
G04 #@! TD*
G04 #@! TA.AperFunction,ConnectorPad*
%ADD17C,5.600000*%
G04 #@! TD*
G04 #@! TA.AperFunction,ViaPad*
%ADD18C,0.800000*%
G04 #@! TD*
G04 #@! TA.AperFunction,Conductor*
%ADD19C,1.000000*%
G04 #@! TD*
G04 #@! TA.AperFunction,Conductor*
%ADD20C,0.300000*%
G04 #@! TD*
G04 APERTURE END LIST*
D10*
D11*
X76014286Y-95442614D02*
X75800000Y-95514042D01*
X75800000Y-95514042D02*
X75728571Y-95585471D01*
X75728571Y-95585471D02*
X75657143Y-95728328D01*
X75657143Y-95728328D02*
X75657143Y-95942614D01*
X75657143Y-95942614D02*
X75728571Y-96085471D01*
X75728571Y-96085471D02*
X75800000Y-96156900D01*
X75800000Y-96156900D02*
X75942857Y-96228328D01*
X75942857Y-96228328D02*
X76514286Y-96228328D01*
X76514286Y-96228328D02*
X76514286Y-94728328D01*
X76514286Y-94728328D02*
X76014286Y-94728328D01*
X76014286Y-94728328D02*
X75871429Y-94799757D01*
X75871429Y-94799757D02*
X75800000Y-94871185D01*
X75800000Y-94871185D02*
X75728571Y-95014042D01*
X75728571Y-95014042D02*
X75728571Y-95156900D01*
X75728571Y-95156900D02*
X75800000Y-95299757D01*
X75800000Y-95299757D02*
X75871429Y-95371185D01*
X75871429Y-95371185D02*
X76014286Y-95442614D01*
X76014286Y-95442614D02*
X76514286Y-95442614D01*
X74728571Y-94728328D02*
X74442857Y-94728328D01*
X74442857Y-94728328D02*
X74300000Y-94799757D01*
X74300000Y-94799757D02*
X74157143Y-94942614D01*
X74157143Y-94942614D02*
X74085714Y-95228328D01*
X74085714Y-95228328D02*
X74085714Y-95728328D01*
X74085714Y-95728328D02*
X74157143Y-96014042D01*
X74157143Y-96014042D02*
X74300000Y-96156900D01*
X74300000Y-96156900D02*
X74442857Y-96228328D01*
X74442857Y-96228328D02*
X74728571Y-96228328D01*
X74728571Y-96228328D02*
X74871429Y-96156900D01*
X74871429Y-96156900D02*
X75014286Y-96014042D01*
X75014286Y-96014042D02*
X75085714Y-95728328D01*
X75085714Y-95728328D02*
X75085714Y-95228328D01*
X75085714Y-95228328D02*
X75014286Y-94942614D01*
X75014286Y-94942614D02*
X74871429Y-94799757D01*
X74871429Y-94799757D02*
X74728571Y-94728328D01*
X73657142Y-94728328D02*
X72800000Y-94728328D01*
X73228571Y-96228328D02*
X73228571Y-94728328D01*
X72514285Y-94728328D02*
X71657143Y-94728328D01*
X72085714Y-96228328D02*
X72085714Y-94728328D01*
X70871428Y-94728328D02*
X70585714Y-94728328D01*
X70585714Y-94728328D02*
X70442857Y-94799757D01*
X70442857Y-94799757D02*
X70300000Y-94942614D01*
X70300000Y-94942614D02*
X70228571Y-95228328D01*
X70228571Y-95228328D02*
X70228571Y-95728328D01*
X70228571Y-95728328D02*
X70300000Y-96014042D01*
X70300000Y-96014042D02*
X70442857Y-96156900D01*
X70442857Y-96156900D02*
X70585714Y-96228328D01*
X70585714Y-96228328D02*
X70871428Y-96228328D01*
X70871428Y-96228328D02*
X71014286Y-96156900D01*
X71014286Y-96156900D02*
X71157143Y-96014042D01*
X71157143Y-96014042D02*
X71228571Y-95728328D01*
X71228571Y-95728328D02*
X71228571Y-95228328D01*
X71228571Y-95228328D02*
X71157143Y-94942614D01*
X71157143Y-94942614D02*
X71014286Y-94799757D01*
X71014286Y-94799757D02*
X70871428Y-94728328D01*
X69585714Y-96228328D02*
X69585714Y-94728328D01*
X69585714Y-94728328D02*
X69085714Y-95799757D01*
X69085714Y-95799757D02*
X68585714Y-94728328D01*
X68585714Y-94728328D02*
X68585714Y-96228328D01*
D12*
X70970000Y-75815000D03*
D13*
X73510000Y-75815000D03*
D14*
X119250000Y-93025000D03*
X121790000Y-93025000D03*
X124330000Y-93025000D03*
X126870000Y-93025000D03*
X129410000Y-93025000D03*
D13*
X131950000Y-93025000D03*
X119250000Y-95565000D03*
X121790000Y-95565000D03*
X124330000Y-95565000D03*
X126870000Y-95565000D03*
X129410000Y-95565000D03*
X131950000Y-95565000D03*
X119250000Y-98105000D03*
X121790000Y-98105000D03*
X124330000Y-98105000D03*
X126870000Y-98105000D03*
X129410000Y-98105000D03*
X131950000Y-98105000D03*
X119250000Y-100645000D03*
X121790000Y-100645000D03*
X124330000Y-100645000D03*
X126870000Y-100645000D03*
X129410000Y-100645000D03*
X131950000Y-100645000D03*
D14*
X70970000Y-73275000D03*
X70970000Y-70735000D03*
X70970000Y-68195000D03*
X70970000Y-65655000D03*
X70970000Y-63115000D03*
D13*
X70970000Y-60575000D03*
X73510000Y-73275000D03*
X73510000Y-70735000D03*
X73510000Y-68195000D03*
X73510000Y-65655000D03*
X73510000Y-63115000D03*
X73510000Y-60575000D03*
X76050000Y-73275000D03*
X76050000Y-70735000D03*
X76050000Y-68195000D03*
X76050000Y-65655000D03*
X76050000Y-63115000D03*
X76050000Y-60575000D03*
X78590000Y-73275000D03*
X78590000Y-70735000D03*
X78590000Y-68195000D03*
X78590000Y-65655000D03*
X78590000Y-63115000D03*
X78590000Y-60575000D03*
X83670000Y-88515000D03*
X86210000Y-88515000D03*
X88750000Y-88515000D03*
X91290000Y-88515000D03*
X93830000Y-88515000D03*
X96370000Y-88515000D03*
X98910000Y-88515000D03*
X101450000Y-88515000D03*
X103990000Y-88515000D03*
X106530000Y-88515000D03*
X109070000Y-88515000D03*
X111610000Y-88515000D03*
X114150000Y-88515000D03*
X116690000Y-88515000D03*
X119230000Y-88515000D03*
X121770000Y-88515000D03*
X124310000Y-88515000D03*
X126850000Y-88515000D03*
X129390000Y-88515000D03*
X131930000Y-88515000D03*
D12*
X78590000Y-78355000D03*
D13*
X81130000Y-78355000D03*
X78590000Y-80895000D03*
X81130000Y-80895000D03*
X78590000Y-83435000D03*
X81130000Y-83435000D03*
X78590000Y-85975000D03*
X81130000Y-85975000D03*
X78590000Y-88515000D03*
X81130000Y-88515000D03*
D14*
X131930000Y-85975000D03*
X131930000Y-83435000D03*
X131930000Y-80895000D03*
X131930000Y-78355000D03*
X131930000Y-75815000D03*
X131930000Y-73275000D03*
X131930000Y-70735000D03*
X131930000Y-68195000D03*
X131930000Y-65655000D03*
X131930000Y-63115000D03*
X134470000Y-85975000D03*
X134470000Y-83435000D03*
X134470000Y-80895000D03*
X134470000Y-78355000D03*
X134470000Y-75815000D03*
X134470000Y-73275000D03*
X134470000Y-70735000D03*
X134470000Y-68195000D03*
X134470000Y-65655000D03*
X134470000Y-63115000D03*
X119230000Y-85975000D03*
X119230000Y-83435000D03*
X119230000Y-80895000D03*
X119230000Y-78355000D03*
X119230000Y-75815000D03*
X119230000Y-73275000D03*
X119230000Y-70735000D03*
X119230000Y-68195000D03*
X119230000Y-65655000D03*
X119230000Y-63115000D03*
X121770000Y-85975000D03*
X121770000Y-83435000D03*
X121770000Y-80895000D03*
X121770000Y-78355000D03*
X121770000Y-75815000D03*
X121770000Y-73275000D03*
X121770000Y-70735000D03*
X121770000Y-68195000D03*
X121770000Y-65655000D03*
X121770000Y-63115000D03*
X124310000Y-85975000D03*
X124310000Y-83435000D03*
X124310000Y-80895000D03*
X124310000Y-78355000D03*
X124310000Y-75815000D03*
X124310000Y-73275000D03*
X124310000Y-70735000D03*
X124310000Y-68195000D03*
X124310000Y-65655000D03*
X124310000Y-63115000D03*
X126850000Y-85975000D03*
X126850000Y-83435000D03*
X126850000Y-80895000D03*
X126850000Y-78355000D03*
X126850000Y-75815000D03*
X126850000Y-73275000D03*
X126850000Y-70735000D03*
X126850000Y-68195000D03*
X126850000Y-65655000D03*
X126850000Y-63115000D03*
X129390000Y-85975000D03*
X129390000Y-83435000D03*
X129390000Y-80895000D03*
X129390000Y-78355000D03*
X129390000Y-75815000D03*
X129390000Y-73275000D03*
X129390000Y-70735000D03*
X129390000Y-68195000D03*
X129390000Y-65655000D03*
X129390000Y-63115000D03*
X116690000Y-63115000D03*
X116690000Y-65655000D03*
X116690000Y-68195000D03*
X116690000Y-70735000D03*
X116690000Y-73275000D03*
X116690000Y-75815000D03*
X116690000Y-78355000D03*
X116690000Y-80895000D03*
X116690000Y-83435000D03*
X116690000Y-85975000D03*
X114150000Y-63115000D03*
X114150000Y-65655000D03*
X114150000Y-68195000D03*
X114150000Y-70735000D03*
X114150000Y-73275000D03*
X114150000Y-75815000D03*
X114150000Y-78355000D03*
X114150000Y-80895000D03*
X114150000Y-83435000D03*
X114150000Y-85975000D03*
X111610000Y-63115000D03*
X111610000Y-65655000D03*
X111610000Y-68195000D03*
X111610000Y-70735000D03*
X111610000Y-73275000D03*
X111610000Y-75815000D03*
X111610000Y-78355000D03*
X111610000Y-80895000D03*
X111610000Y-83435000D03*
X111610000Y-85975000D03*
X109070000Y-63115000D03*
X109070000Y-65655000D03*
X109070000Y-68195000D03*
X109070000Y-70735000D03*
X109070000Y-73275000D03*
X109070000Y-75815000D03*
X109070000Y-78355000D03*
X109070000Y-80895000D03*
X109070000Y-83435000D03*
X109070000Y-85975000D03*
X106530000Y-63115000D03*
X106530000Y-65655000D03*
X106530000Y-68195000D03*
X106530000Y-70735000D03*
X106530000Y-73275000D03*
X106530000Y-75815000D03*
X106530000Y-78355000D03*
X106530000Y-80895000D03*
X106530000Y-83435000D03*
X106530000Y-85975000D03*
X103990000Y-63115000D03*
X103990000Y-65655000D03*
X103990000Y-68195000D03*
X103990000Y-70735000D03*
X103990000Y-73275000D03*
X103990000Y-75815000D03*
X103990000Y-78355000D03*
X103990000Y-80895000D03*
X103990000Y-83435000D03*
X103990000Y-85975000D03*
X101450000Y-63115000D03*
X101450000Y-65655000D03*
X101450000Y-68195000D03*
X101450000Y-70735000D03*
X101450000Y-73275000D03*
X101450000Y-75815000D03*
X101450000Y-78355000D03*
X101450000Y-80895000D03*
X101450000Y-83435000D03*
X101450000Y-85975000D03*
X98910000Y-63115000D03*
X98910000Y-65655000D03*
X98910000Y-68195000D03*
X98910000Y-70735000D03*
X98910000Y-73275000D03*
X98910000Y-75815000D03*
X98910000Y-78355000D03*
X98910000Y-80895000D03*
X98910000Y-83435000D03*
X98910000Y-85975000D03*
X96370000Y-63115000D03*
X96370000Y-65655000D03*
X96370000Y-68195000D03*
X96370000Y-70735000D03*
X96370000Y-73275000D03*
X96370000Y-75815000D03*
X96370000Y-78355000D03*
X96370000Y-80895000D03*
X96370000Y-83435000D03*
X96370000Y-85975000D03*
X93830000Y-63115000D03*
X93830000Y-65655000D03*
X93830000Y-68195000D03*
X93830000Y-70735000D03*
X93830000Y-73275000D03*
X93830000Y-75815000D03*
X93830000Y-78355000D03*
X93830000Y-80895000D03*
X93830000Y-83435000D03*
X93830000Y-85975000D03*
D15*
X89650000Y-62425000D03*
D13*
X87110000Y-62425000D03*
X89650000Y-64965000D03*
X87110000Y-64965000D03*
X89650000Y-67505000D03*
X87110000Y-67505000D03*
X89650000Y-70045000D03*
X87110000Y-70045000D03*
X89650000Y-72585000D03*
X87110000Y-72585000D03*
D16*
X71300000Y-101955000D03*
D17*
X71300000Y-101955000D03*
D15*
X93830000Y-60575000D03*
D13*
X96370000Y-60575000D03*
X98910000Y-60575000D03*
X101450000Y-60575000D03*
X103990000Y-60575000D03*
X106530000Y-60575000D03*
X109070000Y-60575000D03*
X111610000Y-60575000D03*
X114150000Y-60575000D03*
X116690000Y-60575000D03*
X119230000Y-60575000D03*
X121770000Y-60575000D03*
X124310000Y-60575000D03*
X126850000Y-60575000D03*
X129390000Y-60575000D03*
D16*
X136300000Y-101955000D03*
D17*
X136300000Y-101955000D03*
D16*
X71300000Y-53955000D03*
D17*
X71300000Y-53955000D03*
D15*
X81150000Y-54115000D03*
D13*
X81150000Y-51575000D03*
X83690000Y-54115000D03*
X83690000Y-51575000D03*
X86230000Y-54115000D03*
X86230000Y-51575000D03*
X88770000Y-54115000D03*
X88770000Y-51575000D03*
X91310000Y-54115000D03*
X91310000Y-51575000D03*
X93850000Y-54115000D03*
X93850000Y-51575000D03*
X96390000Y-54115000D03*
X96390000Y-51575000D03*
X98930000Y-54115000D03*
X98930000Y-51575000D03*
X101470000Y-54115000D03*
X101470000Y-51575000D03*
X104010000Y-54115000D03*
X104010000Y-51575000D03*
X106550000Y-54115000D03*
X106550000Y-51575000D03*
X109090000Y-54115000D03*
X109090000Y-51575000D03*
X111630000Y-54115000D03*
X111630000Y-51575000D03*
X114170000Y-54115000D03*
X114170000Y-51575000D03*
X116710000Y-54115000D03*
X116710000Y-51575000D03*
X119250000Y-54115000D03*
X119250000Y-51575000D03*
X121790000Y-54115000D03*
X121790000Y-51575000D03*
X124330000Y-54115000D03*
X124330000Y-51575000D03*
X126870000Y-54115000D03*
X126870000Y-51575000D03*
X129410000Y-54115000D03*
X129410000Y-51575000D03*
D16*
X136300000Y-53955000D03*
D17*
X136300000Y-53955000D03*
D18*
X78050000Y-53975000D03*
X83600000Y-56125000D03*
X67970000Y-93325000D03*
X75650000Y-82125000D03*
X88600000Y-83775000D03*
X84700000Y-83775000D03*
X85250000Y-81775000D03*
X79850000Y-75175000D03*
X85450000Y-59275000D03*
X80250000Y-71975000D03*
X80250000Y-69525000D03*
X80250000Y-66925000D03*
X80250000Y-64375000D03*
X80250000Y-61825000D03*
X139450000Y-92925000D03*
X139050000Y-71075000D03*
X139050000Y-77675000D03*
X85450000Y-100825000D03*
X85450000Y-96425000D03*
X88800000Y-92275000D03*
X112800000Y-92055000D03*
X116900000Y-94325000D03*
X116900000Y-96875000D03*
X116900000Y-99275000D03*
X116900000Y-102125000D03*
X134010000Y-92055000D03*
X134010000Y-97135000D03*
X75590000Y-104755000D03*
X80670000Y-104755000D03*
X85450000Y-104725000D03*
X116230000Y-92055000D03*
X118770000Y-104425000D03*
X123850000Y-104425000D03*
X128930000Y-104425000D03*
X69100000Y-75825000D03*
X70950000Y-77825000D03*
X136250000Y-60975000D03*
X132600000Y-61025000D03*
X91250000Y-90475000D03*
X88700000Y-90475000D03*
X93800000Y-90425000D03*
X96300000Y-90475000D03*
X114150000Y-90475000D03*
X111600000Y-90425000D03*
X104050000Y-90425000D03*
X101500000Y-90475000D03*
X106550000Y-90475000D03*
X98950000Y-90475000D03*
X109100000Y-90425000D03*
X81150000Y-90655000D03*
X78600000Y-90555000D03*
X91400000Y-58825000D03*
X83700000Y-90425000D03*
X86200000Y-90535000D03*
X116700000Y-90485000D03*
X119250000Y-90485000D03*
X121800000Y-90435000D03*
X124300000Y-90485000D03*
X129350000Y-90435000D03*
X131900000Y-90485000D03*
X109100000Y-49925000D03*
X131050000Y-55325000D03*
X139050000Y-74250000D03*
X139450000Y-89000000D03*
X126850000Y-90435000D03*
X83700000Y-49925000D03*
X67970000Y-79355000D03*
X67970000Y-74275000D03*
X104000000Y-49925000D03*
X124300000Y-49925000D03*
X106550000Y-49925000D03*
X136550000Y-59775000D03*
X97800000Y-55375000D03*
X139425000Y-96825000D03*
X116700000Y-49925000D03*
X129400000Y-49925000D03*
X114150000Y-49925000D03*
X85450000Y-64475000D03*
X86200000Y-49925000D03*
X107850000Y-55325000D03*
X95050000Y-55375000D03*
X67970000Y-64115000D03*
X85300000Y-66175000D03*
X74200000Y-50725000D03*
X101500000Y-49925000D03*
X126850000Y-49925000D03*
X139050000Y-67875000D03*
X139500000Y-59800000D03*
X120450000Y-55325000D03*
X91350000Y-49925000D03*
X81150000Y-49925000D03*
X123150000Y-55325000D03*
X98950000Y-49925000D03*
X119250000Y-49925000D03*
X118000000Y-55325000D03*
X132475000Y-55825000D03*
X112950000Y-55325000D03*
X105300000Y-55375000D03*
X93850000Y-49925000D03*
X102800000Y-55325000D03*
X88750000Y-49925000D03*
X110400000Y-55325000D03*
X125650000Y-55325000D03*
X111650000Y-49925000D03*
X132400000Y-104425000D03*
X96400000Y-49925000D03*
X77600000Y-50275000D03*
X139025000Y-81375000D03*
X138000000Y-94425000D03*
X67970000Y-69195000D03*
X121800000Y-49925000D03*
X128100000Y-55325000D03*
X67970000Y-84435000D03*
X133750000Y-50200000D03*
X100200000Y-55325000D03*
X67900000Y-97825000D03*
X67970000Y-89515000D03*
X115450000Y-55325000D03*
X67970000Y-59035000D03*
D19*
X81150000Y-54115000D02*
X81150000Y-58425000D01*
X81150000Y-58425000D02*
X81900000Y-59175000D01*
X81900000Y-59175000D02*
X81900000Y-77585000D01*
X81900000Y-77585000D02*
X81130000Y-78355000D01*
X86230000Y-54115000D02*
X86230000Y-56195000D01*
X86230000Y-56195000D02*
X83400000Y-59025000D01*
X83400000Y-59025000D02*
X83400000Y-82525000D01*
X83400000Y-82525000D02*
X82490000Y-83435000D01*
X82490000Y-83435000D02*
X81130000Y-83435000D01*
X78590000Y-83435000D02*
X81130000Y-85975000D01*
X78590000Y-85975000D02*
X81130000Y-83435000D01*
X78590000Y-80895000D02*
X81130000Y-78355000D01*
X81130000Y-80895000D02*
X78590000Y-78355000D01*
X88770000Y-54115000D02*
X86230000Y-54115000D01*
X83690000Y-54115000D02*
X81150000Y-54115000D01*
D20*
X93850000Y-54115000D02*
X93500000Y-54465000D01*
G04 #@! TA.AperFunction,Conductor*
G36*
X80670507Y-88305156D02*
G01*
X80630000Y-88443111D01*
X80630000Y-88586889D01*
X80670507Y-88724844D01*
X80698884Y-88769000D01*
X79021116Y-88769000D01*
X79049493Y-88724844D01*
X79090000Y-88586889D01*
X79090000Y-88443111D01*
X79049493Y-88305156D01*
X79021116Y-88261000D01*
X80698884Y-88261000D01*
X80670507Y-88305156D01*
G37*
G04 #@! TD.AperFunction*
G04 #@! TA.AperFunction,Conductor*
G36*
X83210507Y-88305156D02*
G01*
X83170000Y-88443111D01*
X83170000Y-88586889D01*
X83210507Y-88724844D01*
X83238884Y-88769000D01*
X81561116Y-88769000D01*
X81589493Y-88724844D01*
X81630000Y-88586889D01*
X81630000Y-88443111D01*
X81589493Y-88305156D01*
X81561116Y-88261000D01*
X83238884Y-88261000D01*
X83210507Y-88305156D01*
G37*
G04 #@! TD.AperFunction*
G04 #@! TA.AperFunction,Conductor*
G36*
X85750507Y-88305156D02*
G01*
X85710000Y-88443111D01*
X85710000Y-88586889D01*
X85750507Y-88724844D01*
X85778884Y-88769000D01*
X84101116Y-88769000D01*
X84129493Y-88724844D01*
X84170000Y-88586889D01*
X84170000Y-88443111D01*
X84129493Y-88305156D01*
X84101116Y-88261000D01*
X85778884Y-88261000D01*
X85750507Y-88305156D01*
G37*
G04 #@! TD.AperFunction*
G04 #@! TA.AperFunction,Conductor*
G36*
X88290507Y-88305156D02*
G01*
X88250000Y-88443111D01*
X88250000Y-88586889D01*
X88290507Y-88724844D01*
X88318884Y-88769000D01*
X86641116Y-88769000D01*
X86669493Y-88724844D01*
X86710000Y-88586889D01*
X86710000Y-88443111D01*
X86669493Y-88305156D01*
X86641116Y-88261000D01*
X88318884Y-88261000D01*
X88290507Y-88305156D01*
G37*
G04 #@! TD.AperFunction*
G04 #@! TA.AperFunction,Conductor*
G36*
X90830507Y-88305156D02*
G01*
X90790000Y-88443111D01*
X90790000Y-88586889D01*
X90830507Y-88724844D01*
X90858884Y-88769000D01*
X89181116Y-88769000D01*
X89209493Y-88724844D01*
X89250000Y-88586889D01*
X89250000Y-88443111D01*
X89209493Y-88305156D01*
X89181116Y-88261000D01*
X90858884Y-88261000D01*
X90830507Y-88305156D01*
G37*
G04 #@! TD.AperFunction*
G04 #@! TA.AperFunction,Conductor*
G36*
X93370507Y-88305156D02*
G01*
X93330000Y-88443111D01*
X93330000Y-88586889D01*
X93370507Y-88724844D01*
X93398884Y-88769000D01*
X91721116Y-88769000D01*
X91749493Y-88724844D01*
X91790000Y-88586889D01*
X91790000Y-88443111D01*
X91749493Y-88305156D01*
X91721116Y-88261000D01*
X93398884Y-88261000D01*
X93370507Y-88305156D01*
G37*
G04 #@! TD.AperFunction*
G04 #@! TA.AperFunction,Conductor*
G36*
X95910507Y-88305156D02*
G01*
X95870000Y-88443111D01*
X95870000Y-88586889D01*
X95910507Y-88724844D01*
X95938884Y-88769000D01*
X94261116Y-88769000D01*
X94289493Y-88724844D01*
X94330000Y-88586889D01*
X94330000Y-88443111D01*
X94289493Y-88305156D01*
X94261116Y-88261000D01*
X95938884Y-88261000D01*
X95910507Y-88305156D01*
G37*
G04 #@! TD.AperFunction*
G04 #@! TA.AperFunction,Conductor*
G36*
X98450507Y-88305156D02*
G01*
X98410000Y-88443111D01*
X98410000Y-88586889D01*
X98450507Y-88724844D01*
X98478884Y-88769000D01*
X96801116Y-88769000D01*
X96829493Y-88724844D01*
X96870000Y-88586889D01*
X96870000Y-88443111D01*
X96829493Y-88305156D01*
X96801116Y-88261000D01*
X98478884Y-88261000D01*
X98450507Y-88305156D01*
G37*
G04 #@! TD.AperFunction*
G04 #@! TA.AperFunction,Conductor*
G36*
X100990507Y-88305156D02*
G01*
X100950000Y-88443111D01*
X100950000Y-88586889D01*
X100990507Y-88724844D01*
X101018884Y-88769000D01*
X99341116Y-88769000D01*
X99369493Y-88724844D01*
X99410000Y-88586889D01*
X99410000Y-88443111D01*
X99369493Y-88305156D01*
X99341116Y-88261000D01*
X101018884Y-88261000D01*
X100990507Y-88305156D01*
G37*
G04 #@! TD.AperFunction*
G04 #@! TA.AperFunction,Conductor*
G36*
X103530507Y-88305156D02*
G01*
X103490000Y-88443111D01*
X103490000Y-88586889D01*
X103530507Y-88724844D01*
X103558884Y-88769000D01*
X101881116Y-88769000D01*
X101909493Y-88724844D01*
X101950000Y-88586889D01*
X101950000Y-88443111D01*
X101909493Y-88305156D01*
X101881116Y-88261000D01*
X103558884Y-88261000D01*
X103530507Y-88305156D01*
G37*
G04 #@! TD.AperFunction*
G04 #@! TA.AperFunction,Conductor*
G36*
X106070507Y-88305156D02*
G01*
X106030000Y-88443111D01*
X106030000Y-88586889D01*
X106070507Y-88724844D01*
X106098884Y-88769000D01*
X104421116Y-88769000D01*
X104449493Y-88724844D01*
X104490000Y-88586889D01*
X104490000Y-88443111D01*
X104449493Y-88305156D01*
X104421116Y-88261000D01*
X106098884Y-88261000D01*
X106070507Y-88305156D01*
G37*
G04 #@! TD.AperFunction*
G04 #@! TA.AperFunction,Conductor*
G36*
X108610507Y-88305156D02*
G01*
X108570000Y-88443111D01*
X108570000Y-88586889D01*
X108610507Y-88724844D01*
X108638884Y-88769000D01*
X106961116Y-88769000D01*
X106989493Y-88724844D01*
X107030000Y-88586889D01*
X107030000Y-88443111D01*
X106989493Y-88305156D01*
X106961116Y-88261000D01*
X108638884Y-88261000D01*
X108610507Y-88305156D01*
G37*
G04 #@! TD.AperFunction*
G04 #@! TA.AperFunction,Conductor*
G36*
X111150507Y-88305156D02*
G01*
X111110000Y-88443111D01*
X111110000Y-88586889D01*
X111150507Y-88724844D01*
X111178884Y-88769000D01*
X109501116Y-88769000D01*
X109529493Y-88724844D01*
X109570000Y-88586889D01*
X109570000Y-88443111D01*
X109529493Y-88305156D01*
X109501116Y-88261000D01*
X111178884Y-88261000D01*
X111150507Y-88305156D01*
G37*
G04 #@! TD.AperFunction*
G04 #@! TA.AperFunction,Conductor*
G36*
X113690507Y-88305156D02*
G01*
X113650000Y-88443111D01*
X113650000Y-88586889D01*
X113690507Y-88724844D01*
X113718884Y-88769000D01*
X112041116Y-88769000D01*
X112069493Y-88724844D01*
X112110000Y-88586889D01*
X112110000Y-88443111D01*
X112069493Y-88305156D01*
X112041116Y-88261000D01*
X113718884Y-88261000D01*
X113690507Y-88305156D01*
G37*
G04 #@! TD.AperFunction*
G04 #@! TA.AperFunction,Conductor*
G36*
X116230507Y-88305156D02*
G01*
X116190000Y-88443111D01*
X116190000Y-88586889D01*
X116230507Y-88724844D01*
X116258884Y-88769000D01*
X114581116Y-88769000D01*
X114609493Y-88724844D01*
X114650000Y-88586889D01*
X114650000Y-88443111D01*
X114609493Y-88305156D01*
X114581116Y-88261000D01*
X116258884Y-88261000D01*
X116230507Y-88305156D01*
G37*
G04 #@! TD.AperFunction*
G04 #@! TA.AperFunction,Conductor*
G36*
X118770507Y-88305156D02*
G01*
X118730000Y-88443111D01*
X118730000Y-88586889D01*
X118770507Y-88724844D01*
X118798884Y-88769000D01*
X117121116Y-88769000D01*
X117149493Y-88724844D01*
X117190000Y-88586889D01*
X117190000Y-88443111D01*
X117149493Y-88305156D01*
X117121116Y-88261000D01*
X118798884Y-88261000D01*
X118770507Y-88305156D01*
G37*
G04 #@! TD.AperFunction*
G04 #@! TA.AperFunction,Conductor*
G36*
X121310507Y-88305156D02*
G01*
X121270000Y-88443111D01*
X121270000Y-88586889D01*
X121310507Y-88724844D01*
X121338884Y-88769000D01*
X119661116Y-88769000D01*
X119689493Y-88724844D01*
X119730000Y-88586889D01*
X119730000Y-88443111D01*
X119689493Y-88305156D01*
X119661116Y-88261000D01*
X121338884Y-88261000D01*
X121310507Y-88305156D01*
G37*
G04 #@! TD.AperFunction*
G04 #@! TA.AperFunction,Conductor*
G36*
X123850507Y-88305156D02*
G01*
X123810000Y-88443111D01*
X123810000Y-88586889D01*
X123850507Y-88724844D01*
X123878884Y-88769000D01*
X122201116Y-88769000D01*
X122229493Y-88724844D01*
X122270000Y-88586889D01*
X122270000Y-88443111D01*
X122229493Y-88305156D01*
X122201116Y-88261000D01*
X123878884Y-88261000D01*
X123850507Y-88305156D01*
G37*
G04 #@! TD.AperFunction*
G04 #@! TA.AperFunction,Conductor*
G36*
X126390507Y-88305156D02*
G01*
X126350000Y-88443111D01*
X126350000Y-88586889D01*
X126390507Y-88724844D01*
X126418884Y-88769000D01*
X124741116Y-88769000D01*
X124769493Y-88724844D01*
X124810000Y-88586889D01*
X124810000Y-88443111D01*
X124769493Y-88305156D01*
X124741116Y-88261000D01*
X126418884Y-88261000D01*
X126390507Y-88305156D01*
G37*
G04 #@! TD.AperFunction*
G04 #@! TA.AperFunction,Conductor*
G36*
X128930507Y-88305156D02*
G01*
X128890000Y-88443111D01*
X128890000Y-88586889D01*
X128930507Y-88724844D01*
X128958884Y-88769000D01*
X127281116Y-88769000D01*
X127309493Y-88724844D01*
X127350000Y-88586889D01*
X127350000Y-88443111D01*
X127309493Y-88305156D01*
X127281116Y-88261000D01*
X128958884Y-88261000D01*
X128930507Y-88305156D01*
G37*
G04 #@! TD.AperFunction*
G04 #@! TA.AperFunction,Conductor*
G36*
X131470507Y-88305156D02*
G01*
X131430000Y-88443111D01*
X131430000Y-88586889D01*
X131470507Y-88724844D01*
X131498884Y-88769000D01*
X129821116Y-88769000D01*
X129849493Y-88724844D01*
X129890000Y-88586889D01*
X129890000Y-88443111D01*
X129849493Y-88305156D01*
X129821116Y-88261000D01*
X131498884Y-88261000D01*
X131470507Y-88305156D01*
G37*
G04 #@! TD.AperFunction*
G04 #@! TA.AperFunction,Conductor*
G36*
X85028959Y-54543100D02*
G01*
X85074194Y-54595302D01*
X85142898Y-54742639D01*
X85268402Y-54921877D01*
X85292594Y-54946069D01*
X85326620Y-55008380D01*
X85329500Y-55035165D01*
X85329500Y-55769810D01*
X85309498Y-55837931D01*
X85292595Y-55858905D01*
X82820376Y-58331123D01*
X82805345Y-58343962D01*
X82794132Y-58352109D01*
X82747686Y-58403691D01*
X82745418Y-58406080D01*
X82729885Y-58421615D01*
X82729877Y-58421624D01*
X82716060Y-58438685D01*
X82713922Y-58441188D01*
X82674398Y-58485085D01*
X82613953Y-58522326D01*
X82542969Y-58520976D01*
X82506702Y-58502715D01*
X82494658Y-58493965D01*
X82479621Y-58481122D01*
X82087405Y-58088906D01*
X82053379Y-58026594D01*
X82050500Y-57999811D01*
X82050500Y-55465973D01*
X82070502Y-55397852D01*
X82119298Y-55353706D01*
X82134726Y-55345845D01*
X82238342Y-55293050D01*
X82328050Y-55203342D01*
X82385646Y-55090304D01*
X82385645Y-55090304D01*
X82388707Y-55084297D01*
X82437456Y-55032682D01*
X82500974Y-55015500D01*
X82769835Y-55015500D01*
X82837956Y-55035502D01*
X82858930Y-55052405D01*
X82883123Y-55076598D01*
X83062361Y-55202102D01*
X83260670Y-55294575D01*
X83472023Y-55351207D01*
X83690000Y-55370277D01*
X83907977Y-55351207D01*
X84119330Y-55294575D01*
X84317639Y-55202102D01*
X84496877Y-55076598D01*
X84651598Y-54921877D01*
X84777102Y-54742639D01*
X84845805Y-54595302D01*
X84892722Y-54542019D01*
X84960999Y-54522558D01*
X85028959Y-54543100D01*
G37*
G04 #@! TD.AperFunction*
G04 #@! TA.AperFunction,Conductor*
G36*
X83230507Y-51365156D02*
G01*
X83190000Y-51503111D01*
X83190000Y-51646889D01*
X83230507Y-51784844D01*
X83258884Y-51829000D01*
X81581116Y-51829000D01*
X81609493Y-51784844D01*
X81650000Y-51646889D01*
X81650000Y-51503111D01*
X81609493Y-51365156D01*
X81581116Y-51321000D01*
X83258884Y-51321000D01*
X83230507Y-51365156D01*
G37*
G04 #@! TD.AperFunction*
G04 #@! TA.AperFunction,Conductor*
G36*
X85770507Y-51365156D02*
G01*
X85730000Y-51503111D01*
X85730000Y-51646889D01*
X85770507Y-51784844D01*
X85798884Y-51829000D01*
X84121116Y-51829000D01*
X84149493Y-51784844D01*
X84190000Y-51646889D01*
X84190000Y-51503111D01*
X84149493Y-51365156D01*
X84121116Y-51321000D01*
X85798884Y-51321000D01*
X85770507Y-51365156D01*
G37*
G04 #@! TD.AperFunction*
G04 #@! TA.AperFunction,Conductor*
G36*
X88310507Y-51365156D02*
G01*
X88270000Y-51503111D01*
X88270000Y-51646889D01*
X88310507Y-51784844D01*
X88338884Y-51829000D01*
X86661116Y-51829000D01*
X86689493Y-51784844D01*
X86730000Y-51646889D01*
X86730000Y-51503111D01*
X86689493Y-51365156D01*
X86661116Y-51321000D01*
X88338884Y-51321000D01*
X88310507Y-51365156D01*
G37*
G04 #@! TD.AperFunction*
G04 #@! TA.AperFunction,Conductor*
G36*
X90850507Y-51365156D02*
G01*
X90810000Y-51503111D01*
X90810000Y-51646889D01*
X90850507Y-51784844D01*
X90878884Y-51829000D01*
X89201116Y-51829000D01*
X89229493Y-51784844D01*
X89270000Y-51646889D01*
X89270000Y-51503111D01*
X89229493Y-51365156D01*
X89201116Y-51321000D01*
X90878884Y-51321000D01*
X90850507Y-51365156D01*
G37*
G04 #@! TD.AperFunction*
G04 #@! TA.AperFunction,Conductor*
G36*
X93390507Y-51365156D02*
G01*
X93350000Y-51503111D01*
X93350000Y-51646889D01*
X93390507Y-51784844D01*
X93418884Y-51829000D01*
X91741116Y-51829000D01*
X91769493Y-51784844D01*
X91810000Y-51646889D01*
X91810000Y-51503111D01*
X91769493Y-51365156D01*
X91741116Y-51321000D01*
X93418884Y-51321000D01*
X93390507Y-51365156D01*
G37*
G04 #@! TD.AperFunction*
G04 #@! TA.AperFunction,Conductor*
G36*
X95930507Y-51365156D02*
G01*
X95890000Y-51503111D01*
X95890000Y-51646889D01*
X95930507Y-51784844D01*
X95958884Y-51829000D01*
X94281116Y-51829000D01*
X94309493Y-51784844D01*
X94350000Y-51646889D01*
X94350000Y-51503111D01*
X94309493Y-51365156D01*
X94281116Y-51321000D01*
X95958884Y-51321000D01*
X95930507Y-51365156D01*
G37*
G04 #@! TD.AperFunction*
G04 #@! TA.AperFunction,Conductor*
G36*
X98470507Y-51365156D02*
G01*
X98430000Y-51503111D01*
X98430000Y-51646889D01*
X98470507Y-51784844D01*
X98498884Y-51829000D01*
X96821116Y-51829000D01*
X96849493Y-51784844D01*
X96890000Y-51646889D01*
X96890000Y-51503111D01*
X96849493Y-51365156D01*
X96821116Y-51321000D01*
X98498884Y-51321000D01*
X98470507Y-51365156D01*
G37*
G04 #@! TD.AperFunction*
G04 #@! TA.AperFunction,Conductor*
G36*
X101010507Y-51365156D02*
G01*
X100970000Y-51503111D01*
X100970000Y-51646889D01*
X101010507Y-51784844D01*
X101038884Y-51829000D01*
X99361116Y-51829000D01*
X99389493Y-51784844D01*
X99430000Y-51646889D01*
X99430000Y-51503111D01*
X99389493Y-51365156D01*
X99361116Y-51321000D01*
X101038884Y-51321000D01*
X101010507Y-51365156D01*
G37*
G04 #@! TD.AperFunction*
G04 #@! TA.AperFunction,Conductor*
G36*
X103550507Y-51365156D02*
G01*
X103510000Y-51503111D01*
X103510000Y-51646889D01*
X103550507Y-51784844D01*
X103578884Y-51829000D01*
X101901116Y-51829000D01*
X101929493Y-51784844D01*
X101970000Y-51646889D01*
X101970000Y-51503111D01*
X101929493Y-51365156D01*
X101901116Y-51321000D01*
X103578884Y-51321000D01*
X103550507Y-51365156D01*
G37*
G04 #@! TD.AperFunction*
G04 #@! TA.AperFunction,Conductor*
G36*
X106090507Y-51365156D02*
G01*
X106050000Y-51503111D01*
X106050000Y-51646889D01*
X106090507Y-51784844D01*
X106118884Y-51829000D01*
X104441116Y-51829000D01*
X104469493Y-51784844D01*
X104510000Y-51646889D01*
X104510000Y-51503111D01*
X104469493Y-51365156D01*
X104441116Y-51321000D01*
X106118884Y-51321000D01*
X106090507Y-51365156D01*
G37*
G04 #@! TD.AperFunction*
G04 #@! TA.AperFunction,Conductor*
G36*
X108630507Y-51365156D02*
G01*
X108590000Y-51503111D01*
X108590000Y-51646889D01*
X108630507Y-51784844D01*
X108658884Y-51829000D01*
X106981116Y-51829000D01*
X107009493Y-51784844D01*
X107050000Y-51646889D01*
X107050000Y-51503111D01*
X107009493Y-51365156D01*
X106981116Y-51321000D01*
X108658884Y-51321000D01*
X108630507Y-51365156D01*
G37*
G04 #@! TD.AperFunction*
G04 #@! TA.AperFunction,Conductor*
G36*
X111170507Y-51365156D02*
G01*
X111130000Y-51503111D01*
X111130000Y-51646889D01*
X111170507Y-51784844D01*
X111198884Y-51829000D01*
X109521116Y-51829000D01*
X109549493Y-51784844D01*
X109590000Y-51646889D01*
X109590000Y-51503111D01*
X109549493Y-51365156D01*
X109521116Y-51321000D01*
X111198884Y-51321000D01*
X111170507Y-51365156D01*
G37*
G04 #@! TD.AperFunction*
G04 #@! TA.AperFunction,Conductor*
G36*
X113710507Y-51365156D02*
G01*
X113670000Y-51503111D01*
X113670000Y-51646889D01*
X113710507Y-51784844D01*
X113738884Y-51829000D01*
X112061116Y-51829000D01*
X112089493Y-51784844D01*
X112130000Y-51646889D01*
X112130000Y-51503111D01*
X112089493Y-51365156D01*
X112061116Y-51321000D01*
X113738884Y-51321000D01*
X113710507Y-51365156D01*
G37*
G04 #@! TD.AperFunction*
G04 #@! TA.AperFunction,Conductor*
G36*
X116250507Y-51365156D02*
G01*
X116210000Y-51503111D01*
X116210000Y-51646889D01*
X116250507Y-51784844D01*
X116278884Y-51829000D01*
X114601116Y-51829000D01*
X114629493Y-51784844D01*
X114670000Y-51646889D01*
X114670000Y-51503111D01*
X114629493Y-51365156D01*
X114601116Y-51321000D01*
X116278884Y-51321000D01*
X116250507Y-51365156D01*
G37*
G04 #@! TD.AperFunction*
G04 #@! TA.AperFunction,Conductor*
G36*
X118790507Y-51365156D02*
G01*
X118750000Y-51503111D01*
X118750000Y-51646889D01*
X118790507Y-51784844D01*
X118818884Y-51829000D01*
X117141116Y-51829000D01*
X117169493Y-51784844D01*
X117210000Y-51646889D01*
X117210000Y-51503111D01*
X117169493Y-51365156D01*
X117141116Y-51321000D01*
X118818884Y-51321000D01*
X118790507Y-51365156D01*
G37*
G04 #@! TD.AperFunction*
G04 #@! TA.AperFunction,Conductor*
G36*
X121330507Y-51365156D02*
G01*
X121290000Y-51503111D01*
X121290000Y-51646889D01*
X121330507Y-51784844D01*
X121358884Y-51829000D01*
X119681116Y-51829000D01*
X119709493Y-51784844D01*
X119750000Y-51646889D01*
X119750000Y-51503111D01*
X119709493Y-51365156D01*
X119681116Y-51321000D01*
X121358884Y-51321000D01*
X121330507Y-51365156D01*
G37*
G04 #@! TD.AperFunction*
G04 #@! TA.AperFunction,Conductor*
G36*
X123870507Y-51365156D02*
G01*
X123830000Y-51503111D01*
X123830000Y-51646889D01*
X123870507Y-51784844D01*
X123898884Y-51829000D01*
X122221116Y-51829000D01*
X122249493Y-51784844D01*
X122290000Y-51646889D01*
X122290000Y-51503111D01*
X122249493Y-51365156D01*
X122221116Y-51321000D01*
X123898884Y-51321000D01*
X123870507Y-51365156D01*
G37*
G04 #@! TD.AperFunction*
G04 #@! TA.AperFunction,Conductor*
G36*
X126410507Y-51365156D02*
G01*
X126370000Y-51503111D01*
X126370000Y-51646889D01*
X126410507Y-51784844D01*
X126438884Y-51829000D01*
X124761116Y-51829000D01*
X124789493Y-51784844D01*
X124830000Y-51646889D01*
X124830000Y-51503111D01*
X124789493Y-51365156D01*
X124761116Y-51321000D01*
X126438884Y-51321000D01*
X126410507Y-51365156D01*
G37*
G04 #@! TD.AperFunction*
G04 #@! TA.AperFunction,Conductor*
G36*
X128950507Y-51365156D02*
G01*
X128910000Y-51503111D01*
X128910000Y-51646889D01*
X128950507Y-51784844D01*
X128978884Y-51829000D01*
X127301116Y-51829000D01*
X127329493Y-51784844D01*
X127370000Y-51646889D01*
X127370000Y-51503111D01*
X127329493Y-51365156D01*
X127301116Y-51321000D01*
X128978884Y-51321000D01*
X128950507Y-51365156D01*
G37*
G04 #@! TD.AperFunction*
G04 #@! TA.AperFunction,Conductor*
G36*
X72245294Y-73566662D02*
G01*
X72299340Y-73612701D01*
X72315625Y-73649100D01*
X72330421Y-73704319D01*
X72330426Y-73704333D01*
X72393818Y-73840276D01*
X72422898Y-73902639D01*
X72548402Y-74081877D01*
X72703123Y-74236598D01*
X72703126Y-74236600D01*
X72882359Y-74362101D01*
X72882360Y-74362101D01*
X72882361Y-74362102D01*
X72902022Y-74371270D01*
X72955307Y-74418185D01*
X72974769Y-74486462D01*
X72954228Y-74554423D01*
X72908743Y-74596278D01*
X72764704Y-74674228D01*
X72764698Y-74674232D01*
X72587097Y-74812465D01*
X72434674Y-74978042D01*
X72345482Y-75114560D01*
X72291478Y-75160648D01*
X72221130Y-75170223D01*
X72156773Y-75140245D01*
X72134516Y-75114560D01*
X72093076Y-75051132D01*
X71454360Y-75689848D01*
X71429493Y-75605156D01*
X71351761Y-75484202D01*
X71243100Y-75390048D01*
X71112315Y-75330320D01*
X71097587Y-75328202D01*
X71735689Y-74690100D01*
X71735688Y-74690099D01*
X71715306Y-74674235D01*
X71715299Y-74674230D01*
X71517371Y-74567118D01*
X71517364Y-74567115D01*
X71491316Y-74558172D01*
X71433382Y-74517134D01*
X71406831Y-74451289D01*
X71420093Y-74381543D01*
X71468958Y-74330038D01*
X71486712Y-74321510D01*
X71490391Y-74320085D01*
X71673564Y-74206669D01*
X71810454Y-74081877D01*
X71832776Y-74061528D01*
X71832778Y-74061526D01*
X71962612Y-73889599D01*
X72058643Y-73696742D01*
X72072730Y-73647229D01*
X72110608Y-73587186D01*
X72174938Y-73557150D01*
X72245294Y-73566662D01*
G37*
G04 #@! TD.AperFunction*
G04 #@! TA.AperFunction,Conductor*
G36*
X136531632Y-49264360D02*
G01*
X136711687Y-49277579D01*
X136906536Y-49293468D01*
X136911705Y-49294108D01*
X137094473Y-49324502D01*
X137282459Y-49358371D01*
X137287208Y-49359419D01*
X137468443Y-49406914D01*
X137650591Y-49458334D01*
X137654891Y-49459718D01*
X137831449Y-49523728D01*
X137832828Y-49524247D01*
X137892583Y-49547563D01*
X138007635Y-49592456D01*
X138011530Y-49594129D01*
X138182014Y-49674245D01*
X138183640Y-49675038D01*
X138350515Y-49759577D01*
X138353923Y-49761438D01*
X138516684Y-49856981D01*
X138518541Y-49858115D01*
X138676186Y-49958230D01*
X138679066Y-49960176D01*
X138832583Y-50070312D01*
X138834594Y-50071817D01*
X138981628Y-50186566D01*
X138984116Y-50188612D01*
X139126996Y-50312375D01*
X139129131Y-50314312D01*
X139264315Y-50442689D01*
X139266332Y-50444695D01*
X139397315Y-50581007D01*
X139399469Y-50583366D01*
X139476715Y-50672453D01*
X139521642Y-50724267D01*
X139523269Y-50726222D01*
X139641164Y-50873827D01*
X139643307Y-50876671D01*
X139751396Y-51028898D01*
X139752640Y-51030717D01*
X139856427Y-51188285D01*
X139858471Y-51191607D01*
X139951505Y-51353887D01*
X139952408Y-51355518D01*
X140041195Y-51521597D01*
X140043067Y-51525401D01*
X140120203Y-51696445D01*
X140120813Y-51697843D01*
X140193824Y-51870799D01*
X140195451Y-51875079D01*
X140256207Y-52054344D01*
X140312970Y-52232816D01*
X140314277Y-52237556D01*
X140357815Y-52423594D01*
X140397583Y-52604463D01*
X140398497Y-52609639D01*
X140424426Y-52803446D01*
X140446903Y-52982437D01*
X140447353Y-52988015D01*
X140455241Y-53206360D01*
X140455174Y-53206362D01*
X140455254Y-53206699D01*
X140460336Y-53358742D01*
X140460367Y-53361602D01*
X140460363Y-53361855D01*
X140460363Y-53361858D01*
X140460363Y-53361935D01*
X140459800Y-53408888D01*
X140460355Y-53414213D01*
X140454573Y-101778964D01*
X140452039Y-101787587D01*
X140454439Y-101824961D01*
X140454568Y-101828997D01*
X140454568Y-101836027D01*
X140454768Y-101837938D01*
X140457710Y-101999415D01*
X140460799Y-102201073D01*
X140460637Y-102206653D01*
X140447422Y-102386652D01*
X140431534Y-102581501D01*
X140430888Y-102586718D01*
X140400510Y-102769391D01*
X140366632Y-102957436D01*
X140365572Y-102962238D01*
X140318088Y-103143428D01*
X140266672Y-103325565D01*
X140265269Y-103329923D01*
X140201279Y-103506424D01*
X140200742Y-103507852D01*
X140132542Y-103682635D01*
X140130869Y-103686530D01*
X140050753Y-103857014D01*
X140049935Y-103858691D01*
X139965429Y-104025500D01*
X139963560Y-104028923D01*
X139868017Y-104191684D01*
X139866868Y-104193565D01*
X139766797Y-104351143D01*
X139764803Y-104354094D01*
X139654705Y-104507558D01*
X139653181Y-104509594D01*
X139538432Y-104656628D01*
X139536386Y-104659116D01*
X139412623Y-104801996D01*
X139410686Y-104804131D01*
X139282335Y-104939288D01*
X139280303Y-104941332D01*
X139143991Y-105072315D01*
X139141612Y-105074487D01*
X139000731Y-105196642D01*
X138998776Y-105198269D01*
X138851171Y-105316164D01*
X138848327Y-105318307D01*
X138696100Y-105426396D01*
X138694281Y-105427640D01*
X138536713Y-105531427D01*
X138533391Y-105533471D01*
X138371111Y-105626505D01*
X138369480Y-105627408D01*
X138203401Y-105716195D01*
X138199597Y-105718067D01*
X138028553Y-105795203D01*
X138027155Y-105795813D01*
X137854199Y-105868824D01*
X137849919Y-105870451D01*
X137670654Y-105931207D01*
X137492182Y-105987970D01*
X137487442Y-105989277D01*
X137301404Y-106032815D01*
X137120535Y-106072583D01*
X137115359Y-106073497D01*
X136921552Y-106099426D01*
X136742561Y-106121903D01*
X136736983Y-106122353D01*
X136518385Y-106130250D01*
X136366306Y-106135334D01*
X136363565Y-106135366D01*
X136324469Y-106134972D01*
X136317813Y-106135336D01*
X117597962Y-106124527D01*
X117588003Y-106121596D01*
X117552405Y-106124312D01*
X117547507Y-106124495D01*
X117485261Y-106124392D01*
X117349769Y-106123124D01*
X117331044Y-106121548D01*
X117246030Y-106107948D01*
X117244568Y-106107696D01*
X117134872Y-106087488D01*
X117126721Y-106085416D01*
X117035714Y-106055698D01*
X117033380Y-106054884D01*
X116933422Y-106017844D01*
X116926628Y-106014861D01*
X116839696Y-105970416D01*
X116836659Y-105968756D01*
X116746152Y-105916023D01*
X116740776Y-105912512D01*
X116661185Y-105854528D01*
X116657700Y-105851797D01*
X116578135Y-105784745D01*
X116574144Y-105781076D01*
X116504434Y-105711199D01*
X116500763Y-105707187D01*
X116433902Y-105627460D01*
X116431164Y-105623951D01*
X116423098Y-105612823D01*
X116373371Y-105544219D01*
X116369887Y-105538854D01*
X116317369Y-105448217D01*
X116315718Y-105445178D01*
X116271479Y-105358133D01*
X116268512Y-105351332D01*
X116231703Y-105251260D01*
X116230911Y-105248968D01*
X116226803Y-105236285D01*
X116204429Y-105167202D01*
X116201405Y-105157864D01*
X116199353Y-105149708D01*
X116197659Y-105140387D01*
X116179395Y-105039890D01*
X116179179Y-105038615D01*
X116165761Y-104953429D01*
X116164232Y-104934748D01*
X116163291Y-104801887D01*
X116163341Y-104736690D01*
X116163551Y-104731601D01*
X116165495Y-104707877D01*
X116165278Y-104707447D01*
X116165125Y-104705791D01*
X116164337Y-104703973D01*
X116163378Y-104688352D01*
X116163379Y-104686870D01*
X116163202Y-104684957D01*
X116154202Y-100645000D01*
X117994723Y-100645000D01*
X118013793Y-100862977D01*
X118049695Y-100996967D01*
X118070424Y-101074328D01*
X118070426Y-101074333D01*
X118094195Y-101125305D01*
X118162898Y-101272639D01*
X118288402Y-101451877D01*
X118443123Y-101606598D01*
X118622361Y-101732102D01*
X118820670Y-101824575D01*
X119032023Y-101881207D01*
X119250000Y-101900277D01*
X119467977Y-101881207D01*
X119679330Y-101824575D01*
X119877639Y-101732102D01*
X120056877Y-101606598D01*
X120211598Y-101451877D01*
X120337102Y-101272639D01*
X120405805Y-101125302D01*
X120452722Y-101072019D01*
X120520999Y-101052558D01*
X120588959Y-101073100D01*
X120634194Y-101125302D01*
X120702898Y-101272639D01*
X120828402Y-101451877D01*
X120983123Y-101606598D01*
X121162361Y-101732102D01*
X121360670Y-101824575D01*
X121572023Y-101881207D01*
X121790000Y-101900277D01*
X122007977Y-101881207D01*
X122219330Y-101824575D01*
X122417639Y-101732102D01*
X122596877Y-101606598D01*
X122751598Y-101451877D01*
X122877102Y-101272639D01*
X122945805Y-101125302D01*
X122992722Y-101072019D01*
X123060999Y-101052558D01*
X123128959Y-101073100D01*
X123174194Y-101125302D01*
X123242898Y-101272639D01*
X123368402Y-101451877D01*
X123523123Y-101606598D01*
X123702361Y-101732102D01*
X123900670Y-101824575D01*
X124112023Y-101881207D01*
X124330000Y-101900277D01*
X124547977Y-101881207D01*
X124759330Y-101824575D01*
X124957639Y-101732102D01*
X125136877Y-101606598D01*
X125291598Y-101451877D01*
X125417102Y-101272639D01*
X125485806Y-101125302D01*
X125532720Y-101072019D01*
X125600998Y-101052558D01*
X125668958Y-101073099D01*
X125714194Y-101125304D01*
X125768471Y-101241700D01*
X125782898Y-101272639D01*
X125908402Y-101451877D01*
X126063123Y-101606598D01*
X126242361Y-101732102D01*
X126440670Y-101824575D01*
X126652023Y-101881207D01*
X126870000Y-101900277D01*
X127087977Y-101881207D01*
X127299330Y-101824575D01*
X127497639Y-101732102D01*
X127676877Y-101606598D01*
X127831598Y-101451877D01*
X127957102Y-101272639D01*
X128025805Y-101125302D01*
X128072722Y-101072019D01*
X128140999Y-101052558D01*
X128208959Y-101073100D01*
X128254194Y-101125302D01*
X128322898Y-101272639D01*
X128448402Y-101451877D01*
X128603123Y-101606598D01*
X128782361Y-101732102D01*
X128980670Y-101824575D01*
X129192023Y-101881207D01*
X129410000Y-101900277D01*
X129627977Y-101881207D01*
X129839330Y-101824575D01*
X130037639Y-101732102D01*
X130216877Y-101606598D01*
X130371598Y-101451877D01*
X130497102Y-101272639D01*
X130565805Y-101125302D01*
X130612722Y-101072019D01*
X130680999Y-101052558D01*
X130748959Y-101073100D01*
X130794194Y-101125302D01*
X130862898Y-101272639D01*
X130988402Y-101451877D01*
X131143123Y-101606598D01*
X131322361Y-101732102D01*
X131520670Y-101824575D01*
X131732023Y-101881207D01*
X131950000Y-101900277D01*
X132167977Y-101881207D01*
X132379330Y-101824575D01*
X132577639Y-101732102D01*
X132756877Y-101606598D01*
X132906155Y-101457319D01*
X132968463Y-101423297D01*
X133039279Y-101428361D01*
X133096115Y-101470908D01*
X133120926Y-101537428D01*
X133119467Y-101567521D01*
X133114612Y-101596092D01*
X133094457Y-101954999D01*
X133114612Y-102313903D01*
X133174825Y-102668293D01*
X133274342Y-103013728D01*
X133411901Y-103345822D01*
X133411906Y-103345833D01*
X133455636Y-103424957D01*
X133585784Y-103660444D01*
X133585786Y-103660447D01*
X133585789Y-103660452D01*
X133793806Y-103953623D01*
X134033339Y-104221661D01*
X134301377Y-104461194D01*
X134594548Y-104669211D01*
X134909167Y-104843094D01*
X135241276Y-104980659D01*
X135586700Y-105080173D01*
X135941093Y-105140387D01*
X136300000Y-105160543D01*
X136658907Y-105140387D01*
X137013300Y-105080173D01*
X137358724Y-104980659D01*
X137690833Y-104843094D01*
X138005452Y-104669211D01*
X138298623Y-104461194D01*
X138566661Y-104221661D01*
X138806194Y-103953623D01*
X139014211Y-103660452D01*
X139188094Y-103345833D01*
X139325659Y-103013724D01*
X139425173Y-102668300D01*
X139485387Y-102313907D01*
X139505543Y-101955000D01*
X139485387Y-101596093D01*
X139425173Y-101241700D01*
X139325659Y-100896276D01*
X139188094Y-100564167D01*
X139014211Y-100249548D01*
X138806194Y-99956377D01*
X138566661Y-99688339D01*
X138298623Y-99448806D01*
X138005452Y-99240789D01*
X138005447Y-99240786D01*
X138005444Y-99240784D01*
X137813123Y-99134493D01*
X137690833Y-99066906D01*
X137690826Y-99066903D01*
X137690822Y-99066901D01*
X137358728Y-98929342D01*
X137013293Y-98829825D01*
X136658903Y-98769612D01*
X136324238Y-98750818D01*
X136300000Y-98749457D01*
X136299999Y-98749457D01*
X135941096Y-98769612D01*
X135586706Y-98829825D01*
X135241271Y-98929342D01*
X134909177Y-99066901D01*
X134909154Y-99066913D01*
X134594555Y-99240784D01*
X134594547Y-99240789D01*
X134594548Y-99240789D01*
X134310578Y-99442278D01*
X134301373Y-99448809D01*
X134033339Y-99688339D01*
X133793809Y-99956373D01*
X133585786Y-100249551D01*
X133427209Y-100536477D01*
X133376752Y-100586422D01*
X133307301Y-100601159D01*
X133240909Y-100576010D01*
X133198652Y-100518958D01*
X133191411Y-100486516D01*
X133186207Y-100427023D01*
X133129575Y-100215670D01*
X133037102Y-100017362D01*
X133037101Y-100017361D01*
X133037100Y-100017358D01*
X132911604Y-99838131D01*
X132911601Y-99838127D01*
X132911598Y-99838123D01*
X132756877Y-99683402D01*
X132577639Y-99557898D01*
X132430302Y-99489194D01*
X132377019Y-99442278D01*
X132357558Y-99374001D01*
X132378100Y-99306041D01*
X132430302Y-99260805D01*
X132577639Y-99192102D01*
X132756877Y-99066598D01*
X132911598Y-98911877D01*
X133037102Y-98732639D01*
X133129575Y-98534330D01*
X133186207Y-98322977D01*
X133205277Y-98105000D01*
X133186207Y-97887023D01*
X133129575Y-97675670D01*
X133037102Y-97477362D01*
X133037101Y-97477361D01*
X133037100Y-97477358D01*
X132911604Y-97298131D01*
X132911601Y-97298127D01*
X132911598Y-97298123D01*
X132756877Y-97143402D01*
X132577639Y-97017898D01*
X132430302Y-96949194D01*
X132377019Y-96902278D01*
X132357558Y-96834001D01*
X132378100Y-96766041D01*
X132430302Y-96720805D01*
X132577639Y-96652102D01*
X132756877Y-96526598D01*
X132911598Y-96371877D01*
X133037102Y-96192639D01*
X133129575Y-95994330D01*
X133186207Y-95782977D01*
X133205277Y-95565000D01*
X133186207Y-95347023D01*
X133129575Y-95135670D01*
X133037102Y-94937362D01*
X133037101Y-94937361D01*
X133037100Y-94937358D01*
X132911604Y-94758131D01*
X132911601Y-94758127D01*
X132911598Y-94758123D01*
X132756877Y-94603402D01*
X132577639Y-94477898D01*
X132430302Y-94409194D01*
X132377019Y-94362278D01*
X132357558Y-94294001D01*
X132378100Y-94226041D01*
X132430302Y-94180805D01*
X132577639Y-94112102D01*
X132756877Y-93986598D01*
X132911598Y-93831877D01*
X133037102Y-93652639D01*
X133129575Y-93454330D01*
X133186207Y-93242977D01*
X133205277Y-93025000D01*
X133186207Y-92807023D01*
X133129575Y-92595670D01*
X133037102Y-92397362D01*
X133037101Y-92397361D01*
X133037100Y-92397358D01*
X132911604Y-92218131D01*
X132911601Y-92218127D01*
X132911598Y-92218123D01*
X132756877Y-92063402D01*
X132577639Y-91937898D01*
X132379333Y-91845426D01*
X132379328Y-91845424D01*
X132301967Y-91824695D01*
X132167977Y-91788793D01*
X131950000Y-91769723D01*
X131732023Y-91788793D01*
X131642696Y-91812728D01*
X131520671Y-91845424D01*
X131520667Y-91845426D01*
X131322358Y-91937899D01*
X131143131Y-92063395D01*
X131143120Y-92063404D01*
X130988404Y-92218120D01*
X130988395Y-92218131D01*
X130862899Y-92397358D01*
X130770426Y-92595667D01*
X130770422Y-92595677D01*
X130755625Y-92650900D01*
X130718673Y-92711522D01*
X130654812Y-92742543D01*
X130584318Y-92734113D01*
X130529571Y-92688910D01*
X130512731Y-92652774D01*
X130498643Y-92603258D01*
X130402612Y-92410401D01*
X130272778Y-92238474D01*
X130272776Y-92238471D01*
X130113565Y-92093331D01*
X129930397Y-91979918D01*
X129930392Y-91979916D01*
X129930391Y-91979915D01*
X129930386Y-91979913D01*
X129729500Y-91902089D01*
X129729497Y-91902088D01*
X129729496Y-91902088D01*
X129517721Y-91862500D01*
X129302279Y-91862500D01*
X129090504Y-91902088D01*
X129090499Y-91902089D01*
X128889613Y-91979913D01*
X128889602Y-91979918D01*
X128706434Y-92093331D01*
X128547223Y-92238471D01*
X128417389Y-92410399D01*
X128321357Y-92603258D01*
X128321354Y-92603266D01*
X128261190Y-92814725D01*
X128223310Y-92874772D01*
X128158979Y-92904806D01*
X128088623Y-92895293D01*
X128034578Y-92849253D01*
X128018810Y-92814725D01*
X127958645Y-92603266D01*
X127958643Y-92603258D01*
X127862612Y-92410401D01*
X127732778Y-92238474D01*
X127732776Y-92238471D01*
X127573565Y-92093331D01*
X127390397Y-91979918D01*
X127390392Y-91979916D01*
X127390391Y-91979915D01*
X127390386Y-91979913D01*
X127189500Y-91902089D01*
X127189497Y-91902088D01*
X127189496Y-91902088D01*
X126977721Y-91862500D01*
X126762279Y-91862500D01*
X126550504Y-91902088D01*
X126550499Y-91902089D01*
X126349613Y-91979913D01*
X126349602Y-91979918D01*
X126166434Y-92093331D01*
X126007223Y-92238471D01*
X125877389Y-92410399D01*
X125781357Y-92603258D01*
X125781354Y-92603266D01*
X125721190Y-92814725D01*
X125683310Y-92874772D01*
X125618979Y-92904806D01*
X125548623Y-92895293D01*
X125494578Y-92849253D01*
X125478810Y-92814725D01*
X125418645Y-92603266D01*
X125418643Y-92603258D01*
X125322612Y-92410401D01*
X125192778Y-92238474D01*
X125192776Y-92238471D01*
X125033565Y-92093331D01*
X124850397Y-91979918D01*
X124850392Y-91979916D01*
X124850391Y-91979915D01*
X124850386Y-91979913D01*
X124649500Y-91902089D01*
X124649497Y-91902088D01*
X124649496Y-91902088D01*
X124437721Y-91862500D01*
X124222279Y-91862500D01*
X124010504Y-91902088D01*
X124010499Y-91902089D01*
X123809613Y-91979913D01*
X123809602Y-91979918D01*
X123626434Y-92093331D01*
X123467223Y-92238471D01*
X123337389Y-92410399D01*
X123241357Y-92603258D01*
X123241354Y-92603266D01*
X123181190Y-92814725D01*
X123143310Y-92874772D01*
X123078979Y-92904806D01*
X123008623Y-92895293D01*
X122954578Y-92849253D01*
X122938810Y-92814725D01*
X122878645Y-92603266D01*
X122878643Y-92603258D01*
X122782612Y-92410401D01*
X122652778Y-92238474D01*
X122652776Y-92238471D01*
X122493565Y-92093331D01*
X122310397Y-91979918D01*
X122310392Y-91979916D01*
X122310391Y-91979915D01*
X122310386Y-91979913D01*
X122109500Y-91902089D01*
X122109497Y-91902088D01*
X122109496Y-91902088D01*
X121897721Y-91862500D01*
X121682279Y-91862500D01*
X121470504Y-91902088D01*
X121470499Y-91902089D01*
X121269613Y-91979913D01*
X121269602Y-91979918D01*
X121086434Y-92093331D01*
X120927223Y-92238471D01*
X120797389Y-92410399D01*
X120701357Y-92603258D01*
X120701354Y-92603266D01*
X120641190Y-92814725D01*
X120603310Y-92874772D01*
X120538979Y-92904806D01*
X120468623Y-92895293D01*
X120414578Y-92849253D01*
X120398810Y-92814725D01*
X120338645Y-92603266D01*
X120338643Y-92603258D01*
X120242612Y-92410401D01*
X120112778Y-92238474D01*
X120112776Y-92238471D01*
X119953565Y-92093331D01*
X119770397Y-91979918D01*
X119770392Y-91979916D01*
X119770391Y-91979915D01*
X119770386Y-91979913D01*
X119569500Y-91902089D01*
X119569497Y-91902088D01*
X119569496Y-91902088D01*
X119357721Y-91862500D01*
X119142279Y-91862500D01*
X118930504Y-91902088D01*
X118930499Y-91902089D01*
X118729613Y-91979913D01*
X118729602Y-91979918D01*
X118546434Y-92093331D01*
X118387223Y-92238471D01*
X118257389Y-92410399D01*
X118161357Y-92603258D01*
X118161354Y-92603266D01*
X118102398Y-92810477D01*
X118102398Y-92810481D01*
X118082520Y-93024995D01*
X118082520Y-93025004D01*
X118102398Y-93239518D01*
X118102398Y-93239522D01*
X118161231Y-93446301D01*
X118161357Y-93446742D01*
X118257388Y-93639599D01*
X118284364Y-93675321D01*
X118387223Y-93811528D01*
X118546434Y-93956668D01*
X118729602Y-94070081D01*
X118729604Y-94070082D01*
X118729609Y-94070085D01*
X118729613Y-94070086D01*
X118729616Y-94070088D01*
X118888301Y-94131563D01*
X118944597Y-94174822D01*
X118968567Y-94241650D01*
X118952603Y-94310828D01*
X118901772Y-94360394D01*
X118875397Y-94370760D01*
X118820680Y-94385421D01*
X118820667Y-94385426D01*
X118622358Y-94477899D01*
X118443131Y-94603395D01*
X118443120Y-94603404D01*
X118288404Y-94758120D01*
X118288395Y-94758131D01*
X118162899Y-94937358D01*
X118070426Y-95135667D01*
X118070424Y-95135671D01*
X118064591Y-95157441D01*
X118013793Y-95347023D01*
X117994723Y-95565000D01*
X118013793Y-95782977D01*
X118049695Y-95916967D01*
X118070424Y-95994328D01*
X118070426Y-95994333D01*
X118162898Y-96192639D01*
X118288402Y-96371877D01*
X118443123Y-96526598D01*
X118622361Y-96652102D01*
X118761485Y-96716976D01*
X118769695Y-96720805D01*
X118822980Y-96767722D01*
X118842441Y-96836000D01*
X118821899Y-96903960D01*
X118769695Y-96949195D01*
X118622358Y-97017899D01*
X118443131Y-97143395D01*
X118443120Y-97143404D01*
X118288404Y-97298120D01*
X118288395Y-97298131D01*
X118162899Y-97477358D01*
X118070426Y-97675667D01*
X118070424Y-97675671D01*
X118064591Y-97697441D01*
X118013793Y-97887023D01*
X117994723Y-98105000D01*
X118013793Y-98322977D01*
X118049695Y-98456967D01*
X118070424Y-98534328D01*
X118070426Y-98534333D01*
X118162898Y-98732639D01*
X118188787Y-98769613D01*
X118288402Y-98911877D01*
X118443123Y-99066598D01*
X118622361Y-99192102D01*
X118726760Y-99240784D01*
X118769695Y-99260805D01*
X118822980Y-99307722D01*
X118842441Y-99376000D01*
X118821899Y-99443960D01*
X118769695Y-99489195D01*
X118622358Y-99557899D01*
X118443131Y-99683395D01*
X118443120Y-99683404D01*
X118288404Y-99838120D01*
X118288395Y-99838131D01*
X118162899Y-100017358D01*
X118070426Y-100215667D01*
X118070424Y-100215671D01*
X118037728Y-100337696D01*
X118013793Y-100427023D01*
X117994723Y-100645000D01*
X116154202Y-100645000D01*
X116141125Y-94775379D01*
X116144844Y-94762609D01*
X116141398Y-94731687D01*
X116141012Y-94724743D01*
X116141011Y-94724190D01*
X116141025Y-94724190D01*
X116141010Y-94723722D01*
X116141010Y-94723606D01*
X116141010Y-94714944D01*
X116140634Y-94711927D01*
X116137424Y-94610723D01*
X116137423Y-94610720D01*
X116136136Y-94603399D01*
X116118311Y-94501991D01*
X116118869Y-94497008D01*
X116115689Y-94485450D01*
X116114382Y-94479641D01*
X116111787Y-94464878D01*
X116111223Y-94460947D01*
X116104250Y-94398385D01*
X116096660Y-94383105D01*
X116057496Y-94263223D01*
X116057328Y-94257631D01*
X116052846Y-94247754D01*
X116050328Y-94241277D01*
X116039243Y-94207344D01*
X116038386Y-94204494D01*
X116028592Y-94168902D01*
X116019558Y-94155884D01*
X115962677Y-94040358D01*
X115961512Y-94033654D01*
X115955300Y-94024244D01*
X115951358Y-94017369D01*
X115928250Y-93970434D01*
X115928242Y-93970423D01*
X115925996Y-93966573D01*
X115926394Y-93966340D01*
X115919996Y-93955006D01*
X115919228Y-93953315D01*
X115909343Y-93942754D01*
X115836065Y-93835476D01*
X115833567Y-93827775D01*
X115828708Y-93822465D01*
X115817628Y-93808485D01*
X115800753Y-93783780D01*
X115800751Y-93783778D01*
X115800750Y-93783776D01*
X115792348Y-93774594D01*
X115780155Y-93758958D01*
X115778530Y-93756497D01*
X115768418Y-93748440D01*
X115680499Y-93652352D01*
X115676393Y-93643969D01*
X115671058Y-93639723D01*
X115656565Y-93626195D01*
X115648162Y-93617011D01*
X115625050Y-93598013D01*
X115612102Y-93585734D01*
X115609519Y-93582911D01*
X115599797Y-93577254D01*
X115499439Y-93494760D01*
X115493549Y-93486099D01*
X115488176Y-93483060D01*
X115477431Y-93475693D01*
X115477177Y-93476053D01*
X115473533Y-93473466D01*
X115428848Y-93446301D01*
X115422336Y-93441756D01*
X115415749Y-93436514D01*
X115406937Y-93432980D01*
X115296913Y-93366091D01*
X115289165Y-93357588D01*
X115250169Y-93343032D01*
X115247406Y-93341926D01*
X115214569Y-93327868D01*
X115208344Y-93324787D01*
X115200961Y-93320611D01*
X115193348Y-93318783D01*
X115077426Y-93269158D01*
X115067842Y-93261246D01*
X115001175Y-93247751D01*
X114997308Y-93246840D01*
X114982836Y-93242947D01*
X114977169Y-93241132D01*
X114967931Y-93237684D01*
X114960913Y-93237051D01*
X114854314Y-93208381D01*
X114854310Y-93208380D01*
X114744624Y-93195103D01*
X114739916Y-93194352D01*
X114731917Y-93192762D01*
X114727202Y-93192290D01*
X114718978Y-93190625D01*
X114709184Y-93194413D01*
X114698853Y-93194851D01*
X87793047Y-93230721D01*
X87775851Y-93225696D01*
X87748709Y-93229940D01*
X87743249Y-93230551D01*
X87637926Y-93237713D01*
X87637923Y-93237713D01*
X87550273Y-93257814D01*
X87542302Y-93257333D01*
X87525207Y-93263204D01*
X87518826Y-93265026D01*
X87438435Y-93283463D01*
X87438431Y-93283464D01*
X87337165Y-93324318D01*
X87328439Y-93325174D01*
X87314211Y-93333066D01*
X87307218Y-93336400D01*
X87281070Y-93346949D01*
X87277961Y-93348108D01*
X87242438Y-93360306D01*
X87226204Y-93373522D01*
X87141867Y-93424247D01*
X87132059Y-93426812D01*
X87119666Y-93436875D01*
X87112419Y-93441958D01*
X87073227Y-93465530D01*
X87068735Y-93468740D01*
X87062662Y-93472576D01*
X87056148Y-93476188D01*
X87043213Y-93490785D01*
X86967119Y-93554815D01*
X86956539Y-93559462D01*
X86949528Y-93567566D01*
X86935370Y-93581530D01*
X86916624Y-93597303D01*
X86916609Y-93597318D01*
X86911019Y-93603779D01*
X86895164Y-93619145D01*
X86891840Y-93621843D01*
X86882293Y-93636980D01*
X86817029Y-93712411D01*
X86806196Y-93719384D01*
X86801232Y-93727709D01*
X86788299Y-93745617D01*
X86782706Y-93752080D01*
X86782692Y-93752099D01*
X86769778Y-93772917D01*
X86757996Y-93788933D01*
X86754185Y-93793337D01*
X86747909Y-93808172D01*
X86695483Y-93892684D01*
X86684980Y-93902082D01*
X86680256Y-93914554D01*
X86677332Y-93921117D01*
X86674810Y-93926006D01*
X86657116Y-93968182D01*
X86653128Y-93976082D01*
X86647162Y-93986087D01*
X86643819Y-93999878D01*
X86605746Y-94090634D01*
X86596171Y-94102406D01*
X86588039Y-94145500D01*
X86587338Y-94148743D01*
X86585597Y-94155884D01*
X86581368Y-94173229D01*
X86580656Y-94176147D01*
X86578362Y-94183545D01*
X86573935Y-94195232D01*
X86573008Y-94207504D01*
X86547136Y-94313598D01*
X86540448Y-94395808D01*
X86539562Y-94402384D01*
X86536854Y-94416732D01*
X86537833Y-94427954D01*
X86530541Y-94517596D01*
X86530541Y-94517603D01*
X86538169Y-94617287D01*
X86538353Y-94621956D01*
X86538432Y-94657550D01*
X86538121Y-94685927D01*
X86538499Y-94687675D01*
X86560546Y-104583359D01*
X86557831Y-104592678D01*
X86560471Y-104628020D01*
X86560646Y-104632847D01*
X86560531Y-104686615D01*
X86559978Y-104736699D01*
X86558907Y-104833629D01*
X86557302Y-104852334D01*
X86544228Y-104933254D01*
X86543941Y-104934888D01*
X86522012Y-105051093D01*
X86519940Y-105059130D01*
X86490732Y-105147798D01*
X86489809Y-105150404D01*
X86450275Y-105254771D01*
X86447348Y-105261339D01*
X86403424Y-105346495D01*
X86401544Y-105349881D01*
X86345565Y-105443759D01*
X86342200Y-105448828D01*
X86284880Y-105526747D01*
X86281773Y-105530639D01*
X86210665Y-105612823D01*
X86207262Y-105616455D01*
X86138376Y-105684400D01*
X86133842Y-105688460D01*
X86049006Y-105757338D01*
X86045926Y-105759685D01*
X85967970Y-105815397D01*
X85961889Y-105819239D01*
X85864270Y-105873377D01*
X85861823Y-105874665D01*
X85778295Y-105916306D01*
X85770641Y-105919512D01*
X85658807Y-105957918D01*
X85657229Y-105958437D01*
X85579023Y-105983010D01*
X85560730Y-105987289D01*
X85413594Y-106010311D01*
X85369153Y-106016865D01*
X85350868Y-106018214D01*
X71147296Y-106029528D01*
X71138781Y-106027035D01*
X71099585Y-106029469D01*
X71096441Y-106029586D01*
X71089278Y-106029672D01*
X71088539Y-106029741D01*
X70925720Y-106032707D01*
X70723926Y-106035799D01*
X70718345Y-106035637D01*
X70538346Y-106022422D01*
X70343497Y-106006534D01*
X70338280Y-106005888D01*
X70155607Y-105975510D01*
X69967562Y-105941632D01*
X69962760Y-105940572D01*
X69781570Y-105893088D01*
X69599433Y-105841672D01*
X69595075Y-105840269D01*
X69418574Y-105776279D01*
X69417146Y-105775742D01*
X69242363Y-105707542D01*
X69238468Y-105705869D01*
X69067984Y-105625753D01*
X69066307Y-105624935D01*
X68899498Y-105540429D01*
X68896075Y-105538560D01*
X68733314Y-105443017D01*
X68731433Y-105441868D01*
X68643057Y-105385744D01*
X68573829Y-105341779D01*
X68570918Y-105339812D01*
X68417432Y-105229699D01*
X68415404Y-105228181D01*
X68268370Y-105113432D01*
X68265882Y-105111386D01*
X68123002Y-104987623D01*
X68120867Y-104985686D01*
X68072009Y-104939288D01*
X67985685Y-104857310D01*
X67983666Y-104855303D01*
X67971938Y-104843098D01*
X67852677Y-104718985D01*
X67850533Y-104716637D01*
X67728352Y-104575726D01*
X67726729Y-104573776D01*
X67673839Y-104507558D01*
X67608829Y-104426165D01*
X67606691Y-104423327D01*
X67498602Y-104271100D01*
X67497358Y-104269281D01*
X67393571Y-104111713D01*
X67391527Y-104108391D01*
X67344006Y-104025500D01*
X67298486Y-103946099D01*
X67297590Y-103944480D01*
X67250830Y-103857014D01*
X67208795Y-103778386D01*
X67206945Y-103774625D01*
X67129774Y-103603505D01*
X67129185Y-103602155D01*
X67113512Y-103565026D01*
X67056170Y-103429188D01*
X67054561Y-103424957D01*
X66993804Y-103245694D01*
X66937028Y-103067182D01*
X66935724Y-103062454D01*
X66892200Y-102876480D01*
X66852411Y-102695514D01*
X66851506Y-102690389D01*
X66825579Y-102496596D01*
X66803092Y-102317530D01*
X66802646Y-102312005D01*
X66794741Y-102093189D01*
X66790122Y-101954999D01*
X68094457Y-101954999D01*
X68114612Y-102313903D01*
X68174825Y-102668293D01*
X68274342Y-103013728D01*
X68411901Y-103345822D01*
X68411906Y-103345833D01*
X68455636Y-103424957D01*
X68585784Y-103660444D01*
X68585786Y-103660447D01*
X68585789Y-103660452D01*
X68793806Y-103953623D01*
X69033339Y-104221661D01*
X69301377Y-104461194D01*
X69594548Y-104669211D01*
X69909167Y-104843094D01*
X70241276Y-104980659D01*
X70586700Y-105080173D01*
X70941093Y-105140387D01*
X71300000Y-105160543D01*
X71658907Y-105140387D01*
X72013300Y-105080173D01*
X72358724Y-104980659D01*
X72690833Y-104843094D01*
X73005452Y-104669211D01*
X73298623Y-104461194D01*
X73566661Y-104221661D01*
X73806194Y-103953623D01*
X74014211Y-103660452D01*
X74188094Y-103345833D01*
X74325659Y-103013724D01*
X74425173Y-102668300D01*
X74485387Y-102313907D01*
X74505543Y-101955000D01*
X74485387Y-101596093D01*
X74425173Y-101241700D01*
X74325659Y-100896276D01*
X74188094Y-100564167D01*
X74014211Y-100249548D01*
X73806194Y-99956377D01*
X73566661Y-99688339D01*
X73298623Y-99448806D01*
X73005452Y-99240789D01*
X73005447Y-99240786D01*
X73005444Y-99240784D01*
X72813123Y-99134493D01*
X72690833Y-99066906D01*
X72690826Y-99066903D01*
X72690822Y-99066901D01*
X72358728Y-98929342D01*
X72013293Y-98829825D01*
X71658903Y-98769612D01*
X71324238Y-98750818D01*
X71300000Y-98749457D01*
X71299999Y-98749457D01*
X70941096Y-98769612D01*
X70586706Y-98829825D01*
X70241271Y-98929342D01*
X69909177Y-99066901D01*
X69909154Y-99066913D01*
X69594555Y-99240784D01*
X69594547Y-99240789D01*
X69594548Y-99240789D01*
X69310578Y-99442278D01*
X69301373Y-99448809D01*
X69033339Y-99688339D01*
X68793809Y-99956373D01*
X68793806Y-99956376D01*
X68793806Y-99956377D01*
X68750535Y-100017362D01*
X68585784Y-100249555D01*
X68411913Y-100564154D01*
X68411901Y-100564177D01*
X68274342Y-100896271D01*
X68174825Y-101241706D01*
X68114612Y-101596096D01*
X68094457Y-101954999D01*
X66790122Y-101954999D01*
X66789663Y-101941278D01*
X66789632Y-101938416D01*
X66789635Y-101938146D01*
X66789637Y-101938142D01*
X66789637Y-101938049D01*
X66789643Y-101937549D01*
X66789642Y-101937548D01*
X66790111Y-101898430D01*
X66789598Y-101891001D01*
X66789548Y-101828997D01*
X66783059Y-93810214D01*
X67388785Y-93810214D01*
X67388785Y-97289786D01*
X77711215Y-97289786D01*
X77711215Y-93810214D01*
X67388785Y-93810214D01*
X66783059Y-93810214D01*
X66778980Y-88769000D01*
X77253455Y-88769000D01*
X77301176Y-88957449D01*
X77301179Y-88957456D01*
X77391580Y-89163548D01*
X77514674Y-89351958D01*
X77667097Y-89517534D01*
X77844698Y-89655767D01*
X77844699Y-89655768D01*
X78042628Y-89762882D01*
X78042630Y-89762883D01*
X78255483Y-89835955D01*
X78255492Y-89835957D01*
X78336000Y-89849391D01*
X78336000Y-88948674D01*
X78447685Y-88999680D01*
X78554237Y-89015000D01*
X78625763Y-89015000D01*
X78732315Y-88999680D01*
X78844000Y-88948674D01*
X78844000Y-89849390D01*
X78924507Y-89835957D01*
X78924516Y-89835955D01*
X79137369Y-89762883D01*
X79137371Y-89762882D01*
X79335300Y-89655768D01*
X79335301Y-89655767D01*
X79512902Y-89517534D01*
X79665327Y-89351955D01*
X79754517Y-89215441D01*
X79808521Y-89169352D01*
X79878868Y-89159777D01*
X79943226Y-89189754D01*
X79965483Y-89215441D01*
X80054672Y-89351955D01*
X80207097Y-89517534D01*
X80384698Y-89655767D01*
X80384699Y-89655768D01*
X80582628Y-89762882D01*
X80582630Y-89762883D01*
X80795483Y-89835955D01*
X80795492Y-89835957D01*
X80876000Y-89849391D01*
X80876000Y-88948674D01*
X80987685Y-88999680D01*
X81094237Y-89015000D01*
X81165763Y-89015000D01*
X81272315Y-88999680D01*
X81384000Y-88948674D01*
X81384000Y-89849391D01*
X81464507Y-89835957D01*
X81464516Y-89835955D01*
X81677369Y-89762883D01*
X81677371Y-89762882D01*
X81875300Y-89655768D01*
X81875301Y-89655767D01*
X82052902Y-89517534D01*
X82205327Y-89351955D01*
X82294517Y-89215441D01*
X82348521Y-89169352D01*
X82418868Y-89159777D01*
X82483226Y-89189754D01*
X82505483Y-89215441D01*
X82594672Y-89351955D01*
X82747097Y-89517534D01*
X82924698Y-89655767D01*
X82924699Y-89655768D01*
X83122628Y-89762882D01*
X83122630Y-89762883D01*
X83335483Y-89835955D01*
X83335492Y-89835957D01*
X83416000Y-89849391D01*
X83416000Y-88948674D01*
X83527685Y-88999680D01*
X83634237Y-89015000D01*
X83705763Y-89015000D01*
X83812315Y-88999680D01*
X83924000Y-88948674D01*
X83924000Y-89849391D01*
X84004507Y-89835957D01*
X84004516Y-89835955D01*
X84217369Y-89762883D01*
X84217371Y-89762882D01*
X84415300Y-89655768D01*
X84415301Y-89655767D01*
X84592902Y-89517534D01*
X84745327Y-89351955D01*
X84834517Y-89215441D01*
X84888521Y-89169352D01*
X84958868Y-89159777D01*
X85023226Y-89189754D01*
X85045483Y-89215441D01*
X85134672Y-89351955D01*
X85287097Y-89517534D01*
X85464698Y-89655767D01*
X85464699Y-89655768D01*
X85662628Y-89762882D01*
X85662630Y-89762883D01*
X85875483Y-89835955D01*
X85875492Y-89835957D01*
X85956000Y-89849391D01*
X85956000Y-88948674D01*
X86067685Y-88999680D01*
X86174237Y-89015000D01*
X86245763Y-89015000D01*
X86352315Y-88999680D01*
X86464000Y-88948674D01*
X86464000Y-89849391D01*
X86544507Y-89835957D01*
X86544516Y-89835955D01*
X86757369Y-89762883D01*
X86757371Y-89762882D01*
X86955300Y-89655768D01*
X86955301Y-89655767D01*
X87132902Y-89517534D01*
X87285327Y-89351955D01*
X87374517Y-89215441D01*
X87428521Y-89169352D01*
X87498868Y-89159777D01*
X87563226Y-89189754D01*
X87585483Y-89215441D01*
X87674672Y-89351955D01*
X87827097Y-89517534D01*
X88004698Y-89655767D01*
X88004699Y-89655768D01*
X88202628Y-89762882D01*
X88202630Y-89762883D01*
X88415483Y-89835955D01*
X88415492Y-89835957D01*
X88496000Y-89849391D01*
X88496000Y-88948674D01*
X88607685Y-88999680D01*
X88714237Y-89015000D01*
X88785763Y-89015000D01*
X88892315Y-88999680D01*
X89004000Y-88948674D01*
X89004000Y-89849391D01*
X89084507Y-89835957D01*
X89084516Y-89835955D01*
X89297369Y-89762883D01*
X89297371Y-89762882D01*
X89495300Y-89655768D01*
X89495301Y-89655767D01*
X89672902Y-89517534D01*
X89825327Y-89351955D01*
X89914517Y-89215441D01*
X89968521Y-89169352D01*
X90038868Y-89159777D01*
X90103226Y-89189754D01*
X90125483Y-89215441D01*
X90214672Y-89351955D01*
X90367097Y-89517534D01*
X90544698Y-89655767D01*
X90544699Y-89655768D01*
X90742628Y-89762882D01*
X90742630Y-89762883D01*
X90955483Y-89835955D01*
X90955492Y-89835957D01*
X91036000Y-89849391D01*
X91036000Y-88948674D01*
X91147685Y-88999680D01*
X91254237Y-89015000D01*
X91325763Y-89015000D01*
X91432315Y-88999680D01*
X91544000Y-88948674D01*
X91544000Y-89849391D01*
X91624507Y-89835957D01*
X91624516Y-89835955D01*
X91837369Y-89762883D01*
X91837371Y-89762882D01*
X92035300Y-89655768D01*
X92035301Y-89655767D01*
X92212902Y-89517534D01*
X92365327Y-89351955D01*
X92454517Y-89215441D01*
X92508521Y-89169352D01*
X92578868Y-89159777D01*
X92643226Y-89189754D01*
X92665483Y-89215441D01*
X92754672Y-89351955D01*
X92907097Y-89517534D01*
X93084698Y-89655767D01*
X93084699Y-89655768D01*
X93282628Y-89762882D01*
X93282630Y-89762883D01*
X93495483Y-89835955D01*
X93495492Y-89835957D01*
X93576000Y-89849391D01*
X93576000Y-88948674D01*
X93687685Y-88999680D01*
X93794237Y-89015000D01*
X93865763Y-89015000D01*
X93972315Y-88999680D01*
X94084000Y-88948674D01*
X94084000Y-89849390D01*
X94164507Y-89835957D01*
X94164516Y-89835955D01*
X94377369Y-89762883D01*
X94377371Y-89762882D01*
X94575300Y-89655768D01*
X94575301Y-89655767D01*
X94752902Y-89517534D01*
X94905327Y-89351955D01*
X94994517Y-89215441D01*
X95048521Y-89169352D01*
X95118868Y-89159777D01*
X95183226Y-89189754D01*
X95205483Y-89215441D01*
X95294672Y-89351955D01*
X95447097Y-89517534D01*
X95624698Y-89655767D01*
X95624699Y-89655768D01*
X95822628Y-89762882D01*
X95822630Y-89762883D01*
X96035483Y-89835955D01*
X96035492Y-89835957D01*
X96116000Y-89849391D01*
X96116000Y-88948674D01*
X96227685Y-88999680D01*
X96334237Y-89015000D01*
X96405763Y-89015000D01*
X96512315Y-88999680D01*
X96624000Y-88948674D01*
X96624000Y-89849391D01*
X96704507Y-89835957D01*
X96704516Y-89835955D01*
X96917369Y-89762883D01*
X96917371Y-89762882D01*
X97115300Y-89655768D01*
X97115301Y-89655767D01*
X97292902Y-89517534D01*
X97445327Y-89351955D01*
X97534517Y-89215441D01*
X97588521Y-89169352D01*
X97658868Y-89159777D01*
X97723226Y-89189754D01*
X97745483Y-89215441D01*
X97834672Y-89351955D01*
X97987097Y-89517534D01*
X98164698Y-89655767D01*
X98164699Y-89655768D01*
X98362628Y-89762882D01*
X98362630Y-89762883D01*
X98575483Y-89835955D01*
X98575492Y-89835957D01*
X98656000Y-89849391D01*
X98656000Y-88948674D01*
X98767685Y-88999680D01*
X98874237Y-89015000D01*
X98945763Y-89015000D01*
X99052315Y-88999680D01*
X99164000Y-88948674D01*
X99164000Y-89849391D01*
X99244507Y-89835957D01*
X99244516Y-89835955D01*
X99457369Y-89762883D01*
X99457371Y-89762882D01*
X99655300Y-89655768D01*
X99655301Y-89655767D01*
X99832902Y-89517534D01*
X99985327Y-89351955D01*
X100074517Y-89215441D01*
X100128521Y-89169352D01*
X100198868Y-89159777D01*
X100263226Y-89189754D01*
X100285483Y-89215441D01*
X100374672Y-89351955D01*
X100527097Y-89517534D01*
X100704698Y-89655767D01*
X100704699Y-89655768D01*
X100902628Y-89762882D01*
X100902630Y-89762883D01*
X101115483Y-89835955D01*
X101115492Y-89835957D01*
X101196000Y-89849391D01*
X101196000Y-88948674D01*
X101307685Y-88999680D01*
X101414237Y-89015000D01*
X101485763Y-89015000D01*
X101592315Y-88999680D01*
X101704000Y-88948674D01*
X101704000Y-89849391D01*
X101784507Y-89835957D01*
X101784516Y-89835955D01*
X101997369Y-89762883D01*
X101997371Y-89762882D01*
X102195300Y-89655768D01*
X102195301Y-89655767D01*
X102372902Y-89517534D01*
X102525327Y-89351955D01*
X102614517Y-89215441D01*
X102668521Y-89169352D01*
X102738868Y-89159777D01*
X102803226Y-89189754D01*
X102825483Y-89215441D01*
X102914672Y-89351955D01*
X103067097Y-89517534D01*
X103244698Y-89655767D01*
X103244699Y-89655768D01*
X103442628Y-89762882D01*
X103442630Y-89762883D01*
X103655483Y-89835955D01*
X103655492Y-89835957D01*
X103736000Y-89849391D01*
X103736000Y-88948674D01*
X103847685Y-88999680D01*
X103954237Y-89015000D01*
X104025763Y-89015000D01*
X104132315Y-88999680D01*
X104244000Y-88948674D01*
X104244000Y-89849391D01*
X104324507Y-89835957D01*
X104324516Y-89835955D01*
X104537369Y-89762883D01*
X104537371Y-89762882D01*
X104735300Y-89655768D01*
X104735301Y-89655767D01*
X104912902Y-89517534D01*
X105065327Y-89351955D01*
X105154517Y-89215441D01*
X105208521Y-89169352D01*
X105278868Y-89159777D01*
X105343226Y-89189754D01*
X105365483Y-89215441D01*
X105454672Y-89351955D01*
X105607097Y-89517534D01*
X105784698Y-89655767D01*
X105784699Y-89655768D01*
X105982628Y-89762882D01*
X105982630Y-89762883D01*
X106195483Y-89835955D01*
X106195492Y-89835957D01*
X106276000Y-89849391D01*
X106276000Y-88948674D01*
X106387685Y-88999680D01*
X106494237Y-89015000D01*
X106565763Y-89015000D01*
X106672315Y-88999680D01*
X106783999Y-88948674D01*
X106783999Y-89849390D01*
X106864507Y-89835957D01*
X106864516Y-89835955D01*
X107077369Y-89762883D01*
X107077371Y-89762882D01*
X107275300Y-89655768D01*
X107275301Y-89655767D01*
X107452902Y-89517534D01*
X107605327Y-89351955D01*
X107694516Y-89215441D01*
X107748519Y-89169353D01*
X107818867Y-89159777D01*
X107883224Y-89189754D01*
X107905482Y-89215440D01*
X107994674Y-89351957D01*
X108147097Y-89517534D01*
X108324698Y-89655767D01*
X108324699Y-89655768D01*
X108522628Y-89762882D01*
X108522630Y-89762883D01*
X108735483Y-89835955D01*
X108735490Y-89835957D01*
X108815999Y-89849391D01*
X108815999Y-88948674D01*
X108927685Y-88999680D01*
X109034237Y-89015000D01*
X109105763Y-89015000D01*
X109212315Y-88999680D01*
X109324000Y-88948674D01*
X109324000Y-89849390D01*
X109404507Y-89835957D01*
X109404516Y-89835955D01*
X109617369Y-89762883D01*
X109617371Y-89762882D01*
X109815300Y-89655768D01*
X109815301Y-89655767D01*
X109992902Y-89517534D01*
X110145327Y-89351955D01*
X110234517Y-89215441D01*
X110288521Y-89169352D01*
X110358868Y-89159777D01*
X110423226Y-89189754D01*
X110445483Y-89215441D01*
X110534672Y-89351955D01*
X110687097Y-89517534D01*
X110864698Y-89655767D01*
X110864699Y-89655768D01*
X111062628Y-89762882D01*
X111062630Y-89762883D01*
X111275483Y-89835955D01*
X111275490Y-89835957D01*
X111355999Y-89849391D01*
X111355999Y-88948674D01*
X111467685Y-88999680D01*
X111574237Y-89015000D01*
X111645763Y-89015000D01*
X111752315Y-88999680D01*
X111864000Y-88948674D01*
X111864000Y-89849391D01*
X111944507Y-89835957D01*
X111944516Y-89835955D01*
X112157369Y-89762883D01*
X112157371Y-89762882D01*
X112355300Y-89655768D01*
X112355301Y-89655767D01*
X112532902Y-89517534D01*
X112685327Y-89351955D01*
X112774517Y-89215441D01*
X112828521Y-89169352D01*
X112898868Y-89159777D01*
X112963226Y-89189754D01*
X112985483Y-89215441D01*
X113074672Y-89351955D01*
X113227097Y-89517534D01*
X113404698Y-89655767D01*
X113404699Y-89655768D01*
X113602628Y-89762882D01*
X113602630Y-89762883D01*
X113815483Y-89835955D01*
X113815492Y-89835957D01*
X113896000Y-89849391D01*
X113896000Y-88948674D01*
X114007685Y-88999680D01*
X114114237Y-89015000D01*
X114185763Y-89015000D01*
X114292315Y-88999680D01*
X114404000Y-88948674D01*
X114404000Y-89849391D01*
X114484507Y-89835957D01*
X114484516Y-89835955D01*
X114697369Y-89762883D01*
X114697371Y-89762882D01*
X114895300Y-89655768D01*
X114895301Y-89655767D01*
X115072902Y-89517534D01*
X115225327Y-89351955D01*
X115314517Y-89215441D01*
X115368521Y-89169352D01*
X115438868Y-89159777D01*
X115503226Y-89189754D01*
X115525483Y-89215441D01*
X115614672Y-89351955D01*
X115767097Y-89517534D01*
X115944698Y-89655767D01*
X115944699Y-89655768D01*
X116142628Y-89762882D01*
X116142630Y-89762883D01*
X116355483Y-89835955D01*
X116355492Y-89835957D01*
X116436000Y-89849391D01*
X116436000Y-88948674D01*
X116547685Y-88999680D01*
X116654237Y-89015000D01*
X116725763Y-89015000D01*
X116832315Y-88999680D01*
X116943999Y-88948674D01*
X116943999Y-89849391D01*
X117024507Y-89835957D01*
X117024516Y-89835955D01*
X117237369Y-89762883D01*
X117237371Y-89762882D01*
X117435300Y-89655768D01*
X117435301Y-89655767D01*
X117612902Y-89517534D01*
X117765327Y-89351955D01*
X117854517Y-89215441D01*
X117908521Y-89169352D01*
X117978868Y-89159777D01*
X118043226Y-89189754D01*
X118065483Y-89215441D01*
X118154672Y-89351955D01*
X118307097Y-89517534D01*
X118484698Y-89655767D01*
X118484699Y-89655768D01*
X118682628Y-89762882D01*
X118682630Y-89762883D01*
X118895483Y-89835955D01*
X118895492Y-89835957D01*
X118976000Y-89849391D01*
X118976000Y-88948674D01*
X119087685Y-88999680D01*
X119194237Y-89015000D01*
X119265763Y-89015000D01*
X119372315Y-88999680D01*
X119483999Y-88948674D01*
X119483999Y-89849391D01*
X119564507Y-89835957D01*
X119564516Y-89835955D01*
X119777369Y-89762883D01*
X119777371Y-89762882D01*
X119975300Y-89655768D01*
X119975301Y-89655767D01*
X120152902Y-89517534D01*
X120305327Y-89351955D01*
X120394517Y-89215441D01*
X120448521Y-89169352D01*
X120518868Y-89159777D01*
X120583226Y-89189754D01*
X120605483Y-89215441D01*
X120694672Y-89351955D01*
X120847097Y-89517534D01*
X121024698Y-89655767D01*
X121024699Y-89655768D01*
X121222628Y-89762882D01*
X121222630Y-89762883D01*
X121435483Y-89835955D01*
X121435492Y-89835957D01*
X121516000Y-89849391D01*
X121516000Y-88948674D01*
X121627685Y-88999680D01*
X121734237Y-89015000D01*
X121805763Y-89015000D01*
X121912315Y-88999680D01*
X122024000Y-88948674D01*
X122024000Y-89849391D01*
X122104507Y-89835957D01*
X122104516Y-89835955D01*
X122317369Y-89762883D01*
X122317371Y-89762882D01*
X122515300Y-89655768D01*
X122515301Y-89655767D01*
X122692902Y-89517534D01*
X122845327Y-89351955D01*
X122934517Y-89215441D01*
X122988521Y-89169352D01*
X123058868Y-89159777D01*
X123123226Y-89189754D01*
X123145483Y-89215441D01*
X123234672Y-89351955D01*
X123387097Y-89517534D01*
X123564698Y-89655767D01*
X123564699Y-89655768D01*
X123762628Y-89762882D01*
X123762630Y-89762883D01*
X123975483Y-89835955D01*
X123975492Y-89835957D01*
X124055999Y-89849391D01*
X124055999Y-88948674D01*
X124167685Y-88999680D01*
X124274237Y-89015000D01*
X124345763Y-89015000D01*
X124452315Y-88999680D01*
X124564000Y-88948674D01*
X124564000Y-89849390D01*
X124644507Y-89835957D01*
X124644516Y-89835955D01*
X124857369Y-89762883D01*
X124857371Y-89762882D01*
X125055300Y-89655768D01*
X125055301Y-89655767D01*
X125232902Y-89517534D01*
X125385327Y-89351955D01*
X125474517Y-89215441D01*
X125528521Y-89169352D01*
X125598868Y-89159777D01*
X125663226Y-89189754D01*
X125685483Y-89215441D01*
X125774672Y-89351955D01*
X125927097Y-89517534D01*
X126104698Y-89655767D01*
X126104699Y-89655768D01*
X126302628Y-89762882D01*
X126302630Y-89762883D01*
X126515483Y-89835955D01*
X126515492Y-89835957D01*
X126596000Y-89849391D01*
X126596000Y-88948674D01*
X126707685Y-88999680D01*
X126814237Y-89015000D01*
X126885763Y-89015000D01*
X126992315Y-88999680D01*
X127104000Y-88948674D01*
X127104000Y-89849391D01*
X127184507Y-89835957D01*
X127184516Y-89835955D01*
X127397369Y-89762883D01*
X127397371Y-89762882D01*
X127595300Y-89655768D01*
X127595301Y-89655767D01*
X127772902Y-89517534D01*
X127925327Y-89351955D01*
X128014516Y-89215441D01*
X128068519Y-89169353D01*
X128138867Y-89159777D01*
X128203224Y-89189754D01*
X128225482Y-89215440D01*
X128314674Y-89351957D01*
X128467097Y-89517534D01*
X128644698Y-89655767D01*
X128644699Y-89655768D01*
X128842628Y-89762882D01*
X128842630Y-89762883D01*
X129055483Y-89835955D01*
X129055492Y-89835957D01*
X129136000Y-89849391D01*
X129136000Y-88948674D01*
X129247685Y-88999680D01*
X129354237Y-89015000D01*
X129425763Y-89015000D01*
X129532315Y-88999680D01*
X129643999Y-88948674D01*
X129643999Y-89849391D01*
X129724507Y-89835957D01*
X129724516Y-89835955D01*
X129937369Y-89762883D01*
X129937371Y-89762882D01*
X130135300Y-89655768D01*
X130135301Y-89655767D01*
X130312902Y-89517534D01*
X130465327Y-89351955D01*
X130554517Y-89215441D01*
X130608521Y-89169352D01*
X130678868Y-89159777D01*
X130743226Y-89189754D01*
X130765483Y-89215441D01*
X130854672Y-89351955D01*
X131007097Y-89517534D01*
X131184698Y-89655767D01*
X131184699Y-89655768D01*
X131382628Y-89762882D01*
X131382630Y-89762883D01*
X131595483Y-89835955D01*
X131595490Y-89835957D01*
X131675999Y-89849391D01*
X131675999Y-88948674D01*
X131787685Y-88999680D01*
X131894237Y-89015000D01*
X131965763Y-89015000D01*
X132072315Y-88999680D01*
X132184000Y-88948674D01*
X132184000Y-89849391D01*
X132264507Y-89835957D01*
X132264516Y-89835955D01*
X132477369Y-89762883D01*
X132477371Y-89762882D01*
X132675300Y-89655768D01*
X132675301Y-89655767D01*
X132852902Y-89517534D01*
X133005325Y-89351958D01*
X133128419Y-89163548D01*
X133218820Y-88957456D01*
X133218823Y-88957449D01*
X133266544Y-88769000D01*
X132361116Y-88769000D01*
X132389493Y-88724844D01*
X132430000Y-88586889D01*
X132430000Y-88443111D01*
X132389493Y-88305156D01*
X132361116Y-88261000D01*
X133266544Y-88261000D01*
X133266544Y-88260999D01*
X133218823Y-88072550D01*
X133218820Y-88072543D01*
X133128419Y-87866451D01*
X133005325Y-87678041D01*
X132852902Y-87512465D01*
X132675301Y-87374232D01*
X132675300Y-87374231D01*
X132477371Y-87267117D01*
X132477364Y-87267115D01*
X132451316Y-87258172D01*
X132393382Y-87217134D01*
X132366831Y-87151289D01*
X132380093Y-87081543D01*
X132428958Y-87030038D01*
X132446712Y-87021510D01*
X132450391Y-87020085D01*
X132633564Y-86906669D01*
X132770454Y-86781877D01*
X132792776Y-86761528D01*
X132792778Y-86761526D01*
X132922612Y-86589599D01*
X133018643Y-86396742D01*
X133077601Y-86189524D01*
X133077602Y-86189518D01*
X133078810Y-86185274D01*
X133116690Y-86125227D01*
X133181021Y-86095193D01*
X133251377Y-86104706D01*
X133305422Y-86150746D01*
X133321190Y-86185274D01*
X133322398Y-86189522D01*
X133322399Y-86189524D01*
X133381357Y-86396742D01*
X133477388Y-86589599D01*
X133519481Y-86645340D01*
X133607223Y-86761528D01*
X133766434Y-86906668D01*
X133949602Y-87020081D01*
X133949604Y-87020081D01*
X133949609Y-87020085D01*
X134150504Y-87097912D01*
X134362279Y-87137500D01*
X134362282Y-87137500D01*
X134577718Y-87137500D01*
X134577721Y-87137500D01*
X134789496Y-87097912D01*
X134990391Y-87020085D01*
X135173564Y-86906669D01*
X135310454Y-86781877D01*
X135332776Y-86761528D01*
X135332778Y-86761526D01*
X135462612Y-86589599D01*
X135558643Y-86396742D01*
X135617601Y-86189524D01*
X135637480Y-85975000D01*
X135617601Y-85760476D01*
X135558643Y-85553258D01*
X135462612Y-85360401D01*
X135332778Y-85188474D01*
X135332776Y-85188471D01*
X135173565Y-85043331D01*
X134990397Y-84929918D01*
X134990392Y-84929916D01*
X134990391Y-84929915D01*
X134990386Y-84929913D01*
X134789500Y-84852089D01*
X134789497Y-84852088D01*
X134789496Y-84852088D01*
X134665205Y-84828853D01*
X134601923Y-84796676D01*
X134566081Y-84735391D01*
X134569062Y-84664457D01*
X134609920Y-84606395D01*
X134665205Y-84581146D01*
X134789496Y-84557912D01*
X134990391Y-84480085D01*
X135173564Y-84366669D01*
X135310454Y-84241877D01*
X135332776Y-84221528D01*
X135332778Y-84221526D01*
X135462612Y-84049599D01*
X135558643Y-83856742D01*
X135617601Y-83649524D01*
X135637480Y-83435000D01*
X135635629Y-83415030D01*
X135621194Y-83259253D01*
X135617601Y-83220476D01*
X135558643Y-83013258D01*
X135462612Y-82820401D01*
X135356603Y-82680023D01*
X135332776Y-82648471D01*
X135173565Y-82503331D01*
X134990397Y-82389918D01*
X134990392Y-82389916D01*
X134990391Y-82389915D01*
X134990386Y-82389913D01*
X134789500Y-82312089D01*
X134789497Y-82312088D01*
X134789496Y-82312088D01*
X134665205Y-82288853D01*
X134601923Y-82256676D01*
X134566081Y-82195391D01*
X134569062Y-82124457D01*
X134609920Y-82066395D01*
X134665205Y-82041146D01*
X134789496Y-82017912D01*
X134990391Y-81940085D01*
X135173564Y-81826669D01*
X135310454Y-81701877D01*
X135332776Y-81681528D01*
X135332778Y-81681526D01*
X135462612Y-81509599D01*
X135558643Y-81316742D01*
X135617601Y-81109524D01*
X135637480Y-80895000D01*
X135617601Y-80680476D01*
X135558643Y-80473258D01*
X135462612Y-80280401D01*
X135332778Y-80108474D01*
X135332776Y-80108471D01*
X135173565Y-79963331D01*
X134990397Y-79849918D01*
X134990392Y-79849916D01*
X134990391Y-79849915D01*
X134990386Y-79849913D01*
X134789500Y-79772089D01*
X134789497Y-79772088D01*
X134789496Y-79772088D01*
X134665205Y-79748853D01*
X134601923Y-79716676D01*
X134566081Y-79655391D01*
X134569062Y-79584457D01*
X134609920Y-79526395D01*
X134665205Y-79501146D01*
X134789496Y-79477912D01*
X134990391Y-79400085D01*
X135173564Y-79286669D01*
X135310454Y-79161877D01*
X135332776Y-79141528D01*
X135332778Y-79141526D01*
X135462612Y-78969599D01*
X135558643Y-78776742D01*
X135617601Y-78569524D01*
X135637480Y-78355000D01*
X135635629Y-78335030D01*
X135621194Y-78179253D01*
X135617601Y-78140476D01*
X135558643Y-77933258D01*
X135462612Y-77740401D01*
X135332778Y-77568474D01*
X135332776Y-77568471D01*
X135173565Y-77423331D01*
X134990397Y-77309918D01*
X134990392Y-77309916D01*
X134990391Y-77309915D01*
X134990386Y-77309913D01*
X134789500Y-77232089D01*
X134789497Y-77232088D01*
X134789496Y-77232088D01*
X134665205Y-77208853D01*
X134601923Y-77176676D01*
X134566081Y-77115391D01*
X134569062Y-77044457D01*
X134609920Y-76986395D01*
X134665205Y-76961146D01*
X134789496Y-76937912D01*
X134990391Y-76860085D01*
X135173564Y-76746669D01*
X135332778Y-76601526D01*
X135462612Y-76429599D01*
X135558643Y-76236742D01*
X135617601Y-76029524D01*
X135637480Y-75815000D01*
X135630818Y-75743111D01*
X135619306Y-75618879D01*
X135617601Y-75600476D01*
X135558643Y-75393258D01*
X135462612Y-75200401D01*
X135332778Y-75028474D01*
X135332776Y-75028471D01*
X135173565Y-74883331D01*
X134990397Y-74769918D01*
X134990392Y-74769916D01*
X134990391Y-74769915D01*
X134990386Y-74769913D01*
X134789500Y-74692089D01*
X134789497Y-74692088D01*
X134789496Y-74692088D01*
X134665205Y-74668853D01*
X134601923Y-74636676D01*
X134566081Y-74575391D01*
X134569062Y-74504457D01*
X134609920Y-74446395D01*
X134665205Y-74421146D01*
X134789496Y-74397912D01*
X134990391Y-74320085D01*
X135173564Y-74206669D01*
X135310454Y-74081877D01*
X135332776Y-74061528D01*
X135332778Y-74061526D01*
X135462612Y-73889599D01*
X135558643Y-73696742D01*
X135617601Y-73489524D01*
X135637480Y-73275000D01*
X135617601Y-73060476D01*
X135558643Y-72853258D01*
X135462612Y-72660401D01*
X135332778Y-72488474D01*
X135332776Y-72488471D01*
X135173565Y-72343331D01*
X134990397Y-72229918D01*
X134990392Y-72229916D01*
X134990391Y-72229915D01*
X134990386Y-72229913D01*
X134789500Y-72152089D01*
X134789497Y-72152088D01*
X134789496Y-72152088D01*
X134665205Y-72128853D01*
X134601923Y-72096676D01*
X134566081Y-72035391D01*
X134569062Y-71964457D01*
X134609920Y-71906395D01*
X134665205Y-71881146D01*
X134789496Y-71857912D01*
X134990391Y-71780085D01*
X135173564Y-71666669D01*
X135310454Y-71541877D01*
X135332776Y-71521528D01*
X135350621Y-71497898D01*
X135462612Y-71349599D01*
X135558643Y-71156742D01*
X135617601Y-70949524D01*
X135637480Y-70735000D01*
X135617601Y-70520476D01*
X135558643Y-70313258D01*
X135462612Y-70120401D01*
X135332778Y-69948474D01*
X135332776Y-69948471D01*
X135173565Y-69803331D01*
X134990397Y-69689918D01*
X134990392Y-69689916D01*
X134990391Y-69689915D01*
X134990386Y-69689913D01*
X134789500Y-69612089D01*
X134789497Y-69612088D01*
X134789496Y-69612088D01*
X134665205Y-69588853D01*
X134601923Y-69556676D01*
X134566081Y-69495391D01*
X134569062Y-69424457D01*
X134609920Y-69366395D01*
X134665205Y-69341146D01*
X134789496Y-69317912D01*
X134990391Y-69240085D01*
X135173564Y-69126669D01*
X135310454Y-69001877D01*
X135332776Y-68981528D01*
X135350621Y-68957898D01*
X135462612Y-68809599D01*
X135558643Y-68616742D01*
X135617601Y-68409524D01*
X135637480Y-68195000D01*
X135617601Y-67980476D01*
X135558643Y-67773258D01*
X135462612Y-67580401D01*
X135332778Y-67408474D01*
X135332776Y-67408471D01*
X135173565Y-67263331D01*
X134990397Y-67149918D01*
X134990392Y-67149916D01*
X134990391Y-67149915D01*
X134990386Y-67149913D01*
X134789500Y-67072089D01*
X134789497Y-67072088D01*
X134789496Y-67072088D01*
X134665205Y-67048853D01*
X134601923Y-67016676D01*
X134566081Y-66955391D01*
X134569062Y-66884457D01*
X134609920Y-66826395D01*
X134665205Y-66801146D01*
X134789496Y-66777912D01*
X134990391Y-66700085D01*
X135173564Y-66586669D01*
X135310454Y-66461877D01*
X135332776Y-66441528D01*
X135357545Y-66408729D01*
X135462612Y-66269599D01*
X135558643Y-66076742D01*
X135617601Y-65869524D01*
X135637480Y-65655000D01*
X135617601Y-65440476D01*
X135558643Y-65233258D01*
X135462612Y-65040401D01*
X135332778Y-64868474D01*
X135332776Y-64868471D01*
X135173565Y-64723331D01*
X134990397Y-64609918D01*
X134990392Y-64609916D01*
X134990391Y-64609915D01*
X134990386Y-64609913D01*
X134789500Y-64532089D01*
X134789497Y-64532088D01*
X134789496Y-64532088D01*
X134665205Y-64508853D01*
X134601923Y-64476676D01*
X134566081Y-64415391D01*
X134569062Y-64344457D01*
X134609920Y-64286395D01*
X134665205Y-64261146D01*
X134789496Y-64237912D01*
X134990391Y-64160085D01*
X135173564Y-64046669D01*
X135310454Y-63921877D01*
X135332776Y-63901528D01*
X135332778Y-63901526D01*
X135462612Y-63729599D01*
X135558643Y-63536742D01*
X135617601Y-63329524D01*
X135637480Y-63115000D01*
X135617601Y-62900476D01*
X135558643Y-62693258D01*
X135462612Y-62500401D01*
X135332778Y-62328474D01*
X135332776Y-62328471D01*
X135173565Y-62183331D01*
X134990397Y-62069918D01*
X134990392Y-62069916D01*
X134990391Y-62069915D01*
X134988006Y-62068991D01*
X134789500Y-61992089D01*
X134789497Y-61992088D01*
X134789496Y-61992088D01*
X134577721Y-61952500D01*
X134362279Y-61952500D01*
X134150504Y-61992088D01*
X134150499Y-61992089D01*
X133949613Y-62069913D01*
X133949602Y-62069918D01*
X133766434Y-62183331D01*
X133607223Y-62328471D01*
X133477389Y-62500399D01*
X133381357Y-62693258D01*
X133381354Y-62693266D01*
X133321190Y-62904725D01*
X133283310Y-62964772D01*
X133218979Y-62994806D01*
X133148623Y-62985293D01*
X133094578Y-62939253D01*
X133078810Y-62904725D01*
X133018645Y-62693266D01*
X133018643Y-62693258D01*
X132922612Y-62500401D01*
X132792778Y-62328474D01*
X132792776Y-62328471D01*
X132633565Y-62183331D01*
X132450397Y-62069918D01*
X132450392Y-62069916D01*
X132450391Y-62069915D01*
X132448006Y-62068991D01*
X132249500Y-61992089D01*
X132249497Y-61992088D01*
X132249496Y-61992088D01*
X132037721Y-61952500D01*
X131822279Y-61952500D01*
X131610504Y-61992088D01*
X131610499Y-61992089D01*
X131409613Y-62069913D01*
X131409602Y-62069918D01*
X131226434Y-62183331D01*
X131067223Y-62328471D01*
X130937389Y-62500399D01*
X130841357Y-62693258D01*
X130841354Y-62693266D01*
X130781190Y-62904725D01*
X130743310Y-62964772D01*
X130678979Y-62994806D01*
X130608623Y-62985293D01*
X130554578Y-62939253D01*
X130538810Y-62904725D01*
X130478645Y-62693266D01*
X130478643Y-62693258D01*
X130382612Y-62500401D01*
X130252778Y-62328474D01*
X130252776Y-62328471D01*
X130093565Y-62183331D01*
X129910397Y-62069918D01*
X129910392Y-62069916D01*
X129910391Y-62069915D01*
X129908006Y-62068991D01*
X129751697Y-62008436D01*
X129695402Y-61965177D01*
X129671432Y-61898349D01*
X129687396Y-61829171D01*
X129738227Y-61779605D01*
X129764600Y-61769239D01*
X129809297Y-61757263D01*
X129819323Y-61754577D01*
X129819323Y-61754576D01*
X129819330Y-61754575D01*
X130017639Y-61662102D01*
X130196877Y-61536598D01*
X130351598Y-61381877D01*
X130477102Y-61202639D01*
X130569575Y-61004330D01*
X130626207Y-60792977D01*
X130645277Y-60575000D01*
X130626207Y-60357023D01*
X130569575Y-60145670D01*
X130477102Y-59947362D01*
X130477101Y-59947361D01*
X130477100Y-59947358D01*
X130351604Y-59768131D01*
X130351600Y-59768126D01*
X130351598Y-59768123D01*
X130196877Y-59613402D01*
X130177304Y-59599697D01*
X130017639Y-59487898D01*
X129819333Y-59395426D01*
X129819328Y-59395424D01*
X129741967Y-59374695D01*
X129607977Y-59338793D01*
X129390000Y-59319723D01*
X129389999Y-59319723D01*
X129317340Y-59326079D01*
X129172023Y-59338793D01*
X129082696Y-59362728D01*
X128960671Y-59395424D01*
X128960667Y-59395426D01*
X128762358Y-59487899D01*
X128583131Y-59613395D01*
X128583120Y-59613404D01*
X128428404Y-59768120D01*
X128428395Y-59768131D01*
X128302899Y-59947358D01*
X128234195Y-60094695D01*
X128187277Y-60147980D01*
X128119000Y-60167441D01*
X128051040Y-60146899D01*
X128005805Y-60094695D01*
X127969459Y-60016753D01*
X127937102Y-59947362D01*
X127937101Y-59947361D01*
X127937100Y-59947358D01*
X127811604Y-59768131D01*
X127811600Y-59768126D01*
X127811598Y-59768123D01*
X127656877Y-59613402D01*
X127637304Y-59599697D01*
X127477639Y-59487898D01*
X127279333Y-59395426D01*
X127279328Y-59395424D01*
X127201967Y-59374695D01*
X127067977Y-59338793D01*
X126850000Y-59319723D01*
X126632023Y-59338793D01*
X126542696Y-59362728D01*
X126420671Y-59395424D01*
X126420667Y-59395426D01*
X126222358Y-59487899D01*
X126043131Y-59613395D01*
X126043120Y-59613404D01*
X125888404Y-59768120D01*
X125888395Y-59768131D01*
X125762899Y-59947358D01*
X125694195Y-60094695D01*
X125647277Y-60147980D01*
X125579000Y-60167441D01*
X125511040Y-60146899D01*
X125465805Y-60094695D01*
X125429459Y-60016753D01*
X125397102Y-59947362D01*
X125397101Y-59947361D01*
X125397100Y-59947358D01*
X125271604Y-59768131D01*
X125271600Y-59768126D01*
X125271598Y-59768123D01*
X125116877Y-59613402D01*
X125097304Y-59599697D01*
X124937639Y-59487898D01*
X124739333Y-59395426D01*
X124739328Y-59395424D01*
X124661967Y-59374695D01*
X124527977Y-59338793D01*
X124310000Y-59319723D01*
X124092023Y-59338793D01*
X124002696Y-59362728D01*
X123880671Y-59395424D01*
X123880667Y-59395426D01*
X123682358Y-59487899D01*
X123503131Y-59613395D01*
X123503120Y-59613404D01*
X123348404Y-59768120D01*
X123348395Y-59768131D01*
X123222899Y-59947358D01*
X123154195Y-60094695D01*
X123107277Y-60147980D01*
X123039000Y-60167441D01*
X122971040Y-60146899D01*
X122925805Y-60094695D01*
X122889459Y-60016753D01*
X122857102Y-59947362D01*
X122857101Y-59947361D01*
X122857100Y-59947358D01*
X122731604Y-59768131D01*
X122731600Y-59768126D01*
X122731598Y-59768123D01*
X122576877Y-59613402D01*
X122557304Y-59599697D01*
X122397639Y-59487898D01*
X122199333Y-59395426D01*
X122199328Y-59395424D01*
X122121967Y-59374695D01*
X121987977Y-59338793D01*
X121770000Y-59319723D01*
X121552023Y-59338793D01*
X121462696Y-59362728D01*
X121340671Y-59395424D01*
X121340667Y-59395426D01*
X121142358Y-59487899D01*
X120963131Y-59613395D01*
X120963120Y-59613404D01*
X120808404Y-59768120D01*
X120808395Y-59768131D01*
X120682899Y-59947358D01*
X120682897Y-59947362D01*
X120614193Y-60094696D01*
X120567276Y-60147981D01*
X120498998Y-60167441D01*
X120431039Y-60146899D01*
X120385805Y-60094696D01*
X120317102Y-59947362D01*
X120317101Y-59947361D01*
X120317100Y-59947358D01*
X120191604Y-59768131D01*
X120191600Y-59768126D01*
X120191598Y-59768123D01*
X120036877Y-59613402D01*
X120017304Y-59599697D01*
X119857639Y-59487898D01*
X119659333Y-59395426D01*
X119659328Y-59395424D01*
X119581967Y-59374695D01*
X119447977Y-59338793D01*
X119230000Y-59319723D01*
X119229999Y-59319723D01*
X119157341Y-59326079D01*
X119012023Y-59338793D01*
X118922696Y-59362728D01*
X118800671Y-59395424D01*
X118800667Y-59395426D01*
X118602358Y-59487899D01*
X118423131Y-59613395D01*
X118423120Y-59613404D01*
X118268404Y-59768120D01*
X118268395Y-59768131D01*
X118142899Y-59947358D01*
X118074195Y-60094695D01*
X118027277Y-60147980D01*
X117959000Y-60167441D01*
X117891040Y-60146899D01*
X117845805Y-60094695D01*
X117809459Y-60016753D01*
X117777102Y-59947362D01*
X117777101Y-59947361D01*
X117777100Y-59947358D01*
X117651604Y-59768131D01*
X117651600Y-59768126D01*
X117651598Y-59768123D01*
X117496877Y-59613402D01*
X117477304Y-59599697D01*
X117317639Y-59487898D01*
X117119333Y-59395426D01*
X117119328Y-59395424D01*
X117041967Y-59374695D01*
X116907977Y-59338793D01*
X116690000Y-59319723D01*
X116472023Y-59338793D01*
X116382696Y-59362728D01*
X116260671Y-59395424D01*
X116260667Y-59395426D01*
X116062358Y-59487899D01*
X115883131Y-59613395D01*
X115883120Y-59613404D01*
X115728404Y-59768120D01*
X115728395Y-59768131D01*
X115602899Y-59947358D01*
X115534195Y-60094695D01*
X115487277Y-60147980D01*
X115419000Y-60167441D01*
X115351040Y-60146899D01*
X115305805Y-60094695D01*
X115269459Y-60016753D01*
X115237102Y-59947362D01*
X115237101Y-59947361D01*
X115237100Y-59947358D01*
X115111604Y-59768131D01*
X115111600Y-59768126D01*
X115111598Y-59768123D01*
X114956877Y-59613402D01*
X114937304Y-59599697D01*
X114777639Y-59487898D01*
X114579333Y-59395426D01*
X114579328Y-59395424D01*
X114501967Y-59374695D01*
X114367977Y-59338793D01*
X114150000Y-59319723D01*
X113932023Y-59338793D01*
X113842696Y-59362728D01*
X113720671Y-59395424D01*
X113720667Y-59395426D01*
X113522358Y-59487899D01*
X113343131Y-59613395D01*
X113343120Y-59613404D01*
X113188404Y-59768120D01*
X113188395Y-59768131D01*
X113062899Y-59947358D01*
X112994195Y-60094695D01*
X112947277Y-60147980D01*
X112879000Y-60167441D01*
X112811040Y-60146899D01*
X112765805Y-60094695D01*
X112729459Y-60016753D01*
X112697102Y-59947362D01*
X112697101Y-59947361D01*
X112697100Y-59947358D01*
X112571604Y-59768131D01*
X112571600Y-59768126D01*
X112571598Y-59768123D01*
X112416877Y-59613402D01*
X112397304Y-59599697D01*
X112237639Y-59487898D01*
X112039333Y-59395426D01*
X112039328Y-59395424D01*
X111961967Y-59374695D01*
X111827977Y-59338793D01*
X111610000Y-59319723D01*
X111392023Y-59338793D01*
X111302696Y-59362728D01*
X111180671Y-59395424D01*
X111180667Y-59395426D01*
X110982358Y-59487899D01*
X110803131Y-59613395D01*
X110803120Y-59613404D01*
X110648404Y-59768120D01*
X110648395Y-59768131D01*
X110522899Y-59947358D01*
X110454195Y-60094695D01*
X110407277Y-60147980D01*
X110339000Y-60167441D01*
X110271040Y-60146899D01*
X110225805Y-60094695D01*
X110189459Y-60016753D01*
X110157102Y-59947362D01*
X110157101Y-59947361D01*
X110157100Y-59947358D01*
X110031604Y-59768131D01*
X110031600Y-59768126D01*
X110031598Y-59768123D01*
X109876877Y-59613402D01*
X109857304Y-59599697D01*
X109697639Y-59487898D01*
X109499333Y-59395426D01*
X109499328Y-59395424D01*
X109421967Y-59374695D01*
X109287977Y-59338793D01*
X109070000Y-59319723D01*
X109069999Y-59319723D01*
X108997340Y-59326079D01*
X108852023Y-59338793D01*
X108762696Y-59362728D01*
X108640671Y-59395424D01*
X108640667Y-59395426D01*
X108442358Y-59487899D01*
X108263131Y-59613395D01*
X108263120Y-59613404D01*
X108108404Y-59768120D01*
X108108395Y-59768131D01*
X107982899Y-59947358D01*
X107914195Y-60094695D01*
X107867277Y-60147980D01*
X107799000Y-60167441D01*
X107731040Y-60146899D01*
X107685805Y-60094695D01*
X107649459Y-60016753D01*
X107617102Y-59947362D01*
X107617101Y-59947361D01*
X107617100Y-59947358D01*
X107491604Y-59768131D01*
X107491600Y-59768126D01*
X107491598Y-59768123D01*
X107336877Y-59613402D01*
X107317304Y-59599697D01*
X107157639Y-59487898D01*
X106959333Y-59395426D01*
X106959328Y-59395424D01*
X106881967Y-59374695D01*
X106747977Y-59338793D01*
X106530000Y-59319723D01*
X106312023Y-59338793D01*
X106222696Y-59362728D01*
X106100671Y-59395424D01*
X106100667Y-59395426D01*
X105902358Y-59487899D01*
X105723131Y-59613395D01*
X105723120Y-59613404D01*
X105568404Y-59768120D01*
X105568395Y-59768131D01*
X105442899Y-59947358D01*
X105374195Y-60094695D01*
X105327277Y-60147980D01*
X105259000Y-60167441D01*
X105191040Y-60146899D01*
X105145805Y-60094695D01*
X105109459Y-60016753D01*
X105077102Y-59947362D01*
X105077101Y-59947361D01*
X105077100Y-59947358D01*
X104951604Y-59768131D01*
X104951600Y-59768126D01*
X104951598Y-59768123D01*
X104796877Y-59613402D01*
X104777304Y-59599697D01*
X104617639Y-59487898D01*
X104419333Y-59395426D01*
X104419328Y-59395424D01*
X104341967Y-59374695D01*
X104207977Y-59338793D01*
X103990000Y-59319723D01*
X103772023Y-59338793D01*
X103682696Y-59362728D01*
X103560671Y-59395424D01*
X103560667Y-59395426D01*
X103362358Y-59487899D01*
X103183131Y-59613395D01*
X103183120Y-59613404D01*
X103028404Y-59768120D01*
X103028395Y-59768131D01*
X102902899Y-59947358D01*
X102834195Y-60094695D01*
X102787277Y-60147980D01*
X102719000Y-60167441D01*
X102651040Y-60146899D01*
X102605805Y-60094695D01*
X102569459Y-60016753D01*
X102537102Y-59947362D01*
X102537101Y-59947361D01*
X102537100Y-59947358D01*
X102411604Y-59768131D01*
X102411600Y-59768126D01*
X102411598Y-59768123D01*
X102256877Y-59613402D01*
X102237304Y-59599697D01*
X102077639Y-59487898D01*
X101879333Y-59395426D01*
X101879328Y-59395424D01*
X101801967Y-59374695D01*
X101667977Y-59338793D01*
X101450000Y-59319723D01*
X101232023Y-59338793D01*
X101142696Y-59362728D01*
X101020671Y-59395424D01*
X101020667Y-59395426D01*
X100822358Y-59487899D01*
X100643131Y-59613395D01*
X100643120Y-59613404D01*
X100488404Y-59768120D01*
X100488395Y-59768131D01*
X100362899Y-59947358D01*
X100294195Y-60094695D01*
X100247277Y-60147980D01*
X100179000Y-60167441D01*
X100111040Y-60146899D01*
X100065805Y-60094695D01*
X100029459Y-60016753D01*
X99997102Y-59947362D01*
X99997101Y-59947361D01*
X99997100Y-59947358D01*
X99871604Y-59768131D01*
X99871600Y-59768126D01*
X99871598Y-59768123D01*
X99716877Y-59613402D01*
X99697304Y-59599697D01*
X99537639Y-59487898D01*
X99339333Y-59395426D01*
X99339328Y-59395424D01*
X99261967Y-59374695D01*
X99127977Y-59338793D01*
X98910000Y-59319723D01*
X98909999Y-59319723D01*
X98837341Y-59326079D01*
X98692023Y-59338793D01*
X98602696Y-59362728D01*
X98480671Y-59395424D01*
X98480667Y-59395426D01*
X98282358Y-59487899D01*
X98103131Y-59613395D01*
X98103120Y-59613404D01*
X97948404Y-59768120D01*
X97948395Y-59768131D01*
X97822899Y-59947358D01*
X97754195Y-60094695D01*
X97707277Y-60147980D01*
X97639000Y-60167441D01*
X97571040Y-60146899D01*
X97525805Y-60094695D01*
X97489459Y-60016753D01*
X97457102Y-59947362D01*
X97457101Y-59947361D01*
X97457100Y-59947358D01*
X97331604Y-59768131D01*
X97331600Y-59768126D01*
X97331598Y-59768123D01*
X97176877Y-59613402D01*
X97157304Y-59599697D01*
X96997639Y-59487898D01*
X96799333Y-59395426D01*
X96799328Y-59395424D01*
X96721967Y-59374695D01*
X96587977Y-59338793D01*
X96370000Y-59319723D01*
X96152023Y-59338793D01*
X96062696Y-59362728D01*
X95940671Y-59395424D01*
X95940667Y-59395426D01*
X95742358Y-59487899D01*
X95563131Y-59613395D01*
X95563120Y-59613404D01*
X95408404Y-59768120D01*
X95408399Y-59768126D01*
X95309712Y-59909067D01*
X95254255Y-59953395D01*
X95183636Y-59960704D01*
X95120275Y-59928673D01*
X95084290Y-59867472D01*
X95080499Y-59836796D01*
X95080499Y-59693483D01*
X95067817Y-59613402D01*
X95065646Y-59599696D01*
X95020501Y-59511094D01*
X95008050Y-59486657D01*
X94918342Y-59396949D01*
X94842502Y-59358307D01*
X94805304Y-59339354D01*
X94711519Y-59324500D01*
X94711515Y-59324500D01*
X92948483Y-59324500D01*
X92854697Y-59339353D01*
X92741657Y-59396949D01*
X92651949Y-59486657D01*
X92607749Y-59573406D01*
X92594354Y-59599696D01*
X92579500Y-59693481D01*
X92579500Y-59693484D01*
X92579500Y-61456516D01*
X92594353Y-61550302D01*
X92651949Y-61663342D01*
X92741657Y-61753050D01*
X92780299Y-61772738D01*
X92854696Y-61810646D01*
X92948481Y-61825500D01*
X93266479Y-61825499D01*
X93334597Y-61845501D01*
X93381090Y-61899156D01*
X93391195Y-61969430D01*
X93361702Y-62034011D01*
X93314703Y-62067087D01*
X93314820Y-62067321D01*
X93313286Y-62068084D01*
X93312007Y-62068985D01*
X93309619Y-62069910D01*
X93309602Y-62069918D01*
X93126434Y-62183331D01*
X92967223Y-62328471D01*
X92837389Y-62500399D01*
X92741357Y-62693258D01*
X92741354Y-62693266D01*
X92682398Y-62900477D01*
X92682398Y-62900481D01*
X92662520Y-63114995D01*
X92662520Y-63115004D01*
X92682398Y-63329518D01*
X92682398Y-63329522D01*
X92736954Y-63521269D01*
X92741357Y-63536742D01*
X92837388Y-63729599D01*
X92849984Y-63746279D01*
X92967223Y-63901528D01*
X93126434Y-64046668D01*
X93309602Y-64160081D01*
X93309604Y-64160081D01*
X93309609Y-64160085D01*
X93510504Y-64237912D01*
X93634794Y-64261146D01*
X93698075Y-64293323D01*
X93733918Y-64354608D01*
X93730937Y-64425542D01*
X93690080Y-64483604D01*
X93634792Y-64508853D01*
X93510505Y-64532087D01*
X93510503Y-64532088D01*
X93309613Y-64609913D01*
X93309602Y-64609918D01*
X93126434Y-64723331D01*
X92967223Y-64868471D01*
X92837389Y-65040399D01*
X92741357Y-65233258D01*
X92741354Y-65233266D01*
X92682398Y-65440477D01*
X92682398Y-65440481D01*
X92662520Y-65654995D01*
X92662520Y-65655004D01*
X92682398Y-65869518D01*
X92682398Y-65869522D01*
X92727801Y-66029100D01*
X92741357Y-66076742D01*
X92837388Y-66269599D01*
X92855463Y-66293534D01*
X92967223Y-66441528D01*
X93126434Y-66586668D01*
X93309602Y-66700081D01*
X93309604Y-66700081D01*
X93309609Y-66700085D01*
X93510504Y-66777912D01*
X93634792Y-66801145D01*
X93698076Y-66833324D01*
X93733918Y-66894609D01*
X93730937Y-66965543D01*
X93690079Y-67023605D01*
X93634792Y-67048854D01*
X93510504Y-67072088D01*
X93510499Y-67072089D01*
X93309613Y-67149913D01*
X93309602Y-67149918D01*
X93126434Y-67263331D01*
X92967223Y-67408471D01*
X92837389Y-67580399D01*
X92741357Y-67773258D01*
X92741354Y-67773266D01*
X92682398Y-67980477D01*
X92682398Y-67980481D01*
X92662520Y-68194995D01*
X92662520Y-68195004D01*
X92682398Y-68409518D01*
X92682398Y-68409522D01*
X92727801Y-68569100D01*
X92741357Y-68616742D01*
X92837388Y-68809599D01*
X92862066Y-68842278D01*
X92967223Y-68981528D01*
X93126434Y-69126668D01*
X93309602Y-69240081D01*
X93309604Y-69240081D01*
X93309609Y-69240085D01*
X93510504Y-69317912D01*
X93634794Y-69341146D01*
X93698075Y-69373323D01*
X93733918Y-69434608D01*
X93730937Y-69505542D01*
X93690080Y-69563604D01*
X93634792Y-69588853D01*
X93510505Y-69612087D01*
X93510503Y-69612088D01*
X93309613Y-69689913D01*
X93309602Y-69689918D01*
X93126434Y-69803331D01*
X92967223Y-69948471D01*
X92837389Y-70120399D01*
X92741357Y-70313258D01*
X92741354Y-70313266D01*
X92682398Y-70520477D01*
X92682398Y-70520481D01*
X92662520Y-70734995D01*
X92662520Y-70735004D01*
X92682398Y-70949518D01*
X92682398Y-70949522D01*
X92727801Y-71109100D01*
X92741357Y-71156742D01*
X92837388Y-71349599D01*
X92862066Y-71382278D01*
X92967223Y-71521528D01*
X93126434Y-71666668D01*
X93309602Y-71780081D01*
X93309604Y-71780081D01*
X93309609Y-71780085D01*
X93510504Y-71857912D01*
X93634792Y-71881145D01*
X93698076Y-71913324D01*
X93733918Y-71974609D01*
X93730937Y-72045543D01*
X93690079Y-72103605D01*
X93634792Y-72128854D01*
X93510504Y-72152088D01*
X93510499Y-72152089D01*
X93309613Y-72229913D01*
X93309602Y-72229918D01*
X93126434Y-72343331D01*
X92967223Y-72488471D01*
X92837389Y-72660399D01*
X92741357Y-72853258D01*
X92741354Y-72853266D01*
X92682398Y-73060477D01*
X92682398Y-73060481D01*
X92662520Y-73274995D01*
X92662520Y-73275004D01*
X92682398Y-73489518D01*
X92682398Y-73489522D01*
X92727801Y-73649100D01*
X92741357Y-73696742D01*
X92837388Y-73889599D01*
X92879481Y-73945340D01*
X92967223Y-74061528D01*
X93126434Y-74206668D01*
X93309602Y-74320081D01*
X93309604Y-74320081D01*
X93309609Y-74320085D01*
X93510504Y-74397912D01*
X93634794Y-74421146D01*
X93698075Y-74453323D01*
X93733918Y-74514608D01*
X93730937Y-74585542D01*
X93690080Y-74643604D01*
X93634792Y-74668853D01*
X93510505Y-74692087D01*
X93510503Y-74692088D01*
X93309613Y-74769913D01*
X93309602Y-74769918D01*
X93126434Y-74883331D01*
X92967223Y-75028471D01*
X92837389Y-75200399D01*
X92741357Y-75393258D01*
X92741354Y-75393266D01*
X92682398Y-75600477D01*
X92682398Y-75600481D01*
X92662520Y-75814995D01*
X92662520Y-75815004D01*
X92682398Y-76029518D01*
X92682398Y-76029522D01*
X92693630Y-76069000D01*
X92741357Y-76236742D01*
X92837388Y-76429599D01*
X92837389Y-76429600D01*
X92967223Y-76601528D01*
X93126434Y-76746668D01*
X93309602Y-76860081D01*
X93309604Y-76860081D01*
X93309609Y-76860085D01*
X93510504Y-76937912D01*
X93634792Y-76961145D01*
X93698076Y-76993324D01*
X93733918Y-77054609D01*
X93730937Y-77125543D01*
X93690079Y-77183605D01*
X93634792Y-77208854D01*
X93510504Y-77232088D01*
X93510499Y-77232089D01*
X93309613Y-77309913D01*
X93309602Y-77309918D01*
X93126434Y-77423331D01*
X92967223Y-77568471D01*
X92837389Y-77740399D01*
X92741357Y-77933258D01*
X92741354Y-77933266D01*
X92682398Y-78140477D01*
X92682398Y-78140481D01*
X92662520Y-78354995D01*
X92662520Y-78355004D01*
X92682398Y-78569518D01*
X92682398Y-78569522D01*
X92683380Y-78572974D01*
X92741357Y-78776742D01*
X92837388Y-78969599D01*
X92879481Y-79025340D01*
X92967223Y-79141528D01*
X93126434Y-79286668D01*
X93309602Y-79400081D01*
X93309604Y-79400081D01*
X93309609Y-79400085D01*
X93510504Y-79477912D01*
X93634794Y-79501146D01*
X93698075Y-79533323D01*
X93733918Y-79594608D01*
X93730937Y-79665542D01*
X93690080Y-79723604D01*
X93634792Y-79748853D01*
X93510505Y-79772087D01*
X93510503Y-79772088D01*
X93309613Y-79849913D01*
X93309602Y-79849918D01*
X93126434Y-79963331D01*
X92967223Y-80108471D01*
X92837389Y-80280399D01*
X92741357Y-80473258D01*
X92741354Y-80473266D01*
X92682398Y-80680477D01*
X92682398Y-80680481D01*
X92662520Y-80894995D01*
X92662520Y-80895004D01*
X92682398Y-81109518D01*
X92682398Y-81109522D01*
X92683380Y-81112974D01*
X92741357Y-81316742D01*
X92837388Y-81509599D01*
X92879481Y-81565340D01*
X92967223Y-81681528D01*
X93126434Y-81826668D01*
X93309602Y-81940081D01*
X93309604Y-81940081D01*
X93309609Y-81940085D01*
X93510504Y-82017912D01*
X93634792Y-82041145D01*
X93698076Y-82073324D01*
X93733918Y-82134609D01*
X93730937Y-82205543D01*
X93690079Y-82263605D01*
X93634792Y-82288854D01*
X93510504Y-82312088D01*
X93510499Y-82312089D01*
X93309613Y-82389913D01*
X93309602Y-82389918D01*
X93126434Y-82503331D01*
X92967223Y-82648471D01*
X92837389Y-82820399D01*
X92741357Y-83013258D01*
X92741354Y-83013266D01*
X92682398Y-83220477D01*
X92682398Y-83220481D01*
X92662520Y-83434995D01*
X92662520Y-83435004D01*
X92682398Y-83649518D01*
X92682398Y-83649522D01*
X92683380Y-83652974D01*
X92741357Y-83856742D01*
X92837388Y-84049599D01*
X92865875Y-84087322D01*
X92967223Y-84221528D01*
X93126434Y-84366668D01*
X93309602Y-84480081D01*
X93309604Y-84480081D01*
X93309609Y-84480085D01*
X93510504Y-84557912D01*
X93634794Y-84581146D01*
X93698075Y-84613323D01*
X93733918Y-84674608D01*
X93730937Y-84745542D01*
X93690080Y-84803604D01*
X93634792Y-84828853D01*
X93510505Y-84852087D01*
X93510503Y-84852088D01*
X93309613Y-84929913D01*
X93309602Y-84929918D01*
X93126434Y-85043331D01*
X92967223Y-85188471D01*
X92837389Y-85360399D01*
X92741357Y-85553258D01*
X92741354Y-85553266D01*
X92682398Y-85760477D01*
X92682398Y-85760481D01*
X92662520Y-85974995D01*
X92662520Y-85975004D01*
X92682398Y-86189518D01*
X92682398Y-86189522D01*
X92683380Y-86192974D01*
X92741357Y-86396742D01*
X92837388Y-86589599D01*
X92879481Y-86645340D01*
X92967223Y-86761528D01*
X93126434Y-86906668D01*
X93309602Y-87020081D01*
X93309604Y-87020081D01*
X93309609Y-87020085D01*
X93313280Y-87021507D01*
X93314778Y-87022658D01*
X93314820Y-87022679D01*
X93314815Y-87022687D01*
X93369577Y-87064763D01*
X93393551Y-87131590D01*
X93377590Y-87200769D01*
X93326761Y-87250337D01*
X93308684Y-87258172D01*
X93282632Y-87267116D01*
X93282628Y-87267117D01*
X93084699Y-87374231D01*
X93084698Y-87374232D01*
X92907097Y-87512465D01*
X92754674Y-87678042D01*
X92665483Y-87814559D01*
X92611479Y-87860647D01*
X92541131Y-87870222D01*
X92476774Y-87840244D01*
X92454517Y-87814559D01*
X92365325Y-87678042D01*
X92212902Y-87512465D01*
X92035301Y-87374232D01*
X92035300Y-87374231D01*
X91837371Y-87267117D01*
X91837369Y-87267116D01*
X91624512Y-87194043D01*
X91624501Y-87194040D01*
X91544000Y-87180606D01*
X91544000Y-88081325D01*
X91432315Y-88030320D01*
X91325763Y-88015000D01*
X91254237Y-88015000D01*
X91147685Y-88030320D01*
X91036000Y-88081325D01*
X91036000Y-87180607D01*
X91035999Y-87180606D01*
X90955498Y-87194040D01*
X90955487Y-87194043D01*
X90742630Y-87267116D01*
X90742628Y-87267117D01*
X90544699Y-87374231D01*
X90544698Y-87374232D01*
X90367097Y-87512465D01*
X90214674Y-87678042D01*
X90125483Y-87814559D01*
X90071479Y-87860647D01*
X90001131Y-87870222D01*
X89936774Y-87840244D01*
X89914517Y-87814559D01*
X89825325Y-87678042D01*
X89672902Y-87512465D01*
X89495301Y-87374232D01*
X89495300Y-87374231D01*
X89297371Y-87267117D01*
X89297369Y-87267116D01*
X89084512Y-87194043D01*
X89084501Y-87194040D01*
X89004000Y-87180606D01*
X89004000Y-88081325D01*
X88892315Y-88030320D01*
X88785763Y-88015000D01*
X88714237Y-88015000D01*
X88607685Y-88030320D01*
X88496000Y-88081325D01*
X88496000Y-87180607D01*
X88495999Y-87180606D01*
X88415498Y-87194040D01*
X88415487Y-87194043D01*
X88202630Y-87267116D01*
X88202628Y-87267117D01*
X88004699Y-87374231D01*
X88004698Y-87374232D01*
X87827097Y-87512465D01*
X87674674Y-87678042D01*
X87585483Y-87814559D01*
X87531479Y-87860647D01*
X87461131Y-87870222D01*
X87396774Y-87840244D01*
X87374517Y-87814559D01*
X87285325Y-87678042D01*
X87132902Y-87512465D01*
X86955301Y-87374232D01*
X86955300Y-87374231D01*
X86757371Y-87267117D01*
X86757369Y-87267116D01*
X86544512Y-87194043D01*
X86544501Y-87194040D01*
X86464000Y-87180606D01*
X86464000Y-88081325D01*
X86352315Y-88030320D01*
X86245763Y-88015000D01*
X86174237Y-88015000D01*
X86067685Y-88030320D01*
X85956000Y-88081325D01*
X85956000Y-87180607D01*
X85955999Y-87180606D01*
X85875498Y-87194040D01*
X85875487Y-87194043D01*
X85662630Y-87267116D01*
X85662628Y-87267117D01*
X85464699Y-87374231D01*
X85464698Y-87374232D01*
X85287097Y-87512465D01*
X85134674Y-87678042D01*
X85045483Y-87814559D01*
X84991479Y-87860647D01*
X84921131Y-87870222D01*
X84856774Y-87840244D01*
X84834517Y-87814559D01*
X84745325Y-87678042D01*
X84592902Y-87512465D01*
X84415301Y-87374232D01*
X84415300Y-87374231D01*
X84217371Y-87267117D01*
X84217369Y-87267116D01*
X84004512Y-87194043D01*
X84004501Y-87194040D01*
X83924000Y-87180606D01*
X83924000Y-88081325D01*
X83812315Y-88030320D01*
X83705763Y-88015000D01*
X83634237Y-88015000D01*
X83527685Y-88030320D01*
X83416000Y-88081325D01*
X83416000Y-87180607D01*
X83415999Y-87180606D01*
X83335498Y-87194040D01*
X83335487Y-87194043D01*
X83122630Y-87267116D01*
X83122628Y-87267117D01*
X82924699Y-87374231D01*
X82924698Y-87374232D01*
X82747097Y-87512465D01*
X82594674Y-87678042D01*
X82505483Y-87814559D01*
X82451479Y-87860647D01*
X82381131Y-87870222D01*
X82316774Y-87840244D01*
X82294517Y-87814559D01*
X82205325Y-87678042D01*
X82052902Y-87512465D01*
X81875303Y-87374233D01*
X81731256Y-87296279D01*
X81680866Y-87246265D01*
X81665514Y-87176948D01*
X81690075Y-87110335D01*
X81737976Y-87071270D01*
X81757639Y-87062102D01*
X81936877Y-86936598D01*
X82091598Y-86781877D01*
X82217102Y-86602639D01*
X82309575Y-86404330D01*
X82366207Y-86192977D01*
X82385277Y-85975000D01*
X82366207Y-85757023D01*
X82309575Y-85545670D01*
X82217102Y-85347362D01*
X82217101Y-85347361D01*
X82217100Y-85347358D01*
X82091604Y-85168131D01*
X82091601Y-85168127D01*
X82091598Y-85168123D01*
X81936877Y-85013402D01*
X81757639Y-84887898D01*
X81610302Y-84819194D01*
X81557019Y-84772278D01*
X81537558Y-84704001D01*
X81558100Y-84636041D01*
X81610302Y-84590805D01*
X81757639Y-84522102D01*
X81936877Y-84396598D01*
X81961069Y-84372404D01*
X82023382Y-84338379D01*
X82050165Y-84335500D01*
X82409213Y-84335500D01*
X82428923Y-84337050D01*
X82442612Y-84339219D01*
X82511952Y-84335585D01*
X82515225Y-84335500D01*
X82537190Y-84335500D01*
X82537192Y-84335500D01*
X82537196Y-84335499D01*
X82537204Y-84335499D01*
X82546730Y-84334497D01*
X82559053Y-84333201D01*
X82562301Y-84332946D01*
X82631646Y-84329313D01*
X82645031Y-84325725D01*
X82664470Y-84322122D01*
X82678256Y-84320674D01*
X82744296Y-84299215D01*
X82747407Y-84298294D01*
X82814488Y-84280320D01*
X82826836Y-84274027D01*
X82845098Y-84266462D01*
X82858284Y-84262179D01*
X82918407Y-84227465D01*
X82921277Y-84225906D01*
X82983149Y-84194383D01*
X82993921Y-84185658D01*
X83010218Y-84174458D01*
X83022216Y-84167533D01*
X83073823Y-84121065D01*
X83076316Y-84118937D01*
X83093375Y-84105123D01*
X83093374Y-84105123D01*
X83093380Y-84105119D01*
X83108921Y-84089577D01*
X83111278Y-84087340D01*
X83162888Y-84040871D01*
X83171037Y-84029653D01*
X83183872Y-84014625D01*
X83979625Y-83218872D01*
X83994653Y-83206037D01*
X84005871Y-83197888D01*
X84052340Y-83146278D01*
X84054577Y-83143921D01*
X84070119Y-83128380D01*
X84083938Y-83111314D01*
X84086065Y-83108823D01*
X84132533Y-83057216D01*
X84139458Y-83045218D01*
X84150658Y-83028921D01*
X84159383Y-83018149D01*
X84190906Y-82956277D01*
X84192465Y-82953407D01*
X84227179Y-82893284D01*
X84231462Y-82880098D01*
X84239027Y-82861836D01*
X84245320Y-82849488D01*
X84263294Y-82782401D01*
X84264207Y-82779319D01*
X84285674Y-82713256D01*
X84287123Y-82699463D01*
X84290727Y-82680023D01*
X84294311Y-82666648D01*
X84294312Y-82666646D01*
X84294312Y-82666641D01*
X84294313Y-82666637D01*
X84296331Y-82628120D01*
X84297946Y-82597303D01*
X84298200Y-82594070D01*
X84300500Y-82572192D01*
X84300500Y-82550216D01*
X84300585Y-82546945D01*
X84304219Y-82477612D01*
X84302050Y-82463919D01*
X84300500Y-82444224D01*
X84300500Y-65219000D01*
X85773455Y-65219000D01*
X85821176Y-65407449D01*
X85821179Y-65407456D01*
X85911580Y-65613548D01*
X86034674Y-65801958D01*
X86187097Y-65967534D01*
X86364698Y-66105767D01*
X86364699Y-66105768D01*
X86508742Y-66183720D01*
X86559133Y-66233734D01*
X86574485Y-66303050D01*
X86549924Y-66369663D01*
X86502026Y-66408727D01*
X86482364Y-66417895D01*
X86482358Y-66417899D01*
X86303131Y-66543395D01*
X86303120Y-66543404D01*
X86148404Y-66698120D01*
X86148395Y-66698131D01*
X86022899Y-66877358D01*
X85930426Y-67075667D01*
X85930424Y-67075671D01*
X85910531Y-67149915D01*
X85873793Y-67287023D01*
X85854723Y-67505000D01*
X85873793Y-67722977D01*
X85900532Y-67822767D01*
X85930424Y-67934328D01*
X85930426Y-67934333D01*
X86022898Y-68132639D01*
X86066566Y-68195004D01*
X86148402Y-68311877D01*
X86303123Y-68466598D01*
X86482361Y-68592102D01*
X86551481Y-68624333D01*
X86629695Y-68660805D01*
X86682980Y-68707722D01*
X86702441Y-68776000D01*
X86681899Y-68843960D01*
X86629695Y-68889195D01*
X86482358Y-68957899D01*
X86303131Y-69083395D01*
X86303120Y-69083404D01*
X86148404Y-69238120D01*
X86148395Y-69238131D01*
X86022899Y-69417358D01*
X85930426Y-69615667D01*
X85930424Y-69615671D01*
X85910531Y-69689915D01*
X85873793Y-69827023D01*
X85854723Y-70045000D01*
X85873793Y-70262977D01*
X85900532Y-70362767D01*
X85930424Y-70474328D01*
X85930426Y-70474333D01*
X86022898Y-70672639D01*
X86066566Y-70735004D01*
X86148402Y-70851877D01*
X86303123Y-71006598D01*
X86482361Y-71132102D01*
X86551481Y-71164333D01*
X86629695Y-71200805D01*
X86682980Y-71247722D01*
X86702441Y-71316000D01*
X86681899Y-71383960D01*
X86629695Y-71429195D01*
X86482358Y-71497899D01*
X86303131Y-71623395D01*
X86303120Y-71623404D01*
X86148404Y-71778120D01*
X86148395Y-71778131D01*
X86022899Y-71957358D01*
X85930426Y-72155667D01*
X85930424Y-72155671D01*
X85910531Y-72229915D01*
X85873793Y-72367023D01*
X85854723Y-72585000D01*
X85873793Y-72802977D01*
X85900532Y-72902767D01*
X85930424Y-73014328D01*
X85930426Y-73014333D01*
X86022898Y-73212639D01*
X86066566Y-73275004D01*
X86148402Y-73391877D01*
X86303123Y-73546598D01*
X86482361Y-73672102D01*
X86680670Y-73764575D01*
X86892023Y-73821207D01*
X87110000Y-73840277D01*
X87327977Y-73821207D01*
X87539330Y-73764575D01*
X87737639Y-73672102D01*
X87916877Y-73546598D01*
X88071598Y-73391877D01*
X88197102Y-73212639D01*
X88265805Y-73065302D01*
X88312722Y-73012019D01*
X88380999Y-72992558D01*
X88448959Y-73013100D01*
X88494194Y-73065302D01*
X88521925Y-73124772D01*
X88562898Y-73212639D01*
X88606566Y-73275004D01*
X88688402Y-73391877D01*
X88843123Y-73546598D01*
X89022361Y-73672102D01*
X89220670Y-73764575D01*
X89432023Y-73821207D01*
X89650000Y-73840277D01*
X89867977Y-73821207D01*
X90079330Y-73764575D01*
X90277639Y-73672102D01*
X90456877Y-73546598D01*
X90611598Y-73391877D01*
X90737102Y-73212639D01*
X90829575Y-73014330D01*
X90886207Y-72802977D01*
X90905277Y-72585000D01*
X90886207Y-72367023D01*
X90829575Y-72155670D01*
X90737102Y-71957362D01*
X90737101Y-71957361D01*
X90737100Y-71957358D01*
X90611604Y-71778131D01*
X90611601Y-71778127D01*
X90611598Y-71778123D01*
X90456877Y-71623402D01*
X90340447Y-71541877D01*
X90277639Y-71497898D01*
X90130302Y-71429194D01*
X90077019Y-71382278D01*
X90057558Y-71314001D01*
X90078100Y-71246041D01*
X90130302Y-71200805D01*
X90277639Y-71132102D01*
X90456877Y-71006598D01*
X90611598Y-70851877D01*
X90737102Y-70672639D01*
X90829575Y-70474330D01*
X90886207Y-70262977D01*
X90905277Y-70045000D01*
X90886207Y-69827023D01*
X90829575Y-69615670D01*
X90737102Y-69417362D01*
X90737101Y-69417361D01*
X90737100Y-69417358D01*
X90611604Y-69238131D01*
X90611601Y-69238127D01*
X90611598Y-69238123D01*
X90456877Y-69083402D01*
X90340447Y-69001877D01*
X90277639Y-68957898D01*
X90277639Y-68957897D01*
X90130302Y-68889194D01*
X90077019Y-68842278D01*
X90057558Y-68774001D01*
X90078100Y-68706041D01*
X90130302Y-68660805D01*
X90277639Y-68592102D01*
X90456877Y-68466598D01*
X90611598Y-68311877D01*
X90737102Y-68132639D01*
X90829575Y-67934330D01*
X90886207Y-67722977D01*
X90905277Y-67505000D01*
X90886207Y-67287023D01*
X90829575Y-67075670D01*
X90737102Y-66877362D01*
X90737101Y-66877361D01*
X90737100Y-66877358D01*
X90611604Y-66698131D01*
X90611601Y-66698127D01*
X90611598Y-66698123D01*
X90456877Y-66543402D01*
X90340447Y-66461877D01*
X90277639Y-66417898D01*
X90257972Y-66408727D01*
X90130302Y-66349194D01*
X90077019Y-66302278D01*
X90057558Y-66234001D01*
X90078100Y-66166041D01*
X90130302Y-66120805D01*
X90277639Y-66052102D01*
X90456877Y-65926598D01*
X90611598Y-65771877D01*
X90737102Y-65592639D01*
X90829575Y-65394330D01*
X90886207Y-65182977D01*
X90905277Y-64965000D01*
X90886207Y-64747023D01*
X90829575Y-64535670D01*
X90737102Y-64337362D01*
X90737101Y-64337360D01*
X90737100Y-64337358D01*
X90611604Y-64158131D01*
X90611601Y-64158127D01*
X90611598Y-64158123D01*
X90456877Y-64003402D01*
X90315932Y-63904711D01*
X90271605Y-63849255D01*
X90264296Y-63778636D01*
X90296327Y-63715275D01*
X90357528Y-63679290D01*
X90388203Y-63675499D01*
X90531518Y-63675499D01*
X90625304Y-63660646D01*
X90738342Y-63603050D01*
X90828050Y-63513342D01*
X90885646Y-63400304D01*
X90900500Y-63306519D01*
X90900499Y-61543482D01*
X90885646Y-61449696D01*
X90851088Y-61381873D01*
X90828050Y-61336657D01*
X90738342Y-61246949D01*
X90651373Y-61202637D01*
X90625304Y-61189354D01*
X90531519Y-61174500D01*
X90531515Y-61174500D01*
X88768483Y-61174500D01*
X88674697Y-61189353D01*
X88561657Y-61246949D01*
X88471949Y-61336657D01*
X88414355Y-61449694D01*
X88414354Y-61449696D01*
X88400590Y-61536600D01*
X88399500Y-61543484D01*
X88399500Y-61686794D01*
X88379498Y-61754915D01*
X88325842Y-61801408D01*
X88255568Y-61811512D01*
X88190988Y-61782018D01*
X88170287Y-61759065D01*
X88071600Y-61618126D01*
X88071595Y-61618120D01*
X87916879Y-61463404D01*
X87916873Y-61463399D01*
X87737639Y-61337898D01*
X87539333Y-61245426D01*
X87539328Y-61245424D01*
X87436904Y-61217980D01*
X87327977Y-61188793D01*
X87110000Y-61169723D01*
X86892023Y-61188793D01*
X86802696Y-61212728D01*
X86680671Y-61245424D01*
X86680667Y-61245426D01*
X86482358Y-61337899D01*
X86303131Y-61463395D01*
X86303120Y-61463404D01*
X86148404Y-61618120D01*
X86148395Y-61618131D01*
X86022899Y-61797358D01*
X85930426Y-61995667D01*
X85930424Y-61995671D01*
X85910531Y-62069914D01*
X85873793Y-62207023D01*
X85854723Y-62425000D01*
X85873793Y-62642977D01*
X85900532Y-62742767D01*
X85930424Y-62854328D01*
X85930426Y-62854333D01*
X86022898Y-63052639D01*
X86066566Y-63115004D01*
X86148402Y-63231877D01*
X86303123Y-63386598D01*
X86303126Y-63386600D01*
X86482359Y-63512101D01*
X86482360Y-63512101D01*
X86482361Y-63512102D01*
X86502022Y-63521270D01*
X86555307Y-63568185D01*
X86574769Y-63636462D01*
X86554228Y-63704423D01*
X86508743Y-63746278D01*
X86364704Y-63824228D01*
X86364698Y-63824232D01*
X86187097Y-63962465D01*
X86034674Y-64128041D01*
X85911580Y-64316451D01*
X85821179Y-64522543D01*
X85821176Y-64522550D01*
X85773455Y-64710999D01*
X85773456Y-64711000D01*
X86678884Y-64711000D01*
X86650507Y-64755156D01*
X86610000Y-64893111D01*
X86610000Y-65036889D01*
X86650507Y-65174844D01*
X86678884Y-65219000D01*
X85773455Y-65219000D01*
X84300500Y-65219000D01*
X84300500Y-59450187D01*
X84320502Y-59382067D01*
X84337405Y-59361093D01*
X85367375Y-58331123D01*
X86809625Y-56888872D01*
X86824653Y-56876037D01*
X86835871Y-56867888D01*
X86882340Y-56816278D01*
X86884577Y-56813921D01*
X86900119Y-56798380D01*
X86913938Y-56781314D01*
X86916065Y-56778823D01*
X86962533Y-56727216D01*
X86969458Y-56715218D01*
X86980658Y-56698921D01*
X86989383Y-56688149D01*
X87020906Y-56626277D01*
X87022465Y-56623407D01*
X87057179Y-56563284D01*
X87061462Y-56550098D01*
X87069027Y-56531836D01*
X87075320Y-56519488D01*
X87093294Y-56452401D01*
X87094207Y-56449319D01*
X87115674Y-56383256D01*
X87117123Y-56369463D01*
X87120727Y-56350023D01*
X87124311Y-56336648D01*
X87124312Y-56336646D01*
X87124312Y-56336641D01*
X87124313Y-56336637D01*
X87125564Y-56312754D01*
X87127946Y-56267303D01*
X87128200Y-56264070D01*
X87130500Y-56242192D01*
X87130500Y-56220216D01*
X87130585Y-56216945D01*
X87134219Y-56147612D01*
X87132051Y-56133922D01*
X87130500Y-56114212D01*
X87130500Y-55141500D01*
X87150502Y-55073379D01*
X87204158Y-55026886D01*
X87256500Y-55015500D01*
X87849835Y-55015500D01*
X87917956Y-55035502D01*
X87938930Y-55052405D01*
X87963123Y-55076598D01*
X88142361Y-55202102D01*
X88340670Y-55294575D01*
X88552023Y-55351207D01*
X88770000Y-55370277D01*
X88987977Y-55351207D01*
X89199330Y-55294575D01*
X89397639Y-55202102D01*
X89576877Y-55076598D01*
X89731598Y-54921877D01*
X89857102Y-54742639D01*
X89925805Y-54595302D01*
X89972722Y-54542019D01*
X90040999Y-54522558D01*
X90108959Y-54543100D01*
X90154194Y-54595302D01*
X90222898Y-54742639D01*
X90348402Y-54921877D01*
X90503123Y-55076598D01*
X90682361Y-55202102D01*
X90880670Y-55294575D01*
X91092023Y-55351207D01*
X91310000Y-55370277D01*
X91527977Y-55351207D01*
X91739330Y-55294575D01*
X91937639Y-55202102D01*
X92116877Y-55076598D01*
X92271598Y-54921877D01*
X92397102Y-54742639D01*
X92465806Y-54595302D01*
X92512720Y-54542019D01*
X92580998Y-54522558D01*
X92648958Y-54543099D01*
X92694194Y-54595304D01*
X92728230Y-54668293D01*
X92762898Y-54742639D01*
X92888402Y-54921877D01*
X93043123Y-55076598D01*
X93222361Y-55202102D01*
X93420670Y-55294575D01*
X93632023Y-55351207D01*
X93850000Y-55370277D01*
X94067977Y-55351207D01*
X94279330Y-55294575D01*
X94477639Y-55202102D01*
X94656877Y-55076598D01*
X94811598Y-54921877D01*
X94937102Y-54742639D01*
X95005805Y-54595302D01*
X95052722Y-54542019D01*
X95120999Y-54522558D01*
X95188959Y-54543100D01*
X95234194Y-54595302D01*
X95302898Y-54742639D01*
X95428402Y-54921877D01*
X95583123Y-55076598D01*
X95762361Y-55202102D01*
X95960670Y-55294575D01*
X96172023Y-55351207D01*
X96390000Y-55370277D01*
X96607977Y-55351207D01*
X96819330Y-55294575D01*
X97017639Y-55202102D01*
X97196877Y-55076598D01*
X97351598Y-54921877D01*
X97477102Y-54742639D01*
X97545805Y-54595302D01*
X97592722Y-54542019D01*
X97660999Y-54522558D01*
X97728959Y-54543100D01*
X97774194Y-54595302D01*
X97842898Y-54742639D01*
X97968402Y-54921877D01*
X98123123Y-55076598D01*
X98302361Y-55202102D01*
X98500670Y-55294575D01*
X98712023Y-55351207D01*
X98930000Y-55370277D01*
X99147977Y-55351207D01*
X99359330Y-55294575D01*
X99557639Y-55202102D01*
X99736877Y-55076598D01*
X99891598Y-54921877D01*
X100017102Y-54742639D01*
X100085806Y-54595302D01*
X100132720Y-54542019D01*
X100200998Y-54522558D01*
X100268958Y-54543099D01*
X100314194Y-54595304D01*
X100348230Y-54668293D01*
X100382898Y-54742639D01*
X100508402Y-54921877D01*
X100663123Y-55076598D01*
X100842361Y-55202102D01*
X101040670Y-55294575D01*
X101252023Y-55351207D01*
X101470000Y-55370277D01*
X101687977Y-55351207D01*
X101899330Y-55294575D01*
X102097639Y-55202102D01*
X102276877Y-55076598D01*
X102431598Y-54921877D01*
X102557102Y-54742639D01*
X102625805Y-54595302D01*
X102672722Y-54542019D01*
X102740999Y-54522558D01*
X102808959Y-54543100D01*
X102854194Y-54595302D01*
X102922898Y-54742639D01*
X103048402Y-54921877D01*
X103203123Y-55076598D01*
X103382361Y-55202102D01*
X103580670Y-55294575D01*
X103792023Y-55351207D01*
X104010000Y-55370277D01*
X104227977Y-55351207D01*
X104439330Y-55294575D01*
X104637639Y-55202102D01*
X104816877Y-55076598D01*
X104971598Y-54921877D01*
X105097102Y-54742639D01*
X105165805Y-54595302D01*
X105212722Y-54542019D01*
X105280999Y-54522558D01*
X105348959Y-54543100D01*
X105394194Y-54595302D01*
X105462898Y-54742639D01*
X105588402Y-54921877D01*
X105743123Y-55076598D01*
X105922361Y-55202102D01*
X106120670Y-55294575D01*
X106332023Y-55351207D01*
X106550000Y-55370277D01*
X106767977Y-55351207D01*
X106979330Y-55294575D01*
X107177639Y-55202102D01*
X107356877Y-55076598D01*
X107511598Y-54921877D01*
X107637102Y-54742639D01*
X107705806Y-54595302D01*
X107752720Y-54542019D01*
X107820998Y-54522558D01*
X107888958Y-54543099D01*
X107934194Y-54595304D01*
X107968230Y-54668293D01*
X108002898Y-54742639D01*
X108128402Y-54921877D01*
X108283123Y-55076598D01*
X108462361Y-55202102D01*
X108660670Y-55294575D01*
X108872023Y-55351207D01*
X109090000Y-55370277D01*
X109307977Y-55351207D01*
X109519330Y-55294575D01*
X109717639Y-55202102D01*
X109896877Y-55076598D01*
X110051598Y-54921877D01*
X110177102Y-54742639D01*
X110245805Y-54595302D01*
X110292722Y-54542019D01*
X110360999Y-54522558D01*
X110428959Y-54543100D01*
X110474194Y-54595302D01*
X110542898Y-54742639D01*
X110668402Y-54921877D01*
X110823123Y-55076598D01*
X111002361Y-55202102D01*
X111200670Y-55294575D01*
X111412023Y-55351207D01*
X111630000Y-55370277D01*
X111847977Y-55351207D01*
X112059330Y-55294575D01*
X112257639Y-55202102D01*
X112436877Y-55076598D01*
X112591598Y-54921877D01*
X112717102Y-54742639D01*
X112785805Y-54595302D01*
X112832722Y-54542019D01*
X112900999Y-54522558D01*
X112968959Y-54543100D01*
X113014194Y-54595302D01*
X113082898Y-54742639D01*
X113208402Y-54921877D01*
X113363123Y-55076598D01*
X113542361Y-55202102D01*
X113740670Y-55294575D01*
X113952023Y-55351207D01*
X114170000Y-55370277D01*
X114387977Y-55351207D01*
X114599330Y-55294575D01*
X114797639Y-55202102D01*
X114976877Y-55076598D01*
X115131598Y-54921877D01*
X115257102Y-54742639D01*
X115325805Y-54595302D01*
X115372722Y-54542019D01*
X115440999Y-54522558D01*
X115508959Y-54543100D01*
X115554194Y-54595302D01*
X115622898Y-54742639D01*
X115748402Y-54921877D01*
X115903123Y-55076598D01*
X116082361Y-55202102D01*
X116280670Y-55294575D01*
X116492023Y-55351207D01*
X116710000Y-55370277D01*
X116927977Y-55351207D01*
X117139330Y-55294575D01*
X117337639Y-55202102D01*
X117516877Y-55076598D01*
X117671598Y-54921877D01*
X117797102Y-54742639D01*
X117865806Y-54595302D01*
X117912720Y-54542019D01*
X117980998Y-54522558D01*
X118048958Y-54543099D01*
X118094194Y-54595304D01*
X118128230Y-54668293D01*
X118162898Y-54742639D01*
X118288402Y-54921877D01*
X118443123Y-55076598D01*
X118622361Y-55202102D01*
X118820670Y-55294575D01*
X119032023Y-55351207D01*
X119250000Y-55370277D01*
X119467977Y-55351207D01*
X119679330Y-55294575D01*
X119877639Y-55202102D01*
X120056877Y-55076598D01*
X120211598Y-54921877D01*
X120337102Y-54742639D01*
X120405805Y-54595302D01*
X120452722Y-54542019D01*
X120520999Y-54522558D01*
X120588959Y-54543100D01*
X120634194Y-54595302D01*
X120702898Y-54742639D01*
X120828402Y-54921877D01*
X120983123Y-55076598D01*
X121162361Y-55202102D01*
X121360670Y-55294575D01*
X121572023Y-55351207D01*
X121790000Y-55370277D01*
X122007977Y-55351207D01*
X122219330Y-55294575D01*
X122417639Y-55202102D01*
X122596877Y-55076598D01*
X122751598Y-54921877D01*
X122877102Y-54742639D01*
X122945805Y-54595302D01*
X122992722Y-54542019D01*
X123060999Y-54522558D01*
X123128959Y-54543100D01*
X123174194Y-54595302D01*
X123242898Y-54742639D01*
X123368402Y-54921877D01*
X123523123Y-55076598D01*
X123702361Y-55202102D01*
X123900670Y-55294575D01*
X124112023Y-55351207D01*
X124330000Y-55370277D01*
X124547977Y-55351207D01*
X124759330Y-55294575D01*
X124957639Y-55202102D01*
X125136877Y-55076598D01*
X125291598Y-54921877D01*
X125417102Y-54742639D01*
X125485806Y-54595302D01*
X125532720Y-54542019D01*
X125600998Y-54522558D01*
X125668958Y-54543099D01*
X125714194Y-54595304D01*
X125748230Y-54668293D01*
X125782898Y-54742639D01*
X125908402Y-54921877D01*
X126063123Y-55076598D01*
X126242361Y-55202102D01*
X126440670Y-55294575D01*
X126652023Y-55351207D01*
X126870000Y-55370277D01*
X127087977Y-55351207D01*
X127299330Y-55294575D01*
X127497639Y-55202102D01*
X127676877Y-55076598D01*
X127831598Y-54921877D01*
X127957102Y-54742639D01*
X128025805Y-54595302D01*
X128072722Y-54542019D01*
X128140999Y-54522558D01*
X128208959Y-54543100D01*
X128254194Y-54595302D01*
X128322898Y-54742639D01*
X128448402Y-54921877D01*
X128603123Y-55076598D01*
X128782361Y-55202102D01*
X128980670Y-55294575D01*
X129192023Y-55351207D01*
X129410000Y-55370277D01*
X129627977Y-55351207D01*
X129839330Y-55294575D01*
X130037639Y-55202102D01*
X130216877Y-55076598D01*
X130371598Y-54921877D01*
X130497102Y-54742639D01*
X130589575Y-54544330D01*
X130646207Y-54332977D01*
X130665277Y-54115000D01*
X130651279Y-53954999D01*
X133094457Y-53954999D01*
X133114612Y-54313903D01*
X133174825Y-54668293D01*
X133274342Y-55013728D01*
X133390673Y-55294573D01*
X133411906Y-55345833D01*
X133421113Y-55362492D01*
X133585784Y-55660444D01*
X133585786Y-55660447D01*
X133585789Y-55660452D01*
X133793806Y-55953623D01*
X134033339Y-56221661D01*
X134301377Y-56461194D01*
X134594548Y-56669211D01*
X134909167Y-56843094D01*
X135241276Y-56980659D01*
X135586700Y-57080173D01*
X135941093Y-57140387D01*
X136300000Y-57160543D01*
X136658907Y-57140387D01*
X137013300Y-57080173D01*
X137358724Y-56980659D01*
X137690833Y-56843094D01*
X138005452Y-56669211D01*
X138298623Y-56461194D01*
X138566661Y-56221661D01*
X138806194Y-55953623D01*
X139014211Y-55660452D01*
X139188094Y-55345833D01*
X139325659Y-55013724D01*
X139425173Y-54668300D01*
X139485387Y-54313907D01*
X139505543Y-53955000D01*
X139485387Y-53596093D01*
X139425173Y-53241700D01*
X139325659Y-52896276D01*
X139188094Y-52564167D01*
X139035530Y-52288122D01*
X139014215Y-52249555D01*
X139014214Y-52249554D01*
X139014211Y-52249548D01*
X138806194Y-51956377D01*
X138566661Y-51688339D01*
X138298623Y-51448806D01*
X138005452Y-51240789D01*
X138005447Y-51240786D01*
X138005444Y-51240784D01*
X137809595Y-51132543D01*
X137690833Y-51066906D01*
X137690826Y-51066903D01*
X137690822Y-51066901D01*
X137358728Y-50929342D01*
X137013293Y-50829825D01*
X136658903Y-50769612D01*
X136324238Y-50750818D01*
X136300000Y-50749457D01*
X136299999Y-50749457D01*
X135941096Y-50769612D01*
X135586706Y-50829825D01*
X135241271Y-50929342D01*
X134909177Y-51066901D01*
X134909154Y-51066913D01*
X134594555Y-51240784D01*
X134594547Y-51240789D01*
X134594548Y-51240789D01*
X134406079Y-51374516D01*
X134301373Y-51448809D01*
X134033339Y-51688339D01*
X133793809Y-51956373D01*
X133585784Y-52249555D01*
X133411913Y-52564154D01*
X133411901Y-52564177D01*
X133274342Y-52896271D01*
X133174825Y-53241706D01*
X133114612Y-53596096D01*
X133094457Y-53954999D01*
X130651279Y-53954999D01*
X130646207Y-53897023D01*
X130589575Y-53685670D01*
X130497102Y-53487362D01*
X130497101Y-53487361D01*
X130497100Y-53487358D01*
X130371604Y-53308131D01*
X130371601Y-53308127D01*
X130371598Y-53308123D01*
X130216877Y-53153402D01*
X130037639Y-53027898D01*
X130017975Y-53018728D01*
X129964691Y-52971812D01*
X129945230Y-52903534D01*
X129965772Y-52835575D01*
X130011257Y-52793720D01*
X130155300Y-52715768D01*
X130155301Y-52715767D01*
X130332902Y-52577534D01*
X130485325Y-52411958D01*
X130608419Y-52223548D01*
X130698820Y-52017456D01*
X130698823Y-52017449D01*
X130746544Y-51829000D01*
X129841116Y-51829000D01*
X129869493Y-51784844D01*
X129910000Y-51646889D01*
X129910000Y-51503111D01*
X129869493Y-51365156D01*
X129841116Y-51321000D01*
X130746544Y-51321000D01*
X130746544Y-51320999D01*
X130698823Y-51132550D01*
X130698820Y-51132543D01*
X130608419Y-50926451D01*
X130485325Y-50738041D01*
X130332902Y-50572465D01*
X130155301Y-50434232D01*
X130155300Y-50434231D01*
X129957371Y-50327117D01*
X129957369Y-50327116D01*
X129744512Y-50254043D01*
X129744501Y-50254040D01*
X129664000Y-50240606D01*
X129664000Y-51141325D01*
X129552315Y-51090320D01*
X129445763Y-51075000D01*
X129374237Y-51075000D01*
X129267685Y-51090320D01*
X129156000Y-51141325D01*
X129156000Y-50240606D01*
X129155999Y-50240606D01*
X129075498Y-50254040D01*
X129075487Y-50254043D01*
X128862630Y-50327116D01*
X128862628Y-50327117D01*
X128664699Y-50434231D01*
X128664698Y-50434232D01*
X128487097Y-50572465D01*
X128334674Y-50738042D01*
X128245483Y-50874559D01*
X128191479Y-50920647D01*
X128121131Y-50930222D01*
X128056774Y-50900244D01*
X128034517Y-50874559D01*
X127945325Y-50738042D01*
X127792902Y-50572465D01*
X127615301Y-50434232D01*
X127615300Y-50434231D01*
X127417371Y-50327117D01*
X127417369Y-50327116D01*
X127204512Y-50254043D01*
X127204501Y-50254040D01*
X127124000Y-50240606D01*
X127123999Y-50240607D01*
X127123999Y-51141325D01*
X127012315Y-51090320D01*
X126905763Y-51075000D01*
X126834237Y-51075000D01*
X126727685Y-51090320D01*
X126616000Y-51141325D01*
X126616000Y-50240607D01*
X126615999Y-50240606D01*
X126535498Y-50254040D01*
X126535487Y-50254043D01*
X126322630Y-50327116D01*
X126322628Y-50327117D01*
X126124699Y-50434231D01*
X126124698Y-50434232D01*
X125947097Y-50572465D01*
X125794674Y-50738042D01*
X125705483Y-50874559D01*
X125651479Y-50920647D01*
X125581131Y-50930222D01*
X125516774Y-50900244D01*
X125494517Y-50874559D01*
X125405325Y-50738042D01*
X125252902Y-50572465D01*
X125075301Y-50434232D01*
X125075300Y-50434231D01*
X124877371Y-50327117D01*
X124877369Y-50327116D01*
X124664512Y-50254043D01*
X124664501Y-50254040D01*
X124584000Y-50240606D01*
X124584000Y-51141325D01*
X124472315Y-51090320D01*
X124365763Y-51075000D01*
X124294237Y-51075000D01*
X124187685Y-51090320D01*
X124076000Y-51141325D01*
X124076000Y-50240607D01*
X124075999Y-50240606D01*
X123995498Y-50254040D01*
X123995487Y-50254043D01*
X123782630Y-50327116D01*
X123782628Y-50327117D01*
X123584699Y-50434231D01*
X123584698Y-50434232D01*
X123407097Y-50572465D01*
X123254674Y-50738042D01*
X123165483Y-50874559D01*
X123111479Y-50920647D01*
X123041131Y-50930222D01*
X122976774Y-50900244D01*
X122954517Y-50874559D01*
X122865325Y-50738042D01*
X122712902Y-50572465D01*
X122535301Y-50434232D01*
X122535300Y-50434231D01*
X122337371Y-50327117D01*
X122337369Y-50327116D01*
X122124512Y-50254043D01*
X122124501Y-50254040D01*
X122043999Y-50240606D01*
X122043999Y-51141325D01*
X121932315Y-51090320D01*
X121825763Y-51075000D01*
X121754237Y-51075000D01*
X121647685Y-51090320D01*
X121536000Y-51141325D01*
X121536000Y-50240607D01*
X121535999Y-50240606D01*
X121455498Y-50254040D01*
X121455487Y-50254043D01*
X121242630Y-50327116D01*
X121242628Y-50327117D01*
X121044699Y-50434231D01*
X121044698Y-50434232D01*
X120867097Y-50572465D01*
X120714674Y-50738042D01*
X120625483Y-50874559D01*
X120571479Y-50920647D01*
X120501131Y-50930222D01*
X120436774Y-50900244D01*
X120414517Y-50874559D01*
X120325325Y-50738042D01*
X120172902Y-50572465D01*
X119995301Y-50434232D01*
X119995300Y-50434231D01*
X119797371Y-50327117D01*
X119797369Y-50327116D01*
X119584512Y-50254043D01*
X119584501Y-50254040D01*
X119503999Y-50240606D01*
X119503999Y-51141325D01*
X119392315Y-51090320D01*
X119285763Y-51075000D01*
X119214237Y-51075000D01*
X119107685Y-51090320D01*
X118996000Y-51141325D01*
X118996000Y-50240607D01*
X118995999Y-50240606D01*
X118915498Y-50254040D01*
X118915487Y-50254043D01*
X118702630Y-50327116D01*
X118702628Y-50327117D01*
X118504699Y-50434231D01*
X118504698Y-50434232D01*
X118327097Y-50572465D01*
X118174674Y-50738042D01*
X118085483Y-50874559D01*
X118031479Y-50920647D01*
X117961131Y-50930222D01*
X117896774Y-50900244D01*
X117874517Y-50874559D01*
X117785325Y-50738042D01*
X117632902Y-50572465D01*
X117455301Y-50434232D01*
X117455300Y-50434231D01*
X117257371Y-50327117D01*
X117257369Y-50327116D01*
X117044512Y-50254043D01*
X117044501Y-50254040D01*
X116964000Y-50240606D01*
X116964000Y-51141325D01*
X116852315Y-51090320D01*
X116745763Y-51075000D01*
X116674237Y-51075000D01*
X116567685Y-51090320D01*
X116456000Y-51141325D01*
X116456000Y-50240606D01*
X116375498Y-50254040D01*
X116375487Y-50254043D01*
X116162630Y-50327116D01*
X116162628Y-50327117D01*
X115964699Y-50434231D01*
X115964698Y-50434232D01*
X115787097Y-50572465D01*
X115634674Y-50738042D01*
X115545483Y-50874559D01*
X115491479Y-50920647D01*
X115421131Y-50930222D01*
X115356774Y-50900244D01*
X115334517Y-50874559D01*
X115245325Y-50738042D01*
X115092902Y-50572465D01*
X114915301Y-50434232D01*
X114915300Y-50434231D01*
X114717371Y-50327117D01*
X114717369Y-50327116D01*
X114504512Y-50254043D01*
X114504501Y-50254040D01*
X114424000Y-50240606D01*
X114423999Y-50240607D01*
X114423999Y-51141325D01*
X114312315Y-51090320D01*
X114205763Y-51075000D01*
X114134237Y-51075000D01*
X114027685Y-51090320D01*
X113915999Y-51141325D01*
X113915999Y-50240607D01*
X113915998Y-50240606D01*
X113835484Y-50254043D01*
X113622631Y-50327116D01*
X113622628Y-50327117D01*
X113424699Y-50434231D01*
X113424698Y-50434232D01*
X113247097Y-50572465D01*
X113094674Y-50738042D01*
X113005483Y-50874559D01*
X112951479Y-50920647D01*
X112881131Y-50930222D01*
X112816774Y-50900244D01*
X112794517Y-50874559D01*
X112705325Y-50738042D01*
X112552902Y-50572465D01*
X112375301Y-50434232D01*
X112375300Y-50434231D01*
X112177371Y-50327117D01*
X112177369Y-50327116D01*
X111964512Y-50254043D01*
X111964501Y-50254040D01*
X111884000Y-50240606D01*
X111884000Y-51141325D01*
X111772315Y-51090320D01*
X111665763Y-51075000D01*
X111594237Y-51075000D01*
X111487685Y-51090320D01*
X111375999Y-51141325D01*
X111375999Y-50240607D01*
X111375998Y-50240606D01*
X111295484Y-50254043D01*
X111082631Y-50327116D01*
X111082628Y-50327117D01*
X110884699Y-50434231D01*
X110884698Y-50434232D01*
X110707097Y-50572465D01*
X110554670Y-50738045D01*
X110465481Y-50874559D01*
X110411478Y-50920647D01*
X110341130Y-50930222D01*
X110276772Y-50900244D01*
X110254516Y-50874558D01*
X110165327Y-50738044D01*
X110012902Y-50572465D01*
X109835301Y-50434232D01*
X109835300Y-50434231D01*
X109637371Y-50327117D01*
X109637369Y-50327116D01*
X109424512Y-50254043D01*
X109424501Y-50254040D01*
X109343999Y-50240606D01*
X109343999Y-51141325D01*
X109232315Y-51090320D01*
X109125763Y-51075000D01*
X109054237Y-51075000D01*
X108947685Y-51090320D01*
X108836000Y-51141325D01*
X108836000Y-50240607D01*
X108835999Y-50240606D01*
X108755498Y-50254040D01*
X108755487Y-50254043D01*
X108542630Y-50327116D01*
X108542628Y-50327117D01*
X108344699Y-50434231D01*
X108344698Y-50434232D01*
X108167097Y-50572465D01*
X108014674Y-50738042D01*
X107925483Y-50874559D01*
X107871479Y-50920647D01*
X107801131Y-50930222D01*
X107736774Y-50900244D01*
X107714517Y-50874559D01*
X107625325Y-50738042D01*
X107472902Y-50572465D01*
X107295301Y-50434232D01*
X107295300Y-50434231D01*
X107097371Y-50327117D01*
X107097369Y-50327116D01*
X106884512Y-50254043D01*
X106884501Y-50254040D01*
X106804000Y-50240606D01*
X106804000Y-51141325D01*
X106692315Y-51090320D01*
X106585763Y-51075000D01*
X106514237Y-51075000D01*
X106407685Y-51090320D01*
X106296000Y-51141325D01*
X106296000Y-50240607D01*
X106295999Y-50240606D01*
X106215498Y-50254040D01*
X106215487Y-50254043D01*
X106002630Y-50327116D01*
X106002628Y-50327117D01*
X105804699Y-50434231D01*
X105804698Y-50434232D01*
X105627097Y-50572465D01*
X105474674Y-50738042D01*
X105385483Y-50874559D01*
X105331479Y-50920647D01*
X105261131Y-50930222D01*
X105196774Y-50900244D01*
X105174517Y-50874559D01*
X105085325Y-50738042D01*
X104932902Y-50572465D01*
X104755301Y-50434232D01*
X104755300Y-50434231D01*
X104557371Y-50327117D01*
X104557369Y-50327116D01*
X104344512Y-50254043D01*
X104344501Y-50254040D01*
X104264000Y-50240606D01*
X104264000Y-51141325D01*
X104152315Y-51090320D01*
X104045763Y-51075000D01*
X103974237Y-51075000D01*
X103867685Y-51090320D01*
X103756000Y-51141325D01*
X103756000Y-50240606D01*
X103675498Y-50254040D01*
X103675487Y-50254043D01*
X103462630Y-50327116D01*
X103462628Y-50327117D01*
X103264699Y-50434231D01*
X103264698Y-50434232D01*
X103087097Y-50572465D01*
X102934674Y-50738042D01*
X102845483Y-50874559D01*
X102791479Y-50920647D01*
X102721131Y-50930222D01*
X102656774Y-50900244D01*
X102634517Y-50874559D01*
X102545325Y-50738042D01*
X102392902Y-50572465D01*
X102215301Y-50434232D01*
X102215300Y-50434231D01*
X102017371Y-50327117D01*
X102017369Y-50327116D01*
X101804512Y-50254043D01*
X101804501Y-50254040D01*
X101723999Y-50240606D01*
X101723999Y-51141325D01*
X101612315Y-51090320D01*
X101505763Y-51075000D01*
X101434237Y-51075000D01*
X101327685Y-51090320D01*
X101216000Y-51141325D01*
X101216000Y-50240607D01*
X101215999Y-50240606D01*
X101135498Y-50254040D01*
X101135487Y-50254043D01*
X100922630Y-50327116D01*
X100922628Y-50327117D01*
X100724699Y-50434231D01*
X100724698Y-50434232D01*
X100547097Y-50572465D01*
X100394674Y-50738042D01*
X100305483Y-50874559D01*
X100251479Y-50920647D01*
X100181131Y-50930222D01*
X100116774Y-50900244D01*
X100094517Y-50874559D01*
X100005325Y-50738042D01*
X99852902Y-50572465D01*
X99675301Y-50434232D01*
X99675300Y-50434231D01*
X99477371Y-50327117D01*
X99477369Y-50327116D01*
X99264512Y-50254043D01*
X99264501Y-50254040D01*
X99184000Y-50240606D01*
X99184000Y-51141325D01*
X99072315Y-51090320D01*
X98965763Y-51075000D01*
X98894237Y-51075000D01*
X98787685Y-51090320D01*
X98676000Y-51141325D01*
X98676000Y-50240606D01*
X98595498Y-50254040D01*
X98595487Y-50254043D01*
X98382630Y-50327116D01*
X98382628Y-50327117D01*
X98184699Y-50434231D01*
X98184698Y-50434232D01*
X98007097Y-50572465D01*
X97854674Y-50738042D01*
X97765483Y-50874559D01*
X97711479Y-50920647D01*
X97641131Y-50930222D01*
X97576774Y-50900244D01*
X97554517Y-50874559D01*
X97465325Y-50738042D01*
X97312902Y-50572465D01*
X97135301Y-50434232D01*
X97135300Y-50434231D01*
X96937371Y-50327117D01*
X96937369Y-50327116D01*
X96724512Y-50254043D01*
X96724501Y-50254040D01*
X96644000Y-50240606D01*
X96644000Y-51141325D01*
X96532315Y-51090320D01*
X96425763Y-51075000D01*
X96354237Y-51075000D01*
X96247685Y-51090320D01*
X96136000Y-51141325D01*
X96136000Y-50240607D01*
X96135999Y-50240606D01*
X96055498Y-50254040D01*
X96055487Y-50254043D01*
X95842630Y-50327116D01*
X95842628Y-50327117D01*
X95644699Y-50434231D01*
X95644698Y-50434232D01*
X95467097Y-50572465D01*
X95314674Y-50738042D01*
X95225483Y-50874559D01*
X95171479Y-50920647D01*
X95101131Y-50930222D01*
X95036774Y-50900244D01*
X95014517Y-50874559D01*
X94925325Y-50738042D01*
X94772902Y-50572465D01*
X94595301Y-50434232D01*
X94595300Y-50434231D01*
X94397371Y-50327117D01*
X94397369Y-50327116D01*
X94184512Y-50254043D01*
X94184501Y-50254040D01*
X94104000Y-50240606D01*
X94104000Y-51141325D01*
X93992315Y-51090320D01*
X93885763Y-51075000D01*
X93814237Y-51075000D01*
X93707685Y-51090320D01*
X93596000Y-51141325D01*
X93596000Y-50240607D01*
X93595999Y-50240606D01*
X93515498Y-50254040D01*
X93515487Y-50254043D01*
X93302630Y-50327116D01*
X93302628Y-50327117D01*
X93104699Y-50434231D01*
X93104698Y-50434232D01*
X92927097Y-50572465D01*
X92774674Y-50738042D01*
X92685483Y-50874559D01*
X92631479Y-50920647D01*
X92561131Y-50930222D01*
X92496774Y-50900244D01*
X92474517Y-50874559D01*
X92385325Y-50738042D01*
X92232902Y-50572465D01*
X92055301Y-50434232D01*
X92055300Y-50434231D01*
X91857371Y-50327117D01*
X91857369Y-50327116D01*
X91644512Y-50254043D01*
X91644501Y-50254040D01*
X91564000Y-50240606D01*
X91564000Y-51141325D01*
X91452315Y-51090320D01*
X91345763Y-51075000D01*
X91274237Y-51075000D01*
X91167685Y-51090320D01*
X91056000Y-51141325D01*
X91056000Y-50240606D01*
X91055999Y-50240606D01*
X90975498Y-50254040D01*
X90975487Y-50254043D01*
X90762630Y-50327116D01*
X90762628Y-50327117D01*
X90564699Y-50434231D01*
X90564698Y-50434232D01*
X90387097Y-50572465D01*
X90234674Y-50738042D01*
X90145483Y-50874559D01*
X90091479Y-50920647D01*
X90021131Y-50930222D01*
X89956774Y-50900244D01*
X89934517Y-50874559D01*
X89845325Y-50738042D01*
X89692902Y-50572465D01*
X89515301Y-50434232D01*
X89515300Y-50434231D01*
X89317371Y-50327117D01*
X89317369Y-50327116D01*
X89104512Y-50254043D01*
X89104501Y-50254040D01*
X89024000Y-50240606D01*
X89024000Y-51141325D01*
X88912315Y-51090320D01*
X88805763Y-51075000D01*
X88734237Y-51075000D01*
X88627685Y-51090320D01*
X88516000Y-51141325D01*
X88516000Y-50240607D01*
X88515999Y-50240606D01*
X88435498Y-50254040D01*
X88435487Y-50254043D01*
X88222630Y-50327116D01*
X88222628Y-50327117D01*
X88024699Y-50434231D01*
X88024698Y-50434232D01*
X87847097Y-50572465D01*
X87694674Y-50738042D01*
X87605483Y-50874559D01*
X87551479Y-50920647D01*
X87481131Y-50930222D01*
X87416774Y-50900244D01*
X87394517Y-50874559D01*
X87305325Y-50738042D01*
X87152902Y-50572465D01*
X86975301Y-50434232D01*
X86975300Y-50434231D01*
X86777371Y-50327117D01*
X86777369Y-50327116D01*
X86564512Y-50254043D01*
X86564501Y-50254040D01*
X86484000Y-50240606D01*
X86484000Y-51141325D01*
X86372315Y-51090320D01*
X86265763Y-51075000D01*
X86194237Y-51075000D01*
X86087685Y-51090320D01*
X85976000Y-51141325D01*
X85976000Y-50240607D01*
X85975999Y-50240606D01*
X85895498Y-50254040D01*
X85895487Y-50254043D01*
X85682630Y-50327116D01*
X85682628Y-50327117D01*
X85484699Y-50434231D01*
X85484698Y-50434232D01*
X85307097Y-50572465D01*
X85154674Y-50738042D01*
X85065483Y-50874559D01*
X85011479Y-50920647D01*
X84941131Y-50930222D01*
X84876774Y-50900244D01*
X84854517Y-50874559D01*
X84765325Y-50738042D01*
X84612902Y-50572465D01*
X84435301Y-50434232D01*
X84435300Y-50434231D01*
X84237371Y-50327117D01*
X84237369Y-50327116D01*
X84024512Y-50254043D01*
X84024501Y-50254040D01*
X83944000Y-50240606D01*
X83944000Y-51141325D01*
X83832315Y-51090320D01*
X83725763Y-51075000D01*
X83654237Y-51075000D01*
X83547685Y-51090320D01*
X83436000Y-51141325D01*
X83436000Y-50240607D01*
X83435999Y-50240606D01*
X83355498Y-50254040D01*
X83355487Y-50254043D01*
X83142630Y-50327116D01*
X83142628Y-50327117D01*
X82944699Y-50434231D01*
X82944698Y-50434232D01*
X82767097Y-50572465D01*
X82614674Y-50738042D01*
X82525483Y-50874559D01*
X82471479Y-50920647D01*
X82401131Y-50930222D01*
X82336774Y-50900244D01*
X82314517Y-50874559D01*
X82225325Y-50738042D01*
X82072902Y-50572465D01*
X81895301Y-50434232D01*
X81895300Y-50434231D01*
X81697371Y-50327117D01*
X81697369Y-50327116D01*
X81484512Y-50254043D01*
X81484501Y-50254040D01*
X81404000Y-50240606D01*
X81404000Y-51141325D01*
X81292315Y-51090320D01*
X81185763Y-51075000D01*
X81114237Y-51075000D01*
X81007685Y-51090320D01*
X80896000Y-51141325D01*
X80896000Y-50240607D01*
X80895999Y-50240606D01*
X80815498Y-50254040D01*
X80815487Y-50254043D01*
X80602630Y-50327116D01*
X80602628Y-50327117D01*
X80404699Y-50434231D01*
X80404698Y-50434232D01*
X80227097Y-50572465D01*
X80074674Y-50738041D01*
X79951580Y-50926451D01*
X79861179Y-51132543D01*
X79861176Y-51132550D01*
X79813455Y-51320999D01*
X79813456Y-51321000D01*
X80718884Y-51321000D01*
X80690507Y-51365156D01*
X80650000Y-51503111D01*
X80650000Y-51646889D01*
X80690507Y-51784844D01*
X80718884Y-51829000D01*
X79813455Y-51829000D01*
X79861176Y-52017449D01*
X79861179Y-52017456D01*
X79951580Y-52223548D01*
X80074674Y-52411958D01*
X80227097Y-52577534D01*
X80311195Y-52642990D01*
X80352666Y-52700615D01*
X80356400Y-52771513D01*
X80321210Y-52833176D01*
X80258270Y-52866024D01*
X80253514Y-52866871D01*
X80174696Y-52879353D01*
X80061657Y-52936949D01*
X79971949Y-53026657D01*
X79914355Y-53139694D01*
X79914354Y-53139696D01*
X79899500Y-53233481D01*
X79899500Y-53233484D01*
X79899500Y-54996516D01*
X79914353Y-55090302D01*
X79971949Y-55203342D01*
X80061655Y-55293048D01*
X80061657Y-55293049D01*
X80061658Y-55293050D01*
X80165228Y-55345822D01*
X80180702Y-55353706D01*
X80232318Y-55402454D01*
X80249500Y-55465973D01*
X80249500Y-58344212D01*
X80247949Y-58363922D01*
X80245780Y-58377612D01*
X80247212Y-58404926D01*
X80249414Y-58446951D01*
X80249500Y-58450224D01*
X80249500Y-58472185D01*
X80249501Y-58472208D01*
X80251795Y-58494035D01*
X80252053Y-58497320D01*
X80255686Y-58566640D01*
X80255687Y-58566649D01*
X80259274Y-58580035D01*
X80262877Y-58599473D01*
X80264325Y-58613254D01*
X80264326Y-58613256D01*
X80285781Y-58679291D01*
X80286710Y-58682428D01*
X80304679Y-58749486D01*
X80304680Y-58749490D01*
X80310972Y-58761838D01*
X80318536Y-58780100D01*
X80322817Y-58793274D01*
X80322821Y-58793285D01*
X80339073Y-58821434D01*
X80357534Y-58853408D01*
X80359098Y-58856290D01*
X80390615Y-58918146D01*
X80399337Y-58928917D01*
X80410536Y-58945211D01*
X80417467Y-58957216D01*
X80463925Y-59008814D01*
X80466064Y-59011319D01*
X80479881Y-59028380D01*
X80495414Y-59043913D01*
X80497667Y-59046288D01*
X80522052Y-59073369D01*
X80544129Y-59097888D01*
X80555343Y-59106035D01*
X80570377Y-59118876D01*
X80962595Y-59511094D01*
X80996621Y-59573406D01*
X80999500Y-59600189D01*
X80999500Y-76998670D01*
X80979498Y-77066791D01*
X80925842Y-77113284D01*
X80906111Y-77120377D01*
X80700672Y-77175424D01*
X80700667Y-77175426D01*
X80502358Y-77267899D01*
X80323131Y-77393395D01*
X80323120Y-77393404D01*
X80168404Y-77548120D01*
X80168395Y-77548131D01*
X80042899Y-77727358D01*
X79974195Y-77874695D01*
X79927277Y-77927980D01*
X79859000Y-77947441D01*
X79791040Y-77926899D01*
X79745805Y-77874695D01*
X79677100Y-77727358D01*
X79551604Y-77548131D01*
X79551601Y-77548127D01*
X79551598Y-77548123D01*
X79396877Y-77393402D01*
X79217639Y-77267898D01*
X79217639Y-77267897D01*
X79019333Y-77175426D01*
X79019328Y-77175424D01*
X78922166Y-77149390D01*
X78807977Y-77118793D01*
X78590000Y-77099723D01*
X78589999Y-77099723D01*
X78517341Y-77106079D01*
X78372023Y-77118793D01*
X78282696Y-77142728D01*
X78160671Y-77175424D01*
X78160667Y-77175426D01*
X77962358Y-77267899D01*
X77783131Y-77393395D01*
X77783120Y-77393404D01*
X77628404Y-77548120D01*
X77628395Y-77548131D01*
X77502899Y-77727358D01*
X77410426Y-77925667D01*
X77410424Y-77925671D01*
X77404591Y-77947441D01*
X77353793Y-78137023D01*
X77334723Y-78355000D01*
X77353793Y-78572977D01*
X77389695Y-78706967D01*
X77410424Y-78784328D01*
X77410426Y-78784333D01*
X77485526Y-78945384D01*
X77502898Y-78982639D01*
X77628402Y-79161877D01*
X77783123Y-79316598D01*
X77962361Y-79442102D01*
X78039152Y-79477910D01*
X78109695Y-79510805D01*
X78162980Y-79557722D01*
X78182441Y-79626000D01*
X78161899Y-79693960D01*
X78109695Y-79739195D01*
X77962358Y-79807899D01*
X77783131Y-79933395D01*
X77783120Y-79933404D01*
X77628404Y-80088120D01*
X77628395Y-80088131D01*
X77502899Y-80267358D01*
X77410426Y-80465667D01*
X77410424Y-80465671D01*
X77377728Y-80587696D01*
X77353793Y-80677023D01*
X77334723Y-80895000D01*
X77353793Y-81112977D01*
X77389695Y-81246967D01*
X77410424Y-81324328D01*
X77410426Y-81324333D01*
X77485526Y-81485384D01*
X77502898Y-81522639D01*
X77628402Y-81701877D01*
X77783123Y-81856598D01*
X77962361Y-81982102D01*
X78039152Y-82017910D01*
X78109695Y-82050805D01*
X78162980Y-82097722D01*
X78182441Y-82166000D01*
X78161899Y-82233960D01*
X78109695Y-82279195D01*
X77962358Y-82347899D01*
X77783131Y-82473395D01*
X77783120Y-82473404D01*
X77628404Y-82628120D01*
X77628395Y-82628131D01*
X77502899Y-82807358D01*
X77410426Y-83005667D01*
X77410424Y-83005671D01*
X77396613Y-83057216D01*
X77353793Y-83217023D01*
X77334723Y-83435000D01*
X77353793Y-83652977D01*
X77389695Y-83786967D01*
X77410424Y-83864328D01*
X77410426Y-83864333D01*
X77502898Y-84062639D01*
X77589042Y-84185666D01*
X77628402Y-84241877D01*
X77783123Y-84396598D01*
X77962361Y-84522102D01*
X78039152Y-84557910D01*
X78109695Y-84590805D01*
X78162980Y-84637722D01*
X78182441Y-84706000D01*
X78161899Y-84773960D01*
X78109695Y-84819195D01*
X77962358Y-84887899D01*
X77783131Y-85013395D01*
X77783120Y-85013404D01*
X77628404Y-85168120D01*
X77628395Y-85168131D01*
X77502899Y-85347358D01*
X77410426Y-85545667D01*
X77410424Y-85545671D01*
X77377728Y-85667696D01*
X77353793Y-85757023D01*
X77334723Y-85975000D01*
X77353793Y-86192977D01*
X77389695Y-86326967D01*
X77410424Y-86404328D01*
X77410426Y-86404333D01*
X77496817Y-86589599D01*
X77502898Y-86602639D01*
X77628402Y-86781877D01*
X77783123Y-86936598D01*
X77783126Y-86936600D01*
X77962359Y-87062101D01*
X77962360Y-87062101D01*
X77962361Y-87062102D01*
X77982022Y-87071270D01*
X78035307Y-87118185D01*
X78054769Y-87186462D01*
X78034228Y-87254423D01*
X77988743Y-87296278D01*
X77844704Y-87374228D01*
X77844698Y-87374232D01*
X77667097Y-87512465D01*
X77514674Y-87678041D01*
X77391580Y-87866451D01*
X77301179Y-88072543D01*
X77301176Y-88072550D01*
X77253455Y-88260999D01*
X77253456Y-88261000D01*
X78158884Y-88261000D01*
X78130507Y-88305156D01*
X78090000Y-88443111D01*
X78090000Y-88586889D01*
X78130507Y-88724844D01*
X78158884Y-88769000D01*
X77253455Y-88769000D01*
X66778980Y-88769000D01*
X66768497Y-75815000D01*
X69607346Y-75815000D01*
X69625932Y-76039292D01*
X69681176Y-76257449D01*
X69681179Y-76257456D01*
X69771580Y-76463548D01*
X69846922Y-76578866D01*
X70485638Y-75940149D01*
X70510507Y-76024844D01*
X70588239Y-76145798D01*
X70696900Y-76239952D01*
X70827685Y-76299680D01*
X70842412Y-76301797D01*
X70204310Y-76939898D01*
X70224694Y-76955763D01*
X70224696Y-76955765D01*
X70422632Y-77062883D01*
X70635483Y-77135955D01*
X70635490Y-77135957D01*
X70857477Y-77173000D01*
X71082523Y-77173000D01*
X71304509Y-77135957D01*
X71304516Y-77135955D01*
X71517369Y-77062883D01*
X71517371Y-77062882D01*
X71715298Y-76955768D01*
X71715302Y-76955766D01*
X71735689Y-76939898D01*
X71097588Y-76301797D01*
X71112315Y-76299680D01*
X71243100Y-76239952D01*
X71351761Y-76145798D01*
X71429493Y-76024844D01*
X71454360Y-75940151D01*
X72093076Y-76578867D01*
X72134516Y-76515440D01*
X72188520Y-76469352D01*
X72258868Y-76459777D01*
X72323225Y-76489755D01*
X72345482Y-76515440D01*
X72434674Y-76651957D01*
X72587097Y-76817534D01*
X72764698Y-76955767D01*
X72764699Y-76955768D01*
X72962628Y-77062882D01*
X72962630Y-77062883D01*
X73175483Y-77135955D01*
X73175492Y-77135957D01*
X73256000Y-77149391D01*
X73256000Y-76248674D01*
X73367685Y-76299680D01*
X73474237Y-76315000D01*
X73545763Y-76315000D01*
X73652315Y-76299680D01*
X73764000Y-76248674D01*
X73764000Y-77149390D01*
X73844507Y-77135957D01*
X73844516Y-77135955D01*
X74057369Y-77062883D01*
X74057371Y-77062882D01*
X74255300Y-76955768D01*
X74255301Y-76955767D01*
X74432902Y-76817534D01*
X74585325Y-76651958D01*
X74708419Y-76463548D01*
X74798820Y-76257456D01*
X74798823Y-76257449D01*
X74846544Y-76069000D01*
X73941116Y-76069000D01*
X73969493Y-76024844D01*
X74010000Y-75886889D01*
X74010000Y-75743111D01*
X73969493Y-75605156D01*
X73941116Y-75561000D01*
X74846544Y-75561000D01*
X74846544Y-75560999D01*
X74798823Y-75372550D01*
X74798820Y-75372543D01*
X74708419Y-75166451D01*
X74585325Y-74978041D01*
X74432902Y-74812465D01*
X74255303Y-74674233D01*
X74111256Y-74596279D01*
X74060866Y-74546265D01*
X74045514Y-74476948D01*
X74070075Y-74410335D01*
X74117976Y-74371270D01*
X74137639Y-74362102D01*
X74316877Y-74236598D01*
X74471598Y-74081877D01*
X74597102Y-73902639D01*
X74665805Y-73755302D01*
X74712722Y-73702019D01*
X74780999Y-73682558D01*
X74848959Y-73703100D01*
X74894194Y-73755302D01*
X74962898Y-73902639D01*
X75088402Y-74081877D01*
X75243123Y-74236598D01*
X75422361Y-74362102D01*
X75620670Y-74454575D01*
X75832023Y-74511207D01*
X76050000Y-74530277D01*
X76267977Y-74511207D01*
X76479330Y-74454575D01*
X76677639Y-74362102D01*
X76856877Y-74236598D01*
X77011598Y-74081877D01*
X77137102Y-73902639D01*
X77205805Y-73755302D01*
X77252722Y-73702019D01*
X77320999Y-73682558D01*
X77388959Y-73703100D01*
X77434194Y-73755302D01*
X77502898Y-73902639D01*
X77628402Y-74081877D01*
X77783123Y-74236598D01*
X77962361Y-74362102D01*
X78160670Y-74454575D01*
X78372023Y-74511207D01*
X78590000Y-74530277D01*
X78807977Y-74511207D01*
X79019330Y-74454575D01*
X79217639Y-74362102D01*
X79396877Y-74236598D01*
X79551598Y-74081877D01*
X79677102Y-73902639D01*
X79769575Y-73704330D01*
X79826207Y-73492977D01*
X79845277Y-73275000D01*
X79826207Y-73057023D01*
X79769575Y-72845670D01*
X79677102Y-72647362D01*
X79677101Y-72647361D01*
X79677100Y-72647358D01*
X79551604Y-72468131D01*
X79551601Y-72468127D01*
X79551598Y-72468123D01*
X79396877Y-72313402D01*
X79217639Y-72187898D01*
X79070302Y-72119194D01*
X79017019Y-72072278D01*
X78997558Y-72004001D01*
X79018100Y-71936041D01*
X79070302Y-71890805D01*
X79217639Y-71822102D01*
X79396877Y-71696598D01*
X79551598Y-71541877D01*
X79677102Y-71362639D01*
X79769575Y-71164330D01*
X79826207Y-70952977D01*
X79845277Y-70735000D01*
X79826207Y-70517023D01*
X79769575Y-70305670D01*
X79677102Y-70107362D01*
X79677101Y-70107361D01*
X79677100Y-70107358D01*
X79551604Y-69928131D01*
X79551601Y-69928127D01*
X79551598Y-69928123D01*
X79396877Y-69773402D01*
X79217639Y-69647898D01*
X79070302Y-69579194D01*
X79017019Y-69532278D01*
X78997558Y-69464001D01*
X79018100Y-69396041D01*
X79070302Y-69350805D01*
X79217639Y-69282102D01*
X79396877Y-69156598D01*
X79551598Y-69001877D01*
X79677102Y-68822639D01*
X79769575Y-68624330D01*
X79826207Y-68412977D01*
X79845277Y-68195000D01*
X79826207Y-67977023D01*
X79769575Y-67765670D01*
X79677102Y-67567362D01*
X79677101Y-67567361D01*
X79677100Y-67567358D01*
X79551604Y-67388131D01*
X79551601Y-67388127D01*
X79551598Y-67388123D01*
X79396877Y-67233402D01*
X79217639Y-67107898D01*
X79153480Y-67077980D01*
X79070304Y-67039194D01*
X79017019Y-66992276D01*
X78997558Y-66923999D01*
X79018100Y-66856039D01*
X79070302Y-66810806D01*
X79217639Y-66742102D01*
X79396877Y-66616598D01*
X79551598Y-66461877D01*
X79677102Y-66282639D01*
X79769575Y-66084330D01*
X79826207Y-65872977D01*
X79845277Y-65655000D01*
X79826207Y-65437023D01*
X79769575Y-65225670D01*
X79677102Y-65027362D01*
X79677101Y-65027361D01*
X79677100Y-65027358D01*
X79551604Y-64848131D01*
X79551601Y-64848127D01*
X79551598Y-64848123D01*
X79396877Y-64693402D01*
X79217639Y-64567898D01*
X79070302Y-64499194D01*
X79017019Y-64452278D01*
X78997558Y-64384001D01*
X79018100Y-64316041D01*
X79070302Y-64270805D01*
X79217639Y-64202102D01*
X79396877Y-64076598D01*
X79551598Y-63921877D01*
X79677102Y-63742639D01*
X79769575Y-63544330D01*
X79826207Y-63332977D01*
X79845277Y-63115000D01*
X79826207Y-62897023D01*
X79769575Y-62685670D01*
X79677102Y-62487362D01*
X79677101Y-62487361D01*
X79677100Y-62487358D01*
X79551604Y-62308131D01*
X79551601Y-62308127D01*
X79551598Y-62308123D01*
X79396877Y-62153402D01*
X79275030Y-62068084D01*
X79217639Y-62027898D01*
X79070304Y-61959194D01*
X79017019Y-61912276D01*
X78997558Y-61843999D01*
X79018100Y-61776039D01*
X79070302Y-61730806D01*
X79217639Y-61662102D01*
X79396877Y-61536598D01*
X79551598Y-61381877D01*
X79677102Y-61202639D01*
X79769575Y-61004330D01*
X79826207Y-60792977D01*
X79845277Y-60575000D01*
X79826207Y-60357023D01*
X79769575Y-60145670D01*
X79677102Y-59947362D01*
X79677101Y-59947361D01*
X79677100Y-59947358D01*
X79551604Y-59768131D01*
X79551600Y-59768126D01*
X79551598Y-59768123D01*
X79396877Y-59613402D01*
X79377304Y-59599697D01*
X79217639Y-59487898D01*
X79019333Y-59395426D01*
X79019328Y-59395424D01*
X78941967Y-59374695D01*
X78807977Y-59338793D01*
X78590000Y-59319723D01*
X78589999Y-59319723D01*
X78517341Y-59326079D01*
X78372023Y-59338793D01*
X78282696Y-59362728D01*
X78160671Y-59395424D01*
X78160667Y-59395426D01*
X77962358Y-59487899D01*
X77783131Y-59613395D01*
X77783120Y-59613404D01*
X77628404Y-59768120D01*
X77628395Y-59768131D01*
X77502899Y-59947358D01*
X77434195Y-60094695D01*
X77387277Y-60147980D01*
X77319000Y-60167441D01*
X77251040Y-60146899D01*
X77205805Y-60094695D01*
X77169459Y-60016753D01*
X77137102Y-59947362D01*
X77137101Y-59947361D01*
X77137100Y-59947358D01*
X77011604Y-59768131D01*
X77011600Y-59768126D01*
X77011598Y-59768123D01*
X76856877Y-59613402D01*
X76837304Y-59599697D01*
X76677639Y-59487898D01*
X76479333Y-59395426D01*
X76479328Y-59395424D01*
X76401967Y-59374695D01*
X76267977Y-59338793D01*
X76050000Y-59319723D01*
X75832023Y-59338793D01*
X75742696Y-59362728D01*
X75620671Y-59395424D01*
X75620667Y-59395426D01*
X75422358Y-59487899D01*
X75243131Y-59613395D01*
X75243120Y-59613404D01*
X75088404Y-59768120D01*
X75088395Y-59768131D01*
X74962899Y-59947358D01*
X74894195Y-60094695D01*
X74847277Y-60147980D01*
X74779000Y-60167441D01*
X74711040Y-60146899D01*
X74665805Y-60094695D01*
X74629459Y-60016753D01*
X74597102Y-59947362D01*
X74597101Y-59947361D01*
X74597100Y-59947358D01*
X74471604Y-59768131D01*
X74471600Y-59768126D01*
X74471598Y-59768123D01*
X74316877Y-59613402D01*
X74297304Y-59599697D01*
X74137639Y-59487898D01*
X73939333Y-59395426D01*
X73939328Y-59395424D01*
X73861967Y-59374695D01*
X73727977Y-59338793D01*
X73510000Y-59319723D01*
X73292023Y-59338793D01*
X73202696Y-59362728D01*
X73080671Y-59395424D01*
X73080667Y-59395426D01*
X72882358Y-59487899D01*
X72703131Y-59613395D01*
X72703120Y-59613404D01*
X72548404Y-59768120D01*
X72548395Y-59768131D01*
X72422899Y-59947358D01*
X72354195Y-60094695D01*
X72307277Y-60147980D01*
X72239000Y-60167441D01*
X72171040Y-60146899D01*
X72125805Y-60094695D01*
X72089459Y-60016753D01*
X72057102Y-59947362D01*
X72057101Y-59947361D01*
X72057100Y-59947358D01*
X71931604Y-59768131D01*
X71931600Y-59768126D01*
X71931598Y-59768123D01*
X71776877Y-59613402D01*
X71757304Y-59599697D01*
X71597639Y-59487898D01*
X71399333Y-59395426D01*
X71399328Y-59395424D01*
X71321967Y-59374695D01*
X71187977Y-59338793D01*
X70970000Y-59319723D01*
X70752023Y-59338793D01*
X70662696Y-59362728D01*
X70540671Y-59395424D01*
X70540667Y-59395426D01*
X70342358Y-59487899D01*
X70163131Y-59613395D01*
X70163120Y-59613404D01*
X70008404Y-59768120D01*
X70008395Y-59768131D01*
X69882899Y-59947358D01*
X69790426Y-60145667D01*
X69790424Y-60145671D01*
X69784591Y-60167441D01*
X69733793Y-60357023D01*
X69714723Y-60575000D01*
X69733793Y-60792977D01*
X69769695Y-60926967D01*
X69790424Y-61004328D01*
X69790426Y-61004333D01*
X69882898Y-61202639D01*
X69977607Y-61337898D01*
X70008402Y-61381877D01*
X70163123Y-61536598D01*
X70342361Y-61662102D01*
X70540670Y-61754575D01*
X70595396Y-61769238D01*
X70656018Y-61806189D01*
X70687040Y-61870049D01*
X70678612Y-61940544D01*
X70633410Y-61995291D01*
X70608302Y-62008436D01*
X70449613Y-62069913D01*
X70449602Y-62069918D01*
X70266434Y-62183331D01*
X70107223Y-62328471D01*
X69977389Y-62500399D01*
X69881357Y-62693258D01*
X69881354Y-62693266D01*
X69822398Y-62900477D01*
X69822398Y-62900481D01*
X69802520Y-63114995D01*
X69802520Y-63115004D01*
X69822398Y-63329518D01*
X69822398Y-63329522D01*
X69876954Y-63521269D01*
X69881357Y-63536742D01*
X69977388Y-63729599D01*
X69989984Y-63746279D01*
X70107223Y-63901528D01*
X70266434Y-64046668D01*
X70449602Y-64160081D01*
X70449604Y-64160081D01*
X70449609Y-64160085D01*
X70650504Y-64237912D01*
X70774792Y-64261145D01*
X70838076Y-64293324D01*
X70873918Y-64354609D01*
X70870937Y-64425543D01*
X70830079Y-64483605D01*
X70774792Y-64508854D01*
X70650504Y-64532088D01*
X70650499Y-64532089D01*
X70449613Y-64609913D01*
X70449602Y-64609918D01*
X70266434Y-64723331D01*
X70107223Y-64868471D01*
X69977389Y-65040399D01*
X69881357Y-65233258D01*
X69881354Y-65233266D01*
X69822398Y-65440477D01*
X69822398Y-65440481D01*
X69802520Y-65654995D01*
X69802520Y-65655004D01*
X69822398Y-65869518D01*
X69822398Y-65869522D01*
X69867801Y-66029100D01*
X69881357Y-66076742D01*
X69977388Y-66269599D01*
X69995463Y-66293534D01*
X70107223Y-66441528D01*
X70266434Y-66586668D01*
X70449602Y-66700081D01*
X70449604Y-66700081D01*
X70449609Y-66700085D01*
X70650504Y-66777912D01*
X70774792Y-66801145D01*
X70838076Y-66833324D01*
X70873918Y-66894609D01*
X70870937Y-66965543D01*
X70830079Y-67023605D01*
X70774792Y-67048854D01*
X70650504Y-67072088D01*
X70650499Y-67072089D01*
X70449613Y-67149913D01*
X70449602Y-67149918D01*
X70266434Y-67263331D01*
X70107223Y-67408471D01*
X69977389Y-67580399D01*
X69881357Y-67773258D01*
X69881354Y-67773266D01*
X69822398Y-67980477D01*
X69822398Y-67980481D01*
X69802520Y-68194995D01*
X69802520Y-68195004D01*
X69822398Y-68409518D01*
X69822398Y-68409522D01*
X69867801Y-68569100D01*
X69881357Y-68616742D01*
X69977388Y-68809599D01*
X70002066Y-68842278D01*
X70107223Y-68981528D01*
X70266434Y-69126668D01*
X70449602Y-69240081D01*
X70449604Y-69240081D01*
X70449609Y-69240085D01*
X70650504Y-69317912D01*
X70774792Y-69341145D01*
X70838076Y-69373324D01*
X70873918Y-69434609D01*
X70870937Y-69505543D01*
X70830079Y-69563605D01*
X70774792Y-69588854D01*
X70650504Y-69612088D01*
X70650499Y-69612089D01*
X70449613Y-69689913D01*
X70449602Y-69689918D01*
X70266434Y-69803331D01*
X70107223Y-69948471D01*
X69977389Y-70120399D01*
X69881357Y-70313258D01*
X69881354Y-70313266D01*
X69822398Y-70520477D01*
X69822398Y-70520481D01*
X69802520Y-70734995D01*
X69802520Y-70735004D01*
X69822398Y-70949518D01*
X69822398Y-70949522D01*
X69867801Y-71109100D01*
X69881357Y-71156742D01*
X69977388Y-71349599D01*
X70002066Y-71382278D01*
X70107223Y-71521528D01*
X70266434Y-71666668D01*
X70449602Y-71780081D01*
X70449604Y-71780081D01*
X70449609Y-71780085D01*
X70650504Y-71857912D01*
X70774792Y-71881145D01*
X70838076Y-71913324D01*
X70873918Y-71974609D01*
X70870937Y-72045543D01*
X70830079Y-72103605D01*
X70774792Y-72128854D01*
X70650504Y-72152088D01*
X70650499Y-72152089D01*
X70449613Y-72229913D01*
X70449602Y-72229918D01*
X70266434Y-72343331D01*
X70107223Y-72488471D01*
X69977389Y-72660399D01*
X69881357Y-72853258D01*
X69881354Y-72853266D01*
X69822398Y-73060477D01*
X69822398Y-73060481D01*
X69802520Y-73274995D01*
X69802520Y-73275004D01*
X69822398Y-73489518D01*
X69822398Y-73489522D01*
X69867801Y-73649100D01*
X69881357Y-73696742D01*
X69977388Y-73889599D01*
X70019481Y-73945340D01*
X70107223Y-74061528D01*
X70266434Y-74206668D01*
X70449602Y-74320081D01*
X70449604Y-74320081D01*
X70449609Y-74320085D01*
X70453280Y-74321507D01*
X70454778Y-74322658D01*
X70454820Y-74322679D01*
X70454815Y-74322687D01*
X70509577Y-74364763D01*
X70533551Y-74431590D01*
X70517590Y-74500769D01*
X70466761Y-74550337D01*
X70448684Y-74558172D01*
X70422632Y-74567116D01*
X70422628Y-74567118D01*
X70224700Y-74674230D01*
X70204310Y-74690099D01*
X70204310Y-74690101D01*
X70842411Y-75328202D01*
X70827685Y-75330320D01*
X70696900Y-75390048D01*
X70588239Y-75484202D01*
X70510507Y-75605156D01*
X70485638Y-75689849D01*
X69846921Y-75051132D01*
X69771580Y-75166451D01*
X69681179Y-75372543D01*
X69681176Y-75372550D01*
X69625932Y-75590707D01*
X69607346Y-75815000D01*
X66768497Y-75815000D01*
X66750807Y-53954999D01*
X68094457Y-53954999D01*
X68114612Y-54313903D01*
X68174825Y-54668293D01*
X68274342Y-55013728D01*
X68390673Y-55294573D01*
X68411906Y-55345833D01*
X68421113Y-55362492D01*
X68585784Y-55660444D01*
X68585786Y-55660447D01*
X68585789Y-55660452D01*
X68793806Y-55953623D01*
X69033339Y-56221661D01*
X69301377Y-56461194D01*
X69594548Y-56669211D01*
X69909167Y-56843094D01*
X70241276Y-56980659D01*
X70586700Y-57080173D01*
X70941093Y-57140387D01*
X71300000Y-57160543D01*
X71658907Y-57140387D01*
X72013300Y-57080173D01*
X72358724Y-56980659D01*
X72690833Y-56843094D01*
X73005452Y-56669211D01*
X73298623Y-56461194D01*
X73566661Y-56221661D01*
X73806194Y-55953623D01*
X74014211Y-55660452D01*
X74188094Y-55345833D01*
X74325659Y-55013724D01*
X74425173Y-54668300D01*
X74485387Y-54313907D01*
X74505543Y-53955000D01*
X74485387Y-53596093D01*
X74425173Y-53241700D01*
X74325659Y-52896276D01*
X74188094Y-52564167D01*
X74035530Y-52288122D01*
X74014215Y-52249555D01*
X74014214Y-52249554D01*
X74014211Y-52249548D01*
X73806194Y-51956377D01*
X73566661Y-51688339D01*
X73298623Y-51448806D01*
X73005452Y-51240789D01*
X73005447Y-51240786D01*
X73005444Y-51240784D01*
X72809595Y-51132543D01*
X72690833Y-51066906D01*
X72690826Y-51066903D01*
X72690822Y-51066901D01*
X72358728Y-50929342D01*
X72013293Y-50829825D01*
X71658903Y-50769612D01*
X71300000Y-50749457D01*
X70941096Y-50769612D01*
X70586706Y-50829825D01*
X70241271Y-50929342D01*
X69909177Y-51066901D01*
X69909154Y-51066913D01*
X69594555Y-51240784D01*
X69594547Y-51240789D01*
X69594548Y-51240789D01*
X69406079Y-51374516D01*
X69301373Y-51448809D01*
X69033339Y-51688339D01*
X68793809Y-51956373D01*
X68585784Y-52249555D01*
X68411913Y-52564154D01*
X68411901Y-52564177D01*
X68274342Y-52896271D01*
X68174825Y-53241706D01*
X68114612Y-53596096D01*
X68094457Y-53954999D01*
X66750807Y-53954999D01*
X66750539Y-53624227D01*
X66753099Y-53615482D01*
X66750629Y-53577004D01*
X66750500Y-53572968D01*
X66750500Y-53563364D01*
X66750251Y-53561388D01*
X66747043Y-53385257D01*
X66744189Y-53202031D01*
X66744349Y-53196453D01*
X66758602Y-53002334D01*
X66773335Y-52821689D01*
X66773975Y-52816509D01*
X66805848Y-52624860D01*
X66838107Y-52445812D01*
X66839149Y-52441091D01*
X66888408Y-52253133D01*
X66937924Y-52077736D01*
X66939302Y-52073457D01*
X67005340Y-51891310D01*
X67005728Y-51890276D01*
X67071899Y-51720699D01*
X67073520Y-51716925D01*
X67155831Y-51541774D01*
X67156637Y-51540125D01*
X67238820Y-51377905D01*
X67240658Y-51374540D01*
X67338595Y-51207705D01*
X67339691Y-51205910D01*
X67437230Y-51052325D01*
X67439154Y-51049476D01*
X67551942Y-50892265D01*
X67553393Y-50890327D01*
X67665343Y-50746883D01*
X67667320Y-50744479D01*
X67793992Y-50598244D01*
X67795850Y-50596197D01*
X67921140Y-50464267D01*
X67923105Y-50462290D01*
X68062611Y-50328242D01*
X68064876Y-50326173D01*
X68202352Y-50206973D01*
X68204281Y-50205369D01*
X68355434Y-50084643D01*
X68358149Y-50082598D01*
X68506554Y-49977226D01*
X68508224Y-49976084D01*
X68669812Y-49869651D01*
X68673062Y-49867652D01*
X68830858Y-49777191D01*
X68832426Y-49776322D01*
X69003083Y-49685092D01*
X69006814Y-49683255D01*
X69172655Y-49608468D01*
X69173824Y-49607958D01*
X69352235Y-49532647D01*
X69356479Y-49531035D01*
X69529059Y-49472545D01*
X69714205Y-49413662D01*
X69718894Y-49412370D01*
X69896057Y-49370913D01*
X70085777Y-49329202D01*
X70090923Y-49328293D01*
X70270599Y-49304257D01*
X70463707Y-49280009D01*
X70469242Y-49279563D01*
X70647949Y-49273110D01*
X70779384Y-49268718D01*
X70841098Y-49266657D01*
X70843958Y-49266626D01*
X70888931Y-49267165D01*
X70894276Y-49266606D01*
X136103959Y-49270428D01*
X136112807Y-49273026D01*
X136149515Y-49270594D01*
X136154443Y-49270460D01*
X136164572Y-49270582D01*
X136167646Y-49270145D01*
X136324372Y-49267289D01*
X136526109Y-49264200D01*
X136531632Y-49264360D01*
G37*
G04 #@! TD.AperFunction*
M02*
