G04 #@! TF.GenerationSoftware,KiCad,Pcbnew,7.0.5-4d25ed1034~172~ubuntu22.04.1*
G04 #@! TF.CreationDate,2023-06-04T17:51:52+03:00*
G04 #@! TF.ProjectId,STM32L475daughter,53544d33-324c-4343-9735-646175676874,rev?*
G04 #@! TF.SameCoordinates,Original*
G04 #@! TF.FileFunction,Soldermask,Top*
G04 #@! TF.FilePolarity,Negative*
%FSLAX46Y46*%
G04 Gerber Fmt 4.6, Leading zero omitted, Abs format (unit mm)*
G04 Created by KiCad (PCBNEW 7.0.5-4d25ed1034~172~ubuntu22.04.1) date 2023-06-04 17:51:52*
%MOMM*%
%LPD*%
G01*
G04 APERTURE LIST*
G04 Aperture macros list*
%AMRoundRect*
0 Rectangle with rounded corners*
0 $1 Rounding radius*
0 $2 $3 $4 $5 $6 $7 $8 $9 X,Y pos of 4 corners*
0 Add a 4 corners polygon primitive as box body*
4,1,4,$2,$3,$4,$5,$6,$7,$8,$9,$2,$3,0*
0 Add four circle primitives for the rounded corners*
1,1,$1+$1,$2,$3*
1,1,$1+$1,$4,$5*
1,1,$1+$1,$6,$7*
1,1,$1+$1,$8,$9*
0 Add four rect primitives between the rounded corners*
20,1,$1+$1,$2,$3,$4,$5,0*
20,1,$1+$1,$4,$5,$6,$7,0*
20,1,$1+$1,$6,$7,$8,$9,0*
20,1,$1+$1,$8,$9,$2,$3,0*%
G04 Aperture macros list end*
%ADD10RoundRect,0.250000X0.750000X-0.250000X0.750000X0.250000X-0.750000X0.250000X-0.750000X-0.250000X0*%
%ADD11C,1.700000*%
%ADD12O,1.700000X1.700000*%
%ADD13C,1.524000*%
%ADD14RoundRect,0.250000X0.250000X0.750000X-0.250000X0.750000X-0.250000X-0.750000X0.250000X-0.750000X0*%
%ADD15RoundRect,0.250000X-0.750000X0.250000X-0.750000X-0.250000X0.750000X-0.250000X0.750000X0.250000X0*%
%ADD16RoundRect,0.250000X-0.412500X-0.650000X0.412500X-0.650000X0.412500X0.650000X-0.412500X0.650000X0*%
%ADD17RoundRect,0.237500X-0.237500X0.250000X-0.237500X-0.250000X0.237500X-0.250000X0.237500X0.250000X0*%
%ADD18RoundRect,0.237500X-0.250000X-0.237500X0.250000X-0.237500X0.250000X0.237500X-0.250000X0.237500X0*%
%ADD19R,1.700000X1.700000*%
%ADD20C,3.600000*%
%ADD21C,5.600000*%
G04 APERTURE END LIST*
D10*
X83160000Y-62455000D03*
D11*
X70970000Y-75815000D03*
D12*
X73510000Y-75815000D03*
D10*
X83200000Y-70025000D03*
X83200000Y-67525000D03*
D13*
X119250000Y-93025000D03*
X121790000Y-93025000D03*
X124330000Y-93025000D03*
X126870000Y-93025000D03*
X129410000Y-93025000D03*
D12*
X131950000Y-93025000D03*
X119250000Y-95565000D03*
X121790000Y-95565000D03*
X124330000Y-95565000D03*
X126870000Y-95565000D03*
X129410000Y-95565000D03*
X131950000Y-95565000D03*
X119250000Y-98105000D03*
X121790000Y-98105000D03*
X124330000Y-98105000D03*
X126870000Y-98105000D03*
X129410000Y-98105000D03*
X131950000Y-98105000D03*
X119250000Y-100645000D03*
X121790000Y-100645000D03*
X124330000Y-100645000D03*
X126870000Y-100645000D03*
X129410000Y-100645000D03*
X131950000Y-100645000D03*
D14*
X92075000Y-73025000D03*
X92050000Y-70075000D03*
X92050000Y-67325000D03*
X92050000Y-64575000D03*
D13*
X70970000Y-73275000D03*
X70970000Y-70735000D03*
X70970000Y-68195000D03*
X70970000Y-65655000D03*
X70970000Y-63115000D03*
D12*
X70970000Y-60575000D03*
X73510000Y-73275000D03*
X73510000Y-70735000D03*
X73510000Y-68195000D03*
X73510000Y-65655000D03*
X73510000Y-63115000D03*
X73510000Y-60575000D03*
X76050000Y-73275000D03*
X76050000Y-70735000D03*
X76050000Y-68195000D03*
X76050000Y-65655000D03*
X76050000Y-63115000D03*
X76050000Y-60575000D03*
X78590000Y-73275000D03*
X78590000Y-70735000D03*
X78590000Y-68195000D03*
X78590000Y-65655000D03*
X78590000Y-63115000D03*
X78590000Y-60575000D03*
D15*
X134450000Y-61025000D03*
D12*
X83670000Y-88515000D03*
X86210000Y-88515000D03*
X88750000Y-88515000D03*
X91290000Y-88515000D03*
X93830000Y-88515000D03*
X96370000Y-88515000D03*
X98910000Y-88515000D03*
X101450000Y-88515000D03*
X103990000Y-88515000D03*
X106530000Y-88515000D03*
X109070000Y-88515000D03*
X111610000Y-88515000D03*
X114150000Y-88515000D03*
X116690000Y-88515000D03*
X119230000Y-88515000D03*
X121770000Y-88515000D03*
X124310000Y-88515000D03*
X126850000Y-88515000D03*
X129390000Y-88515000D03*
X131930000Y-88515000D03*
D10*
X91500000Y-85925000D03*
D11*
X78590000Y-78355000D03*
D12*
X81130000Y-78355000D03*
X78590000Y-80895000D03*
X81130000Y-80895000D03*
X78590000Y-83435000D03*
X81130000Y-83435000D03*
X78590000Y-85975000D03*
X81130000Y-85975000D03*
X78590000Y-88515000D03*
X81130000Y-88515000D03*
D13*
X131930000Y-85975000D03*
X131930000Y-83435000D03*
X131930000Y-80895000D03*
X131930000Y-78355000D03*
X131930000Y-75815000D03*
X131930000Y-73275000D03*
X131930000Y-70735000D03*
X131930000Y-68195000D03*
X131930000Y-65655000D03*
X131930000Y-63115000D03*
X134470000Y-85975000D03*
X134470000Y-83435000D03*
X134470000Y-80895000D03*
X134470000Y-78355000D03*
X134470000Y-75815000D03*
X134470000Y-73275000D03*
X134470000Y-70735000D03*
X134470000Y-68195000D03*
X134470000Y-65655000D03*
X134470000Y-63115000D03*
X119230000Y-85975000D03*
X119230000Y-83435000D03*
X119230000Y-80895000D03*
X119230000Y-78355000D03*
X119230000Y-75815000D03*
X119230000Y-73275000D03*
X119230000Y-70735000D03*
X119230000Y-68195000D03*
X119230000Y-65655000D03*
X119230000Y-63115000D03*
X121770000Y-85975000D03*
X121770000Y-83435000D03*
X121770000Y-80895000D03*
X121770000Y-78355000D03*
X121770000Y-75815000D03*
X121770000Y-73275000D03*
X121770000Y-70735000D03*
X121770000Y-68195000D03*
X121770000Y-65655000D03*
X121770000Y-63115000D03*
X124310000Y-85975000D03*
X124310000Y-83435000D03*
X124310000Y-80895000D03*
X124310000Y-78355000D03*
X124310000Y-75815000D03*
X124310000Y-73275000D03*
X124310000Y-70735000D03*
X124310000Y-68195000D03*
X124310000Y-65655000D03*
X124310000Y-63115000D03*
X126850000Y-85975000D03*
X126850000Y-83435000D03*
X126850000Y-80895000D03*
X126850000Y-78355000D03*
X126850000Y-75815000D03*
X126850000Y-73275000D03*
X126850000Y-70735000D03*
X126850000Y-68195000D03*
X126850000Y-65655000D03*
X126850000Y-63115000D03*
X129390000Y-85975000D03*
X129390000Y-83435000D03*
X129390000Y-80895000D03*
X129390000Y-78355000D03*
X129390000Y-75815000D03*
X129390000Y-73275000D03*
X129390000Y-70735000D03*
X129390000Y-68195000D03*
X129390000Y-65655000D03*
X129390000Y-63115000D03*
X116690000Y-63115000D03*
X116690000Y-65655000D03*
X116690000Y-68195000D03*
X116690000Y-70735000D03*
X116690000Y-73275000D03*
X116690000Y-75815000D03*
X116690000Y-78355000D03*
X116690000Y-80895000D03*
X116690000Y-83435000D03*
X116690000Y-85975000D03*
X114150000Y-63115000D03*
X114150000Y-65655000D03*
X114150000Y-68195000D03*
X114150000Y-70735000D03*
X114150000Y-73275000D03*
X114150000Y-75815000D03*
X114150000Y-78355000D03*
X114150000Y-80895000D03*
X114150000Y-83435000D03*
X114150000Y-85975000D03*
X111610000Y-63115000D03*
X111610000Y-65655000D03*
X111610000Y-68195000D03*
X111610000Y-70735000D03*
X111610000Y-73275000D03*
X111610000Y-75815000D03*
X111610000Y-78355000D03*
X111610000Y-80895000D03*
X111610000Y-83435000D03*
X111610000Y-85975000D03*
X109070000Y-63115000D03*
X109070000Y-65655000D03*
X109070000Y-68195000D03*
X109070000Y-70735000D03*
X109070000Y-73275000D03*
X109070000Y-75815000D03*
X109070000Y-78355000D03*
X109070000Y-80895000D03*
X109070000Y-83435000D03*
X109070000Y-85975000D03*
X106530000Y-63115000D03*
X106530000Y-65655000D03*
X106530000Y-68195000D03*
X106530000Y-70735000D03*
X106530000Y-73275000D03*
X106530000Y-75815000D03*
X106530000Y-78355000D03*
X106530000Y-80895000D03*
X106530000Y-83435000D03*
X106530000Y-85975000D03*
X103990000Y-63115000D03*
X103990000Y-65655000D03*
X103990000Y-68195000D03*
X103990000Y-70735000D03*
X103990000Y-73275000D03*
X103990000Y-75815000D03*
X103990000Y-78355000D03*
X103990000Y-80895000D03*
X103990000Y-83435000D03*
X103990000Y-85975000D03*
X101450000Y-63115000D03*
X101450000Y-65655000D03*
X101450000Y-68195000D03*
X101450000Y-70735000D03*
X101450000Y-73275000D03*
X101450000Y-75815000D03*
X101450000Y-78355000D03*
X101450000Y-80895000D03*
X101450000Y-83435000D03*
X101450000Y-85975000D03*
X98910000Y-63115000D03*
X98910000Y-65655000D03*
X98910000Y-68195000D03*
X98910000Y-70735000D03*
X98910000Y-73275000D03*
X98910000Y-75815000D03*
X98910000Y-78355000D03*
X98910000Y-80895000D03*
X98910000Y-83435000D03*
X98910000Y-85975000D03*
X96370000Y-63115000D03*
X96370000Y-65655000D03*
X96370000Y-68195000D03*
X96370000Y-70735000D03*
X96370000Y-73275000D03*
X96370000Y-75815000D03*
X96370000Y-78355000D03*
X96370000Y-80895000D03*
X96370000Y-83435000D03*
X96370000Y-85975000D03*
X93830000Y-63115000D03*
X93830000Y-65655000D03*
X93830000Y-68195000D03*
X93830000Y-70735000D03*
X93830000Y-73275000D03*
X93830000Y-75815000D03*
X93830000Y-78355000D03*
X93830000Y-80895000D03*
X93830000Y-83435000D03*
X93830000Y-85975000D03*
D16*
X88287500Y-57325000D03*
X91412500Y-57325000D03*
D17*
X137700000Y-95712500D03*
X137700000Y-97537500D03*
D18*
X136575000Y-58525000D03*
X138400000Y-58525000D03*
D19*
X89650000Y-62425000D03*
D12*
X87110000Y-62425000D03*
X89650000Y-64965000D03*
X87110000Y-64965000D03*
X89650000Y-67505000D03*
X87110000Y-67505000D03*
X89650000Y-70045000D03*
X87110000Y-70045000D03*
X89650000Y-72585000D03*
X87110000Y-72585000D03*
D17*
X75550000Y-50725000D03*
X75550000Y-52550000D03*
D20*
X71300000Y-101955000D03*
D21*
X71300000Y-101955000D03*
D19*
X93830000Y-60575000D03*
D12*
X96370000Y-60575000D03*
X98910000Y-60575000D03*
X101450000Y-60575000D03*
X103990000Y-60575000D03*
X106530000Y-60575000D03*
X109070000Y-60575000D03*
X111610000Y-60575000D03*
X114150000Y-60575000D03*
X116690000Y-60575000D03*
X119230000Y-60575000D03*
X121770000Y-60575000D03*
X124310000Y-60575000D03*
X126850000Y-60575000D03*
X129390000Y-60575000D03*
D20*
X136300000Y-101955000D03*
D21*
X136300000Y-101955000D03*
D20*
X71300000Y-53955000D03*
D21*
X71300000Y-53955000D03*
D19*
X81150000Y-54115000D03*
D12*
X81150000Y-51575000D03*
X83690000Y-54115000D03*
X83690000Y-51575000D03*
X86230000Y-54115000D03*
X86230000Y-51575000D03*
X88770000Y-54115000D03*
X88770000Y-51575000D03*
X91310000Y-54115000D03*
X91310000Y-51575000D03*
X93850000Y-54115000D03*
X93850000Y-51575000D03*
X96390000Y-54115000D03*
X96390000Y-51575000D03*
X98930000Y-54115000D03*
X98930000Y-51575000D03*
X101470000Y-54115000D03*
X101470000Y-51575000D03*
X104010000Y-54115000D03*
X104010000Y-51575000D03*
X106550000Y-54115000D03*
X106550000Y-51575000D03*
X109090000Y-54115000D03*
X109090000Y-51575000D03*
X111630000Y-54115000D03*
X111630000Y-51575000D03*
X114170000Y-54115000D03*
X114170000Y-51575000D03*
X116710000Y-54115000D03*
X116710000Y-51575000D03*
X119250000Y-54115000D03*
X119250000Y-51575000D03*
X121790000Y-54115000D03*
X121790000Y-51575000D03*
X124330000Y-54115000D03*
X124330000Y-51575000D03*
X126870000Y-54115000D03*
X126870000Y-51575000D03*
X129410000Y-54115000D03*
X129410000Y-51575000D03*
D20*
X136300000Y-53955000D03*
D21*
X136300000Y-53955000D03*
D18*
X70237500Y-96325000D03*
X72062500Y-96325000D03*
M02*
