G04 #@! TF.GenerationSoftware,KiCad,Pcbnew,7.0.5-4d25ed1034~172~ubuntu22.04.1*
G04 #@! TF.CreationDate,2023-06-04T18:10:59+03:00*
G04 #@! TF.ProjectId,STM32L475-protoboard,53544d33-324c-4343-9735-2d70726f746f,rev?*
G04 #@! TF.SameCoordinates,Original*
G04 #@! TF.FileFunction,Paste,Top*
G04 #@! TF.FilePolarity,Positive*
%FSLAX46Y46*%
G04 Gerber Fmt 4.6, Leading zero omitted, Abs format (unit mm)*
G04 Created by KiCad (PCBNEW 7.0.5-4d25ed1034~172~ubuntu22.04.1) date 2023-06-04 18:10:59*
%MOMM*%
%LPD*%
G01*
G04 APERTURE LIST*
G04 Aperture macros list*
%AMRoundRect*
0 Rectangle with rounded corners*
0 $1 Rounding radius*
0 $2 $3 $4 $5 $6 $7 $8 $9 X,Y pos of 4 corners*
0 Add a 4 corners polygon primitive as box body*
4,1,4,$2,$3,$4,$5,$6,$7,$8,$9,$2,$3,0*
0 Add four circle primitives for the rounded corners*
1,1,$1+$1,$2,$3*
1,1,$1+$1,$4,$5*
1,1,$1+$1,$6,$7*
1,1,$1+$1,$8,$9*
0 Add four rect primitives between the rounded corners*
20,1,$1+$1,$2,$3,$4,$5,0*
20,1,$1+$1,$4,$5,$6,$7,0*
20,1,$1+$1,$6,$7,$8,$9,0*
20,1,$1+$1,$8,$9,$2,$3,0*%
G04 Aperture macros list end*
%ADD10RoundRect,0.237500X-0.237500X0.250000X-0.237500X-0.250000X0.237500X-0.250000X0.237500X0.250000X0*%
%ADD11RoundRect,0.225000X-0.250000X0.225000X-0.250000X-0.225000X0.250000X-0.225000X0.250000X0.225000X0*%
%ADD12RoundRect,0.200000X-0.275000X0.200000X-0.275000X-0.200000X0.275000X-0.200000X0.275000X0.200000X0*%
%ADD13RoundRect,0.225000X-0.225000X-0.250000X0.225000X-0.250000X0.225000X0.250000X-0.225000X0.250000X0*%
%ADD14RoundRect,0.225000X0.250000X-0.225000X0.250000X0.225000X-0.250000X0.225000X-0.250000X-0.225000X0*%
%ADD15RoundRect,0.200000X0.275000X-0.200000X0.275000X0.200000X-0.275000X0.200000X-0.275000X-0.200000X0*%
%ADD16R,2.100000X0.400000*%
%ADD17R,1.000000X1.500000*%
%ADD18O,2.400000X1.100000*%
%ADD19R,1.900000X1.900000*%
%ADD20R,0.700000X1.600000*%
%ADD21R,1.200000X1.500000*%
%ADD22R,1.200000X2.200000*%
%ADD23R,1.600000X1.500000*%
%ADD24RoundRect,0.150000X-0.512500X-0.150000X0.512500X-0.150000X0.512500X0.150000X-0.512500X0.150000X0*%
%ADD25RoundRect,0.075000X0.700000X0.075000X-0.700000X0.075000X-0.700000X-0.075000X0.700000X-0.075000X0*%
%ADD26RoundRect,0.075000X0.075000X0.700000X-0.075000X0.700000X-0.075000X-0.700000X0.075000X-0.700000X0*%
%ADD27RoundRect,0.237500X-0.250000X-0.237500X0.250000X-0.237500X0.250000X0.237500X-0.250000X0.237500X0*%
%ADD28RoundRect,0.218750X0.218750X0.256250X-0.218750X0.256250X-0.218750X-0.256250X0.218750X-0.256250X0*%
%ADD29R,1.000000X1.800000*%
%ADD30RoundRect,0.225000X0.225000X0.250000X-0.225000X0.250000X-0.225000X-0.250000X0.225000X-0.250000X0*%
%ADD31RoundRect,0.250000X-0.250000X-0.475000X0.250000X-0.475000X0.250000X0.475000X-0.250000X0.475000X0*%
%ADD32RoundRect,0.243750X-0.243750X-0.456250X0.243750X-0.456250X0.243750X0.456250X-0.243750X0.456250X0*%
%ADD33RoundRect,0.250000X1.000000X0.650000X-1.000000X0.650000X-1.000000X-0.650000X1.000000X-0.650000X0*%
%ADD34RoundRect,0.250000X-0.475000X0.250000X-0.475000X-0.250000X0.475000X-0.250000X0.475000X0.250000X0*%
%ADD35RoundRect,0.200000X-0.200000X-0.275000X0.200000X-0.275000X0.200000X0.275000X-0.200000X0.275000X0*%
%ADD36RoundRect,0.237500X0.237500X-0.250000X0.237500X0.250000X-0.237500X0.250000X-0.237500X-0.250000X0*%
%ADD37RoundRect,0.218750X-0.381250X0.218750X-0.381250X-0.218750X0.381250X-0.218750X0.381250X0.218750X0*%
%ADD38RoundRect,0.250000X0.250000X0.475000X-0.250000X0.475000X-0.250000X-0.475000X0.250000X-0.475000X0*%
%ADD39RoundRect,0.200000X0.200000X0.275000X-0.200000X0.275000X-0.200000X-0.275000X0.200000X-0.275000X0*%
%ADD40R,1.500000X2.000000*%
%ADD41R,3.800000X2.000000*%
%ADD42RoundRect,0.218750X-0.218750X-0.256250X0.218750X-0.256250X0.218750X0.256250X-0.218750X0.256250X0*%
%ADD43R,1.200000X1.400000*%
%ADD44RoundRect,0.150000X0.512500X0.150000X-0.512500X0.150000X-0.512500X-0.150000X0.512500X-0.150000X0*%
G04 APERTURE END LIST*
D10*
X135550000Y-95212500D03*
X135550000Y-97037500D03*
D11*
X86950000Y-83300000D03*
X86950000Y-84850000D03*
D12*
X92360000Y-65610000D03*
X92360000Y-67260000D03*
D13*
X112060000Y-76710000D03*
X113610000Y-76710000D03*
D14*
X91250800Y-84825000D03*
X91250800Y-83275000D03*
D11*
X84150000Y-72150000D03*
X84150000Y-73700000D03*
D15*
X123050000Y-86800000D03*
X123050000Y-85150000D03*
D14*
X84025000Y-69575000D03*
X84025000Y-68025000D03*
D16*
X71510000Y-76925000D03*
X71510000Y-77575000D03*
X71510000Y-78225000D03*
X71510000Y-78875000D03*
X71510000Y-79525000D03*
D17*
X70700000Y-75025000D03*
D18*
X68450000Y-75405000D03*
D19*
X68450000Y-77125000D03*
X68450000Y-79325000D03*
D18*
X68450000Y-81045000D03*
D17*
X70700000Y-81425000D03*
D13*
X94675000Y-69575000D03*
X96225000Y-69575000D03*
D20*
X125650000Y-89575000D03*
X124550000Y-89575000D03*
X123450000Y-89575000D03*
X122350000Y-89575000D03*
X121250000Y-89575000D03*
X120150000Y-89575000D03*
X119050000Y-89575000D03*
X117950000Y-89575000D03*
X116850000Y-89575000D03*
D21*
X115650000Y-90575000D03*
D22*
X115650000Y-100175000D03*
X131150000Y-100175000D03*
D23*
X130250000Y-90575000D03*
D14*
X116250000Y-86950000D03*
X116250000Y-85400000D03*
D24*
X78462500Y-77200000D03*
X78462500Y-78150000D03*
X78462500Y-79100000D03*
X80737500Y-79100000D03*
X80737500Y-78150000D03*
X80737500Y-77200000D03*
D25*
X107175000Y-81805000D03*
X107175000Y-81305000D03*
X107175000Y-80805000D03*
X107175000Y-80305000D03*
X107175000Y-79805000D03*
X107175000Y-79305000D03*
X107175000Y-78805000D03*
X107175000Y-78305000D03*
X107175000Y-77805000D03*
X107175000Y-77305000D03*
X107175000Y-76805000D03*
X107175000Y-76305000D03*
X107175000Y-75805000D03*
X107175000Y-75305000D03*
X107175000Y-74805000D03*
X107175000Y-74305000D03*
D26*
X105250000Y-72380000D03*
X104750000Y-72380000D03*
X104250000Y-72380000D03*
X103750000Y-72380000D03*
X103250000Y-72380000D03*
X102750000Y-72380000D03*
X102250000Y-72380000D03*
X101750000Y-72380000D03*
X101250000Y-72380000D03*
X100750000Y-72380000D03*
X100250000Y-72380000D03*
X99750000Y-72380000D03*
X99250000Y-72380000D03*
X98750000Y-72380000D03*
X98250000Y-72380000D03*
X97750000Y-72380000D03*
D25*
X95825000Y-74305000D03*
X95825000Y-74805000D03*
X95825000Y-75305000D03*
X95825000Y-75805000D03*
X95825000Y-76305000D03*
X95825000Y-76805000D03*
X95825000Y-77305000D03*
X95825000Y-77805000D03*
X95825000Y-78305000D03*
X95825000Y-78805000D03*
X95825000Y-79305000D03*
X95825000Y-79805000D03*
X95825000Y-80305000D03*
X95825000Y-80805000D03*
X95825000Y-81305000D03*
X95825000Y-81805000D03*
D26*
X97750000Y-83730000D03*
X98250000Y-83730000D03*
X98750000Y-83730000D03*
X99250000Y-83730000D03*
X99750000Y-83730000D03*
X100250000Y-83730000D03*
X100750000Y-83730000D03*
X101250000Y-83730000D03*
X101750000Y-83730000D03*
X102250000Y-83730000D03*
X102750000Y-83730000D03*
X103250000Y-83730000D03*
X103750000Y-83730000D03*
X104250000Y-83730000D03*
X104750000Y-83730000D03*
X105250000Y-83730000D03*
D27*
X136575000Y-58525000D03*
X138400000Y-58525000D03*
D28*
X113575000Y-92575000D03*
X112000000Y-92575000D03*
D14*
X111450000Y-86875000D03*
X111450000Y-85325000D03*
D15*
X124650000Y-86800000D03*
X124650000Y-85150000D03*
D12*
X119550000Y-85337500D03*
X119550000Y-86987500D03*
D29*
X111790000Y-83215000D03*
X109290000Y-83215000D03*
D12*
X83050000Y-75750000D03*
X83050000Y-77400000D03*
D10*
X75550000Y-50725000D03*
X75550000Y-52550000D03*
D30*
X111265000Y-72085200D03*
X109715000Y-72085200D03*
D13*
X84425000Y-93475000D03*
X85975000Y-93475000D03*
D11*
X78025000Y-70950000D03*
X78025000Y-72500000D03*
D27*
X70187500Y-94775000D03*
X72012500Y-94775000D03*
D13*
X84300000Y-95500000D03*
X85850000Y-95500000D03*
D31*
X84100000Y-97525000D03*
X86000000Y-97525000D03*
D14*
X128650000Y-87500000D03*
X128650000Y-85950000D03*
D13*
X107050000Y-87350000D03*
X108600000Y-87350000D03*
D15*
X126800000Y-87500000D03*
X126800000Y-85850000D03*
D32*
X76166250Y-55945000D03*
X78041250Y-55945000D03*
D30*
X108475000Y-89625000D03*
X106925000Y-89625000D03*
D33*
X83350000Y-100300000D03*
X79350000Y-100300000D03*
D34*
X76100000Y-101075000D03*
X76100000Y-102975000D03*
D35*
X81075000Y-80900000D03*
X82725000Y-80900000D03*
D13*
X83525000Y-103125000D03*
X85075000Y-103125000D03*
D36*
X107725000Y-85512500D03*
X107725000Y-83687500D03*
D35*
X108875000Y-92575000D03*
X110525000Y-92575000D03*
D12*
X134375000Y-58100000D03*
X134375000Y-59750000D03*
D36*
X84325000Y-62350000D03*
X84325000Y-60525000D03*
D37*
X75057000Y-95087500D03*
X75057000Y-97212500D03*
D14*
X88950800Y-84875000D03*
X88950800Y-83325000D03*
D15*
X104375000Y-91000000D03*
X104375000Y-89350000D03*
D38*
X81587500Y-103125000D03*
X79687500Y-103125000D03*
D39*
X93075000Y-75075000D03*
X91425000Y-75075000D03*
D33*
X81578200Y-96240600D03*
X77578200Y-96240600D03*
D40*
X79925000Y-91175000D03*
X82225000Y-91175000D03*
D41*
X82225000Y-84875000D03*
D40*
X84525000Y-91175000D03*
D14*
X113030000Y-87120000D03*
X113030000Y-85570000D03*
D42*
X131075000Y-60350000D03*
X132650000Y-60350000D03*
D43*
X112160000Y-78535000D03*
X112160000Y-80735000D03*
X113860000Y-80735000D03*
X113860000Y-78535000D03*
D14*
X113600000Y-84050000D03*
X113600000Y-82500000D03*
D44*
X82200000Y-74175000D03*
X82200000Y-72275000D03*
X79925000Y-73225000D03*
D11*
X68600000Y-94900000D03*
X68600000Y-96450000D03*
D30*
X95625000Y-65500000D03*
X94075000Y-65500000D03*
D12*
X117950000Y-85350000D03*
X117950000Y-87000000D03*
D39*
X79075000Y-57975000D03*
X77425000Y-57975000D03*
D27*
X70237500Y-96325000D03*
X72062500Y-96325000D03*
M02*
