%TF.GenerationSoftware,KiCad,Pcbnew,7.0.5-4d25ed1034~172~ubuntu22.04.1*%
%TF.CreationDate,2023-06-04T18:11:03+03:00*%
%TF.ProjectId,STM32L475-protoboard,53544d33-324c-4343-9735-2d70726f746f,rev?*%
%TF.SameCoordinates,Original*%
%TF.FileFunction,Drillmap*%
%TF.FilePolarity,Positive*%
%FSLAX45Y45*%
G04 Gerber Fmt 4.5, Leading zero omitted, Abs format (unit mm)*
G04 Created by KiCad (PCBNEW 7.0.5-4d25ed1034~172~ubuntu22.04.1) date 2023-06-04 18:11:03*
%MOMM*%
%LPD*%
G01*
G04 APERTURE LIST*
%ADD10C,0.200000*%
%ADD11C,0.060000*%
%ADD12C,0.120000*%
G04 APERTURE END LIST*
D10*
X7084202Y-4926610D02*
X13615197Y-4926993D01*
X14046094Y-5336196D02*
G75*
G03*
X13615197Y-4926993I-405005J4996D01*
G01*
X7084202Y-4926613D02*
G75*
G03*
X6675000Y-5357500I-5003J-404997D01*
G01*
X7109803Y-10603007D02*
X13636304Y-10613586D01*
X6678905Y-10193804D02*
G75*
G03*
X7109803Y-10603007I405005J-4996D01*
G01*
X14045507Y-10182697D02*
X14046086Y-5336196D01*
X6678914Y-10193804D02*
X6675000Y-5357500D01*
X13636304Y-10613595D02*
G75*
G03*
X14045507Y-10182697I4996J405005D01*
G01*
D11*
X7026000Y-7592500D02*
X7086000Y-7652500D01*
X7086000Y-7592500D02*
X7026000Y-7652500D01*
X7026000Y-7992500D02*
X7086000Y-8052500D01*
X7086000Y-7992500D02*
X7026000Y-8052500D01*
D12*
X11905000Y-10057500D02*
G75*
G03*
X11905000Y-10057500I-60000J0D01*
G01*
X12705000Y-10057500D02*
G75*
G03*
X12705000Y-10057500I-60000J0D01*
G01*
D10*
X6924948Y-10935109D02*
X6924948Y-10735109D01*
X6924948Y-10735109D02*
X6972567Y-10735109D01*
X6972567Y-10735109D02*
X7001139Y-10744633D01*
X7001139Y-10744633D02*
X7020187Y-10763681D01*
X7020187Y-10763681D02*
X7029710Y-10782728D01*
X7029710Y-10782728D02*
X7039234Y-10820823D01*
X7039234Y-10820823D02*
X7039234Y-10849395D01*
X7039234Y-10849395D02*
X7029710Y-10887490D01*
X7029710Y-10887490D02*
X7020187Y-10906538D01*
X7020187Y-10906538D02*
X7001139Y-10925585D01*
X7001139Y-10925585D02*
X6972567Y-10935109D01*
X6972567Y-10935109D02*
X6924948Y-10935109D01*
X7124948Y-10935109D02*
X7124948Y-10801776D01*
X7124948Y-10839871D02*
X7134472Y-10820823D01*
X7134472Y-10820823D02*
X7143996Y-10811300D01*
X7143996Y-10811300D02*
X7163044Y-10801776D01*
X7163044Y-10801776D02*
X7182091Y-10801776D01*
X7248758Y-10935109D02*
X7248758Y-10801776D01*
X7248758Y-10735109D02*
X7239234Y-10744633D01*
X7239234Y-10744633D02*
X7248758Y-10754157D01*
X7248758Y-10754157D02*
X7258282Y-10744633D01*
X7258282Y-10744633D02*
X7248758Y-10735109D01*
X7248758Y-10735109D02*
X7248758Y-10754157D01*
X7372567Y-10935109D02*
X7353520Y-10925585D01*
X7353520Y-10925585D02*
X7343996Y-10906538D01*
X7343996Y-10906538D02*
X7343996Y-10735109D01*
X7477329Y-10935109D02*
X7458282Y-10925585D01*
X7458282Y-10925585D02*
X7448758Y-10906538D01*
X7448758Y-10906538D02*
X7448758Y-10735109D01*
X7705901Y-10935109D02*
X7705901Y-10735109D01*
X7705901Y-10735109D02*
X7772568Y-10877966D01*
X7772568Y-10877966D02*
X7839234Y-10735109D01*
X7839234Y-10735109D02*
X7839234Y-10935109D01*
X8020187Y-10935109D02*
X8020187Y-10830347D01*
X8020187Y-10830347D02*
X8010663Y-10811300D01*
X8010663Y-10811300D02*
X7991615Y-10801776D01*
X7991615Y-10801776D02*
X7953520Y-10801776D01*
X7953520Y-10801776D02*
X7934472Y-10811300D01*
X8020187Y-10925585D02*
X8001139Y-10935109D01*
X8001139Y-10935109D02*
X7953520Y-10935109D01*
X7953520Y-10935109D02*
X7934472Y-10925585D01*
X7934472Y-10925585D02*
X7924948Y-10906538D01*
X7924948Y-10906538D02*
X7924948Y-10887490D01*
X7924948Y-10887490D02*
X7934472Y-10868442D01*
X7934472Y-10868442D02*
X7953520Y-10858919D01*
X7953520Y-10858919D02*
X8001139Y-10858919D01*
X8001139Y-10858919D02*
X8020187Y-10849395D01*
X8115425Y-10801776D02*
X8115425Y-11001776D01*
X8115425Y-10811300D02*
X8134472Y-10801776D01*
X8134472Y-10801776D02*
X8172568Y-10801776D01*
X8172568Y-10801776D02*
X8191615Y-10811300D01*
X8191615Y-10811300D02*
X8201139Y-10820823D01*
X8201139Y-10820823D02*
X8210663Y-10839871D01*
X8210663Y-10839871D02*
X8210663Y-10897014D01*
X8210663Y-10897014D02*
X8201139Y-10916061D01*
X8201139Y-10916061D02*
X8191615Y-10925585D01*
X8191615Y-10925585D02*
X8172568Y-10935109D01*
X8172568Y-10935109D02*
X8134472Y-10935109D01*
X8134472Y-10935109D02*
X8115425Y-10925585D01*
X8296377Y-10916061D02*
X8305901Y-10925585D01*
X8305901Y-10925585D02*
X8296377Y-10935109D01*
X8296377Y-10935109D02*
X8286853Y-10925585D01*
X8286853Y-10925585D02*
X8296377Y-10916061D01*
X8296377Y-10916061D02*
X8296377Y-10935109D01*
X8296377Y-10811300D02*
X8305901Y-10820823D01*
X8305901Y-10820823D02*
X8296377Y-10830347D01*
X8296377Y-10830347D02*
X8286853Y-10820823D01*
X8286853Y-10820823D02*
X8296377Y-10811300D01*
X8296377Y-10811300D02*
X8296377Y-10830347D01*
D11*
X6604172Y-11233625D02*
X6664172Y-11293625D01*
X6664172Y-11233625D02*
X6604172Y-11293625D01*
D10*
X6963044Y-11155109D02*
X6982091Y-11155109D01*
X6982091Y-11155109D02*
X7001139Y-11164633D01*
X7001139Y-11164633D02*
X7010663Y-11174157D01*
X7010663Y-11174157D02*
X7020187Y-11193204D01*
X7020187Y-11193204D02*
X7029710Y-11231299D01*
X7029710Y-11231299D02*
X7029710Y-11278919D01*
X7029710Y-11278919D02*
X7020187Y-11317014D01*
X7020187Y-11317014D02*
X7010663Y-11336061D01*
X7010663Y-11336061D02*
X7001139Y-11345585D01*
X7001139Y-11345585D02*
X6982091Y-11355109D01*
X6982091Y-11355109D02*
X6963044Y-11355109D01*
X6963044Y-11355109D02*
X6943996Y-11345585D01*
X6943996Y-11345585D02*
X6934472Y-11336061D01*
X6934472Y-11336061D02*
X6924948Y-11317014D01*
X6924948Y-11317014D02*
X6915425Y-11278919D01*
X6915425Y-11278919D02*
X6915425Y-11231299D01*
X6915425Y-11231299D02*
X6924948Y-11193204D01*
X6924948Y-11193204D02*
X6934472Y-11174157D01*
X6934472Y-11174157D02*
X6943996Y-11164633D01*
X6943996Y-11164633D02*
X6963044Y-11155109D01*
X7115425Y-11336061D02*
X7124948Y-11345585D01*
X7124948Y-11345585D02*
X7115425Y-11355109D01*
X7115425Y-11355109D02*
X7105901Y-11345585D01*
X7105901Y-11345585D02*
X7115425Y-11336061D01*
X7115425Y-11336061D02*
X7115425Y-11355109D01*
X7296377Y-11155109D02*
X7258282Y-11155109D01*
X7258282Y-11155109D02*
X7239234Y-11164633D01*
X7239234Y-11164633D02*
X7229710Y-11174157D01*
X7229710Y-11174157D02*
X7210663Y-11202728D01*
X7210663Y-11202728D02*
X7201139Y-11240823D01*
X7201139Y-11240823D02*
X7201139Y-11317014D01*
X7201139Y-11317014D02*
X7210663Y-11336061D01*
X7210663Y-11336061D02*
X7220187Y-11345585D01*
X7220187Y-11345585D02*
X7239234Y-11355109D01*
X7239234Y-11355109D02*
X7277329Y-11355109D01*
X7277329Y-11355109D02*
X7296377Y-11345585D01*
X7296377Y-11345585D02*
X7305901Y-11336061D01*
X7305901Y-11336061D02*
X7315425Y-11317014D01*
X7315425Y-11317014D02*
X7315425Y-11269395D01*
X7315425Y-11269395D02*
X7305901Y-11250347D01*
X7305901Y-11250347D02*
X7296377Y-11240823D01*
X7296377Y-11240823D02*
X7277329Y-11231299D01*
X7277329Y-11231299D02*
X7239234Y-11231299D01*
X7239234Y-11231299D02*
X7220187Y-11240823D01*
X7220187Y-11240823D02*
X7210663Y-11250347D01*
X7210663Y-11250347D02*
X7201139Y-11269395D01*
X7439234Y-11155109D02*
X7458282Y-11155109D01*
X7458282Y-11155109D02*
X7477329Y-11164633D01*
X7477329Y-11164633D02*
X7486853Y-11174157D01*
X7486853Y-11174157D02*
X7496377Y-11193204D01*
X7496377Y-11193204D02*
X7505901Y-11231299D01*
X7505901Y-11231299D02*
X7505901Y-11278919D01*
X7505901Y-11278919D02*
X7496377Y-11317014D01*
X7496377Y-11317014D02*
X7486853Y-11336061D01*
X7486853Y-11336061D02*
X7477329Y-11345585D01*
X7477329Y-11345585D02*
X7458282Y-11355109D01*
X7458282Y-11355109D02*
X7439234Y-11355109D01*
X7439234Y-11355109D02*
X7420187Y-11345585D01*
X7420187Y-11345585D02*
X7410663Y-11336061D01*
X7410663Y-11336061D02*
X7401139Y-11317014D01*
X7401139Y-11317014D02*
X7391615Y-11278919D01*
X7391615Y-11278919D02*
X7391615Y-11231299D01*
X7391615Y-11231299D02*
X7401139Y-11193204D01*
X7401139Y-11193204D02*
X7410663Y-11174157D01*
X7410663Y-11174157D02*
X7420187Y-11164633D01*
X7420187Y-11164633D02*
X7439234Y-11155109D01*
X7629710Y-11155109D02*
X7648758Y-11155109D01*
X7648758Y-11155109D02*
X7667806Y-11164633D01*
X7667806Y-11164633D02*
X7677329Y-11174157D01*
X7677329Y-11174157D02*
X7686853Y-11193204D01*
X7686853Y-11193204D02*
X7696377Y-11231299D01*
X7696377Y-11231299D02*
X7696377Y-11278919D01*
X7696377Y-11278919D02*
X7686853Y-11317014D01*
X7686853Y-11317014D02*
X7677329Y-11336061D01*
X7677329Y-11336061D02*
X7667806Y-11345585D01*
X7667806Y-11345585D02*
X7648758Y-11355109D01*
X7648758Y-11355109D02*
X7629710Y-11355109D01*
X7629710Y-11355109D02*
X7610663Y-11345585D01*
X7610663Y-11345585D02*
X7601139Y-11336061D01*
X7601139Y-11336061D02*
X7591615Y-11317014D01*
X7591615Y-11317014D02*
X7582091Y-11278919D01*
X7582091Y-11278919D02*
X7582091Y-11231299D01*
X7582091Y-11231299D02*
X7591615Y-11193204D01*
X7591615Y-11193204D02*
X7601139Y-11174157D01*
X7601139Y-11174157D02*
X7610663Y-11164633D01*
X7610663Y-11164633D02*
X7629710Y-11155109D01*
X7782091Y-11355109D02*
X7782091Y-11221776D01*
X7782091Y-11240823D02*
X7791615Y-11231299D01*
X7791615Y-11231299D02*
X7810663Y-11221776D01*
X7810663Y-11221776D02*
X7839234Y-11221776D01*
X7839234Y-11221776D02*
X7858282Y-11231299D01*
X7858282Y-11231299D02*
X7867806Y-11250347D01*
X7867806Y-11250347D02*
X7867806Y-11355109D01*
X7867806Y-11250347D02*
X7877329Y-11231299D01*
X7877329Y-11231299D02*
X7896377Y-11221776D01*
X7896377Y-11221776D02*
X7924948Y-11221776D01*
X7924948Y-11221776D02*
X7943996Y-11231299D01*
X7943996Y-11231299D02*
X7953520Y-11250347D01*
X7953520Y-11250347D02*
X7953520Y-11355109D01*
X8048758Y-11355109D02*
X8048758Y-11221776D01*
X8048758Y-11240823D02*
X8058282Y-11231299D01*
X8058282Y-11231299D02*
X8077329Y-11221776D01*
X8077329Y-11221776D02*
X8105901Y-11221776D01*
X8105901Y-11221776D02*
X8124949Y-11231299D01*
X8124949Y-11231299D02*
X8134472Y-11250347D01*
X8134472Y-11250347D02*
X8134472Y-11355109D01*
X8134472Y-11250347D02*
X8143996Y-11231299D01*
X8143996Y-11231299D02*
X8163044Y-11221776D01*
X8163044Y-11221776D02*
X8191615Y-11221776D01*
X8191615Y-11221776D02*
X8210663Y-11231299D01*
X8210663Y-11231299D02*
X8220187Y-11250347D01*
X8220187Y-11250347D02*
X8220187Y-11355109D01*
X8610663Y-11145585D02*
X8439234Y-11402728D01*
X8867806Y-11155109D02*
X8886854Y-11155109D01*
X8886854Y-11155109D02*
X8905901Y-11164633D01*
X8905901Y-11164633D02*
X8915425Y-11174157D01*
X8915425Y-11174157D02*
X8924949Y-11193204D01*
X8924949Y-11193204D02*
X8934473Y-11231299D01*
X8934473Y-11231299D02*
X8934473Y-11278919D01*
X8934473Y-11278919D02*
X8924949Y-11317014D01*
X8924949Y-11317014D02*
X8915425Y-11336061D01*
X8915425Y-11336061D02*
X8905901Y-11345585D01*
X8905901Y-11345585D02*
X8886854Y-11355109D01*
X8886854Y-11355109D02*
X8867806Y-11355109D01*
X8867806Y-11355109D02*
X8848758Y-11345585D01*
X8848758Y-11345585D02*
X8839234Y-11336061D01*
X8839234Y-11336061D02*
X8829711Y-11317014D01*
X8829711Y-11317014D02*
X8820187Y-11278919D01*
X8820187Y-11278919D02*
X8820187Y-11231299D01*
X8820187Y-11231299D02*
X8829711Y-11193204D01*
X8829711Y-11193204D02*
X8839234Y-11174157D01*
X8839234Y-11174157D02*
X8848758Y-11164633D01*
X8848758Y-11164633D02*
X8867806Y-11155109D01*
X9020187Y-11336061D02*
X9029711Y-11345585D01*
X9029711Y-11345585D02*
X9020187Y-11355109D01*
X9020187Y-11355109D02*
X9010663Y-11345585D01*
X9010663Y-11345585D02*
X9020187Y-11336061D01*
X9020187Y-11336061D02*
X9020187Y-11355109D01*
X9153520Y-11155109D02*
X9172568Y-11155109D01*
X9172568Y-11155109D02*
X9191615Y-11164633D01*
X9191615Y-11164633D02*
X9201139Y-11174157D01*
X9201139Y-11174157D02*
X9210663Y-11193204D01*
X9210663Y-11193204D02*
X9220187Y-11231299D01*
X9220187Y-11231299D02*
X9220187Y-11278919D01*
X9220187Y-11278919D02*
X9210663Y-11317014D01*
X9210663Y-11317014D02*
X9201139Y-11336061D01*
X9201139Y-11336061D02*
X9191615Y-11345585D01*
X9191615Y-11345585D02*
X9172568Y-11355109D01*
X9172568Y-11355109D02*
X9153520Y-11355109D01*
X9153520Y-11355109D02*
X9134473Y-11345585D01*
X9134473Y-11345585D02*
X9124949Y-11336061D01*
X9124949Y-11336061D02*
X9115425Y-11317014D01*
X9115425Y-11317014D02*
X9105901Y-11278919D01*
X9105901Y-11278919D02*
X9105901Y-11231299D01*
X9105901Y-11231299D02*
X9115425Y-11193204D01*
X9115425Y-11193204D02*
X9124949Y-11174157D01*
X9124949Y-11174157D02*
X9134473Y-11164633D01*
X9134473Y-11164633D02*
X9153520Y-11155109D01*
X9296377Y-11174157D02*
X9305901Y-11164633D01*
X9305901Y-11164633D02*
X9324949Y-11155109D01*
X9324949Y-11155109D02*
X9372568Y-11155109D01*
X9372568Y-11155109D02*
X9391615Y-11164633D01*
X9391615Y-11164633D02*
X9401139Y-11174157D01*
X9401139Y-11174157D02*
X9410663Y-11193204D01*
X9410663Y-11193204D02*
X9410663Y-11212252D01*
X9410663Y-11212252D02*
X9401139Y-11240823D01*
X9401139Y-11240823D02*
X9286854Y-11355109D01*
X9286854Y-11355109D02*
X9410663Y-11355109D01*
X9477330Y-11155109D02*
X9601139Y-11155109D01*
X9601139Y-11155109D02*
X9534473Y-11231299D01*
X9534473Y-11231299D02*
X9563044Y-11231299D01*
X9563044Y-11231299D02*
X9582092Y-11240823D01*
X9582092Y-11240823D02*
X9591615Y-11250347D01*
X9591615Y-11250347D02*
X9601139Y-11269395D01*
X9601139Y-11269395D02*
X9601139Y-11317014D01*
X9601139Y-11317014D02*
X9591615Y-11336061D01*
X9591615Y-11336061D02*
X9582092Y-11345585D01*
X9582092Y-11345585D02*
X9563044Y-11355109D01*
X9563044Y-11355109D02*
X9505901Y-11355109D01*
X9505901Y-11355109D02*
X9486854Y-11345585D01*
X9486854Y-11345585D02*
X9477330Y-11336061D01*
X9772568Y-11155109D02*
X9734473Y-11155109D01*
X9734473Y-11155109D02*
X9715425Y-11164633D01*
X9715425Y-11164633D02*
X9705901Y-11174157D01*
X9705901Y-11174157D02*
X9686854Y-11202728D01*
X9686854Y-11202728D02*
X9677330Y-11240823D01*
X9677330Y-11240823D02*
X9677330Y-11317014D01*
X9677330Y-11317014D02*
X9686854Y-11336061D01*
X9686854Y-11336061D02*
X9696377Y-11345585D01*
X9696377Y-11345585D02*
X9715425Y-11355109D01*
X9715425Y-11355109D02*
X9753520Y-11355109D01*
X9753520Y-11355109D02*
X9772568Y-11345585D01*
X9772568Y-11345585D02*
X9782092Y-11336061D01*
X9782092Y-11336061D02*
X9791615Y-11317014D01*
X9791615Y-11317014D02*
X9791615Y-11269395D01*
X9791615Y-11269395D02*
X9782092Y-11250347D01*
X9782092Y-11250347D02*
X9772568Y-11240823D01*
X9772568Y-11240823D02*
X9753520Y-11231299D01*
X9753520Y-11231299D02*
X9715425Y-11231299D01*
X9715425Y-11231299D02*
X9696377Y-11240823D01*
X9696377Y-11240823D02*
X9686854Y-11250347D01*
X9686854Y-11250347D02*
X9677330Y-11269395D01*
X9867806Y-11155109D02*
X9867806Y-11193204D01*
X9943996Y-11155109D02*
X9943996Y-11193204D01*
X10239235Y-11431299D02*
X10229711Y-11421776D01*
X10229711Y-11421776D02*
X10210663Y-11393204D01*
X10210663Y-11393204D02*
X10201139Y-11374157D01*
X10201139Y-11374157D02*
X10191616Y-11345585D01*
X10191616Y-11345585D02*
X10182092Y-11297966D01*
X10182092Y-11297966D02*
X10182092Y-11259871D01*
X10182092Y-11259871D02*
X10191616Y-11212252D01*
X10191616Y-11212252D02*
X10201139Y-11183681D01*
X10201139Y-11183681D02*
X10210663Y-11164633D01*
X10210663Y-11164633D02*
X10229711Y-11136061D01*
X10229711Y-11136061D02*
X10239235Y-11126538D01*
X10305901Y-11174157D02*
X10315425Y-11164633D01*
X10315425Y-11164633D02*
X10334473Y-11155109D01*
X10334473Y-11155109D02*
X10382092Y-11155109D01*
X10382092Y-11155109D02*
X10401139Y-11164633D01*
X10401139Y-11164633D02*
X10410663Y-11174157D01*
X10410663Y-11174157D02*
X10420187Y-11193204D01*
X10420187Y-11193204D02*
X10420187Y-11212252D01*
X10420187Y-11212252D02*
X10410663Y-11240823D01*
X10410663Y-11240823D02*
X10296377Y-11355109D01*
X10296377Y-11355109D02*
X10420187Y-11355109D01*
X10658282Y-11355109D02*
X10658282Y-11155109D01*
X10743997Y-11355109D02*
X10743997Y-11250347D01*
X10743997Y-11250347D02*
X10734473Y-11231299D01*
X10734473Y-11231299D02*
X10715425Y-11221776D01*
X10715425Y-11221776D02*
X10686854Y-11221776D01*
X10686854Y-11221776D02*
X10667806Y-11231299D01*
X10667806Y-11231299D02*
X10658282Y-11240823D01*
X10867806Y-11355109D02*
X10848758Y-11345585D01*
X10848758Y-11345585D02*
X10839235Y-11336061D01*
X10839235Y-11336061D02*
X10829711Y-11317014D01*
X10829711Y-11317014D02*
X10829711Y-11259871D01*
X10829711Y-11259871D02*
X10839235Y-11240823D01*
X10839235Y-11240823D02*
X10848758Y-11231299D01*
X10848758Y-11231299D02*
X10867806Y-11221776D01*
X10867806Y-11221776D02*
X10896378Y-11221776D01*
X10896378Y-11221776D02*
X10915425Y-11231299D01*
X10915425Y-11231299D02*
X10924949Y-11240823D01*
X10924949Y-11240823D02*
X10934473Y-11259871D01*
X10934473Y-11259871D02*
X10934473Y-11317014D01*
X10934473Y-11317014D02*
X10924949Y-11336061D01*
X10924949Y-11336061D02*
X10915425Y-11345585D01*
X10915425Y-11345585D02*
X10896378Y-11355109D01*
X10896378Y-11355109D02*
X10867806Y-11355109D01*
X11048758Y-11355109D02*
X11029711Y-11345585D01*
X11029711Y-11345585D02*
X11020187Y-11326538D01*
X11020187Y-11326538D02*
X11020187Y-11155109D01*
X11201139Y-11345585D02*
X11182092Y-11355109D01*
X11182092Y-11355109D02*
X11143997Y-11355109D01*
X11143997Y-11355109D02*
X11124949Y-11345585D01*
X11124949Y-11345585D02*
X11115425Y-11326538D01*
X11115425Y-11326538D02*
X11115425Y-11250347D01*
X11115425Y-11250347D02*
X11124949Y-11231299D01*
X11124949Y-11231299D02*
X11143997Y-11221776D01*
X11143997Y-11221776D02*
X11182092Y-11221776D01*
X11182092Y-11221776D02*
X11201139Y-11231299D01*
X11201139Y-11231299D02*
X11210663Y-11250347D01*
X11210663Y-11250347D02*
X11210663Y-11269395D01*
X11210663Y-11269395D02*
X11115425Y-11288442D01*
X11286854Y-11345585D02*
X11305901Y-11355109D01*
X11305901Y-11355109D02*
X11343996Y-11355109D01*
X11343996Y-11355109D02*
X11363044Y-11345585D01*
X11363044Y-11345585D02*
X11372568Y-11326538D01*
X11372568Y-11326538D02*
X11372568Y-11317014D01*
X11372568Y-11317014D02*
X11363044Y-11297966D01*
X11363044Y-11297966D02*
X11343996Y-11288442D01*
X11343996Y-11288442D02*
X11315425Y-11288442D01*
X11315425Y-11288442D02*
X11296377Y-11278919D01*
X11296377Y-11278919D02*
X11286854Y-11259871D01*
X11286854Y-11259871D02*
X11286854Y-11250347D01*
X11286854Y-11250347D02*
X11296377Y-11231299D01*
X11296377Y-11231299D02*
X11315425Y-11221776D01*
X11315425Y-11221776D02*
X11343996Y-11221776D01*
X11343996Y-11221776D02*
X11363044Y-11231299D01*
X11439235Y-11431299D02*
X11448758Y-11421776D01*
X11448758Y-11421776D02*
X11467806Y-11393204D01*
X11467806Y-11393204D02*
X11477330Y-11374157D01*
X11477330Y-11374157D02*
X11486854Y-11345585D01*
X11486854Y-11345585D02*
X11496377Y-11297966D01*
X11496377Y-11297966D02*
X11496377Y-11259871D01*
X11496377Y-11259871D02*
X11486854Y-11212252D01*
X11486854Y-11212252D02*
X11477330Y-11183681D01*
X11477330Y-11183681D02*
X11467806Y-11164633D01*
X11467806Y-11164633D02*
X11448758Y-11136061D01*
X11448758Y-11136061D02*
X11439235Y-11126538D01*
X11801139Y-11431299D02*
X11791616Y-11421776D01*
X11791616Y-11421776D02*
X11772568Y-11393204D01*
X11772568Y-11393204D02*
X11763044Y-11374157D01*
X11763044Y-11374157D02*
X11753520Y-11345585D01*
X11753520Y-11345585D02*
X11743997Y-11297966D01*
X11743997Y-11297966D02*
X11743997Y-11259871D01*
X11743997Y-11259871D02*
X11753520Y-11212252D01*
X11753520Y-11212252D02*
X11763044Y-11183681D01*
X11763044Y-11183681D02*
X11772568Y-11164633D01*
X11772568Y-11164633D02*
X11791616Y-11136061D01*
X11791616Y-11136061D02*
X11801139Y-11126538D01*
X11877330Y-11221776D02*
X11877330Y-11355109D01*
X11877330Y-11240823D02*
X11886854Y-11231299D01*
X11886854Y-11231299D02*
X11905901Y-11221776D01*
X11905901Y-11221776D02*
X11934473Y-11221776D01*
X11934473Y-11221776D02*
X11953520Y-11231299D01*
X11953520Y-11231299D02*
X11963044Y-11250347D01*
X11963044Y-11250347D02*
X11963044Y-11355109D01*
X12086854Y-11355109D02*
X12067806Y-11345585D01*
X12067806Y-11345585D02*
X12058282Y-11336061D01*
X12058282Y-11336061D02*
X12048758Y-11317014D01*
X12048758Y-11317014D02*
X12048758Y-11259871D01*
X12048758Y-11259871D02*
X12058282Y-11240823D01*
X12058282Y-11240823D02*
X12067806Y-11231299D01*
X12067806Y-11231299D02*
X12086854Y-11221776D01*
X12086854Y-11221776D02*
X12115425Y-11221776D01*
X12115425Y-11221776D02*
X12134473Y-11231299D01*
X12134473Y-11231299D02*
X12143997Y-11240823D01*
X12143997Y-11240823D02*
X12153520Y-11259871D01*
X12153520Y-11259871D02*
X12153520Y-11317014D01*
X12153520Y-11317014D02*
X12143997Y-11336061D01*
X12143997Y-11336061D02*
X12134473Y-11345585D01*
X12134473Y-11345585D02*
X12115425Y-11355109D01*
X12115425Y-11355109D02*
X12086854Y-11355109D01*
X12210663Y-11221776D02*
X12286854Y-11221776D01*
X12239235Y-11155109D02*
X12239235Y-11326538D01*
X12239235Y-11326538D02*
X12248758Y-11345585D01*
X12248758Y-11345585D02*
X12267806Y-11355109D01*
X12267806Y-11355109D02*
X12286854Y-11355109D01*
X12505901Y-11221776D02*
X12505901Y-11421776D01*
X12505901Y-11231299D02*
X12524949Y-11221776D01*
X12524949Y-11221776D02*
X12563044Y-11221776D01*
X12563044Y-11221776D02*
X12582092Y-11231299D01*
X12582092Y-11231299D02*
X12591616Y-11240823D01*
X12591616Y-11240823D02*
X12601139Y-11259871D01*
X12601139Y-11259871D02*
X12601139Y-11317014D01*
X12601139Y-11317014D02*
X12591616Y-11336061D01*
X12591616Y-11336061D02*
X12582092Y-11345585D01*
X12582092Y-11345585D02*
X12563044Y-11355109D01*
X12563044Y-11355109D02*
X12524949Y-11355109D01*
X12524949Y-11355109D02*
X12505901Y-11345585D01*
X12715425Y-11355109D02*
X12696378Y-11345585D01*
X12696378Y-11345585D02*
X12686854Y-11326538D01*
X12686854Y-11326538D02*
X12686854Y-11155109D01*
X12877330Y-11355109D02*
X12877330Y-11250347D01*
X12877330Y-11250347D02*
X12867806Y-11231299D01*
X12867806Y-11231299D02*
X12848759Y-11221776D01*
X12848759Y-11221776D02*
X12810663Y-11221776D01*
X12810663Y-11221776D02*
X12791616Y-11231299D01*
X12877330Y-11345585D02*
X12858282Y-11355109D01*
X12858282Y-11355109D02*
X12810663Y-11355109D01*
X12810663Y-11355109D02*
X12791616Y-11345585D01*
X12791616Y-11345585D02*
X12782092Y-11326538D01*
X12782092Y-11326538D02*
X12782092Y-11307490D01*
X12782092Y-11307490D02*
X12791616Y-11288442D01*
X12791616Y-11288442D02*
X12810663Y-11278919D01*
X12810663Y-11278919D02*
X12858282Y-11278919D01*
X12858282Y-11278919D02*
X12877330Y-11269395D01*
X12943997Y-11221776D02*
X13020187Y-11221776D01*
X12972568Y-11155109D02*
X12972568Y-11326538D01*
X12972568Y-11326538D02*
X12982092Y-11345585D01*
X12982092Y-11345585D02*
X13001139Y-11355109D01*
X13001139Y-11355109D02*
X13020187Y-11355109D01*
X13163044Y-11345585D02*
X13143997Y-11355109D01*
X13143997Y-11355109D02*
X13105901Y-11355109D01*
X13105901Y-11355109D02*
X13086854Y-11345585D01*
X13086854Y-11345585D02*
X13077330Y-11326538D01*
X13077330Y-11326538D02*
X13077330Y-11250347D01*
X13077330Y-11250347D02*
X13086854Y-11231299D01*
X13086854Y-11231299D02*
X13105901Y-11221776D01*
X13105901Y-11221776D02*
X13143997Y-11221776D01*
X13143997Y-11221776D02*
X13163044Y-11231299D01*
X13163044Y-11231299D02*
X13172568Y-11250347D01*
X13172568Y-11250347D02*
X13172568Y-11269395D01*
X13172568Y-11269395D02*
X13077330Y-11288442D01*
X13343997Y-11355109D02*
X13343997Y-11155109D01*
X13343997Y-11345585D02*
X13324949Y-11355109D01*
X13324949Y-11355109D02*
X13286854Y-11355109D01*
X13286854Y-11355109D02*
X13267806Y-11345585D01*
X13267806Y-11345585D02*
X13258282Y-11336061D01*
X13258282Y-11336061D02*
X13248759Y-11317014D01*
X13248759Y-11317014D02*
X13248759Y-11259871D01*
X13248759Y-11259871D02*
X13258282Y-11240823D01*
X13258282Y-11240823D02*
X13267806Y-11231299D01*
X13267806Y-11231299D02*
X13286854Y-11221776D01*
X13286854Y-11221776D02*
X13324949Y-11221776D01*
X13324949Y-11221776D02*
X13343997Y-11231299D01*
X13420187Y-11431299D02*
X13429711Y-11421776D01*
X13429711Y-11421776D02*
X13448759Y-11393204D01*
X13448759Y-11393204D02*
X13458282Y-11374157D01*
X13458282Y-11374157D02*
X13467806Y-11345585D01*
X13467806Y-11345585D02*
X13477330Y-11297966D01*
X13477330Y-11297966D02*
X13477330Y-11259871D01*
X13477330Y-11259871D02*
X13467806Y-11212252D01*
X13467806Y-11212252D02*
X13458282Y-11183681D01*
X13458282Y-11183681D02*
X13448759Y-11164633D01*
X13448759Y-11164633D02*
X13429711Y-11136061D01*
X13429711Y-11136061D02*
X13420187Y-11126538D01*
D12*
X6664172Y-11527625D02*
G75*
G03*
X6664172Y-11527625I-60000J0D01*
G01*
D10*
X7029710Y-11619109D02*
X6915425Y-11619109D01*
X6972567Y-11619109D02*
X6972567Y-11419109D01*
X6972567Y-11419109D02*
X6953520Y-11447680D01*
X6953520Y-11447680D02*
X6934472Y-11466728D01*
X6934472Y-11466728D02*
X6915425Y-11476252D01*
X7115425Y-11600061D02*
X7124948Y-11609585D01*
X7124948Y-11609585D02*
X7115425Y-11619109D01*
X7115425Y-11619109D02*
X7105901Y-11609585D01*
X7105901Y-11609585D02*
X7115425Y-11600061D01*
X7115425Y-11600061D02*
X7115425Y-11619109D01*
X7201139Y-11438157D02*
X7210663Y-11428633D01*
X7210663Y-11428633D02*
X7229710Y-11419109D01*
X7229710Y-11419109D02*
X7277329Y-11419109D01*
X7277329Y-11419109D02*
X7296377Y-11428633D01*
X7296377Y-11428633D02*
X7305901Y-11438157D01*
X7305901Y-11438157D02*
X7315425Y-11457204D01*
X7315425Y-11457204D02*
X7315425Y-11476252D01*
X7315425Y-11476252D02*
X7305901Y-11504823D01*
X7305901Y-11504823D02*
X7191615Y-11619109D01*
X7191615Y-11619109D02*
X7315425Y-11619109D01*
X7439234Y-11419109D02*
X7458282Y-11419109D01*
X7458282Y-11419109D02*
X7477329Y-11428633D01*
X7477329Y-11428633D02*
X7486853Y-11438157D01*
X7486853Y-11438157D02*
X7496377Y-11457204D01*
X7496377Y-11457204D02*
X7505901Y-11495299D01*
X7505901Y-11495299D02*
X7505901Y-11542919D01*
X7505901Y-11542919D02*
X7496377Y-11581014D01*
X7496377Y-11581014D02*
X7486853Y-11600061D01*
X7486853Y-11600061D02*
X7477329Y-11609585D01*
X7477329Y-11609585D02*
X7458282Y-11619109D01*
X7458282Y-11619109D02*
X7439234Y-11619109D01*
X7439234Y-11619109D02*
X7420187Y-11609585D01*
X7420187Y-11609585D02*
X7410663Y-11600061D01*
X7410663Y-11600061D02*
X7401139Y-11581014D01*
X7401139Y-11581014D02*
X7391615Y-11542919D01*
X7391615Y-11542919D02*
X7391615Y-11495299D01*
X7391615Y-11495299D02*
X7401139Y-11457204D01*
X7401139Y-11457204D02*
X7410663Y-11438157D01*
X7410663Y-11438157D02*
X7420187Y-11428633D01*
X7420187Y-11428633D02*
X7439234Y-11419109D01*
X7629710Y-11419109D02*
X7648758Y-11419109D01*
X7648758Y-11419109D02*
X7667806Y-11428633D01*
X7667806Y-11428633D02*
X7677329Y-11438157D01*
X7677329Y-11438157D02*
X7686853Y-11457204D01*
X7686853Y-11457204D02*
X7696377Y-11495299D01*
X7696377Y-11495299D02*
X7696377Y-11542919D01*
X7696377Y-11542919D02*
X7686853Y-11581014D01*
X7686853Y-11581014D02*
X7677329Y-11600061D01*
X7677329Y-11600061D02*
X7667806Y-11609585D01*
X7667806Y-11609585D02*
X7648758Y-11619109D01*
X7648758Y-11619109D02*
X7629710Y-11619109D01*
X7629710Y-11619109D02*
X7610663Y-11609585D01*
X7610663Y-11609585D02*
X7601139Y-11600061D01*
X7601139Y-11600061D02*
X7591615Y-11581014D01*
X7591615Y-11581014D02*
X7582091Y-11542919D01*
X7582091Y-11542919D02*
X7582091Y-11495299D01*
X7582091Y-11495299D02*
X7591615Y-11457204D01*
X7591615Y-11457204D02*
X7601139Y-11438157D01*
X7601139Y-11438157D02*
X7610663Y-11428633D01*
X7610663Y-11428633D02*
X7629710Y-11419109D01*
X7782091Y-11619109D02*
X7782091Y-11485776D01*
X7782091Y-11504823D02*
X7791615Y-11495299D01*
X7791615Y-11495299D02*
X7810663Y-11485776D01*
X7810663Y-11485776D02*
X7839234Y-11485776D01*
X7839234Y-11485776D02*
X7858282Y-11495299D01*
X7858282Y-11495299D02*
X7867806Y-11514347D01*
X7867806Y-11514347D02*
X7867806Y-11619109D01*
X7867806Y-11514347D02*
X7877329Y-11495299D01*
X7877329Y-11495299D02*
X7896377Y-11485776D01*
X7896377Y-11485776D02*
X7924948Y-11485776D01*
X7924948Y-11485776D02*
X7943996Y-11495299D01*
X7943996Y-11495299D02*
X7953520Y-11514347D01*
X7953520Y-11514347D02*
X7953520Y-11619109D01*
X8048758Y-11619109D02*
X8048758Y-11485776D01*
X8048758Y-11504823D02*
X8058282Y-11495299D01*
X8058282Y-11495299D02*
X8077329Y-11485776D01*
X8077329Y-11485776D02*
X8105901Y-11485776D01*
X8105901Y-11485776D02*
X8124949Y-11495299D01*
X8124949Y-11495299D02*
X8134472Y-11514347D01*
X8134472Y-11514347D02*
X8134472Y-11619109D01*
X8134472Y-11514347D02*
X8143996Y-11495299D01*
X8143996Y-11495299D02*
X8163044Y-11485776D01*
X8163044Y-11485776D02*
X8191615Y-11485776D01*
X8191615Y-11485776D02*
X8210663Y-11495299D01*
X8210663Y-11495299D02*
X8220187Y-11514347D01*
X8220187Y-11514347D02*
X8220187Y-11619109D01*
X8610663Y-11409585D02*
X8439234Y-11666728D01*
X8867806Y-11419109D02*
X8886854Y-11419109D01*
X8886854Y-11419109D02*
X8905901Y-11428633D01*
X8905901Y-11428633D02*
X8915425Y-11438157D01*
X8915425Y-11438157D02*
X8924949Y-11457204D01*
X8924949Y-11457204D02*
X8934473Y-11495299D01*
X8934473Y-11495299D02*
X8934473Y-11542919D01*
X8934473Y-11542919D02*
X8924949Y-11581014D01*
X8924949Y-11581014D02*
X8915425Y-11600061D01*
X8915425Y-11600061D02*
X8905901Y-11609585D01*
X8905901Y-11609585D02*
X8886854Y-11619109D01*
X8886854Y-11619109D02*
X8867806Y-11619109D01*
X8867806Y-11619109D02*
X8848758Y-11609585D01*
X8848758Y-11609585D02*
X8839234Y-11600061D01*
X8839234Y-11600061D02*
X8829711Y-11581014D01*
X8829711Y-11581014D02*
X8820187Y-11542919D01*
X8820187Y-11542919D02*
X8820187Y-11495299D01*
X8820187Y-11495299D02*
X8829711Y-11457204D01*
X8829711Y-11457204D02*
X8839234Y-11438157D01*
X8839234Y-11438157D02*
X8848758Y-11428633D01*
X8848758Y-11428633D02*
X8867806Y-11419109D01*
X9020187Y-11600061D02*
X9029711Y-11609585D01*
X9029711Y-11609585D02*
X9020187Y-11619109D01*
X9020187Y-11619109D02*
X9010663Y-11609585D01*
X9010663Y-11609585D02*
X9020187Y-11600061D01*
X9020187Y-11600061D02*
X9020187Y-11619109D01*
X9153520Y-11419109D02*
X9172568Y-11419109D01*
X9172568Y-11419109D02*
X9191615Y-11428633D01*
X9191615Y-11428633D02*
X9201139Y-11438157D01*
X9201139Y-11438157D02*
X9210663Y-11457204D01*
X9210663Y-11457204D02*
X9220187Y-11495299D01*
X9220187Y-11495299D02*
X9220187Y-11542919D01*
X9220187Y-11542919D02*
X9210663Y-11581014D01*
X9210663Y-11581014D02*
X9201139Y-11600061D01*
X9201139Y-11600061D02*
X9191615Y-11609585D01*
X9191615Y-11609585D02*
X9172568Y-11619109D01*
X9172568Y-11619109D02*
X9153520Y-11619109D01*
X9153520Y-11619109D02*
X9134473Y-11609585D01*
X9134473Y-11609585D02*
X9124949Y-11600061D01*
X9124949Y-11600061D02*
X9115425Y-11581014D01*
X9115425Y-11581014D02*
X9105901Y-11542919D01*
X9105901Y-11542919D02*
X9105901Y-11495299D01*
X9105901Y-11495299D02*
X9115425Y-11457204D01*
X9115425Y-11457204D02*
X9124949Y-11438157D01*
X9124949Y-11438157D02*
X9134473Y-11428633D01*
X9134473Y-11428633D02*
X9153520Y-11419109D01*
X9391615Y-11485776D02*
X9391615Y-11619109D01*
X9343996Y-11409585D02*
X9296377Y-11552442D01*
X9296377Y-11552442D02*
X9420187Y-11552442D01*
X9477330Y-11419109D02*
X9610663Y-11419109D01*
X9610663Y-11419109D02*
X9524949Y-11619109D01*
X9677330Y-11438157D02*
X9686854Y-11428633D01*
X9686854Y-11428633D02*
X9705901Y-11419109D01*
X9705901Y-11419109D02*
X9753520Y-11419109D01*
X9753520Y-11419109D02*
X9772568Y-11428633D01*
X9772568Y-11428633D02*
X9782092Y-11438157D01*
X9782092Y-11438157D02*
X9791615Y-11457204D01*
X9791615Y-11457204D02*
X9791615Y-11476252D01*
X9791615Y-11476252D02*
X9782092Y-11504823D01*
X9782092Y-11504823D02*
X9667806Y-11619109D01*
X9667806Y-11619109D02*
X9791615Y-11619109D01*
X9867806Y-11419109D02*
X9867806Y-11457204D01*
X9943996Y-11419109D02*
X9943996Y-11457204D01*
X10239235Y-11695299D02*
X10229711Y-11685776D01*
X10229711Y-11685776D02*
X10210663Y-11657204D01*
X10210663Y-11657204D02*
X10201139Y-11638157D01*
X10201139Y-11638157D02*
X10191616Y-11609585D01*
X10191616Y-11609585D02*
X10182092Y-11561966D01*
X10182092Y-11561966D02*
X10182092Y-11523871D01*
X10182092Y-11523871D02*
X10191616Y-11476252D01*
X10191616Y-11476252D02*
X10201139Y-11447680D01*
X10201139Y-11447680D02*
X10210663Y-11428633D01*
X10210663Y-11428633D02*
X10229711Y-11400061D01*
X10229711Y-11400061D02*
X10239235Y-11390538D01*
X10305901Y-11438157D02*
X10315425Y-11428633D01*
X10315425Y-11428633D02*
X10334473Y-11419109D01*
X10334473Y-11419109D02*
X10382092Y-11419109D01*
X10382092Y-11419109D02*
X10401139Y-11428633D01*
X10401139Y-11428633D02*
X10410663Y-11438157D01*
X10410663Y-11438157D02*
X10420187Y-11457204D01*
X10420187Y-11457204D02*
X10420187Y-11476252D01*
X10420187Y-11476252D02*
X10410663Y-11504823D01*
X10410663Y-11504823D02*
X10296377Y-11619109D01*
X10296377Y-11619109D02*
X10420187Y-11619109D01*
X10658282Y-11619109D02*
X10658282Y-11419109D01*
X10743997Y-11619109D02*
X10743997Y-11514347D01*
X10743997Y-11514347D02*
X10734473Y-11495299D01*
X10734473Y-11495299D02*
X10715425Y-11485776D01*
X10715425Y-11485776D02*
X10686854Y-11485776D01*
X10686854Y-11485776D02*
X10667806Y-11495299D01*
X10667806Y-11495299D02*
X10658282Y-11504823D01*
X10867806Y-11619109D02*
X10848758Y-11609585D01*
X10848758Y-11609585D02*
X10839235Y-11600061D01*
X10839235Y-11600061D02*
X10829711Y-11581014D01*
X10829711Y-11581014D02*
X10829711Y-11523871D01*
X10829711Y-11523871D02*
X10839235Y-11504823D01*
X10839235Y-11504823D02*
X10848758Y-11495299D01*
X10848758Y-11495299D02*
X10867806Y-11485776D01*
X10867806Y-11485776D02*
X10896378Y-11485776D01*
X10896378Y-11485776D02*
X10915425Y-11495299D01*
X10915425Y-11495299D02*
X10924949Y-11504823D01*
X10924949Y-11504823D02*
X10934473Y-11523871D01*
X10934473Y-11523871D02*
X10934473Y-11581014D01*
X10934473Y-11581014D02*
X10924949Y-11600061D01*
X10924949Y-11600061D02*
X10915425Y-11609585D01*
X10915425Y-11609585D02*
X10896378Y-11619109D01*
X10896378Y-11619109D02*
X10867806Y-11619109D01*
X11048758Y-11619109D02*
X11029711Y-11609585D01*
X11029711Y-11609585D02*
X11020187Y-11590538D01*
X11020187Y-11590538D02*
X11020187Y-11419109D01*
X11201139Y-11609585D02*
X11182092Y-11619109D01*
X11182092Y-11619109D02*
X11143997Y-11619109D01*
X11143997Y-11619109D02*
X11124949Y-11609585D01*
X11124949Y-11609585D02*
X11115425Y-11590538D01*
X11115425Y-11590538D02*
X11115425Y-11514347D01*
X11115425Y-11514347D02*
X11124949Y-11495299D01*
X11124949Y-11495299D02*
X11143997Y-11485776D01*
X11143997Y-11485776D02*
X11182092Y-11485776D01*
X11182092Y-11485776D02*
X11201139Y-11495299D01*
X11201139Y-11495299D02*
X11210663Y-11514347D01*
X11210663Y-11514347D02*
X11210663Y-11533395D01*
X11210663Y-11533395D02*
X11115425Y-11552442D01*
X11286854Y-11609585D02*
X11305901Y-11619109D01*
X11305901Y-11619109D02*
X11343996Y-11619109D01*
X11343996Y-11619109D02*
X11363044Y-11609585D01*
X11363044Y-11609585D02*
X11372568Y-11590538D01*
X11372568Y-11590538D02*
X11372568Y-11581014D01*
X11372568Y-11581014D02*
X11363044Y-11561966D01*
X11363044Y-11561966D02*
X11343996Y-11552442D01*
X11343996Y-11552442D02*
X11315425Y-11552442D01*
X11315425Y-11552442D02*
X11296377Y-11542919D01*
X11296377Y-11542919D02*
X11286854Y-11523871D01*
X11286854Y-11523871D02*
X11286854Y-11514347D01*
X11286854Y-11514347D02*
X11296377Y-11495299D01*
X11296377Y-11495299D02*
X11315425Y-11485776D01*
X11315425Y-11485776D02*
X11343996Y-11485776D01*
X11343996Y-11485776D02*
X11363044Y-11495299D01*
X11439235Y-11695299D02*
X11448758Y-11685776D01*
X11448758Y-11685776D02*
X11467806Y-11657204D01*
X11467806Y-11657204D02*
X11477330Y-11638157D01*
X11477330Y-11638157D02*
X11486854Y-11609585D01*
X11486854Y-11609585D02*
X11496377Y-11561966D01*
X11496377Y-11561966D02*
X11496377Y-11523871D01*
X11496377Y-11523871D02*
X11486854Y-11476252D01*
X11486854Y-11476252D02*
X11477330Y-11447680D01*
X11477330Y-11447680D02*
X11467806Y-11428633D01*
X11467806Y-11428633D02*
X11448758Y-11400061D01*
X11448758Y-11400061D02*
X11439235Y-11390538D01*
X11801139Y-11695299D02*
X11791616Y-11685776D01*
X11791616Y-11685776D02*
X11772568Y-11657204D01*
X11772568Y-11657204D02*
X11763044Y-11638157D01*
X11763044Y-11638157D02*
X11753520Y-11609585D01*
X11753520Y-11609585D02*
X11743997Y-11561966D01*
X11743997Y-11561966D02*
X11743997Y-11523871D01*
X11743997Y-11523871D02*
X11753520Y-11476252D01*
X11753520Y-11476252D02*
X11763044Y-11447680D01*
X11763044Y-11447680D02*
X11772568Y-11428633D01*
X11772568Y-11428633D02*
X11791616Y-11400061D01*
X11791616Y-11400061D02*
X11801139Y-11390538D01*
X11877330Y-11485776D02*
X11877330Y-11619109D01*
X11877330Y-11504823D02*
X11886854Y-11495299D01*
X11886854Y-11495299D02*
X11905901Y-11485776D01*
X11905901Y-11485776D02*
X11934473Y-11485776D01*
X11934473Y-11485776D02*
X11953520Y-11495299D01*
X11953520Y-11495299D02*
X11963044Y-11514347D01*
X11963044Y-11514347D02*
X11963044Y-11619109D01*
X12086854Y-11619109D02*
X12067806Y-11609585D01*
X12067806Y-11609585D02*
X12058282Y-11600061D01*
X12058282Y-11600061D02*
X12048758Y-11581014D01*
X12048758Y-11581014D02*
X12048758Y-11523871D01*
X12048758Y-11523871D02*
X12058282Y-11504823D01*
X12058282Y-11504823D02*
X12067806Y-11495299D01*
X12067806Y-11495299D02*
X12086854Y-11485776D01*
X12086854Y-11485776D02*
X12115425Y-11485776D01*
X12115425Y-11485776D02*
X12134473Y-11495299D01*
X12134473Y-11495299D02*
X12143997Y-11504823D01*
X12143997Y-11504823D02*
X12153520Y-11523871D01*
X12153520Y-11523871D02*
X12153520Y-11581014D01*
X12153520Y-11581014D02*
X12143997Y-11600061D01*
X12143997Y-11600061D02*
X12134473Y-11609585D01*
X12134473Y-11609585D02*
X12115425Y-11619109D01*
X12115425Y-11619109D02*
X12086854Y-11619109D01*
X12210663Y-11485776D02*
X12286854Y-11485776D01*
X12239235Y-11419109D02*
X12239235Y-11590538D01*
X12239235Y-11590538D02*
X12248758Y-11609585D01*
X12248758Y-11609585D02*
X12267806Y-11619109D01*
X12267806Y-11619109D02*
X12286854Y-11619109D01*
X12505901Y-11485776D02*
X12505901Y-11685776D01*
X12505901Y-11495299D02*
X12524949Y-11485776D01*
X12524949Y-11485776D02*
X12563044Y-11485776D01*
X12563044Y-11485776D02*
X12582092Y-11495299D01*
X12582092Y-11495299D02*
X12591616Y-11504823D01*
X12591616Y-11504823D02*
X12601139Y-11523871D01*
X12601139Y-11523871D02*
X12601139Y-11581014D01*
X12601139Y-11581014D02*
X12591616Y-11600061D01*
X12591616Y-11600061D02*
X12582092Y-11609585D01*
X12582092Y-11609585D02*
X12563044Y-11619109D01*
X12563044Y-11619109D02*
X12524949Y-11619109D01*
X12524949Y-11619109D02*
X12505901Y-11609585D01*
X12715425Y-11619109D02*
X12696378Y-11609585D01*
X12696378Y-11609585D02*
X12686854Y-11590538D01*
X12686854Y-11590538D02*
X12686854Y-11419109D01*
X12877330Y-11619109D02*
X12877330Y-11514347D01*
X12877330Y-11514347D02*
X12867806Y-11495299D01*
X12867806Y-11495299D02*
X12848759Y-11485776D01*
X12848759Y-11485776D02*
X12810663Y-11485776D01*
X12810663Y-11485776D02*
X12791616Y-11495299D01*
X12877330Y-11609585D02*
X12858282Y-11619109D01*
X12858282Y-11619109D02*
X12810663Y-11619109D01*
X12810663Y-11619109D02*
X12791616Y-11609585D01*
X12791616Y-11609585D02*
X12782092Y-11590538D01*
X12782092Y-11590538D02*
X12782092Y-11571490D01*
X12782092Y-11571490D02*
X12791616Y-11552442D01*
X12791616Y-11552442D02*
X12810663Y-11542919D01*
X12810663Y-11542919D02*
X12858282Y-11542919D01*
X12858282Y-11542919D02*
X12877330Y-11533395D01*
X12943997Y-11485776D02*
X13020187Y-11485776D01*
X12972568Y-11419109D02*
X12972568Y-11590538D01*
X12972568Y-11590538D02*
X12982092Y-11609585D01*
X12982092Y-11609585D02*
X13001139Y-11619109D01*
X13001139Y-11619109D02*
X13020187Y-11619109D01*
X13163044Y-11609585D02*
X13143997Y-11619109D01*
X13143997Y-11619109D02*
X13105901Y-11619109D01*
X13105901Y-11619109D02*
X13086854Y-11609585D01*
X13086854Y-11609585D02*
X13077330Y-11590538D01*
X13077330Y-11590538D02*
X13077330Y-11514347D01*
X13077330Y-11514347D02*
X13086854Y-11495299D01*
X13086854Y-11495299D02*
X13105901Y-11485776D01*
X13105901Y-11485776D02*
X13143997Y-11485776D01*
X13143997Y-11485776D02*
X13163044Y-11495299D01*
X13163044Y-11495299D02*
X13172568Y-11514347D01*
X13172568Y-11514347D02*
X13172568Y-11533395D01*
X13172568Y-11533395D02*
X13077330Y-11552442D01*
X13343997Y-11619109D02*
X13343997Y-11419109D01*
X13343997Y-11609585D02*
X13324949Y-11619109D01*
X13324949Y-11619109D02*
X13286854Y-11619109D01*
X13286854Y-11619109D02*
X13267806Y-11609585D01*
X13267806Y-11609585D02*
X13258282Y-11600061D01*
X13258282Y-11600061D02*
X13248759Y-11581014D01*
X13248759Y-11581014D02*
X13248759Y-11523871D01*
X13248759Y-11523871D02*
X13258282Y-11504823D01*
X13258282Y-11504823D02*
X13267806Y-11495299D01*
X13267806Y-11495299D02*
X13286854Y-11485776D01*
X13286854Y-11485776D02*
X13324949Y-11485776D01*
X13324949Y-11485776D02*
X13343997Y-11495299D01*
X13420187Y-11695299D02*
X13429711Y-11685776D01*
X13429711Y-11685776D02*
X13448759Y-11657204D01*
X13448759Y-11657204D02*
X13458282Y-11638157D01*
X13458282Y-11638157D02*
X13467806Y-11609585D01*
X13467806Y-11609585D02*
X13477330Y-11561966D01*
X13477330Y-11561966D02*
X13477330Y-11523871D01*
X13477330Y-11523871D02*
X13467806Y-11476252D01*
X13467806Y-11476252D02*
X13458282Y-11447680D01*
X13458282Y-11447680D02*
X13448759Y-11428633D01*
X13448759Y-11428633D02*
X13429711Y-11400061D01*
X13429711Y-11400061D02*
X13420187Y-11390538D01*
M02*
