%TF.GenerationSoftware,KiCad,Pcbnew,7.0.5-4d25ed1034~172~ubuntu22.04.1*%
%TF.CreationDate,2023-06-03T15:02:09+03:00*%
%TF.ProjectId,STM32L475-protoboard,53544d33-324c-4343-9735-2d70726f746f,rev?*%
%TF.SameCoordinates,Original*%
%TF.FileFunction,Drillmap*%
%TF.FilePolarity,Positive*%
%FSLAX45Y45*%
G04 Gerber Fmt 4.5, Leading zero omitted, Abs format (unit mm)*
G04 Created by KiCad (PCBNEW 7.0.5-4d25ed1034~172~ubuntu22.04.1) date 2023-06-03 15:02:09*
%MOMM*%
%LPD*%
G01*
G04 APERTURE LIST*
%ADD10C,0.200000*%
%ADD11C,0.120000*%
G04 APERTURE END LIST*
D10*
X13527391Y-10610474D02*
G75*
G03*
X14046361Y-10147423I21980J497712D01*
G01*
X7200000Y-4928750D02*
X13580000Y-4926250D01*
X7200000Y-4928750D02*
G75*
G03*
X6685000Y-5378750I-21849J-494689D01*
G01*
X7174886Y-10604066D02*
X13527391Y-10610475D01*
X6678514Y-10154383D02*
G75*
G03*
X7174886Y-10604066I494387J46921D01*
G01*
X14046361Y-10147423D02*
X14043052Y-5445220D01*
X14043052Y-5445220D02*
G75*
G03*
X13580000Y-4926250I-497712J21980D01*
G01*
X6678513Y-10154383D02*
X6685000Y-5378750D01*
D11*
X11785000Y-9997500D02*
X11905000Y-10117500D01*
X11905000Y-9997500D02*
X11785000Y-10117500D01*
X12585000Y-9997500D02*
X12705000Y-10117500D01*
X12705000Y-9997500D02*
X12585000Y-10117500D01*
D10*
X6929290Y-10932443D02*
X6929290Y-10732443D01*
X6929290Y-10732443D02*
X6976909Y-10732443D01*
X6976909Y-10732443D02*
X7005481Y-10741967D01*
X7005481Y-10741967D02*
X7024528Y-10761015D01*
X7024528Y-10761015D02*
X7034052Y-10780062D01*
X7034052Y-10780062D02*
X7043576Y-10818158D01*
X7043576Y-10818158D02*
X7043576Y-10846729D01*
X7043576Y-10846729D02*
X7034052Y-10884824D01*
X7034052Y-10884824D02*
X7024528Y-10903872D01*
X7024528Y-10903872D02*
X7005481Y-10922920D01*
X7005481Y-10922920D02*
X6976909Y-10932443D01*
X6976909Y-10932443D02*
X6929290Y-10932443D01*
X7129290Y-10932443D02*
X7129290Y-10799110D01*
X7129290Y-10837205D02*
X7138814Y-10818158D01*
X7138814Y-10818158D02*
X7148338Y-10808634D01*
X7148338Y-10808634D02*
X7167385Y-10799110D01*
X7167385Y-10799110D02*
X7186433Y-10799110D01*
X7253100Y-10932443D02*
X7253100Y-10799110D01*
X7253100Y-10732443D02*
X7243576Y-10741967D01*
X7243576Y-10741967D02*
X7253100Y-10751491D01*
X7253100Y-10751491D02*
X7262624Y-10741967D01*
X7262624Y-10741967D02*
X7253100Y-10732443D01*
X7253100Y-10732443D02*
X7253100Y-10751491D01*
X7376909Y-10932443D02*
X7357862Y-10922920D01*
X7357862Y-10922920D02*
X7348338Y-10903872D01*
X7348338Y-10903872D02*
X7348338Y-10732443D01*
X7481671Y-10932443D02*
X7462624Y-10922920D01*
X7462624Y-10922920D02*
X7453100Y-10903872D01*
X7453100Y-10903872D02*
X7453100Y-10732443D01*
X7710243Y-10932443D02*
X7710243Y-10732443D01*
X7710243Y-10732443D02*
X7776909Y-10875300D01*
X7776909Y-10875300D02*
X7843576Y-10732443D01*
X7843576Y-10732443D02*
X7843576Y-10932443D01*
X8024528Y-10932443D02*
X8024528Y-10827681D01*
X8024528Y-10827681D02*
X8015005Y-10808634D01*
X8015005Y-10808634D02*
X7995957Y-10799110D01*
X7995957Y-10799110D02*
X7957862Y-10799110D01*
X7957862Y-10799110D02*
X7938814Y-10808634D01*
X8024528Y-10922920D02*
X8005481Y-10932443D01*
X8005481Y-10932443D02*
X7957862Y-10932443D01*
X7957862Y-10932443D02*
X7938814Y-10922920D01*
X7938814Y-10922920D02*
X7929290Y-10903872D01*
X7929290Y-10903872D02*
X7929290Y-10884824D01*
X7929290Y-10884824D02*
X7938814Y-10865777D01*
X7938814Y-10865777D02*
X7957862Y-10856253D01*
X7957862Y-10856253D02*
X8005481Y-10856253D01*
X8005481Y-10856253D02*
X8024528Y-10846729D01*
X8119766Y-10799110D02*
X8119766Y-10999110D01*
X8119766Y-10808634D02*
X8138814Y-10799110D01*
X8138814Y-10799110D02*
X8176909Y-10799110D01*
X8176909Y-10799110D02*
X8195957Y-10808634D01*
X8195957Y-10808634D02*
X8205481Y-10818158D01*
X8205481Y-10818158D02*
X8215005Y-10837205D01*
X8215005Y-10837205D02*
X8215005Y-10894348D01*
X8215005Y-10894348D02*
X8205481Y-10913396D01*
X8205481Y-10913396D02*
X8195957Y-10922920D01*
X8195957Y-10922920D02*
X8176909Y-10932443D01*
X8176909Y-10932443D02*
X8138814Y-10932443D01*
X8138814Y-10932443D02*
X8119766Y-10922920D01*
X8300719Y-10913396D02*
X8310243Y-10922920D01*
X8310243Y-10922920D02*
X8300719Y-10932443D01*
X8300719Y-10932443D02*
X8291195Y-10922920D01*
X8291195Y-10922920D02*
X8300719Y-10913396D01*
X8300719Y-10913396D02*
X8300719Y-10932443D01*
X8300719Y-10808634D02*
X8310243Y-10818158D01*
X8310243Y-10818158D02*
X8300719Y-10827681D01*
X8300719Y-10827681D02*
X8291195Y-10818158D01*
X8291195Y-10818158D02*
X8300719Y-10808634D01*
X8300719Y-10808634D02*
X8300719Y-10827681D01*
D11*
X6548513Y-11200959D02*
X6668513Y-11320959D01*
X6668513Y-11200959D02*
X6548513Y-11320959D01*
D10*
X7034052Y-11352443D02*
X6919766Y-11352443D01*
X6976909Y-11352443D02*
X6976909Y-11152443D01*
X6976909Y-11152443D02*
X6957862Y-11181015D01*
X6957862Y-11181015D02*
X6938814Y-11200062D01*
X6938814Y-11200062D02*
X6919766Y-11209586D01*
X7119766Y-11333396D02*
X7129290Y-11342919D01*
X7129290Y-11342919D02*
X7119766Y-11352443D01*
X7119766Y-11352443D02*
X7110243Y-11342919D01*
X7110243Y-11342919D02*
X7119766Y-11333396D01*
X7119766Y-11333396D02*
X7119766Y-11352443D01*
X7205481Y-11171491D02*
X7215005Y-11161967D01*
X7215005Y-11161967D02*
X7234052Y-11152443D01*
X7234052Y-11152443D02*
X7281671Y-11152443D01*
X7281671Y-11152443D02*
X7300719Y-11161967D01*
X7300719Y-11161967D02*
X7310243Y-11171491D01*
X7310243Y-11171491D02*
X7319766Y-11190538D01*
X7319766Y-11190538D02*
X7319766Y-11209586D01*
X7319766Y-11209586D02*
X7310243Y-11238157D01*
X7310243Y-11238157D02*
X7195957Y-11352443D01*
X7195957Y-11352443D02*
X7319766Y-11352443D01*
X7443576Y-11152443D02*
X7462624Y-11152443D01*
X7462624Y-11152443D02*
X7481671Y-11161967D01*
X7481671Y-11161967D02*
X7491195Y-11171491D01*
X7491195Y-11171491D02*
X7500719Y-11190538D01*
X7500719Y-11190538D02*
X7510243Y-11228634D01*
X7510243Y-11228634D02*
X7510243Y-11276253D01*
X7510243Y-11276253D02*
X7500719Y-11314348D01*
X7500719Y-11314348D02*
X7491195Y-11333396D01*
X7491195Y-11333396D02*
X7481671Y-11342919D01*
X7481671Y-11342919D02*
X7462624Y-11352443D01*
X7462624Y-11352443D02*
X7443576Y-11352443D01*
X7443576Y-11352443D02*
X7424528Y-11342919D01*
X7424528Y-11342919D02*
X7415005Y-11333396D01*
X7415005Y-11333396D02*
X7405481Y-11314348D01*
X7405481Y-11314348D02*
X7395957Y-11276253D01*
X7395957Y-11276253D02*
X7395957Y-11228634D01*
X7395957Y-11228634D02*
X7405481Y-11190538D01*
X7405481Y-11190538D02*
X7415005Y-11171491D01*
X7415005Y-11171491D02*
X7424528Y-11161967D01*
X7424528Y-11161967D02*
X7443576Y-11152443D01*
X7634052Y-11152443D02*
X7653100Y-11152443D01*
X7653100Y-11152443D02*
X7672147Y-11161967D01*
X7672147Y-11161967D02*
X7681671Y-11171491D01*
X7681671Y-11171491D02*
X7691195Y-11190538D01*
X7691195Y-11190538D02*
X7700719Y-11228634D01*
X7700719Y-11228634D02*
X7700719Y-11276253D01*
X7700719Y-11276253D02*
X7691195Y-11314348D01*
X7691195Y-11314348D02*
X7681671Y-11333396D01*
X7681671Y-11333396D02*
X7672147Y-11342919D01*
X7672147Y-11342919D02*
X7653100Y-11352443D01*
X7653100Y-11352443D02*
X7634052Y-11352443D01*
X7634052Y-11352443D02*
X7615005Y-11342919D01*
X7615005Y-11342919D02*
X7605481Y-11333396D01*
X7605481Y-11333396D02*
X7595957Y-11314348D01*
X7595957Y-11314348D02*
X7586433Y-11276253D01*
X7586433Y-11276253D02*
X7586433Y-11228634D01*
X7586433Y-11228634D02*
X7595957Y-11190538D01*
X7595957Y-11190538D02*
X7605481Y-11171491D01*
X7605481Y-11171491D02*
X7615005Y-11161967D01*
X7615005Y-11161967D02*
X7634052Y-11152443D01*
X7786433Y-11352443D02*
X7786433Y-11219110D01*
X7786433Y-11238157D02*
X7795957Y-11228634D01*
X7795957Y-11228634D02*
X7815005Y-11219110D01*
X7815005Y-11219110D02*
X7843576Y-11219110D01*
X7843576Y-11219110D02*
X7862624Y-11228634D01*
X7862624Y-11228634D02*
X7872147Y-11247681D01*
X7872147Y-11247681D02*
X7872147Y-11352443D01*
X7872147Y-11247681D02*
X7881671Y-11228634D01*
X7881671Y-11228634D02*
X7900719Y-11219110D01*
X7900719Y-11219110D02*
X7929290Y-11219110D01*
X7929290Y-11219110D02*
X7948338Y-11228634D01*
X7948338Y-11228634D02*
X7957862Y-11247681D01*
X7957862Y-11247681D02*
X7957862Y-11352443D01*
X8053100Y-11352443D02*
X8053100Y-11219110D01*
X8053100Y-11238157D02*
X8062624Y-11228634D01*
X8062624Y-11228634D02*
X8081671Y-11219110D01*
X8081671Y-11219110D02*
X8110243Y-11219110D01*
X8110243Y-11219110D02*
X8129290Y-11228634D01*
X8129290Y-11228634D02*
X8138814Y-11247681D01*
X8138814Y-11247681D02*
X8138814Y-11352443D01*
X8138814Y-11247681D02*
X8148338Y-11228634D01*
X8148338Y-11228634D02*
X8167386Y-11219110D01*
X8167386Y-11219110D02*
X8195957Y-11219110D01*
X8195957Y-11219110D02*
X8215005Y-11228634D01*
X8215005Y-11228634D02*
X8224528Y-11247681D01*
X8224528Y-11247681D02*
X8224528Y-11352443D01*
X8615005Y-11142920D02*
X8443576Y-11400062D01*
X8872148Y-11152443D02*
X8891195Y-11152443D01*
X8891195Y-11152443D02*
X8910243Y-11161967D01*
X8910243Y-11161967D02*
X8919767Y-11171491D01*
X8919767Y-11171491D02*
X8929291Y-11190538D01*
X8929291Y-11190538D02*
X8938814Y-11228634D01*
X8938814Y-11228634D02*
X8938814Y-11276253D01*
X8938814Y-11276253D02*
X8929291Y-11314348D01*
X8929291Y-11314348D02*
X8919767Y-11333396D01*
X8919767Y-11333396D02*
X8910243Y-11342919D01*
X8910243Y-11342919D02*
X8891195Y-11352443D01*
X8891195Y-11352443D02*
X8872148Y-11352443D01*
X8872148Y-11352443D02*
X8853100Y-11342919D01*
X8853100Y-11342919D02*
X8843576Y-11333396D01*
X8843576Y-11333396D02*
X8834052Y-11314348D01*
X8834052Y-11314348D02*
X8824529Y-11276253D01*
X8824529Y-11276253D02*
X8824529Y-11228634D01*
X8824529Y-11228634D02*
X8834052Y-11190538D01*
X8834052Y-11190538D02*
X8843576Y-11171491D01*
X8843576Y-11171491D02*
X8853100Y-11161967D01*
X8853100Y-11161967D02*
X8872148Y-11152443D01*
X9024529Y-11333396D02*
X9034052Y-11342919D01*
X9034052Y-11342919D02*
X9024529Y-11352443D01*
X9024529Y-11352443D02*
X9015005Y-11342919D01*
X9015005Y-11342919D02*
X9024529Y-11333396D01*
X9024529Y-11333396D02*
X9024529Y-11352443D01*
X9157862Y-11152443D02*
X9176910Y-11152443D01*
X9176910Y-11152443D02*
X9195957Y-11161967D01*
X9195957Y-11161967D02*
X9205481Y-11171491D01*
X9205481Y-11171491D02*
X9215005Y-11190538D01*
X9215005Y-11190538D02*
X9224529Y-11228634D01*
X9224529Y-11228634D02*
X9224529Y-11276253D01*
X9224529Y-11276253D02*
X9215005Y-11314348D01*
X9215005Y-11314348D02*
X9205481Y-11333396D01*
X9205481Y-11333396D02*
X9195957Y-11342919D01*
X9195957Y-11342919D02*
X9176910Y-11352443D01*
X9176910Y-11352443D02*
X9157862Y-11352443D01*
X9157862Y-11352443D02*
X9138814Y-11342919D01*
X9138814Y-11342919D02*
X9129291Y-11333396D01*
X9129291Y-11333396D02*
X9119767Y-11314348D01*
X9119767Y-11314348D02*
X9110243Y-11276253D01*
X9110243Y-11276253D02*
X9110243Y-11228634D01*
X9110243Y-11228634D02*
X9119767Y-11190538D01*
X9119767Y-11190538D02*
X9129291Y-11171491D01*
X9129291Y-11171491D02*
X9138814Y-11161967D01*
X9138814Y-11161967D02*
X9157862Y-11152443D01*
X9395957Y-11219110D02*
X9395957Y-11352443D01*
X9348338Y-11142920D02*
X9300719Y-11285777D01*
X9300719Y-11285777D02*
X9424529Y-11285777D01*
X9481672Y-11152443D02*
X9615005Y-11152443D01*
X9615005Y-11152443D02*
X9529291Y-11352443D01*
X9681672Y-11171491D02*
X9691195Y-11161967D01*
X9691195Y-11161967D02*
X9710243Y-11152443D01*
X9710243Y-11152443D02*
X9757862Y-11152443D01*
X9757862Y-11152443D02*
X9776910Y-11161967D01*
X9776910Y-11161967D02*
X9786433Y-11171491D01*
X9786433Y-11171491D02*
X9795957Y-11190538D01*
X9795957Y-11190538D02*
X9795957Y-11209586D01*
X9795957Y-11209586D02*
X9786433Y-11238157D01*
X9786433Y-11238157D02*
X9672148Y-11352443D01*
X9672148Y-11352443D02*
X9795957Y-11352443D01*
X9872148Y-11152443D02*
X9872148Y-11190538D01*
X9948338Y-11152443D02*
X9948338Y-11190538D01*
X10243576Y-11428634D02*
X10234053Y-11419110D01*
X10234053Y-11419110D02*
X10215005Y-11390538D01*
X10215005Y-11390538D02*
X10205481Y-11371491D01*
X10205481Y-11371491D02*
X10195957Y-11342919D01*
X10195957Y-11342919D02*
X10186434Y-11295300D01*
X10186434Y-11295300D02*
X10186434Y-11257205D01*
X10186434Y-11257205D02*
X10195957Y-11209586D01*
X10195957Y-11209586D02*
X10205481Y-11181015D01*
X10205481Y-11181015D02*
X10215005Y-11161967D01*
X10215005Y-11161967D02*
X10234053Y-11133396D01*
X10234053Y-11133396D02*
X10243576Y-11123872D01*
X10310243Y-11171491D02*
X10319767Y-11161967D01*
X10319767Y-11161967D02*
X10338814Y-11152443D01*
X10338814Y-11152443D02*
X10386434Y-11152443D01*
X10386434Y-11152443D02*
X10405481Y-11161967D01*
X10405481Y-11161967D02*
X10415005Y-11171491D01*
X10415005Y-11171491D02*
X10424529Y-11190538D01*
X10424529Y-11190538D02*
X10424529Y-11209586D01*
X10424529Y-11209586D02*
X10415005Y-11238157D01*
X10415005Y-11238157D02*
X10300719Y-11352443D01*
X10300719Y-11352443D02*
X10424529Y-11352443D01*
X10662624Y-11352443D02*
X10662624Y-11152443D01*
X10748338Y-11352443D02*
X10748338Y-11247681D01*
X10748338Y-11247681D02*
X10738815Y-11228634D01*
X10738815Y-11228634D02*
X10719767Y-11219110D01*
X10719767Y-11219110D02*
X10691195Y-11219110D01*
X10691195Y-11219110D02*
X10672148Y-11228634D01*
X10672148Y-11228634D02*
X10662624Y-11238157D01*
X10872148Y-11352443D02*
X10853100Y-11342919D01*
X10853100Y-11342919D02*
X10843576Y-11333396D01*
X10843576Y-11333396D02*
X10834053Y-11314348D01*
X10834053Y-11314348D02*
X10834053Y-11257205D01*
X10834053Y-11257205D02*
X10843576Y-11238157D01*
X10843576Y-11238157D02*
X10853100Y-11228634D01*
X10853100Y-11228634D02*
X10872148Y-11219110D01*
X10872148Y-11219110D02*
X10900719Y-11219110D01*
X10900719Y-11219110D02*
X10919767Y-11228634D01*
X10919767Y-11228634D02*
X10929291Y-11238157D01*
X10929291Y-11238157D02*
X10938815Y-11257205D01*
X10938815Y-11257205D02*
X10938815Y-11314348D01*
X10938815Y-11314348D02*
X10929291Y-11333396D01*
X10929291Y-11333396D02*
X10919767Y-11342919D01*
X10919767Y-11342919D02*
X10900719Y-11352443D01*
X10900719Y-11352443D02*
X10872148Y-11352443D01*
X11053100Y-11352443D02*
X11034053Y-11342919D01*
X11034053Y-11342919D02*
X11024529Y-11323872D01*
X11024529Y-11323872D02*
X11024529Y-11152443D01*
X11205481Y-11342919D02*
X11186434Y-11352443D01*
X11186434Y-11352443D02*
X11148338Y-11352443D01*
X11148338Y-11352443D02*
X11129291Y-11342919D01*
X11129291Y-11342919D02*
X11119767Y-11323872D01*
X11119767Y-11323872D02*
X11119767Y-11247681D01*
X11119767Y-11247681D02*
X11129291Y-11228634D01*
X11129291Y-11228634D02*
X11148338Y-11219110D01*
X11148338Y-11219110D02*
X11186434Y-11219110D01*
X11186434Y-11219110D02*
X11205481Y-11228634D01*
X11205481Y-11228634D02*
X11215005Y-11247681D01*
X11215005Y-11247681D02*
X11215005Y-11266729D01*
X11215005Y-11266729D02*
X11119767Y-11285777D01*
X11291195Y-11342919D02*
X11310243Y-11352443D01*
X11310243Y-11352443D02*
X11348338Y-11352443D01*
X11348338Y-11352443D02*
X11367386Y-11342919D01*
X11367386Y-11342919D02*
X11376910Y-11323872D01*
X11376910Y-11323872D02*
X11376910Y-11314348D01*
X11376910Y-11314348D02*
X11367386Y-11295300D01*
X11367386Y-11295300D02*
X11348338Y-11285777D01*
X11348338Y-11285777D02*
X11319767Y-11285777D01*
X11319767Y-11285777D02*
X11300719Y-11276253D01*
X11300719Y-11276253D02*
X11291195Y-11257205D01*
X11291195Y-11257205D02*
X11291195Y-11247681D01*
X11291195Y-11247681D02*
X11300719Y-11228634D01*
X11300719Y-11228634D02*
X11319767Y-11219110D01*
X11319767Y-11219110D02*
X11348338Y-11219110D01*
X11348338Y-11219110D02*
X11367386Y-11228634D01*
X11443576Y-11428634D02*
X11453100Y-11419110D01*
X11453100Y-11419110D02*
X11472148Y-11390538D01*
X11472148Y-11390538D02*
X11481672Y-11371491D01*
X11481672Y-11371491D02*
X11491195Y-11342919D01*
X11491195Y-11342919D02*
X11500719Y-11295300D01*
X11500719Y-11295300D02*
X11500719Y-11257205D01*
X11500719Y-11257205D02*
X11491195Y-11209586D01*
X11491195Y-11209586D02*
X11481672Y-11181015D01*
X11481672Y-11181015D02*
X11472148Y-11161967D01*
X11472148Y-11161967D02*
X11453100Y-11133396D01*
X11453100Y-11133396D02*
X11443576Y-11123872D01*
X11805481Y-11428634D02*
X11795957Y-11419110D01*
X11795957Y-11419110D02*
X11776910Y-11390538D01*
X11776910Y-11390538D02*
X11767386Y-11371491D01*
X11767386Y-11371491D02*
X11757862Y-11342919D01*
X11757862Y-11342919D02*
X11748338Y-11295300D01*
X11748338Y-11295300D02*
X11748338Y-11257205D01*
X11748338Y-11257205D02*
X11757862Y-11209586D01*
X11757862Y-11209586D02*
X11767386Y-11181015D01*
X11767386Y-11181015D02*
X11776910Y-11161967D01*
X11776910Y-11161967D02*
X11795957Y-11133396D01*
X11795957Y-11133396D02*
X11805481Y-11123872D01*
X11881672Y-11219110D02*
X11881672Y-11352443D01*
X11881672Y-11238157D02*
X11891195Y-11228634D01*
X11891195Y-11228634D02*
X11910243Y-11219110D01*
X11910243Y-11219110D02*
X11938815Y-11219110D01*
X11938815Y-11219110D02*
X11957862Y-11228634D01*
X11957862Y-11228634D02*
X11967386Y-11247681D01*
X11967386Y-11247681D02*
X11967386Y-11352443D01*
X12091195Y-11352443D02*
X12072148Y-11342919D01*
X12072148Y-11342919D02*
X12062624Y-11333396D01*
X12062624Y-11333396D02*
X12053100Y-11314348D01*
X12053100Y-11314348D02*
X12053100Y-11257205D01*
X12053100Y-11257205D02*
X12062624Y-11238157D01*
X12062624Y-11238157D02*
X12072148Y-11228634D01*
X12072148Y-11228634D02*
X12091195Y-11219110D01*
X12091195Y-11219110D02*
X12119767Y-11219110D01*
X12119767Y-11219110D02*
X12138815Y-11228634D01*
X12138815Y-11228634D02*
X12148338Y-11238157D01*
X12148338Y-11238157D02*
X12157862Y-11257205D01*
X12157862Y-11257205D02*
X12157862Y-11314348D01*
X12157862Y-11314348D02*
X12148338Y-11333396D01*
X12148338Y-11333396D02*
X12138815Y-11342919D01*
X12138815Y-11342919D02*
X12119767Y-11352443D01*
X12119767Y-11352443D02*
X12091195Y-11352443D01*
X12215005Y-11219110D02*
X12291195Y-11219110D01*
X12243576Y-11152443D02*
X12243576Y-11323872D01*
X12243576Y-11323872D02*
X12253100Y-11342919D01*
X12253100Y-11342919D02*
X12272148Y-11352443D01*
X12272148Y-11352443D02*
X12291195Y-11352443D01*
X12510243Y-11219110D02*
X12510243Y-11419110D01*
X12510243Y-11228634D02*
X12529291Y-11219110D01*
X12529291Y-11219110D02*
X12567386Y-11219110D01*
X12567386Y-11219110D02*
X12586434Y-11228634D01*
X12586434Y-11228634D02*
X12595957Y-11238157D01*
X12595957Y-11238157D02*
X12605481Y-11257205D01*
X12605481Y-11257205D02*
X12605481Y-11314348D01*
X12605481Y-11314348D02*
X12595957Y-11333396D01*
X12595957Y-11333396D02*
X12586434Y-11342919D01*
X12586434Y-11342919D02*
X12567386Y-11352443D01*
X12567386Y-11352443D02*
X12529291Y-11352443D01*
X12529291Y-11352443D02*
X12510243Y-11342919D01*
X12719767Y-11352443D02*
X12700719Y-11342919D01*
X12700719Y-11342919D02*
X12691196Y-11323872D01*
X12691196Y-11323872D02*
X12691196Y-11152443D01*
X12881672Y-11352443D02*
X12881672Y-11247681D01*
X12881672Y-11247681D02*
X12872148Y-11228634D01*
X12872148Y-11228634D02*
X12853100Y-11219110D01*
X12853100Y-11219110D02*
X12815005Y-11219110D01*
X12815005Y-11219110D02*
X12795957Y-11228634D01*
X12881672Y-11342919D02*
X12862624Y-11352443D01*
X12862624Y-11352443D02*
X12815005Y-11352443D01*
X12815005Y-11352443D02*
X12795957Y-11342919D01*
X12795957Y-11342919D02*
X12786434Y-11323872D01*
X12786434Y-11323872D02*
X12786434Y-11304824D01*
X12786434Y-11304824D02*
X12795957Y-11285777D01*
X12795957Y-11285777D02*
X12815005Y-11276253D01*
X12815005Y-11276253D02*
X12862624Y-11276253D01*
X12862624Y-11276253D02*
X12881672Y-11266729D01*
X12948338Y-11219110D02*
X13024529Y-11219110D01*
X12976910Y-11152443D02*
X12976910Y-11323872D01*
X12976910Y-11323872D02*
X12986434Y-11342919D01*
X12986434Y-11342919D02*
X13005481Y-11352443D01*
X13005481Y-11352443D02*
X13024529Y-11352443D01*
X13167386Y-11342919D02*
X13148338Y-11352443D01*
X13148338Y-11352443D02*
X13110243Y-11352443D01*
X13110243Y-11352443D02*
X13091196Y-11342919D01*
X13091196Y-11342919D02*
X13081672Y-11323872D01*
X13081672Y-11323872D02*
X13081672Y-11247681D01*
X13081672Y-11247681D02*
X13091196Y-11228634D01*
X13091196Y-11228634D02*
X13110243Y-11219110D01*
X13110243Y-11219110D02*
X13148338Y-11219110D01*
X13148338Y-11219110D02*
X13167386Y-11228634D01*
X13167386Y-11228634D02*
X13176910Y-11247681D01*
X13176910Y-11247681D02*
X13176910Y-11266729D01*
X13176910Y-11266729D02*
X13081672Y-11285777D01*
X13348338Y-11352443D02*
X13348338Y-11152443D01*
X13348338Y-11342919D02*
X13329291Y-11352443D01*
X13329291Y-11352443D02*
X13291196Y-11352443D01*
X13291196Y-11352443D02*
X13272148Y-11342919D01*
X13272148Y-11342919D02*
X13262624Y-11333396D01*
X13262624Y-11333396D02*
X13253100Y-11314348D01*
X13253100Y-11314348D02*
X13253100Y-11257205D01*
X13253100Y-11257205D02*
X13262624Y-11238157D01*
X13262624Y-11238157D02*
X13272148Y-11228634D01*
X13272148Y-11228634D02*
X13291196Y-11219110D01*
X13291196Y-11219110D02*
X13329291Y-11219110D01*
X13329291Y-11219110D02*
X13348338Y-11228634D01*
X13424529Y-11428634D02*
X13434053Y-11419110D01*
X13434053Y-11419110D02*
X13453100Y-11390538D01*
X13453100Y-11390538D02*
X13462624Y-11371491D01*
X13462624Y-11371491D02*
X13472148Y-11342919D01*
X13472148Y-11342919D02*
X13481672Y-11295300D01*
X13481672Y-11295300D02*
X13481672Y-11257205D01*
X13481672Y-11257205D02*
X13472148Y-11209586D01*
X13472148Y-11209586D02*
X13462624Y-11181015D01*
X13462624Y-11181015D02*
X13453100Y-11161967D01*
X13453100Y-11161967D02*
X13434053Y-11133396D01*
X13434053Y-11133396D02*
X13424529Y-11123872D01*
M02*
