%TF.GenerationSoftware,KiCad,Pcbnew,7.0.5-4d25ed1034~172~ubuntu22.04.1*%
%TF.CreationDate,2023-06-03T15:02:09+03:00*%
%TF.ProjectId,STM32L475-protoboard,53544d33-324c-4343-9735-2d70726f746f,rev?*%
%TF.SameCoordinates,Original*%
%TF.FileFunction,Drillmap*%
%TF.FilePolarity,Positive*%
%FSLAX45Y45*%
G04 Gerber Fmt 4.5, Leading zero omitted, Abs format (unit mm)*
G04 Created by KiCad (PCBNEW 7.0.5-4d25ed1034~172~ubuntu22.04.1) date 2023-06-03 15:02:09*
%MOMM*%
%LPD*%
G01*
G04 APERTURE LIST*
%ADD10C,0.200000*%
%ADD11C,0.040000*%
%ADD12C,0.059999*%
%ADD13C,0.060000*%
%ADD14C,0.080000*%
%ADD15C,0.100000*%
%ADD16C,0.110000*%
%ADD17C,0.220000*%
%ADD18C,0.320000*%
G04 APERTURE END LIST*
D10*
X13527391Y-10610474D02*
G75*
G03*
X14046361Y-10147423I21980J497712D01*
G01*
X7200000Y-4928750D02*
X13580000Y-4926250D01*
X7200000Y-4928750D02*
G75*
G03*
X6685000Y-5378750I-21849J-494689D01*
G01*
X7174886Y-10604066D02*
X13527391Y-10610475D01*
X6678514Y-10154383D02*
G75*
G03*
X7174886Y-10604066I494387J46921D01*
G01*
X14046361Y-10147423D02*
X14043052Y-5445220D01*
X14043052Y-5445220D02*
G75*
G03*
X13580000Y-4926250I-497712J21980D01*
G01*
X6678513Y-10154383D02*
X6685000Y-5378750D01*
D11*
X6710000Y-8727500D02*
X6750000Y-8767500D01*
X6750000Y-8727500D02*
X6710000Y-8767500D01*
X6710000Y-9057500D02*
X6750000Y-9097500D01*
X6750000Y-9057500D02*
X6710000Y-9097500D01*
X6770000Y-9762500D02*
X6810000Y-9802500D01*
X6810000Y-9762500D02*
X6770000Y-9802500D01*
X6785000Y-6882500D02*
X6825000Y-6922500D01*
X6825000Y-6882500D02*
X6785000Y-6922500D01*
X6790000Y-6217500D02*
X6830000Y-6257500D01*
X6830000Y-6217500D02*
X6790000Y-6257500D01*
X6790000Y-6482500D02*
X6830000Y-6522500D01*
X6830000Y-6482500D02*
X6790000Y-6522500D01*
X6790000Y-6685000D02*
X6830000Y-6725000D01*
X6830000Y-6685000D02*
X6790000Y-6725000D01*
X6810000Y-5920000D02*
X6850000Y-5960000D01*
X6850000Y-5920000D02*
X6810000Y-5960000D01*
X6810000Y-7382500D02*
X6850000Y-7422500D01*
X6850000Y-7382500D02*
X6810000Y-7422500D01*
X6810000Y-8300000D02*
X6850000Y-8340000D01*
X6850000Y-8300000D02*
X6810000Y-8340000D01*
X7050000Y-7352500D02*
X7090000Y-7392500D01*
X7090000Y-7352500D02*
X7050000Y-7392500D01*
X7070000Y-8250000D02*
X7110000Y-8290000D01*
X7110000Y-8250000D02*
X7070000Y-8290000D01*
X7085000Y-6252500D02*
X7125000Y-6292500D01*
X7125000Y-6252500D02*
X7085000Y-6292500D01*
X7085000Y-6752500D02*
X7125000Y-6792500D01*
X7125000Y-6752500D02*
X7085000Y-6792500D01*
X7095000Y-9287500D02*
X7135000Y-9327500D01*
X7135000Y-9287500D02*
X7095000Y-9327500D01*
X7175000Y-8187500D02*
X7215000Y-8227500D01*
X7215000Y-8187500D02*
X7175000Y-8227500D01*
X7200000Y-8410000D02*
X7240000Y-8450000D01*
X7240000Y-8410000D02*
X7200000Y-8450000D01*
X7200000Y-8700000D02*
X7240000Y-8740000D01*
X7240000Y-8700000D02*
X7200000Y-8740000D01*
X7210000Y-9070000D02*
X7250000Y-9110000D01*
X7250000Y-9070000D02*
X7210000Y-9110000D01*
X7225000Y-7405000D02*
X7265000Y-7445000D01*
X7265000Y-7405000D02*
X7225000Y-7445000D01*
X7265000Y-8042500D02*
X7305000Y-8082500D01*
X7305000Y-8042500D02*
X7265000Y-8082500D01*
X7325000Y-6492500D02*
X7365000Y-6532500D01*
X7365000Y-6492500D02*
X7325000Y-6532500D01*
X7400000Y-5052500D02*
X7440000Y-5092500D01*
X7440000Y-5052500D02*
X7400000Y-5092500D01*
X7456250Y-5573500D02*
X7496250Y-5613500D01*
X7496250Y-5573500D02*
X7456250Y-5613500D01*
X7490000Y-9080000D02*
X7530000Y-9120000D01*
X7530000Y-9080000D02*
X7490000Y-9120000D01*
X7500000Y-9877500D02*
X7540000Y-9917500D01*
X7540000Y-9877500D02*
X7500000Y-9917500D01*
X7520000Y-10397500D02*
X7560000Y-10437500D01*
X7560000Y-10397500D02*
X7520000Y-10437500D01*
X7600000Y-8162500D02*
X7640000Y-8202500D01*
X7640000Y-8162500D02*
X7600000Y-8202500D01*
X7614780Y-5905680D02*
X7654780Y-5945680D01*
X7654780Y-5905680D02*
X7614780Y-5945680D01*
X7652500Y-7072500D02*
X7692500Y-7112500D01*
X7692500Y-7072500D02*
X7652500Y-7112500D01*
X7665000Y-7800000D02*
X7705000Y-7840000D01*
X7705000Y-7800000D02*
X7665000Y-7840000D01*
X7667500Y-9902500D02*
X7707500Y-9942500D01*
X7707500Y-9902500D02*
X7667500Y-9942500D01*
X7675000Y-6807500D02*
X7715000Y-6847500D01*
X7715000Y-6807500D02*
X7675000Y-6847500D01*
X7692500Y-8010000D02*
X7732500Y-8050000D01*
X7732500Y-8010000D02*
X7692500Y-8050000D01*
X7740000Y-5007500D02*
X7780000Y-5047500D01*
X7780000Y-5007500D02*
X7740000Y-5047500D01*
X7745000Y-7570000D02*
X7785000Y-7610000D01*
X7785000Y-7570000D02*
X7745000Y-7610000D01*
X7770000Y-7400000D02*
X7810000Y-7440000D01*
X7810000Y-7400000D02*
X7770000Y-7440000D01*
X7780000Y-10292500D02*
X7820000Y-10332500D01*
X7820000Y-10292500D02*
X7780000Y-10332500D01*
X7805000Y-9099000D02*
X7845000Y-9139000D01*
X7845000Y-9099000D02*
X7805000Y-9139000D01*
X7890000Y-8522500D02*
X7930000Y-8562500D01*
X7930000Y-8522500D02*
X7890000Y-8562500D01*
X7895000Y-9370000D02*
X7935000Y-9410000D01*
X7935000Y-9370000D02*
X7895000Y-9410000D01*
X7960000Y-7177500D02*
X8000000Y-7217500D01*
X8000000Y-7177500D02*
X7960000Y-7217500D01*
X7972500Y-8927500D02*
X8012500Y-8967500D01*
X8012500Y-8927500D02*
X7972500Y-8967500D01*
X7972500Y-9262500D02*
X8012500Y-9302500D01*
X8012500Y-9262500D02*
X7972500Y-9302500D01*
X7975000Y-5974500D02*
X8015000Y-6014500D01*
X8015000Y-5974500D02*
X7975000Y-6014500D01*
X8095000Y-4972500D02*
X8135000Y-5012500D01*
X8135000Y-4972500D02*
X8095000Y-5012500D01*
X8145000Y-7507500D02*
X8185000Y-7547500D01*
X8185000Y-7507500D02*
X8145000Y-7547500D01*
X8158800Y-7790500D02*
X8198800Y-7830500D01*
X8198800Y-7790500D02*
X8158800Y-7830500D01*
X8161000Y-5923500D02*
X8201000Y-5963500D01*
X8201000Y-5923500D02*
X8161000Y-5963500D01*
X8172500Y-9815000D02*
X8212500Y-9855000D01*
X8212500Y-9815000D02*
X8172500Y-9855000D01*
X8190000Y-7949500D02*
X8230000Y-7989500D01*
X8230000Y-7949500D02*
X8190000Y-7989500D01*
X8219000Y-8262500D02*
X8259000Y-8302500D01*
X8259000Y-8262500D02*
X8219000Y-8302500D01*
X8350000Y-4972500D02*
X8390000Y-5012500D01*
X8390000Y-4972500D02*
X8350000Y-5012500D01*
X8395000Y-7085050D02*
X8435000Y-7125050D01*
X8435000Y-7085050D02*
X8395000Y-7125050D01*
X8407000Y-7698500D02*
X8447000Y-7738500D01*
X8447000Y-7698500D02*
X8407000Y-7738500D01*
X8416000Y-5830500D02*
X8456000Y-5870500D01*
X8456000Y-5830500D02*
X8416000Y-5870500D01*
X8420000Y-7507500D02*
X8460000Y-7547500D01*
X8460000Y-7507500D02*
X8420000Y-7547500D01*
X8459000Y-7813500D02*
X8499000Y-7853500D01*
X8499000Y-7813500D02*
X8459000Y-7853500D01*
X8510000Y-6597500D02*
X8550000Y-6637500D01*
X8550000Y-6597500D02*
X8510000Y-6637500D01*
X8513000Y-8167500D02*
X8553000Y-8207500D01*
X8553000Y-8167500D02*
X8513000Y-8207500D01*
X8525000Y-6427500D02*
X8565000Y-6467500D01*
X8565000Y-6427500D02*
X8525000Y-6467500D01*
X8565000Y-9097500D02*
X8605000Y-9137500D01*
X8605000Y-9097500D02*
X8565000Y-9137500D01*
X8565000Y-10020000D02*
X8605000Y-10060000D01*
X8605000Y-10020000D02*
X8565000Y-10060000D01*
X8600000Y-4972500D02*
X8640000Y-5012500D01*
X8640000Y-4972500D02*
X8600000Y-5012500D01*
X8630000Y-10282500D02*
X8670000Y-10322500D01*
X8670000Y-10282500D02*
X8630000Y-10322500D01*
X8655000Y-5982500D02*
X8695000Y-6022500D01*
X8695000Y-5982500D02*
X8655000Y-6022500D01*
X8692500Y-9322500D02*
X8732500Y-9362500D01*
X8732500Y-9322500D02*
X8692500Y-9362500D01*
X8704900Y-9499920D02*
X8744900Y-9539920D01*
X8744900Y-9499920D02*
X8704900Y-9539920D01*
X8707500Y-9730000D02*
X8747500Y-9770000D01*
X8747500Y-9730000D02*
X8707500Y-9770000D01*
X8720000Y-8662500D02*
X8760000Y-8702500D01*
X8760000Y-8662500D02*
X8720000Y-8702500D01*
X8734000Y-8134500D02*
X8774000Y-8174500D01*
X8774000Y-8134500D02*
X8734000Y-8174500D01*
X8815000Y-7362500D02*
X8855000Y-7402500D01*
X8855000Y-7362500D02*
X8815000Y-7402500D01*
X8855000Y-4972500D02*
X8895000Y-5012500D01*
X8895000Y-4972500D02*
X8855000Y-5012500D01*
X8875080Y-8150000D02*
X8915080Y-8190000D01*
X8915080Y-8150000D02*
X8875080Y-8190000D01*
X8950000Y-9217500D02*
X8990000Y-9257500D01*
X8990000Y-9217500D02*
X8950000Y-9257500D01*
X8975000Y-9497500D02*
X9015000Y-9537500D01*
X9015000Y-9497500D02*
X8975000Y-9537500D01*
X8980000Y-8145000D02*
X9020000Y-8185000D01*
X9020000Y-8145000D02*
X8980000Y-8185000D01*
X9035000Y-10017500D02*
X9075000Y-10057500D01*
X9075000Y-10017500D02*
X9035000Y-10057500D01*
X9035000Y-10277500D02*
X9075000Y-10317500D01*
X9075000Y-10277500D02*
X9035000Y-10317500D01*
X9085000Y-9057500D02*
X9125000Y-9097500D01*
X9125000Y-9057500D02*
X9085000Y-9097500D01*
X9110000Y-7722500D02*
X9150000Y-7762500D01*
X9150000Y-7722500D02*
X9110000Y-7762500D01*
X9115000Y-4972500D02*
X9155000Y-5012500D01*
X9155000Y-4972500D02*
X9115000Y-5012500D01*
X9140000Y-8892500D02*
X9180000Y-8932500D01*
X9180000Y-8892500D02*
X9140000Y-8932500D01*
X9175000Y-6370000D02*
X9215000Y-6410000D01*
X9215000Y-6370000D02*
X9175000Y-6410000D01*
X9175000Y-9497500D02*
X9215000Y-9537500D01*
X9215000Y-9497500D02*
X9175000Y-9537500D01*
X9198000Y-7357500D02*
X9238000Y-7397500D01*
X9238000Y-7357500D02*
X9198000Y-7397500D01*
X9209500Y-7623000D02*
X9249500Y-7663000D01*
X9249500Y-7623000D02*
X9209500Y-7663000D01*
X9215000Y-9257500D02*
X9255000Y-9297500D01*
X9255000Y-9257500D02*
X9215000Y-9297500D01*
X9273860Y-8280720D02*
X9313860Y-8320720D01*
X9313860Y-8280720D02*
X9273860Y-8320720D01*
X9290000Y-8490000D02*
X9330000Y-8530000D01*
X9330000Y-8490000D02*
X9290000Y-8530000D01*
X9306000Y-7122500D02*
X9346000Y-7162500D01*
X9346000Y-7122500D02*
X9306000Y-7162500D01*
X9325000Y-8642500D02*
X9365000Y-8682500D01*
X9365000Y-8642500D02*
X9325000Y-8682500D01*
X9365000Y-4972500D02*
X9405000Y-5012500D01*
X9405000Y-4972500D02*
X9365000Y-5012500D01*
X9382000Y-7653500D02*
X9422000Y-7693500D01*
X9422000Y-7653500D02*
X9382000Y-7693500D01*
X9410000Y-10300000D02*
X9450000Y-10340000D01*
X9450000Y-10300000D02*
X9410000Y-10340000D01*
X9442000Y-7328500D02*
X9482000Y-7368500D01*
X9482000Y-7328500D02*
X9442000Y-7368500D01*
X9445000Y-6050000D02*
X9485000Y-6090000D01*
X9485000Y-6050000D02*
X9445000Y-6090000D01*
X9535000Y-9527500D02*
X9575000Y-9567500D01*
X9575000Y-9527500D02*
X9535000Y-9567500D01*
X9538000Y-6661500D02*
X9578000Y-6701500D01*
X9578000Y-6661500D02*
X9538000Y-6701500D01*
X9540000Y-6165000D02*
X9580000Y-6205000D01*
X9580000Y-6165000D02*
X9540000Y-6205000D01*
X9543100Y-6393500D02*
X9583100Y-6433500D01*
X9583100Y-6393500D02*
X9543100Y-6433500D01*
X9544000Y-8252500D02*
X9584000Y-8292500D01*
X9584000Y-8252500D02*
X9544000Y-8292500D01*
X9576000Y-8423500D02*
X9616000Y-8463500D01*
X9616000Y-8423500D02*
X9576000Y-8463500D01*
X9618000Y-7080500D02*
X9658000Y-7120500D01*
X9658000Y-7080500D02*
X9618000Y-7120500D01*
X9620000Y-4972500D02*
X9660000Y-5012500D01*
X9660000Y-4972500D02*
X9620000Y-5012500D01*
X9665000Y-8642500D02*
X9705000Y-8682500D01*
X9705000Y-8642500D02*
X9665000Y-8682500D01*
X9666000Y-6765500D02*
X9706000Y-6805500D01*
X9706000Y-6765500D02*
X9666000Y-6805500D01*
X9705000Y-10147500D02*
X9745000Y-10187500D01*
X9745000Y-10147500D02*
X9705000Y-10187500D01*
X9750000Y-7952500D02*
X9790000Y-7992500D01*
X9790000Y-7952500D02*
X9750000Y-7992500D01*
X9775000Y-7632500D02*
X9815000Y-7672500D01*
X9815000Y-7632500D02*
X9775000Y-7672500D01*
X9785000Y-8557500D02*
X9825000Y-8597500D01*
X9825000Y-8557500D02*
X9785000Y-8597500D01*
X9811000Y-7037500D02*
X9851000Y-7077500D01*
X9851000Y-7037500D02*
X9811000Y-7077500D01*
X9875000Y-4972500D02*
X9915000Y-5012500D01*
X9915000Y-4972500D02*
X9875000Y-5012500D01*
X9910000Y-10300000D02*
X9950000Y-10340000D01*
X9950000Y-10300000D02*
X9910000Y-10340000D01*
X9923000Y-6966500D02*
X9963000Y-7006500D01*
X9963000Y-6966500D02*
X9923000Y-7006500D01*
X9930040Y-8017640D02*
X9970040Y-8057640D01*
X9970040Y-8017640D02*
X9930040Y-8057640D01*
X9952500Y-7772500D02*
X9992500Y-7812500D01*
X9992500Y-7772500D02*
X9952500Y-7812500D01*
X9960000Y-7395500D02*
X10000000Y-7435500D01*
X10000000Y-7395500D02*
X9960000Y-7435500D01*
X9967500Y-5995000D02*
X10007500Y-6035000D01*
X10007500Y-5995000D02*
X9967500Y-6035000D01*
X10005000Y-6787500D02*
X10045000Y-6827500D01*
X10045000Y-6787500D02*
X10005000Y-6827500D01*
X10015000Y-8867500D02*
X10055000Y-8907500D01*
X10055000Y-8867500D02*
X10015000Y-8907500D01*
X10040000Y-9112500D02*
X10080000Y-9152500D01*
X10080000Y-9112500D02*
X10040000Y-9152500D01*
X10050000Y-8712500D02*
X10090000Y-8752500D01*
X10090000Y-8712500D02*
X10050000Y-8752500D01*
X10091000Y-8165500D02*
X10131000Y-8205500D01*
X10131000Y-8165500D02*
X10091000Y-8205500D01*
X10117000Y-5857500D02*
X10157000Y-5897500D01*
X10157000Y-5857500D02*
X10117000Y-5897500D01*
X10130000Y-4972500D02*
X10170000Y-5012500D01*
X10170000Y-4972500D02*
X10130000Y-5012500D01*
X10158000Y-7921500D02*
X10198000Y-7961500D01*
X10198000Y-7921500D02*
X10158000Y-7961500D01*
X10200000Y-7747500D02*
X10240000Y-7787500D01*
X10240000Y-7747500D02*
X10200000Y-7787500D01*
X10205000Y-6232500D02*
X10245000Y-6272500D01*
X10245000Y-6232500D02*
X10205000Y-6272500D01*
X10210000Y-7392500D02*
X10250000Y-7432500D01*
X10250000Y-7392500D02*
X10210000Y-7432500D01*
X10245000Y-9105000D02*
X10285000Y-9145000D01*
X10285000Y-9105000D02*
X10245000Y-9145000D01*
X10261920Y-8011480D02*
X10301920Y-8051480D01*
X10301920Y-8011480D02*
X10261920Y-8051480D01*
X10275000Y-7462500D02*
X10315000Y-7502500D01*
X10315000Y-7462500D02*
X10275000Y-7502500D01*
X10315000Y-6592500D02*
X10355000Y-6632500D01*
X10355000Y-6592500D02*
X10315000Y-6632500D01*
X10315000Y-7687500D02*
X10355000Y-7727500D01*
X10355000Y-7687500D02*
X10315000Y-7727500D01*
X10376000Y-8108500D02*
X10416000Y-8148500D01*
X10416000Y-8108500D02*
X10376000Y-8148500D01*
X10380000Y-4972500D02*
X10420000Y-5012500D01*
X10420000Y-4972500D02*
X10380000Y-5012500D01*
X10410000Y-10300000D02*
X10450000Y-10340000D01*
X10450000Y-10300000D02*
X10410000Y-10340000D01*
X10420000Y-6182500D02*
X10460000Y-6222500D01*
X10460000Y-6182500D02*
X10420000Y-6222500D01*
X10422000Y-7810500D02*
X10462000Y-7850500D01*
X10462000Y-7810500D02*
X10422000Y-7850500D01*
X10496000Y-7685500D02*
X10536000Y-7725500D01*
X10536000Y-7685500D02*
X10496000Y-7725500D01*
X10504000Y-8065500D02*
X10544000Y-8105500D01*
X10544000Y-8065500D02*
X10504000Y-8105500D01*
X10520000Y-7427500D02*
X10560000Y-7467500D01*
X10560000Y-7427500D02*
X10520000Y-7467500D01*
X10530000Y-8672500D02*
X10570000Y-8712500D01*
X10570000Y-8672500D02*
X10530000Y-8712500D01*
X10532000Y-7053500D02*
X10572000Y-7093500D01*
X10572000Y-7053500D02*
X10532000Y-7093500D01*
X10536000Y-6610500D02*
X10576000Y-6650500D01*
X10576000Y-6610500D02*
X10536000Y-6650500D01*
X10625000Y-9677500D02*
X10665000Y-9717500D01*
X10665000Y-9677500D02*
X10625000Y-9717500D01*
X10625000Y-10067500D02*
X10665000Y-10107500D01*
X10665000Y-10067500D02*
X10625000Y-10107500D01*
X10635000Y-4972500D02*
X10675000Y-5012500D01*
X10675000Y-4972500D02*
X10635000Y-5012500D01*
X10664000Y-7274500D02*
X10704000Y-7314500D01*
X10704000Y-7274500D02*
X10664000Y-7314500D01*
X10664000Y-9101500D02*
X10704000Y-9141500D01*
X10704000Y-9101500D02*
X10664000Y-9141500D01*
X10675000Y-6937500D02*
X10715000Y-6977500D01*
X10715000Y-6937500D02*
X10675000Y-6977500D01*
X10688000Y-6469500D02*
X10728000Y-6509500D01*
X10728000Y-6469500D02*
X10688000Y-6509500D01*
X10800400Y-7185980D02*
X10840400Y-7225980D01*
X10840400Y-7185980D02*
X10800400Y-7225980D01*
X10840000Y-9112500D02*
X10880000Y-9152500D01*
X10880000Y-9112500D02*
X10840000Y-9152500D01*
X10854000Y-6277500D02*
X10894000Y-6317500D01*
X10894000Y-6277500D02*
X10854000Y-6317500D01*
X10858000Y-6415500D02*
X10898000Y-6455500D01*
X10898000Y-6415500D02*
X10858000Y-6455500D01*
X10875000Y-7037500D02*
X10915000Y-7077500D01*
X10915000Y-7037500D02*
X10875000Y-7077500D01*
X10885000Y-7607500D02*
X10925000Y-7647500D01*
X10925000Y-7607500D02*
X10885000Y-7647500D01*
X10890000Y-4972500D02*
X10930000Y-5012500D01*
X10930000Y-4972500D02*
X10890000Y-5012500D01*
X10892500Y-7722500D02*
X10932500Y-7762500D01*
X10932500Y-7722500D02*
X10892500Y-7762500D01*
X10910000Y-10300000D02*
X10950000Y-10340000D01*
X10950000Y-10300000D02*
X10910000Y-10340000D01*
X10960000Y-9075000D02*
X11000000Y-9115000D01*
X11000000Y-9075000D02*
X10960000Y-9115000D01*
X10975000Y-8727500D02*
X11015000Y-8767500D01*
X11015000Y-8727500D02*
X10975000Y-8767500D01*
X10997000Y-5942500D02*
X11037000Y-5982500D01*
X11037000Y-5942500D02*
X10997000Y-5982500D01*
X11015000Y-5542500D02*
X11055000Y-5582500D01*
X11055000Y-5542500D02*
X11015000Y-5582500D01*
X11015000Y-8815000D02*
X11055000Y-8855000D01*
X11055000Y-8815000D02*
X11015000Y-8855000D01*
X11025000Y-7777500D02*
X11065000Y-7817500D01*
X11065000Y-7777500D02*
X11025000Y-7817500D01*
X11027500Y-10422500D02*
X11067500Y-10462500D01*
X11067500Y-10422500D02*
X11027500Y-10462500D01*
X11057500Y-9082500D02*
X11097500Y-9122500D01*
X11097500Y-9082500D02*
X11057500Y-9122500D01*
X11066000Y-8081000D02*
X11106000Y-8121000D01*
X11106000Y-8081000D02*
X11066000Y-8121000D01*
X11122000Y-8781500D02*
X11162000Y-8821500D01*
X11162000Y-8781500D02*
X11122000Y-8821500D01*
X11143000Y-5851500D02*
X11183000Y-5891500D01*
X11183000Y-5851500D02*
X11143000Y-5891500D01*
X11145000Y-4972500D02*
X11185000Y-5012500D01*
X11185000Y-4972500D02*
X11145000Y-5012500D01*
X11190000Y-9082500D02*
X11230000Y-9122500D01*
X11230000Y-9082500D02*
X11190000Y-9122500D01*
X11219500Y-6242000D02*
X11259500Y-6282000D01*
X11259500Y-6242000D02*
X11219500Y-6282000D01*
X11225000Y-10232500D02*
X11265000Y-10272500D01*
X11265000Y-10232500D02*
X11225000Y-10272500D01*
X11245000Y-7187500D02*
X11285000Y-7227500D01*
X11285000Y-7187500D02*
X11245000Y-7227500D01*
X11270000Y-7031720D02*
X11310000Y-7071720D01*
X11310000Y-7031720D02*
X11270000Y-7071720D01*
X11275000Y-5540500D02*
X11315000Y-5580500D01*
X11315000Y-5540500D02*
X11275000Y-5580500D01*
X11285000Y-8807500D02*
X11325000Y-8847500D01*
X11325000Y-8807500D02*
X11285000Y-8847500D01*
X11295000Y-6700000D02*
X11335000Y-6740000D01*
X11335000Y-6700000D02*
X11295000Y-6740000D01*
X11317500Y-7410000D02*
X11357500Y-7450000D01*
X11357500Y-7410000D02*
X11317500Y-7450000D01*
X11330000Y-7187500D02*
X11370000Y-7227500D01*
X11370000Y-7187500D02*
X11330000Y-7227500D01*
X11339000Y-5945500D02*
X11379000Y-5985500D01*
X11379000Y-5945500D02*
X11339000Y-5985500D01*
X11355000Y-9077500D02*
X11395000Y-9117500D01*
X11395000Y-9077500D02*
X11355000Y-9117500D01*
X11382000Y-6528500D02*
X11422000Y-6568500D01*
X11422000Y-6528500D02*
X11382000Y-6568500D01*
X11395000Y-4972500D02*
X11435000Y-5012500D01*
X11435000Y-4972500D02*
X11395000Y-5012500D01*
X11395500Y-8692000D02*
X11435500Y-8732000D01*
X11435500Y-8692000D02*
X11395500Y-8732000D01*
X11435000Y-8817500D02*
X11475000Y-8857500D01*
X11475000Y-8817500D02*
X11435000Y-8857500D01*
X11435000Y-10425000D02*
X11475000Y-10465000D01*
X11475000Y-10425000D02*
X11435000Y-10465000D01*
X11442500Y-7295000D02*
X11482500Y-7335000D01*
X11482500Y-7295000D02*
X11442500Y-7335000D01*
X11458000Y-8385500D02*
X11498000Y-8425500D01*
X11498000Y-8385500D02*
X11458000Y-8425500D01*
X11465000Y-7022500D02*
X11505000Y-7062500D01*
X11505000Y-7022500D02*
X11465000Y-7062500D01*
X11467000Y-7649500D02*
X11507000Y-7689500D01*
X11507000Y-7649500D02*
X11467000Y-7689500D01*
X11471000Y-7836000D02*
X11511000Y-7876000D01*
X11511000Y-7836000D02*
X11471000Y-7876000D01*
X11495000Y-6665000D02*
X11535000Y-6705000D01*
X11535000Y-6665000D02*
X11495000Y-6705000D01*
X11545000Y-9217500D02*
X11585000Y-9257500D01*
X11585000Y-9217500D02*
X11545000Y-9257500D01*
X11545000Y-10227500D02*
X11585000Y-10267500D01*
X11585000Y-10227500D02*
X11545000Y-10267500D01*
X11575000Y-6362500D02*
X11615000Y-6402500D01*
X11615000Y-6362500D02*
X11575000Y-6402500D01*
X11605000Y-8367500D02*
X11645000Y-8407500D01*
X11645000Y-8367500D02*
X11605000Y-8407500D01*
X11650000Y-4972500D02*
X11690000Y-5012500D01*
X11690000Y-4972500D02*
X11650000Y-5012500D01*
X11662500Y-7262500D02*
X11702500Y-7302500D01*
X11702500Y-7262500D02*
X11662500Y-7302500D01*
X11670000Y-6637500D02*
X11710000Y-6677500D01*
X11710000Y-6637500D02*
X11670000Y-6677500D01*
X11685000Y-9932500D02*
X11725000Y-9972500D01*
X11725000Y-9932500D02*
X11685000Y-9972500D01*
X11687000Y-7583500D02*
X11727000Y-7623500D01*
X11727000Y-7583500D02*
X11687000Y-7623500D01*
X11697500Y-6810000D02*
X11737500Y-6850000D01*
X11737500Y-6810000D02*
X11697500Y-6850000D01*
X11705000Y-9317500D02*
X11745000Y-9357500D01*
X11745000Y-9317500D02*
X11705000Y-9357500D01*
X11733000Y-7755500D02*
X11773000Y-7795500D01*
X11773000Y-7755500D02*
X11733000Y-7795500D01*
X11780000Y-5617500D02*
X11820000Y-5657500D01*
X11820000Y-5617500D02*
X11780000Y-5657500D01*
X11780000Y-5772500D02*
X11820000Y-5812500D01*
X11820000Y-5772500D02*
X11780000Y-5812500D01*
X11815000Y-6552500D02*
X11855000Y-6592500D01*
X11855000Y-6552500D02*
X11815000Y-6592500D01*
X11845000Y-9317500D02*
X11885000Y-9357500D01*
X11885000Y-9317500D02*
X11845000Y-9357500D01*
X11850000Y-9122500D02*
X11890000Y-9162500D01*
X11890000Y-9122500D02*
X11850000Y-9162500D01*
X11852500Y-7270000D02*
X11892500Y-7310000D01*
X11892500Y-7270000D02*
X11852500Y-7310000D01*
X11905000Y-4972500D02*
X11945000Y-5012500D01*
X11945000Y-4972500D02*
X11905000Y-5012500D01*
X11995000Y-9097500D02*
X12035000Y-9137500D01*
X12035000Y-9097500D02*
X11995000Y-9137500D01*
X12065000Y-8637500D02*
X12105000Y-8677500D01*
X12105000Y-8637500D02*
X12065000Y-8677500D01*
X12085000Y-8757500D02*
X12125000Y-8797500D01*
X12125000Y-8757500D02*
X12085000Y-8797500D01*
X12160000Y-4972500D02*
X12200000Y-5012500D01*
X12200000Y-4972500D02*
X12160000Y-5012500D01*
X12200000Y-8787500D02*
X12240000Y-8827500D01*
X12240000Y-8787500D02*
X12200000Y-8827500D01*
X12205000Y-9107500D02*
X12245000Y-9147500D01*
X12245000Y-9107500D02*
X12205000Y-9147500D01*
X12325000Y-8797500D02*
X12365000Y-8837500D01*
X12365000Y-8797500D02*
X12325000Y-8837500D01*
X12355000Y-9147500D02*
X12395000Y-9187500D01*
X12395000Y-9147500D02*
X12355000Y-9187500D01*
X12410000Y-4972500D02*
X12450000Y-5012500D01*
X12450000Y-4972500D02*
X12410000Y-5012500D01*
X12445000Y-8797500D02*
X12485000Y-8837500D01*
X12485000Y-8797500D02*
X12445000Y-8837500D01*
X12482500Y-6660000D02*
X12522500Y-6700000D01*
X12522500Y-6660000D02*
X12482500Y-6700000D01*
X12485000Y-7852500D02*
X12525000Y-7892500D01*
X12525000Y-7852500D02*
X12485000Y-7892500D01*
X12527000Y-7404500D02*
X12567000Y-7444500D01*
X12567000Y-7404500D02*
X12527000Y-7444500D01*
X12535000Y-9167500D02*
X12575000Y-9207500D01*
X12575000Y-9167500D02*
X12535000Y-9207500D01*
X12545000Y-9327500D02*
X12585000Y-9367500D01*
X12585000Y-9327500D02*
X12545000Y-9367500D01*
X12665000Y-4972500D02*
X12705000Y-5012500D01*
X12705000Y-4972500D02*
X12665000Y-5012500D01*
X12675000Y-8857500D02*
X12715000Y-8897500D01*
X12715000Y-8857500D02*
X12675000Y-8897500D01*
X12685000Y-9177500D02*
X12725000Y-9217500D01*
X12725000Y-9177500D02*
X12685000Y-9217500D01*
X12759000Y-7700500D02*
X12799000Y-7740500D01*
X12799000Y-7700500D02*
X12759000Y-7740500D01*
X12805000Y-9037500D02*
X12845000Y-9077500D01*
X12845000Y-9037500D02*
X12805000Y-9077500D01*
X12845000Y-8867500D02*
X12885000Y-8907500D01*
X12885000Y-8867500D02*
X12845000Y-8907500D01*
X12920000Y-4972500D02*
X12960000Y-5012500D01*
X12960000Y-4972500D02*
X12920000Y-5012500D01*
X12935000Y-9997500D02*
X12975000Y-10037500D01*
X12975000Y-9997500D02*
X12935000Y-10037500D01*
X12995000Y-8747500D02*
X13035000Y-8787500D01*
X13035000Y-8747500D02*
X12995000Y-8787500D01*
X13005000Y-8867500D02*
X13045000Y-8907500D01*
X13045000Y-8867500D02*
X13005000Y-8907500D01*
X13005000Y-9227500D02*
X13045000Y-9267500D01*
X13045000Y-9227500D02*
X13005000Y-9267500D01*
X13070000Y-6162500D02*
X13110000Y-6202500D01*
X13110000Y-6162500D02*
X13070000Y-6202500D01*
X13095000Y-9777500D02*
X13135000Y-9817500D01*
X13135000Y-9777500D02*
X13095000Y-9817500D01*
X13095000Y-10187500D02*
X13135000Y-10227500D01*
X13135000Y-10187500D02*
X13095000Y-10227500D01*
X13155000Y-9037500D02*
X13195000Y-9077500D01*
X13195000Y-9037500D02*
X13155000Y-9077500D01*
X13227500Y-5562500D02*
X13267500Y-5602500D01*
X13267500Y-5562500D02*
X13227500Y-5602500D01*
X13332500Y-10392500D02*
X13372500Y-10432500D01*
X13372500Y-10392500D02*
X13332500Y-10432500D01*
X13355000Y-5000000D02*
X13395000Y-5040000D01*
X13395000Y-5000000D02*
X13355000Y-5040000D01*
X13540000Y-9367500D02*
X13580000Y-9407500D01*
X13580000Y-9367500D02*
X13540000Y-9407500D01*
X13545000Y-6362500D02*
X13585000Y-6402500D01*
X13585000Y-6362500D02*
X13545000Y-6402500D01*
X13545000Y-6772500D02*
X13585000Y-6812500D01*
X13585000Y-6772500D02*
X13545000Y-6812500D01*
X13585000Y-8957500D02*
X13625000Y-8997500D01*
X13625000Y-8957500D02*
X13585000Y-8997500D01*
X13635000Y-5957500D02*
X13675000Y-5997500D01*
X13675000Y-5957500D02*
X13635000Y-5997500D01*
X13882500Y-8117500D02*
X13922500Y-8157500D01*
X13922500Y-8117500D02*
X13882500Y-8157500D01*
X13885000Y-6767500D02*
X13925000Y-6807500D01*
X13925000Y-6767500D02*
X13885000Y-6807500D01*
X13885000Y-7405000D02*
X13925000Y-7445000D01*
X13925000Y-7405000D02*
X13885000Y-7445000D01*
X13922500Y-9662500D02*
X13962500Y-9702500D01*
X13962500Y-9662500D02*
X13922500Y-9702500D01*
X13925000Y-8880000D02*
X13965000Y-8920000D01*
X13965000Y-8880000D02*
X13925000Y-8920000D01*
X13930000Y-5960000D02*
X13970000Y-6000000D01*
X13970000Y-5960000D02*
X13930000Y-6000000D01*
D12*
X6875000Y-7540500D02*
G75*
G03*
X6875000Y-7540500I-30000J0D01*
G01*
D10*
X6905000Y-7510500D02*
X6785000Y-7510500D01*
X6785000Y-7510500D02*
G75*
G03*
X6785000Y-7570500I0J-30000D01*
G01*
X6785000Y-7570500D02*
X6905000Y-7570500D01*
X6905000Y-7570500D02*
G75*
G03*
X6905000Y-7510500I0J30000D01*
G01*
D12*
X6875000Y-8104500D02*
G75*
G03*
X6875000Y-8104500I-30000J0D01*
G01*
D10*
X6905000Y-8074500D02*
X6785000Y-8074500D01*
X6785000Y-8074500D02*
G75*
G03*
X6785000Y-8134500I0J-30000D01*
G01*
X6785000Y-8134500D02*
X6905000Y-8134500D01*
X6905000Y-8134500D02*
G75*
G03*
X6905000Y-8074500I0J30000D01*
G01*
D13*
X7056000Y-7592500D02*
X7056000Y-7652500D01*
X7026000Y-7622500D02*
X7086000Y-7622500D01*
X7056000Y-7992500D02*
X7056000Y-8052500D01*
X7026000Y-8022500D02*
X7086000Y-8022500D01*
D14*
X7718284Y-8586285D02*
X7718284Y-8529716D01*
X7661715Y-8529716D01*
X7661715Y-8586285D01*
X7718284Y-8586285D01*
X7718284Y-9348285D02*
X7718284Y-9291716D01*
X7661715Y-9291716D01*
X7661715Y-9348285D01*
X7718284Y-9348285D01*
X8100284Y-6279784D02*
X8100284Y-6223215D01*
X8043715Y-6223215D01*
X8043715Y-6279784D01*
X8100284Y-6279784D01*
X8100284Y-7041784D02*
X8100284Y-6985215D01*
X8043715Y-6985215D01*
X8043715Y-7041784D01*
X8100284Y-7041784D01*
D15*
X7105000Y-6562500D02*
X7155000Y-6512500D01*
X7105000Y-6462500D01*
X7055000Y-6512500D01*
X7105000Y-6562500D01*
D10*
X7055000Y-6412500D02*
X7055000Y-6612500D01*
X7055000Y-6612500D02*
G75*
G03*
X7155000Y-6612500I50000J0D01*
G01*
X7155000Y-6612500D02*
X7155000Y-6412500D01*
X7155000Y-6412500D02*
G75*
G03*
X7055000Y-6412500I-50000J0D01*
G01*
D15*
X7405000Y-7032500D02*
X7455000Y-6982500D01*
X7405000Y-6932500D01*
X7355000Y-6982500D01*
X7405000Y-7032500D01*
D10*
X7305000Y-7032500D02*
X7505000Y-7032500D01*
X7505000Y-7032500D02*
G75*
G03*
X7505000Y-6932500I0J50000D01*
G01*
X7505000Y-6932500D02*
X7305000Y-6932500D01*
X7305000Y-6932500D02*
G75*
G03*
X7305000Y-7032500I0J-50000D01*
G01*
D15*
X7475000Y-7470000D02*
X7525000Y-7420000D01*
X7475000Y-7370000D01*
X7425000Y-7420000D01*
X7475000Y-7470000D01*
X7475000Y-7724000D02*
X7525000Y-7674000D01*
X7475000Y-7624000D01*
X7425000Y-7674000D01*
X7475000Y-7724000D01*
X7475000Y-7978000D02*
X7525000Y-7928000D01*
X7475000Y-7878000D01*
X7425000Y-7928000D01*
X7475000Y-7978000D01*
X7475000Y-8232000D02*
X7525000Y-8182000D01*
X7475000Y-8132000D01*
X7425000Y-8182000D01*
X7475000Y-8232000D01*
X7705000Y-6562500D02*
X7755000Y-6512500D01*
X7705000Y-6462500D01*
X7655000Y-6512500D01*
X7705000Y-6562500D01*
D10*
X7655000Y-6412500D02*
X7655000Y-6612500D01*
X7655000Y-6612500D02*
G75*
G03*
X7755000Y-6612500I50000J0D01*
G01*
X7755000Y-6612500D02*
X7755000Y-6412500D01*
X7755000Y-6412500D02*
G75*
G03*
X7655000Y-6412500I-50000J0D01*
G01*
D15*
X8115000Y-5207500D02*
X8165000Y-5157500D01*
X8115000Y-5107500D01*
X8065000Y-5157500D01*
X8115000Y-5207500D01*
X8115000Y-5461500D02*
X8165000Y-5411500D01*
X8115000Y-5361500D01*
X8065000Y-5411500D01*
X8115000Y-5461500D01*
X8369000Y-5207500D02*
X8419000Y-5157500D01*
X8369000Y-5107500D01*
X8319000Y-5157500D01*
X8369000Y-5207500D01*
X8369000Y-5461500D02*
X8419000Y-5411500D01*
X8369000Y-5361500D01*
X8319000Y-5411500D01*
X8369000Y-5461500D01*
X8623000Y-5207500D02*
X8673000Y-5157500D01*
X8623000Y-5107500D01*
X8573000Y-5157500D01*
X8623000Y-5207500D01*
X8623000Y-5461500D02*
X8673000Y-5411500D01*
X8623000Y-5361500D01*
X8573000Y-5411500D01*
X8623000Y-5461500D01*
X8711000Y-6292500D02*
X8761000Y-6242500D01*
X8711000Y-6192500D01*
X8661000Y-6242500D01*
X8711000Y-6292500D01*
X8711000Y-6546500D02*
X8761000Y-6496500D01*
X8711000Y-6446500D01*
X8661000Y-6496500D01*
X8711000Y-6546500D01*
X8711000Y-6800500D02*
X8761000Y-6750500D01*
X8711000Y-6700500D01*
X8661000Y-6750500D01*
X8711000Y-6800500D01*
X8711000Y-7054500D02*
X8761000Y-7004500D01*
X8711000Y-6954500D01*
X8661000Y-7004500D01*
X8711000Y-7054500D01*
X8711000Y-7308500D02*
X8761000Y-7258500D01*
X8711000Y-7208500D01*
X8661000Y-7258500D01*
X8711000Y-7308500D01*
X8877000Y-5207500D02*
X8927000Y-5157500D01*
X8877000Y-5107500D01*
X8827000Y-5157500D01*
X8877000Y-5207500D01*
X8877000Y-5461500D02*
X8927000Y-5411500D01*
X8877000Y-5361500D01*
X8827000Y-5411500D01*
X8877000Y-5461500D01*
X8955000Y-8851000D02*
X9005000Y-8801000D01*
X8955000Y-8751000D01*
X8905000Y-8801000D01*
X8955000Y-8851000D01*
X8955000Y-9105000D02*
X9005000Y-9055000D01*
X8955000Y-9005000D01*
X8905000Y-9055000D01*
X8955000Y-9105000D01*
X8965000Y-6292500D02*
X9015000Y-6242500D01*
X8965000Y-6192500D01*
X8915000Y-6242500D01*
X8965000Y-6292500D01*
X8965000Y-6546500D02*
X9015000Y-6496500D01*
X8965000Y-6446500D01*
X8915000Y-6496500D01*
X8965000Y-6546500D01*
X8965000Y-6800500D02*
X9015000Y-6750500D01*
X8965000Y-6700500D01*
X8915000Y-6750500D01*
X8965000Y-6800500D01*
X8965000Y-7054500D02*
X9015000Y-7004500D01*
X8965000Y-6954500D01*
X8915000Y-7004500D01*
X8965000Y-7054500D01*
X8965000Y-7308500D02*
X9015000Y-7258500D01*
X8965000Y-7208500D01*
X8915000Y-7258500D01*
X8965000Y-7308500D01*
X9131000Y-5207500D02*
X9181000Y-5157500D01*
X9131000Y-5107500D01*
X9081000Y-5157500D01*
X9131000Y-5207500D01*
X9131000Y-5461500D02*
X9181000Y-5411500D01*
X9131000Y-5361500D01*
X9081000Y-5411500D01*
X9131000Y-5461500D01*
X9355000Y-9823500D02*
X9405000Y-9773500D01*
X9355000Y-9723500D01*
X9305000Y-9773500D01*
X9355000Y-9823500D01*
X9355000Y-10077500D02*
X9405000Y-10027500D01*
X9355000Y-9977500D01*
X9305000Y-10027500D01*
X9355000Y-10077500D01*
X9385000Y-5207500D02*
X9435000Y-5157500D01*
X9385000Y-5107500D01*
X9335000Y-5157500D01*
X9385000Y-5207500D01*
X9385000Y-5461500D02*
X9435000Y-5411500D01*
X9385000Y-5361500D01*
X9335000Y-5411500D01*
X9385000Y-5461500D01*
X9609000Y-9823500D02*
X9659000Y-9773500D01*
X9609000Y-9723500D01*
X9559000Y-9773500D01*
X9609000Y-9823500D01*
X9609000Y-10077500D02*
X9659000Y-10027500D01*
X9609000Y-9977500D01*
X9559000Y-10027500D01*
X9609000Y-10077500D01*
X9639000Y-5207500D02*
X9689000Y-5157500D01*
X9639000Y-5107500D01*
X9589000Y-5157500D01*
X9639000Y-5207500D01*
X9639000Y-5461500D02*
X9689000Y-5411500D01*
X9639000Y-5361500D01*
X9589000Y-5411500D01*
X9639000Y-5461500D01*
X9863000Y-9823500D02*
X9913000Y-9773500D01*
X9863000Y-9723500D01*
X9813000Y-9773500D01*
X9863000Y-9823500D01*
X9863000Y-10077500D02*
X9913000Y-10027500D01*
X9863000Y-9977500D01*
X9813000Y-10027500D01*
X9863000Y-10077500D01*
X9893000Y-5207500D02*
X9943000Y-5157500D01*
X9893000Y-5107500D01*
X9843000Y-5157500D01*
X9893000Y-5207500D01*
X9893000Y-5461500D02*
X9943000Y-5411500D01*
X9893000Y-5361500D01*
X9843000Y-5411500D01*
X9893000Y-5461500D01*
X10117000Y-9823500D02*
X10167000Y-9773500D01*
X10117000Y-9723500D01*
X10067000Y-9773500D01*
X10117000Y-9823500D01*
X10117000Y-10077500D02*
X10167000Y-10027500D01*
X10117000Y-9977500D01*
X10067000Y-10027500D01*
X10117000Y-10077500D01*
X10147000Y-5207500D02*
X10197000Y-5157500D01*
X10147000Y-5107500D01*
X10097000Y-5157500D01*
X10147000Y-5207500D01*
X10147000Y-5461500D02*
X10197000Y-5411500D01*
X10147000Y-5361500D01*
X10097000Y-5411500D01*
X10147000Y-5461500D01*
X10371000Y-9823500D02*
X10421000Y-9773500D01*
X10371000Y-9723500D01*
X10321000Y-9773500D01*
X10371000Y-9823500D01*
X10371000Y-10077500D02*
X10421000Y-10027500D01*
X10371000Y-9977500D01*
X10321000Y-10027500D01*
X10371000Y-10077500D01*
X10401000Y-5207500D02*
X10451000Y-5157500D01*
X10401000Y-5107500D01*
X10351000Y-5157500D01*
X10401000Y-5207500D01*
X10401000Y-5461500D02*
X10451000Y-5411500D01*
X10401000Y-5361500D01*
X10351000Y-5411500D01*
X10401000Y-5461500D01*
X10655000Y-5207500D02*
X10705000Y-5157500D01*
X10655000Y-5107500D01*
X10605000Y-5157500D01*
X10655000Y-5207500D01*
X10655000Y-5461500D02*
X10705000Y-5411500D01*
X10655000Y-5361500D01*
X10605000Y-5411500D01*
X10655000Y-5461500D01*
X10909000Y-5207500D02*
X10959000Y-5157500D01*
X10909000Y-5107500D01*
X10859000Y-5157500D01*
X10909000Y-5207500D01*
X10909000Y-5461500D02*
X10959000Y-5411500D01*
X10909000Y-5361500D01*
X10859000Y-5411500D01*
X10909000Y-5461500D01*
X11163000Y-5207500D02*
X11213000Y-5157500D01*
X11163000Y-5107500D01*
X11113000Y-5157500D01*
X11163000Y-5207500D01*
X11163000Y-5461500D02*
X11213000Y-5411500D01*
X11163000Y-5361500D01*
X11113000Y-5411500D01*
X11163000Y-5461500D01*
X11247500Y-9609500D02*
X11297500Y-9559500D01*
X11247500Y-9509500D01*
X11197500Y-9559500D01*
X11247500Y-9609500D01*
X11247500Y-9863500D02*
X11297500Y-9813500D01*
X11247500Y-9763500D01*
X11197500Y-9813500D01*
X11247500Y-9863500D01*
X11247500Y-10117500D02*
X11297500Y-10067500D01*
X11247500Y-10017500D01*
X11197500Y-10067500D01*
X11247500Y-10117500D01*
X11417000Y-5207500D02*
X11467000Y-5157500D01*
X11417000Y-5107500D01*
X11367000Y-5157500D01*
X11417000Y-5207500D01*
X11417000Y-5461500D02*
X11467000Y-5411500D01*
X11417000Y-5361500D01*
X11367000Y-5411500D01*
X11417000Y-5461500D01*
X11671000Y-5207500D02*
X11721000Y-5157500D01*
X11671000Y-5107500D01*
X11621000Y-5157500D01*
X11671000Y-5207500D01*
X11671000Y-5461500D02*
X11721000Y-5411500D01*
X11671000Y-5361500D01*
X11621000Y-5411500D01*
X11671000Y-5461500D01*
X11925000Y-5207500D02*
X11975000Y-5157500D01*
X11925000Y-5107500D01*
X11875000Y-5157500D01*
X11925000Y-5207500D01*
X11925000Y-5461500D02*
X11975000Y-5411500D01*
X11925000Y-5361500D01*
X11875000Y-5411500D01*
X11925000Y-5461500D01*
X12179000Y-5207500D02*
X12229000Y-5157500D01*
X12179000Y-5107500D01*
X12129000Y-5157500D01*
X12179000Y-5207500D01*
X12179000Y-5461500D02*
X12229000Y-5411500D01*
X12179000Y-5361500D01*
X12129000Y-5411500D01*
X12179000Y-5461500D01*
X12433000Y-5207500D02*
X12483000Y-5157500D01*
X12433000Y-5107500D01*
X12383000Y-5157500D01*
X12433000Y-5207500D01*
X12433000Y-5461500D02*
X12483000Y-5411500D01*
X12433000Y-5361500D01*
X12383000Y-5411500D01*
X12433000Y-5461500D01*
X12687000Y-5207500D02*
X12737000Y-5157500D01*
X12687000Y-5107500D01*
X12637000Y-5157500D01*
X12687000Y-5207500D01*
X12687000Y-5461500D02*
X12737000Y-5411500D01*
X12687000Y-5361500D01*
X12637000Y-5411500D01*
X12687000Y-5461500D01*
X12941000Y-5207500D02*
X12991000Y-5157500D01*
X12941000Y-5107500D01*
X12891000Y-5157500D01*
X12941000Y-5207500D01*
X12941000Y-5461500D02*
X12991000Y-5411500D01*
X12941000Y-5361500D01*
X12891000Y-5411500D01*
X12941000Y-5461500D01*
D16*
X6860000Y-8530000D02*
X6970000Y-8640000D01*
X6970000Y-8530000D02*
X6860000Y-8640000D01*
X6970000Y-8585000D02*
G75*
G03*
X6970000Y-8585000I-55000J0D01*
G01*
X6860000Y-9180000D02*
X6970000Y-9290000D01*
X6970000Y-9180000D02*
X6860000Y-9290000D01*
X6970000Y-9235000D02*
G75*
G03*
X6970000Y-9235000I-55000J0D01*
G01*
X7310000Y-8530000D02*
X7420000Y-8640000D01*
X7420000Y-8530000D02*
X7310000Y-8640000D01*
X7420000Y-8585000D02*
G75*
G03*
X7420000Y-8585000I-55000J0D01*
G01*
X7310000Y-9180000D02*
X7420000Y-9290000D01*
X7420000Y-9180000D02*
X7310000Y-9290000D01*
X7420000Y-9235000D02*
G75*
G03*
X7420000Y-9235000I-55000J0D01*
G01*
D17*
X13690000Y-8467500D02*
X13910000Y-8687500D01*
X13910000Y-8467500D02*
X13690000Y-8687500D01*
X13800000Y-8467500D02*
X13800000Y-8687500D01*
X13690000Y-8577500D02*
X13910000Y-8577500D01*
X13695000Y-6152500D02*
X13915000Y-6372500D01*
X13915000Y-6152500D02*
X13695000Y-6372500D01*
X13805000Y-6152500D02*
X13805000Y-6372500D01*
X13695000Y-6262500D02*
X13915000Y-6262500D01*
D18*
X6970000Y-5235500D02*
X7290000Y-5555500D01*
X7290000Y-5235500D02*
X6970000Y-5555500D01*
X7243138Y-5508638D02*
X7243138Y-5282362D01*
X7016862Y-5282362D01*
X7016862Y-5508638D01*
X7243138Y-5508638D01*
X6970000Y-10035500D02*
X7290000Y-10355500D01*
X7290000Y-10035500D02*
X6970000Y-10355500D01*
X7243138Y-10308638D02*
X7243138Y-10082362D01*
X7016862Y-10082362D01*
X7016862Y-10308638D01*
X7243138Y-10308638D01*
X13470000Y-5235500D02*
X13790000Y-5555500D01*
X13790000Y-5235500D02*
X13470000Y-5555500D01*
X13743138Y-5508638D02*
X13743138Y-5282362D01*
X13516862Y-5282362D01*
X13516862Y-5508638D01*
X13743138Y-5508638D01*
X13470000Y-10035500D02*
X13790000Y-10355500D01*
X13790000Y-10035500D02*
X13470000Y-10355500D01*
X13743138Y-10308638D02*
X13743138Y-10082362D01*
X13516862Y-10082362D01*
X13516862Y-10308638D01*
X13743138Y-10308638D01*
D10*
X6929290Y-10932443D02*
X6929290Y-10732443D01*
X6929290Y-10732443D02*
X6976909Y-10732443D01*
X6976909Y-10732443D02*
X7005481Y-10741967D01*
X7005481Y-10741967D02*
X7024528Y-10761015D01*
X7024528Y-10761015D02*
X7034052Y-10780062D01*
X7034052Y-10780062D02*
X7043576Y-10818158D01*
X7043576Y-10818158D02*
X7043576Y-10846729D01*
X7043576Y-10846729D02*
X7034052Y-10884824D01*
X7034052Y-10884824D02*
X7024528Y-10903872D01*
X7024528Y-10903872D02*
X7005481Y-10922920D01*
X7005481Y-10922920D02*
X6976909Y-10932443D01*
X6976909Y-10932443D02*
X6929290Y-10932443D01*
X7129290Y-10932443D02*
X7129290Y-10799110D01*
X7129290Y-10837205D02*
X7138814Y-10818158D01*
X7138814Y-10818158D02*
X7148338Y-10808634D01*
X7148338Y-10808634D02*
X7167385Y-10799110D01*
X7167385Y-10799110D02*
X7186433Y-10799110D01*
X7253100Y-10932443D02*
X7253100Y-10799110D01*
X7253100Y-10732443D02*
X7243576Y-10741967D01*
X7243576Y-10741967D02*
X7253100Y-10751491D01*
X7253100Y-10751491D02*
X7262624Y-10741967D01*
X7262624Y-10741967D02*
X7253100Y-10732443D01*
X7253100Y-10732443D02*
X7253100Y-10751491D01*
X7376909Y-10932443D02*
X7357862Y-10922920D01*
X7357862Y-10922920D02*
X7348338Y-10903872D01*
X7348338Y-10903872D02*
X7348338Y-10732443D01*
X7481671Y-10932443D02*
X7462624Y-10922920D01*
X7462624Y-10922920D02*
X7453100Y-10903872D01*
X7453100Y-10903872D02*
X7453100Y-10732443D01*
X7710243Y-10932443D02*
X7710243Y-10732443D01*
X7710243Y-10732443D02*
X7776909Y-10875300D01*
X7776909Y-10875300D02*
X7843576Y-10732443D01*
X7843576Y-10732443D02*
X7843576Y-10932443D01*
X8024528Y-10932443D02*
X8024528Y-10827681D01*
X8024528Y-10827681D02*
X8015005Y-10808634D01*
X8015005Y-10808634D02*
X7995957Y-10799110D01*
X7995957Y-10799110D02*
X7957862Y-10799110D01*
X7957862Y-10799110D02*
X7938814Y-10808634D01*
X8024528Y-10922920D02*
X8005481Y-10932443D01*
X8005481Y-10932443D02*
X7957862Y-10932443D01*
X7957862Y-10932443D02*
X7938814Y-10922920D01*
X7938814Y-10922920D02*
X7929290Y-10903872D01*
X7929290Y-10903872D02*
X7929290Y-10884824D01*
X7929290Y-10884824D02*
X7938814Y-10865777D01*
X7938814Y-10865777D02*
X7957862Y-10856253D01*
X7957862Y-10856253D02*
X8005481Y-10856253D01*
X8005481Y-10856253D02*
X8024528Y-10846729D01*
X8119766Y-10799110D02*
X8119766Y-10999110D01*
X8119766Y-10808634D02*
X8138814Y-10799110D01*
X8138814Y-10799110D02*
X8176909Y-10799110D01*
X8176909Y-10799110D02*
X8195957Y-10808634D01*
X8195957Y-10808634D02*
X8205481Y-10818158D01*
X8205481Y-10818158D02*
X8215005Y-10837205D01*
X8215005Y-10837205D02*
X8215005Y-10894348D01*
X8215005Y-10894348D02*
X8205481Y-10913396D01*
X8205481Y-10913396D02*
X8195957Y-10922920D01*
X8195957Y-10922920D02*
X8176909Y-10932443D01*
X8176909Y-10932443D02*
X8138814Y-10932443D01*
X8138814Y-10932443D02*
X8119766Y-10922920D01*
X8300719Y-10913396D02*
X8310243Y-10922920D01*
X8310243Y-10922920D02*
X8300719Y-10932443D01*
X8300719Y-10932443D02*
X8291195Y-10922920D01*
X8291195Y-10922920D02*
X8300719Y-10913396D01*
X8300719Y-10913396D02*
X8300719Y-10932443D01*
X8300719Y-10808634D02*
X8310243Y-10818158D01*
X8310243Y-10818158D02*
X8300719Y-10827681D01*
X8300719Y-10827681D02*
X8291195Y-10818158D01*
X8291195Y-10818158D02*
X8300719Y-10808634D01*
X8300719Y-10808634D02*
X8300719Y-10827681D01*
D11*
X6628513Y-11240959D02*
X6668513Y-11280959D01*
X6668513Y-11240959D02*
X6628513Y-11280959D01*
D10*
X6967385Y-11152443D02*
X6986433Y-11152443D01*
X6986433Y-11152443D02*
X7005481Y-11161967D01*
X7005481Y-11161967D02*
X7015005Y-11171491D01*
X7015005Y-11171491D02*
X7024528Y-11190538D01*
X7024528Y-11190538D02*
X7034052Y-11228634D01*
X7034052Y-11228634D02*
X7034052Y-11276253D01*
X7034052Y-11276253D02*
X7024528Y-11314348D01*
X7024528Y-11314348D02*
X7015005Y-11333396D01*
X7015005Y-11333396D02*
X7005481Y-11342919D01*
X7005481Y-11342919D02*
X6986433Y-11352443D01*
X6986433Y-11352443D02*
X6967385Y-11352443D01*
X6967385Y-11352443D02*
X6948338Y-11342919D01*
X6948338Y-11342919D02*
X6938814Y-11333396D01*
X6938814Y-11333396D02*
X6929290Y-11314348D01*
X6929290Y-11314348D02*
X6919766Y-11276253D01*
X6919766Y-11276253D02*
X6919766Y-11228634D01*
X6919766Y-11228634D02*
X6929290Y-11190538D01*
X6929290Y-11190538D02*
X6938814Y-11171491D01*
X6938814Y-11171491D02*
X6948338Y-11161967D01*
X6948338Y-11161967D02*
X6967385Y-11152443D01*
X7119766Y-11333396D02*
X7129290Y-11342919D01*
X7129290Y-11342919D02*
X7119766Y-11352443D01*
X7119766Y-11352443D02*
X7110243Y-11342919D01*
X7110243Y-11342919D02*
X7119766Y-11333396D01*
X7119766Y-11333396D02*
X7119766Y-11352443D01*
X7300719Y-11219110D02*
X7300719Y-11352443D01*
X7253100Y-11142920D02*
X7205481Y-11285777D01*
X7205481Y-11285777D02*
X7329290Y-11285777D01*
X7443576Y-11152443D02*
X7462624Y-11152443D01*
X7462624Y-11152443D02*
X7481671Y-11161967D01*
X7481671Y-11161967D02*
X7491195Y-11171491D01*
X7491195Y-11171491D02*
X7500719Y-11190538D01*
X7500719Y-11190538D02*
X7510243Y-11228634D01*
X7510243Y-11228634D02*
X7510243Y-11276253D01*
X7510243Y-11276253D02*
X7500719Y-11314348D01*
X7500719Y-11314348D02*
X7491195Y-11333396D01*
X7491195Y-11333396D02*
X7481671Y-11342919D01*
X7481671Y-11342919D02*
X7462624Y-11352443D01*
X7462624Y-11352443D02*
X7443576Y-11352443D01*
X7443576Y-11352443D02*
X7424528Y-11342919D01*
X7424528Y-11342919D02*
X7415005Y-11333396D01*
X7415005Y-11333396D02*
X7405481Y-11314348D01*
X7405481Y-11314348D02*
X7395957Y-11276253D01*
X7395957Y-11276253D02*
X7395957Y-11228634D01*
X7395957Y-11228634D02*
X7405481Y-11190538D01*
X7405481Y-11190538D02*
X7415005Y-11171491D01*
X7415005Y-11171491D02*
X7424528Y-11161967D01*
X7424528Y-11161967D02*
X7443576Y-11152443D01*
X7634052Y-11152443D02*
X7653100Y-11152443D01*
X7653100Y-11152443D02*
X7672147Y-11161967D01*
X7672147Y-11161967D02*
X7681671Y-11171491D01*
X7681671Y-11171491D02*
X7691195Y-11190538D01*
X7691195Y-11190538D02*
X7700719Y-11228634D01*
X7700719Y-11228634D02*
X7700719Y-11276253D01*
X7700719Y-11276253D02*
X7691195Y-11314348D01*
X7691195Y-11314348D02*
X7681671Y-11333396D01*
X7681671Y-11333396D02*
X7672147Y-11342919D01*
X7672147Y-11342919D02*
X7653100Y-11352443D01*
X7653100Y-11352443D02*
X7634052Y-11352443D01*
X7634052Y-11352443D02*
X7615005Y-11342919D01*
X7615005Y-11342919D02*
X7605481Y-11333396D01*
X7605481Y-11333396D02*
X7595957Y-11314348D01*
X7595957Y-11314348D02*
X7586433Y-11276253D01*
X7586433Y-11276253D02*
X7586433Y-11228634D01*
X7586433Y-11228634D02*
X7595957Y-11190538D01*
X7595957Y-11190538D02*
X7605481Y-11171491D01*
X7605481Y-11171491D02*
X7615005Y-11161967D01*
X7615005Y-11161967D02*
X7634052Y-11152443D01*
X7786433Y-11352443D02*
X7786433Y-11219110D01*
X7786433Y-11238157D02*
X7795957Y-11228634D01*
X7795957Y-11228634D02*
X7815005Y-11219110D01*
X7815005Y-11219110D02*
X7843576Y-11219110D01*
X7843576Y-11219110D02*
X7862624Y-11228634D01*
X7862624Y-11228634D02*
X7872147Y-11247681D01*
X7872147Y-11247681D02*
X7872147Y-11352443D01*
X7872147Y-11247681D02*
X7881671Y-11228634D01*
X7881671Y-11228634D02*
X7900719Y-11219110D01*
X7900719Y-11219110D02*
X7929290Y-11219110D01*
X7929290Y-11219110D02*
X7948338Y-11228634D01*
X7948338Y-11228634D02*
X7957862Y-11247681D01*
X7957862Y-11247681D02*
X7957862Y-11352443D01*
X8053100Y-11352443D02*
X8053100Y-11219110D01*
X8053100Y-11238157D02*
X8062624Y-11228634D01*
X8062624Y-11228634D02*
X8081671Y-11219110D01*
X8081671Y-11219110D02*
X8110243Y-11219110D01*
X8110243Y-11219110D02*
X8129290Y-11228634D01*
X8129290Y-11228634D02*
X8138814Y-11247681D01*
X8138814Y-11247681D02*
X8138814Y-11352443D01*
X8138814Y-11247681D02*
X8148338Y-11228634D01*
X8148338Y-11228634D02*
X8167386Y-11219110D01*
X8167386Y-11219110D02*
X8195957Y-11219110D01*
X8195957Y-11219110D02*
X8215005Y-11228634D01*
X8215005Y-11228634D02*
X8224528Y-11247681D01*
X8224528Y-11247681D02*
X8224528Y-11352443D01*
X8615005Y-11142920D02*
X8443576Y-11400062D01*
X8872148Y-11152443D02*
X8891195Y-11152443D01*
X8891195Y-11152443D02*
X8910243Y-11161967D01*
X8910243Y-11161967D02*
X8919767Y-11171491D01*
X8919767Y-11171491D02*
X8929291Y-11190538D01*
X8929291Y-11190538D02*
X8938814Y-11228634D01*
X8938814Y-11228634D02*
X8938814Y-11276253D01*
X8938814Y-11276253D02*
X8929291Y-11314348D01*
X8929291Y-11314348D02*
X8919767Y-11333396D01*
X8919767Y-11333396D02*
X8910243Y-11342919D01*
X8910243Y-11342919D02*
X8891195Y-11352443D01*
X8891195Y-11352443D02*
X8872148Y-11352443D01*
X8872148Y-11352443D02*
X8853100Y-11342919D01*
X8853100Y-11342919D02*
X8843576Y-11333396D01*
X8843576Y-11333396D02*
X8834052Y-11314348D01*
X8834052Y-11314348D02*
X8824529Y-11276253D01*
X8824529Y-11276253D02*
X8824529Y-11228634D01*
X8824529Y-11228634D02*
X8834052Y-11190538D01*
X8834052Y-11190538D02*
X8843576Y-11171491D01*
X8843576Y-11171491D02*
X8853100Y-11161967D01*
X8853100Y-11161967D02*
X8872148Y-11152443D01*
X9024529Y-11333396D02*
X9034052Y-11342919D01*
X9034052Y-11342919D02*
X9024529Y-11352443D01*
X9024529Y-11352443D02*
X9015005Y-11342919D01*
X9015005Y-11342919D02*
X9024529Y-11333396D01*
X9024529Y-11333396D02*
X9024529Y-11352443D01*
X9157862Y-11152443D02*
X9176910Y-11152443D01*
X9176910Y-11152443D02*
X9195957Y-11161967D01*
X9195957Y-11161967D02*
X9205481Y-11171491D01*
X9205481Y-11171491D02*
X9215005Y-11190538D01*
X9215005Y-11190538D02*
X9224529Y-11228634D01*
X9224529Y-11228634D02*
X9224529Y-11276253D01*
X9224529Y-11276253D02*
X9215005Y-11314348D01*
X9215005Y-11314348D02*
X9205481Y-11333396D01*
X9205481Y-11333396D02*
X9195957Y-11342919D01*
X9195957Y-11342919D02*
X9176910Y-11352443D01*
X9176910Y-11352443D02*
X9157862Y-11352443D01*
X9157862Y-11352443D02*
X9138814Y-11342919D01*
X9138814Y-11342919D02*
X9129291Y-11333396D01*
X9129291Y-11333396D02*
X9119767Y-11314348D01*
X9119767Y-11314348D02*
X9110243Y-11276253D01*
X9110243Y-11276253D02*
X9110243Y-11228634D01*
X9110243Y-11228634D02*
X9119767Y-11190538D01*
X9119767Y-11190538D02*
X9129291Y-11171491D01*
X9129291Y-11171491D02*
X9138814Y-11161967D01*
X9138814Y-11161967D02*
X9157862Y-11152443D01*
X9415005Y-11352443D02*
X9300719Y-11352443D01*
X9357862Y-11352443D02*
X9357862Y-11152443D01*
X9357862Y-11152443D02*
X9338814Y-11181015D01*
X9338814Y-11181015D02*
X9319767Y-11200062D01*
X9319767Y-11200062D02*
X9300719Y-11209586D01*
X9595957Y-11152443D02*
X9500719Y-11152443D01*
X9500719Y-11152443D02*
X9491195Y-11247681D01*
X9491195Y-11247681D02*
X9500719Y-11238157D01*
X9500719Y-11238157D02*
X9519767Y-11228634D01*
X9519767Y-11228634D02*
X9567386Y-11228634D01*
X9567386Y-11228634D02*
X9586433Y-11238157D01*
X9586433Y-11238157D02*
X9595957Y-11247681D01*
X9595957Y-11247681D02*
X9605481Y-11266729D01*
X9605481Y-11266729D02*
X9605481Y-11314348D01*
X9605481Y-11314348D02*
X9595957Y-11333396D01*
X9595957Y-11333396D02*
X9586433Y-11342919D01*
X9586433Y-11342919D02*
X9567386Y-11352443D01*
X9567386Y-11352443D02*
X9519767Y-11352443D01*
X9519767Y-11352443D02*
X9500719Y-11342919D01*
X9500719Y-11342919D02*
X9491195Y-11333396D01*
X9672148Y-11152443D02*
X9805481Y-11152443D01*
X9805481Y-11152443D02*
X9719767Y-11352443D01*
X9872148Y-11152443D02*
X9872148Y-11190538D01*
X9948338Y-11152443D02*
X9948338Y-11190538D01*
X10243576Y-11428634D02*
X10234053Y-11419110D01*
X10234053Y-11419110D02*
X10215005Y-11390538D01*
X10215005Y-11390538D02*
X10205481Y-11371491D01*
X10205481Y-11371491D02*
X10195957Y-11342919D01*
X10195957Y-11342919D02*
X10186434Y-11295300D01*
X10186434Y-11295300D02*
X10186434Y-11257205D01*
X10186434Y-11257205D02*
X10195957Y-11209586D01*
X10195957Y-11209586D02*
X10205481Y-11181015D01*
X10205481Y-11181015D02*
X10215005Y-11161967D01*
X10215005Y-11161967D02*
X10234053Y-11133396D01*
X10234053Y-11133396D02*
X10243576Y-11123872D01*
X10310243Y-11171491D02*
X10319767Y-11161967D01*
X10319767Y-11161967D02*
X10338814Y-11152443D01*
X10338814Y-11152443D02*
X10386434Y-11152443D01*
X10386434Y-11152443D02*
X10405481Y-11161967D01*
X10405481Y-11161967D02*
X10415005Y-11171491D01*
X10415005Y-11171491D02*
X10424529Y-11190538D01*
X10424529Y-11190538D02*
X10424529Y-11209586D01*
X10424529Y-11209586D02*
X10415005Y-11238157D01*
X10415005Y-11238157D02*
X10300719Y-11352443D01*
X10300719Y-11352443D02*
X10424529Y-11352443D01*
X10595957Y-11152443D02*
X10557862Y-11152443D01*
X10557862Y-11152443D02*
X10538814Y-11161967D01*
X10538814Y-11161967D02*
X10529291Y-11171491D01*
X10529291Y-11171491D02*
X10510243Y-11200062D01*
X10510243Y-11200062D02*
X10500719Y-11238157D01*
X10500719Y-11238157D02*
X10500719Y-11314348D01*
X10500719Y-11314348D02*
X10510243Y-11333396D01*
X10510243Y-11333396D02*
X10519767Y-11342919D01*
X10519767Y-11342919D02*
X10538814Y-11352443D01*
X10538814Y-11352443D02*
X10576910Y-11352443D01*
X10576910Y-11352443D02*
X10595957Y-11342919D01*
X10595957Y-11342919D02*
X10605481Y-11333396D01*
X10605481Y-11333396D02*
X10615005Y-11314348D01*
X10615005Y-11314348D02*
X10615005Y-11266729D01*
X10615005Y-11266729D02*
X10605481Y-11247681D01*
X10605481Y-11247681D02*
X10595957Y-11238157D01*
X10595957Y-11238157D02*
X10576910Y-11228634D01*
X10576910Y-11228634D02*
X10538814Y-11228634D01*
X10538814Y-11228634D02*
X10519767Y-11238157D01*
X10519767Y-11238157D02*
X10510243Y-11247681D01*
X10510243Y-11247681D02*
X10500719Y-11266729D01*
X10738814Y-11152443D02*
X10757862Y-11152443D01*
X10757862Y-11152443D02*
X10776910Y-11161967D01*
X10776910Y-11161967D02*
X10786434Y-11171491D01*
X10786434Y-11171491D02*
X10795957Y-11190538D01*
X10795957Y-11190538D02*
X10805481Y-11228634D01*
X10805481Y-11228634D02*
X10805481Y-11276253D01*
X10805481Y-11276253D02*
X10795957Y-11314348D01*
X10795957Y-11314348D02*
X10786434Y-11333396D01*
X10786434Y-11333396D02*
X10776910Y-11342919D01*
X10776910Y-11342919D02*
X10757862Y-11352443D01*
X10757862Y-11352443D02*
X10738814Y-11352443D01*
X10738814Y-11352443D02*
X10719767Y-11342919D01*
X10719767Y-11342919D02*
X10710243Y-11333396D01*
X10710243Y-11333396D02*
X10700719Y-11314348D01*
X10700719Y-11314348D02*
X10691195Y-11276253D01*
X10691195Y-11276253D02*
X10691195Y-11228634D01*
X10691195Y-11228634D02*
X10700719Y-11190538D01*
X10700719Y-11190538D02*
X10710243Y-11171491D01*
X10710243Y-11171491D02*
X10719767Y-11161967D01*
X10719767Y-11161967D02*
X10738814Y-11152443D01*
X11043576Y-11352443D02*
X11043576Y-11152443D01*
X11129291Y-11352443D02*
X11129291Y-11247681D01*
X11129291Y-11247681D02*
X11119767Y-11228634D01*
X11119767Y-11228634D02*
X11100719Y-11219110D01*
X11100719Y-11219110D02*
X11072148Y-11219110D01*
X11072148Y-11219110D02*
X11053100Y-11228634D01*
X11053100Y-11228634D02*
X11043576Y-11238157D01*
X11253100Y-11352443D02*
X11234053Y-11342919D01*
X11234053Y-11342919D02*
X11224529Y-11333396D01*
X11224529Y-11333396D02*
X11215005Y-11314348D01*
X11215005Y-11314348D02*
X11215005Y-11257205D01*
X11215005Y-11257205D02*
X11224529Y-11238157D01*
X11224529Y-11238157D02*
X11234053Y-11228634D01*
X11234053Y-11228634D02*
X11253100Y-11219110D01*
X11253100Y-11219110D02*
X11281672Y-11219110D01*
X11281672Y-11219110D02*
X11300719Y-11228634D01*
X11300719Y-11228634D02*
X11310243Y-11238157D01*
X11310243Y-11238157D02*
X11319767Y-11257205D01*
X11319767Y-11257205D02*
X11319767Y-11314348D01*
X11319767Y-11314348D02*
X11310243Y-11333396D01*
X11310243Y-11333396D02*
X11300719Y-11342919D01*
X11300719Y-11342919D02*
X11281672Y-11352443D01*
X11281672Y-11352443D02*
X11253100Y-11352443D01*
X11434053Y-11352443D02*
X11415005Y-11342919D01*
X11415005Y-11342919D02*
X11405481Y-11323872D01*
X11405481Y-11323872D02*
X11405481Y-11152443D01*
X11586434Y-11342919D02*
X11567386Y-11352443D01*
X11567386Y-11352443D02*
X11529291Y-11352443D01*
X11529291Y-11352443D02*
X11510243Y-11342919D01*
X11510243Y-11342919D02*
X11500719Y-11323872D01*
X11500719Y-11323872D02*
X11500719Y-11247681D01*
X11500719Y-11247681D02*
X11510243Y-11228634D01*
X11510243Y-11228634D02*
X11529291Y-11219110D01*
X11529291Y-11219110D02*
X11567386Y-11219110D01*
X11567386Y-11219110D02*
X11586434Y-11228634D01*
X11586434Y-11228634D02*
X11595957Y-11247681D01*
X11595957Y-11247681D02*
X11595957Y-11266729D01*
X11595957Y-11266729D02*
X11500719Y-11285777D01*
X11672148Y-11342919D02*
X11691195Y-11352443D01*
X11691195Y-11352443D02*
X11729291Y-11352443D01*
X11729291Y-11352443D02*
X11748338Y-11342919D01*
X11748338Y-11342919D02*
X11757862Y-11323872D01*
X11757862Y-11323872D02*
X11757862Y-11314348D01*
X11757862Y-11314348D02*
X11748338Y-11295300D01*
X11748338Y-11295300D02*
X11729291Y-11285777D01*
X11729291Y-11285777D02*
X11700719Y-11285777D01*
X11700719Y-11285777D02*
X11681672Y-11276253D01*
X11681672Y-11276253D02*
X11672148Y-11257205D01*
X11672148Y-11257205D02*
X11672148Y-11247681D01*
X11672148Y-11247681D02*
X11681672Y-11228634D01*
X11681672Y-11228634D02*
X11700719Y-11219110D01*
X11700719Y-11219110D02*
X11729291Y-11219110D01*
X11729291Y-11219110D02*
X11748338Y-11228634D01*
X11824529Y-11428634D02*
X11834053Y-11419110D01*
X11834053Y-11419110D02*
X11853100Y-11390538D01*
X11853100Y-11390538D02*
X11862624Y-11371491D01*
X11862624Y-11371491D02*
X11872148Y-11342919D01*
X11872148Y-11342919D02*
X11881672Y-11295300D01*
X11881672Y-11295300D02*
X11881672Y-11257205D01*
X11881672Y-11257205D02*
X11872148Y-11209586D01*
X11872148Y-11209586D02*
X11862624Y-11181015D01*
X11862624Y-11181015D02*
X11853100Y-11161967D01*
X11853100Y-11161967D02*
X11834053Y-11133396D01*
X11834053Y-11133396D02*
X11824529Y-11123872D01*
D12*
X6668513Y-11524959D02*
G75*
G03*
X6668513Y-11524959I-30000J0D01*
G01*
D10*
X6967385Y-11416443D02*
X6986433Y-11416443D01*
X6986433Y-11416443D02*
X7005481Y-11425967D01*
X7005481Y-11425967D02*
X7015005Y-11435491D01*
X7015005Y-11435491D02*
X7024528Y-11454538D01*
X7024528Y-11454538D02*
X7034052Y-11492634D01*
X7034052Y-11492634D02*
X7034052Y-11540253D01*
X7034052Y-11540253D02*
X7024528Y-11578348D01*
X7024528Y-11578348D02*
X7015005Y-11597396D01*
X7015005Y-11597396D02*
X7005481Y-11606919D01*
X7005481Y-11606919D02*
X6986433Y-11616443D01*
X6986433Y-11616443D02*
X6967385Y-11616443D01*
X6967385Y-11616443D02*
X6948338Y-11606919D01*
X6948338Y-11606919D02*
X6938814Y-11597396D01*
X6938814Y-11597396D02*
X6929290Y-11578348D01*
X6929290Y-11578348D02*
X6919766Y-11540253D01*
X6919766Y-11540253D02*
X6919766Y-11492634D01*
X6919766Y-11492634D02*
X6929290Y-11454538D01*
X6929290Y-11454538D02*
X6938814Y-11435491D01*
X6938814Y-11435491D02*
X6948338Y-11425967D01*
X6948338Y-11425967D02*
X6967385Y-11416443D01*
X7119766Y-11597396D02*
X7129290Y-11606919D01*
X7129290Y-11606919D02*
X7119766Y-11616443D01*
X7119766Y-11616443D02*
X7110243Y-11606919D01*
X7110243Y-11606919D02*
X7119766Y-11597396D01*
X7119766Y-11597396D02*
X7119766Y-11616443D01*
X7300719Y-11416443D02*
X7262624Y-11416443D01*
X7262624Y-11416443D02*
X7243576Y-11425967D01*
X7243576Y-11425967D02*
X7234052Y-11435491D01*
X7234052Y-11435491D02*
X7215005Y-11464062D01*
X7215005Y-11464062D02*
X7205481Y-11502157D01*
X7205481Y-11502157D02*
X7205481Y-11578348D01*
X7205481Y-11578348D02*
X7215005Y-11597396D01*
X7215005Y-11597396D02*
X7224528Y-11606919D01*
X7224528Y-11606919D02*
X7243576Y-11616443D01*
X7243576Y-11616443D02*
X7281671Y-11616443D01*
X7281671Y-11616443D02*
X7300719Y-11606919D01*
X7300719Y-11606919D02*
X7310243Y-11597396D01*
X7310243Y-11597396D02*
X7319766Y-11578348D01*
X7319766Y-11578348D02*
X7319766Y-11530729D01*
X7319766Y-11530729D02*
X7310243Y-11511681D01*
X7310243Y-11511681D02*
X7300719Y-11502157D01*
X7300719Y-11502157D02*
X7281671Y-11492634D01*
X7281671Y-11492634D02*
X7243576Y-11492634D01*
X7243576Y-11492634D02*
X7224528Y-11502157D01*
X7224528Y-11502157D02*
X7215005Y-11511681D01*
X7215005Y-11511681D02*
X7205481Y-11530729D01*
X7443576Y-11416443D02*
X7462624Y-11416443D01*
X7462624Y-11416443D02*
X7481671Y-11425967D01*
X7481671Y-11425967D02*
X7491195Y-11435491D01*
X7491195Y-11435491D02*
X7500719Y-11454538D01*
X7500719Y-11454538D02*
X7510243Y-11492634D01*
X7510243Y-11492634D02*
X7510243Y-11540253D01*
X7510243Y-11540253D02*
X7500719Y-11578348D01*
X7500719Y-11578348D02*
X7491195Y-11597396D01*
X7491195Y-11597396D02*
X7481671Y-11606919D01*
X7481671Y-11606919D02*
X7462624Y-11616443D01*
X7462624Y-11616443D02*
X7443576Y-11616443D01*
X7443576Y-11616443D02*
X7424528Y-11606919D01*
X7424528Y-11606919D02*
X7415005Y-11597396D01*
X7415005Y-11597396D02*
X7405481Y-11578348D01*
X7405481Y-11578348D02*
X7395957Y-11540253D01*
X7395957Y-11540253D02*
X7395957Y-11492634D01*
X7395957Y-11492634D02*
X7405481Y-11454538D01*
X7405481Y-11454538D02*
X7415005Y-11435491D01*
X7415005Y-11435491D02*
X7424528Y-11425967D01*
X7424528Y-11425967D02*
X7443576Y-11416443D01*
X7634052Y-11416443D02*
X7653100Y-11416443D01*
X7653100Y-11416443D02*
X7672147Y-11425967D01*
X7672147Y-11425967D02*
X7681671Y-11435491D01*
X7681671Y-11435491D02*
X7691195Y-11454538D01*
X7691195Y-11454538D02*
X7700719Y-11492634D01*
X7700719Y-11492634D02*
X7700719Y-11540253D01*
X7700719Y-11540253D02*
X7691195Y-11578348D01*
X7691195Y-11578348D02*
X7681671Y-11597396D01*
X7681671Y-11597396D02*
X7672147Y-11606919D01*
X7672147Y-11606919D02*
X7653100Y-11616443D01*
X7653100Y-11616443D02*
X7634052Y-11616443D01*
X7634052Y-11616443D02*
X7615005Y-11606919D01*
X7615005Y-11606919D02*
X7605481Y-11597396D01*
X7605481Y-11597396D02*
X7595957Y-11578348D01*
X7595957Y-11578348D02*
X7586433Y-11540253D01*
X7586433Y-11540253D02*
X7586433Y-11492634D01*
X7586433Y-11492634D02*
X7595957Y-11454538D01*
X7595957Y-11454538D02*
X7605481Y-11435491D01*
X7605481Y-11435491D02*
X7615005Y-11425967D01*
X7615005Y-11425967D02*
X7634052Y-11416443D01*
X7786433Y-11616443D02*
X7786433Y-11483110D01*
X7786433Y-11502157D02*
X7795957Y-11492634D01*
X7795957Y-11492634D02*
X7815005Y-11483110D01*
X7815005Y-11483110D02*
X7843576Y-11483110D01*
X7843576Y-11483110D02*
X7862624Y-11492634D01*
X7862624Y-11492634D02*
X7872147Y-11511681D01*
X7872147Y-11511681D02*
X7872147Y-11616443D01*
X7872147Y-11511681D02*
X7881671Y-11492634D01*
X7881671Y-11492634D02*
X7900719Y-11483110D01*
X7900719Y-11483110D02*
X7929290Y-11483110D01*
X7929290Y-11483110D02*
X7948338Y-11492634D01*
X7948338Y-11492634D02*
X7957862Y-11511681D01*
X7957862Y-11511681D02*
X7957862Y-11616443D01*
X8053100Y-11616443D02*
X8053100Y-11483110D01*
X8053100Y-11502157D02*
X8062624Y-11492634D01*
X8062624Y-11492634D02*
X8081671Y-11483110D01*
X8081671Y-11483110D02*
X8110243Y-11483110D01*
X8110243Y-11483110D02*
X8129290Y-11492634D01*
X8129290Y-11492634D02*
X8138814Y-11511681D01*
X8138814Y-11511681D02*
X8138814Y-11616443D01*
X8138814Y-11511681D02*
X8148338Y-11492634D01*
X8148338Y-11492634D02*
X8167386Y-11483110D01*
X8167386Y-11483110D02*
X8195957Y-11483110D01*
X8195957Y-11483110D02*
X8215005Y-11492634D01*
X8215005Y-11492634D02*
X8224528Y-11511681D01*
X8224528Y-11511681D02*
X8224528Y-11616443D01*
X8615005Y-11406919D02*
X8443576Y-11664062D01*
X8872148Y-11416443D02*
X8891195Y-11416443D01*
X8891195Y-11416443D02*
X8910243Y-11425967D01*
X8910243Y-11425967D02*
X8919767Y-11435491D01*
X8919767Y-11435491D02*
X8929291Y-11454538D01*
X8929291Y-11454538D02*
X8938814Y-11492634D01*
X8938814Y-11492634D02*
X8938814Y-11540253D01*
X8938814Y-11540253D02*
X8929291Y-11578348D01*
X8929291Y-11578348D02*
X8919767Y-11597396D01*
X8919767Y-11597396D02*
X8910243Y-11606919D01*
X8910243Y-11606919D02*
X8891195Y-11616443D01*
X8891195Y-11616443D02*
X8872148Y-11616443D01*
X8872148Y-11616443D02*
X8853100Y-11606919D01*
X8853100Y-11606919D02*
X8843576Y-11597396D01*
X8843576Y-11597396D02*
X8834052Y-11578348D01*
X8834052Y-11578348D02*
X8824529Y-11540253D01*
X8824529Y-11540253D02*
X8824529Y-11492634D01*
X8824529Y-11492634D02*
X8834052Y-11454538D01*
X8834052Y-11454538D02*
X8843576Y-11435491D01*
X8843576Y-11435491D02*
X8853100Y-11425967D01*
X8853100Y-11425967D02*
X8872148Y-11416443D01*
X9024529Y-11597396D02*
X9034052Y-11606919D01*
X9034052Y-11606919D02*
X9024529Y-11616443D01*
X9024529Y-11616443D02*
X9015005Y-11606919D01*
X9015005Y-11606919D02*
X9024529Y-11597396D01*
X9024529Y-11597396D02*
X9024529Y-11616443D01*
X9157862Y-11416443D02*
X9176910Y-11416443D01*
X9176910Y-11416443D02*
X9195957Y-11425967D01*
X9195957Y-11425967D02*
X9205481Y-11435491D01*
X9205481Y-11435491D02*
X9215005Y-11454538D01*
X9215005Y-11454538D02*
X9224529Y-11492634D01*
X9224529Y-11492634D02*
X9224529Y-11540253D01*
X9224529Y-11540253D02*
X9215005Y-11578348D01*
X9215005Y-11578348D02*
X9205481Y-11597396D01*
X9205481Y-11597396D02*
X9195957Y-11606919D01*
X9195957Y-11606919D02*
X9176910Y-11616443D01*
X9176910Y-11616443D02*
X9157862Y-11616443D01*
X9157862Y-11616443D02*
X9138814Y-11606919D01*
X9138814Y-11606919D02*
X9129291Y-11597396D01*
X9129291Y-11597396D02*
X9119767Y-11578348D01*
X9119767Y-11578348D02*
X9110243Y-11540253D01*
X9110243Y-11540253D02*
X9110243Y-11492634D01*
X9110243Y-11492634D02*
X9119767Y-11454538D01*
X9119767Y-11454538D02*
X9129291Y-11435491D01*
X9129291Y-11435491D02*
X9138814Y-11425967D01*
X9138814Y-11425967D02*
X9157862Y-11416443D01*
X9300719Y-11435491D02*
X9310243Y-11425967D01*
X9310243Y-11425967D02*
X9329291Y-11416443D01*
X9329291Y-11416443D02*
X9376910Y-11416443D01*
X9376910Y-11416443D02*
X9395957Y-11425967D01*
X9395957Y-11425967D02*
X9405481Y-11435491D01*
X9405481Y-11435491D02*
X9415005Y-11454538D01*
X9415005Y-11454538D02*
X9415005Y-11473586D01*
X9415005Y-11473586D02*
X9405481Y-11502157D01*
X9405481Y-11502157D02*
X9291195Y-11616443D01*
X9291195Y-11616443D02*
X9415005Y-11616443D01*
X9481672Y-11416443D02*
X9605481Y-11416443D01*
X9605481Y-11416443D02*
X9538814Y-11492634D01*
X9538814Y-11492634D02*
X9567386Y-11492634D01*
X9567386Y-11492634D02*
X9586433Y-11502157D01*
X9586433Y-11502157D02*
X9595957Y-11511681D01*
X9595957Y-11511681D02*
X9605481Y-11530729D01*
X9605481Y-11530729D02*
X9605481Y-11578348D01*
X9605481Y-11578348D02*
X9595957Y-11597396D01*
X9595957Y-11597396D02*
X9586433Y-11606919D01*
X9586433Y-11606919D02*
X9567386Y-11616443D01*
X9567386Y-11616443D02*
X9510243Y-11616443D01*
X9510243Y-11616443D02*
X9491195Y-11606919D01*
X9491195Y-11606919D02*
X9481672Y-11597396D01*
X9776910Y-11416443D02*
X9738814Y-11416443D01*
X9738814Y-11416443D02*
X9719767Y-11425967D01*
X9719767Y-11425967D02*
X9710243Y-11435491D01*
X9710243Y-11435491D02*
X9691195Y-11464062D01*
X9691195Y-11464062D02*
X9681672Y-11502157D01*
X9681672Y-11502157D02*
X9681672Y-11578348D01*
X9681672Y-11578348D02*
X9691195Y-11597396D01*
X9691195Y-11597396D02*
X9700719Y-11606919D01*
X9700719Y-11606919D02*
X9719767Y-11616443D01*
X9719767Y-11616443D02*
X9757862Y-11616443D01*
X9757862Y-11616443D02*
X9776910Y-11606919D01*
X9776910Y-11606919D02*
X9786433Y-11597396D01*
X9786433Y-11597396D02*
X9795957Y-11578348D01*
X9795957Y-11578348D02*
X9795957Y-11530729D01*
X9795957Y-11530729D02*
X9786433Y-11511681D01*
X9786433Y-11511681D02*
X9776910Y-11502157D01*
X9776910Y-11502157D02*
X9757862Y-11492634D01*
X9757862Y-11492634D02*
X9719767Y-11492634D01*
X9719767Y-11492634D02*
X9700719Y-11502157D01*
X9700719Y-11502157D02*
X9691195Y-11511681D01*
X9691195Y-11511681D02*
X9681672Y-11530729D01*
X9872148Y-11416443D02*
X9872148Y-11454538D01*
X9948338Y-11416443D02*
X9948338Y-11454538D01*
X10243576Y-11692634D02*
X10234053Y-11683110D01*
X10234053Y-11683110D02*
X10215005Y-11654538D01*
X10215005Y-11654538D02*
X10205481Y-11635491D01*
X10205481Y-11635491D02*
X10195957Y-11606919D01*
X10195957Y-11606919D02*
X10186434Y-11559300D01*
X10186434Y-11559300D02*
X10186434Y-11521205D01*
X10186434Y-11521205D02*
X10195957Y-11473586D01*
X10195957Y-11473586D02*
X10205481Y-11445015D01*
X10205481Y-11445015D02*
X10215005Y-11425967D01*
X10215005Y-11425967D02*
X10234053Y-11397396D01*
X10234053Y-11397396D02*
X10243576Y-11387872D01*
X10357862Y-11416443D02*
X10376910Y-11416443D01*
X10376910Y-11416443D02*
X10395957Y-11425967D01*
X10395957Y-11425967D02*
X10405481Y-11435491D01*
X10405481Y-11435491D02*
X10415005Y-11454538D01*
X10415005Y-11454538D02*
X10424529Y-11492634D01*
X10424529Y-11492634D02*
X10424529Y-11540253D01*
X10424529Y-11540253D02*
X10415005Y-11578348D01*
X10415005Y-11578348D02*
X10405481Y-11597396D01*
X10405481Y-11597396D02*
X10395957Y-11606919D01*
X10395957Y-11606919D02*
X10376910Y-11616443D01*
X10376910Y-11616443D02*
X10357862Y-11616443D01*
X10357862Y-11616443D02*
X10338814Y-11606919D01*
X10338814Y-11606919D02*
X10329291Y-11597396D01*
X10329291Y-11597396D02*
X10319767Y-11578348D01*
X10319767Y-11578348D02*
X10310243Y-11540253D01*
X10310243Y-11540253D02*
X10310243Y-11492634D01*
X10310243Y-11492634D02*
X10319767Y-11454538D01*
X10319767Y-11454538D02*
X10329291Y-11435491D01*
X10329291Y-11435491D02*
X10338814Y-11425967D01*
X10338814Y-11425967D02*
X10357862Y-11416443D01*
X10662624Y-11616443D02*
X10662624Y-11416443D01*
X10748338Y-11616443D02*
X10748338Y-11511681D01*
X10748338Y-11511681D02*
X10738815Y-11492634D01*
X10738815Y-11492634D02*
X10719767Y-11483110D01*
X10719767Y-11483110D02*
X10691195Y-11483110D01*
X10691195Y-11483110D02*
X10672148Y-11492634D01*
X10672148Y-11492634D02*
X10662624Y-11502157D01*
X10872148Y-11616443D02*
X10853100Y-11606919D01*
X10853100Y-11606919D02*
X10843576Y-11597396D01*
X10843576Y-11597396D02*
X10834053Y-11578348D01*
X10834053Y-11578348D02*
X10834053Y-11521205D01*
X10834053Y-11521205D02*
X10843576Y-11502157D01*
X10843576Y-11502157D02*
X10853100Y-11492634D01*
X10853100Y-11492634D02*
X10872148Y-11483110D01*
X10872148Y-11483110D02*
X10900719Y-11483110D01*
X10900719Y-11483110D02*
X10919767Y-11492634D01*
X10919767Y-11492634D02*
X10929291Y-11502157D01*
X10929291Y-11502157D02*
X10938815Y-11521205D01*
X10938815Y-11521205D02*
X10938815Y-11578348D01*
X10938815Y-11578348D02*
X10929291Y-11597396D01*
X10929291Y-11597396D02*
X10919767Y-11606919D01*
X10919767Y-11606919D02*
X10900719Y-11616443D01*
X10900719Y-11616443D02*
X10872148Y-11616443D01*
X11053100Y-11616443D02*
X11034053Y-11606919D01*
X11034053Y-11606919D02*
X11024529Y-11587872D01*
X11024529Y-11587872D02*
X11024529Y-11416443D01*
X11205481Y-11606919D02*
X11186434Y-11616443D01*
X11186434Y-11616443D02*
X11148338Y-11616443D01*
X11148338Y-11616443D02*
X11129291Y-11606919D01*
X11129291Y-11606919D02*
X11119767Y-11587872D01*
X11119767Y-11587872D02*
X11119767Y-11511681D01*
X11119767Y-11511681D02*
X11129291Y-11492634D01*
X11129291Y-11492634D02*
X11148338Y-11483110D01*
X11148338Y-11483110D02*
X11186434Y-11483110D01*
X11186434Y-11483110D02*
X11205481Y-11492634D01*
X11205481Y-11492634D02*
X11215005Y-11511681D01*
X11215005Y-11511681D02*
X11215005Y-11530729D01*
X11215005Y-11530729D02*
X11119767Y-11549777D01*
X11291195Y-11606919D02*
X11310243Y-11616443D01*
X11310243Y-11616443D02*
X11348338Y-11616443D01*
X11348338Y-11616443D02*
X11367386Y-11606919D01*
X11367386Y-11606919D02*
X11376910Y-11587872D01*
X11376910Y-11587872D02*
X11376910Y-11578348D01*
X11376910Y-11578348D02*
X11367386Y-11559300D01*
X11367386Y-11559300D02*
X11348338Y-11549777D01*
X11348338Y-11549777D02*
X11319767Y-11549777D01*
X11319767Y-11549777D02*
X11300719Y-11540253D01*
X11300719Y-11540253D02*
X11291195Y-11521205D01*
X11291195Y-11521205D02*
X11291195Y-11511681D01*
X11291195Y-11511681D02*
X11300719Y-11492634D01*
X11300719Y-11492634D02*
X11319767Y-11483110D01*
X11319767Y-11483110D02*
X11348338Y-11483110D01*
X11348338Y-11483110D02*
X11367386Y-11492634D01*
X11615005Y-11540253D02*
X11767386Y-11540253D01*
X11691196Y-11616443D02*
X11691196Y-11464062D01*
X12005481Y-11435491D02*
X12015005Y-11425967D01*
X12015005Y-11425967D02*
X12034053Y-11416443D01*
X12034053Y-11416443D02*
X12081672Y-11416443D01*
X12081672Y-11416443D02*
X12100719Y-11425967D01*
X12100719Y-11425967D02*
X12110243Y-11435491D01*
X12110243Y-11435491D02*
X12119767Y-11454538D01*
X12119767Y-11454538D02*
X12119767Y-11473586D01*
X12119767Y-11473586D02*
X12110243Y-11502157D01*
X12110243Y-11502157D02*
X11995957Y-11616443D01*
X11995957Y-11616443D02*
X12119767Y-11616443D01*
X12348338Y-11606919D02*
X12367386Y-11616443D01*
X12367386Y-11616443D02*
X12405481Y-11616443D01*
X12405481Y-11616443D02*
X12424529Y-11606919D01*
X12424529Y-11606919D02*
X12434053Y-11587872D01*
X12434053Y-11587872D02*
X12434053Y-11578348D01*
X12434053Y-11578348D02*
X12424529Y-11559300D01*
X12424529Y-11559300D02*
X12405481Y-11549777D01*
X12405481Y-11549777D02*
X12376910Y-11549777D01*
X12376910Y-11549777D02*
X12357862Y-11540253D01*
X12357862Y-11540253D02*
X12348338Y-11521205D01*
X12348338Y-11521205D02*
X12348338Y-11511681D01*
X12348338Y-11511681D02*
X12357862Y-11492634D01*
X12357862Y-11492634D02*
X12376910Y-11483110D01*
X12376910Y-11483110D02*
X12405481Y-11483110D01*
X12405481Y-11483110D02*
X12424529Y-11492634D01*
X12548338Y-11616443D02*
X12529291Y-11606919D01*
X12529291Y-11606919D02*
X12519767Y-11587872D01*
X12519767Y-11587872D02*
X12519767Y-11416443D01*
X12653100Y-11616443D02*
X12634053Y-11606919D01*
X12634053Y-11606919D02*
X12624529Y-11597396D01*
X12624529Y-11597396D02*
X12615005Y-11578348D01*
X12615005Y-11578348D02*
X12615005Y-11521205D01*
X12615005Y-11521205D02*
X12624529Y-11502157D01*
X12624529Y-11502157D02*
X12634053Y-11492634D01*
X12634053Y-11492634D02*
X12653100Y-11483110D01*
X12653100Y-11483110D02*
X12681672Y-11483110D01*
X12681672Y-11483110D02*
X12700719Y-11492634D01*
X12700719Y-11492634D02*
X12710243Y-11502157D01*
X12710243Y-11502157D02*
X12719767Y-11521205D01*
X12719767Y-11521205D02*
X12719767Y-11578348D01*
X12719767Y-11578348D02*
X12710243Y-11597396D01*
X12710243Y-11597396D02*
X12700719Y-11606919D01*
X12700719Y-11606919D02*
X12681672Y-11616443D01*
X12681672Y-11616443D02*
X12653100Y-11616443D01*
X12776910Y-11483110D02*
X12853100Y-11483110D01*
X12805481Y-11416443D02*
X12805481Y-11587872D01*
X12805481Y-11587872D02*
X12815005Y-11606919D01*
X12815005Y-11606919D02*
X12834053Y-11616443D01*
X12834053Y-11616443D02*
X12853100Y-11616443D01*
X12910243Y-11606919D02*
X12929291Y-11616443D01*
X12929291Y-11616443D02*
X12967386Y-11616443D01*
X12967386Y-11616443D02*
X12986434Y-11606919D01*
X12986434Y-11606919D02*
X12995958Y-11587872D01*
X12995958Y-11587872D02*
X12995958Y-11578348D01*
X12995958Y-11578348D02*
X12986434Y-11559300D01*
X12986434Y-11559300D02*
X12967386Y-11549777D01*
X12967386Y-11549777D02*
X12938815Y-11549777D01*
X12938815Y-11549777D02*
X12919767Y-11540253D01*
X12919767Y-11540253D02*
X12910243Y-11521205D01*
X12910243Y-11521205D02*
X12910243Y-11511681D01*
X12910243Y-11511681D02*
X12919767Y-11492634D01*
X12919767Y-11492634D02*
X12938815Y-11483110D01*
X12938815Y-11483110D02*
X12967386Y-11483110D01*
X12967386Y-11483110D02*
X12986434Y-11492634D01*
X13062624Y-11692634D02*
X13072148Y-11683110D01*
X13072148Y-11683110D02*
X13091196Y-11654538D01*
X13091196Y-11654538D02*
X13100719Y-11635491D01*
X13100719Y-11635491D02*
X13110243Y-11606919D01*
X13110243Y-11606919D02*
X13119767Y-11559300D01*
X13119767Y-11559300D02*
X13119767Y-11521205D01*
X13119767Y-11521205D02*
X13110243Y-11473586D01*
X13110243Y-11473586D02*
X13100719Y-11445015D01*
X13100719Y-11445015D02*
X13091196Y-11425967D01*
X13091196Y-11425967D02*
X13072148Y-11397396D01*
X13072148Y-11397396D02*
X13062624Y-11387872D01*
D13*
X6638513Y-11758959D02*
X6638513Y-11818959D01*
X6608513Y-11788959D02*
X6668513Y-11788959D01*
D10*
X6967385Y-11680443D02*
X6986433Y-11680443D01*
X6986433Y-11680443D02*
X7005481Y-11689967D01*
X7005481Y-11689967D02*
X7015005Y-11699491D01*
X7015005Y-11699491D02*
X7024528Y-11718538D01*
X7024528Y-11718538D02*
X7034052Y-11756634D01*
X7034052Y-11756634D02*
X7034052Y-11804253D01*
X7034052Y-11804253D02*
X7024528Y-11842348D01*
X7024528Y-11842348D02*
X7015005Y-11861396D01*
X7015005Y-11861396D02*
X7005481Y-11870919D01*
X7005481Y-11870919D02*
X6986433Y-11880443D01*
X6986433Y-11880443D02*
X6967385Y-11880443D01*
X6967385Y-11880443D02*
X6948338Y-11870919D01*
X6948338Y-11870919D02*
X6938814Y-11861396D01*
X6938814Y-11861396D02*
X6929290Y-11842348D01*
X6929290Y-11842348D02*
X6919766Y-11804253D01*
X6919766Y-11804253D02*
X6919766Y-11756634D01*
X6919766Y-11756634D02*
X6929290Y-11718538D01*
X6929290Y-11718538D02*
X6938814Y-11699491D01*
X6938814Y-11699491D02*
X6948338Y-11689967D01*
X6948338Y-11689967D02*
X6967385Y-11680443D01*
X7119766Y-11861396D02*
X7129290Y-11870919D01*
X7129290Y-11870919D02*
X7119766Y-11880443D01*
X7119766Y-11880443D02*
X7110243Y-11870919D01*
X7110243Y-11870919D02*
X7119766Y-11861396D01*
X7119766Y-11861396D02*
X7119766Y-11880443D01*
X7300719Y-11680443D02*
X7262624Y-11680443D01*
X7262624Y-11680443D02*
X7243576Y-11689967D01*
X7243576Y-11689967D02*
X7234052Y-11699491D01*
X7234052Y-11699491D02*
X7215005Y-11728062D01*
X7215005Y-11728062D02*
X7205481Y-11766157D01*
X7205481Y-11766157D02*
X7205481Y-11842348D01*
X7205481Y-11842348D02*
X7215005Y-11861396D01*
X7215005Y-11861396D02*
X7224528Y-11870919D01*
X7224528Y-11870919D02*
X7243576Y-11880443D01*
X7243576Y-11880443D02*
X7281671Y-11880443D01*
X7281671Y-11880443D02*
X7300719Y-11870919D01*
X7300719Y-11870919D02*
X7310243Y-11861396D01*
X7310243Y-11861396D02*
X7319766Y-11842348D01*
X7319766Y-11842348D02*
X7319766Y-11794729D01*
X7319766Y-11794729D02*
X7310243Y-11775681D01*
X7310243Y-11775681D02*
X7300719Y-11766157D01*
X7300719Y-11766157D02*
X7281671Y-11756634D01*
X7281671Y-11756634D02*
X7243576Y-11756634D01*
X7243576Y-11756634D02*
X7224528Y-11766157D01*
X7224528Y-11766157D02*
X7215005Y-11775681D01*
X7215005Y-11775681D02*
X7205481Y-11794729D01*
X7443576Y-11680443D02*
X7462624Y-11680443D01*
X7462624Y-11680443D02*
X7481671Y-11689967D01*
X7481671Y-11689967D02*
X7491195Y-11699491D01*
X7491195Y-11699491D02*
X7500719Y-11718538D01*
X7500719Y-11718538D02*
X7510243Y-11756634D01*
X7510243Y-11756634D02*
X7510243Y-11804253D01*
X7510243Y-11804253D02*
X7500719Y-11842348D01*
X7500719Y-11842348D02*
X7491195Y-11861396D01*
X7491195Y-11861396D02*
X7481671Y-11870919D01*
X7481671Y-11870919D02*
X7462624Y-11880443D01*
X7462624Y-11880443D02*
X7443576Y-11880443D01*
X7443576Y-11880443D02*
X7424528Y-11870919D01*
X7424528Y-11870919D02*
X7415005Y-11861396D01*
X7415005Y-11861396D02*
X7405481Y-11842348D01*
X7405481Y-11842348D02*
X7395957Y-11804253D01*
X7395957Y-11804253D02*
X7395957Y-11756634D01*
X7395957Y-11756634D02*
X7405481Y-11718538D01*
X7405481Y-11718538D02*
X7415005Y-11699491D01*
X7415005Y-11699491D02*
X7424528Y-11689967D01*
X7424528Y-11689967D02*
X7443576Y-11680443D01*
X7634052Y-11680443D02*
X7653100Y-11680443D01*
X7653100Y-11680443D02*
X7672147Y-11689967D01*
X7672147Y-11689967D02*
X7681671Y-11699491D01*
X7681671Y-11699491D02*
X7691195Y-11718538D01*
X7691195Y-11718538D02*
X7700719Y-11756634D01*
X7700719Y-11756634D02*
X7700719Y-11804253D01*
X7700719Y-11804253D02*
X7691195Y-11842348D01*
X7691195Y-11842348D02*
X7681671Y-11861396D01*
X7681671Y-11861396D02*
X7672147Y-11870919D01*
X7672147Y-11870919D02*
X7653100Y-11880443D01*
X7653100Y-11880443D02*
X7634052Y-11880443D01*
X7634052Y-11880443D02*
X7615005Y-11870919D01*
X7615005Y-11870919D02*
X7605481Y-11861396D01*
X7605481Y-11861396D02*
X7595957Y-11842348D01*
X7595957Y-11842348D02*
X7586433Y-11804253D01*
X7586433Y-11804253D02*
X7586433Y-11756634D01*
X7586433Y-11756634D02*
X7595957Y-11718538D01*
X7595957Y-11718538D02*
X7605481Y-11699491D01*
X7605481Y-11699491D02*
X7615005Y-11689967D01*
X7615005Y-11689967D02*
X7634052Y-11680443D01*
X7786433Y-11880443D02*
X7786433Y-11747110D01*
X7786433Y-11766157D02*
X7795957Y-11756634D01*
X7795957Y-11756634D02*
X7815005Y-11747110D01*
X7815005Y-11747110D02*
X7843576Y-11747110D01*
X7843576Y-11747110D02*
X7862624Y-11756634D01*
X7862624Y-11756634D02*
X7872147Y-11775681D01*
X7872147Y-11775681D02*
X7872147Y-11880443D01*
X7872147Y-11775681D02*
X7881671Y-11756634D01*
X7881671Y-11756634D02*
X7900719Y-11747110D01*
X7900719Y-11747110D02*
X7929290Y-11747110D01*
X7929290Y-11747110D02*
X7948338Y-11756634D01*
X7948338Y-11756634D02*
X7957862Y-11775681D01*
X7957862Y-11775681D02*
X7957862Y-11880443D01*
X8053100Y-11880443D02*
X8053100Y-11747110D01*
X8053100Y-11766157D02*
X8062624Y-11756634D01*
X8062624Y-11756634D02*
X8081671Y-11747110D01*
X8081671Y-11747110D02*
X8110243Y-11747110D01*
X8110243Y-11747110D02*
X8129290Y-11756634D01*
X8129290Y-11756634D02*
X8138814Y-11775681D01*
X8138814Y-11775681D02*
X8138814Y-11880443D01*
X8138814Y-11775681D02*
X8148338Y-11756634D01*
X8148338Y-11756634D02*
X8167386Y-11747110D01*
X8167386Y-11747110D02*
X8195957Y-11747110D01*
X8195957Y-11747110D02*
X8215005Y-11756634D01*
X8215005Y-11756634D02*
X8224528Y-11775681D01*
X8224528Y-11775681D02*
X8224528Y-11880443D01*
X8615005Y-11670919D02*
X8443576Y-11928062D01*
X8872148Y-11680443D02*
X8891195Y-11680443D01*
X8891195Y-11680443D02*
X8910243Y-11689967D01*
X8910243Y-11689967D02*
X8919767Y-11699491D01*
X8919767Y-11699491D02*
X8929291Y-11718538D01*
X8929291Y-11718538D02*
X8938814Y-11756634D01*
X8938814Y-11756634D02*
X8938814Y-11804253D01*
X8938814Y-11804253D02*
X8929291Y-11842348D01*
X8929291Y-11842348D02*
X8919767Y-11861396D01*
X8919767Y-11861396D02*
X8910243Y-11870919D01*
X8910243Y-11870919D02*
X8891195Y-11880443D01*
X8891195Y-11880443D02*
X8872148Y-11880443D01*
X8872148Y-11880443D02*
X8853100Y-11870919D01*
X8853100Y-11870919D02*
X8843576Y-11861396D01*
X8843576Y-11861396D02*
X8834052Y-11842348D01*
X8834052Y-11842348D02*
X8824529Y-11804253D01*
X8824529Y-11804253D02*
X8824529Y-11756634D01*
X8824529Y-11756634D02*
X8834052Y-11718538D01*
X8834052Y-11718538D02*
X8843576Y-11699491D01*
X8843576Y-11699491D02*
X8853100Y-11689967D01*
X8853100Y-11689967D02*
X8872148Y-11680443D01*
X9024529Y-11861396D02*
X9034052Y-11870919D01*
X9034052Y-11870919D02*
X9024529Y-11880443D01*
X9024529Y-11880443D02*
X9015005Y-11870919D01*
X9015005Y-11870919D02*
X9024529Y-11861396D01*
X9024529Y-11861396D02*
X9024529Y-11880443D01*
X9157862Y-11680443D02*
X9176910Y-11680443D01*
X9176910Y-11680443D02*
X9195957Y-11689967D01*
X9195957Y-11689967D02*
X9205481Y-11699491D01*
X9205481Y-11699491D02*
X9215005Y-11718538D01*
X9215005Y-11718538D02*
X9224529Y-11756634D01*
X9224529Y-11756634D02*
X9224529Y-11804253D01*
X9224529Y-11804253D02*
X9215005Y-11842348D01*
X9215005Y-11842348D02*
X9205481Y-11861396D01*
X9205481Y-11861396D02*
X9195957Y-11870919D01*
X9195957Y-11870919D02*
X9176910Y-11880443D01*
X9176910Y-11880443D02*
X9157862Y-11880443D01*
X9157862Y-11880443D02*
X9138814Y-11870919D01*
X9138814Y-11870919D02*
X9129291Y-11861396D01*
X9129291Y-11861396D02*
X9119767Y-11842348D01*
X9119767Y-11842348D02*
X9110243Y-11804253D01*
X9110243Y-11804253D02*
X9110243Y-11756634D01*
X9110243Y-11756634D02*
X9119767Y-11718538D01*
X9119767Y-11718538D02*
X9129291Y-11699491D01*
X9129291Y-11699491D02*
X9138814Y-11689967D01*
X9138814Y-11689967D02*
X9157862Y-11680443D01*
X9300719Y-11699491D02*
X9310243Y-11689967D01*
X9310243Y-11689967D02*
X9329291Y-11680443D01*
X9329291Y-11680443D02*
X9376910Y-11680443D01*
X9376910Y-11680443D02*
X9395957Y-11689967D01*
X9395957Y-11689967D02*
X9405481Y-11699491D01*
X9405481Y-11699491D02*
X9415005Y-11718538D01*
X9415005Y-11718538D02*
X9415005Y-11737586D01*
X9415005Y-11737586D02*
X9405481Y-11766157D01*
X9405481Y-11766157D02*
X9291195Y-11880443D01*
X9291195Y-11880443D02*
X9415005Y-11880443D01*
X9481672Y-11680443D02*
X9605481Y-11680443D01*
X9605481Y-11680443D02*
X9538814Y-11756634D01*
X9538814Y-11756634D02*
X9567386Y-11756634D01*
X9567386Y-11756634D02*
X9586433Y-11766157D01*
X9586433Y-11766157D02*
X9595957Y-11775681D01*
X9595957Y-11775681D02*
X9605481Y-11794729D01*
X9605481Y-11794729D02*
X9605481Y-11842348D01*
X9605481Y-11842348D02*
X9595957Y-11861396D01*
X9595957Y-11861396D02*
X9586433Y-11870919D01*
X9586433Y-11870919D02*
X9567386Y-11880443D01*
X9567386Y-11880443D02*
X9510243Y-11880443D01*
X9510243Y-11880443D02*
X9491195Y-11870919D01*
X9491195Y-11870919D02*
X9481672Y-11861396D01*
X9776910Y-11680443D02*
X9738814Y-11680443D01*
X9738814Y-11680443D02*
X9719767Y-11689967D01*
X9719767Y-11689967D02*
X9710243Y-11699491D01*
X9710243Y-11699491D02*
X9691195Y-11728062D01*
X9691195Y-11728062D02*
X9681672Y-11766157D01*
X9681672Y-11766157D02*
X9681672Y-11842348D01*
X9681672Y-11842348D02*
X9691195Y-11861396D01*
X9691195Y-11861396D02*
X9700719Y-11870919D01*
X9700719Y-11870919D02*
X9719767Y-11880443D01*
X9719767Y-11880443D02*
X9757862Y-11880443D01*
X9757862Y-11880443D02*
X9776910Y-11870919D01*
X9776910Y-11870919D02*
X9786433Y-11861396D01*
X9786433Y-11861396D02*
X9795957Y-11842348D01*
X9795957Y-11842348D02*
X9795957Y-11794729D01*
X9795957Y-11794729D02*
X9786433Y-11775681D01*
X9786433Y-11775681D02*
X9776910Y-11766157D01*
X9776910Y-11766157D02*
X9757862Y-11756634D01*
X9757862Y-11756634D02*
X9719767Y-11756634D01*
X9719767Y-11756634D02*
X9700719Y-11766157D01*
X9700719Y-11766157D02*
X9691195Y-11775681D01*
X9691195Y-11775681D02*
X9681672Y-11794729D01*
X9872148Y-11680443D02*
X9872148Y-11718538D01*
X9948338Y-11680443D02*
X9948338Y-11718538D01*
X10243576Y-11956634D02*
X10234053Y-11947110D01*
X10234053Y-11947110D02*
X10215005Y-11918538D01*
X10215005Y-11918538D02*
X10205481Y-11899491D01*
X10205481Y-11899491D02*
X10195957Y-11870919D01*
X10195957Y-11870919D02*
X10186434Y-11823300D01*
X10186434Y-11823300D02*
X10186434Y-11785205D01*
X10186434Y-11785205D02*
X10195957Y-11737586D01*
X10195957Y-11737586D02*
X10205481Y-11709015D01*
X10205481Y-11709015D02*
X10215005Y-11689967D01*
X10215005Y-11689967D02*
X10234053Y-11661396D01*
X10234053Y-11661396D02*
X10243576Y-11651872D01*
X10310243Y-11699491D02*
X10319767Y-11689967D01*
X10319767Y-11689967D02*
X10338814Y-11680443D01*
X10338814Y-11680443D02*
X10386434Y-11680443D01*
X10386434Y-11680443D02*
X10405481Y-11689967D01*
X10405481Y-11689967D02*
X10415005Y-11699491D01*
X10415005Y-11699491D02*
X10424529Y-11718538D01*
X10424529Y-11718538D02*
X10424529Y-11737586D01*
X10424529Y-11737586D02*
X10415005Y-11766157D01*
X10415005Y-11766157D02*
X10300719Y-11880443D01*
X10300719Y-11880443D02*
X10424529Y-11880443D01*
X10662624Y-11880443D02*
X10662624Y-11680443D01*
X10748338Y-11880443D02*
X10748338Y-11775681D01*
X10748338Y-11775681D02*
X10738815Y-11756634D01*
X10738815Y-11756634D02*
X10719767Y-11747110D01*
X10719767Y-11747110D02*
X10691195Y-11747110D01*
X10691195Y-11747110D02*
X10672148Y-11756634D01*
X10672148Y-11756634D02*
X10662624Y-11766157D01*
X10872148Y-11880443D02*
X10853100Y-11870919D01*
X10853100Y-11870919D02*
X10843576Y-11861396D01*
X10843576Y-11861396D02*
X10834053Y-11842348D01*
X10834053Y-11842348D02*
X10834053Y-11785205D01*
X10834053Y-11785205D02*
X10843576Y-11766157D01*
X10843576Y-11766157D02*
X10853100Y-11756634D01*
X10853100Y-11756634D02*
X10872148Y-11747110D01*
X10872148Y-11747110D02*
X10900719Y-11747110D01*
X10900719Y-11747110D02*
X10919767Y-11756634D01*
X10919767Y-11756634D02*
X10929291Y-11766157D01*
X10929291Y-11766157D02*
X10938815Y-11785205D01*
X10938815Y-11785205D02*
X10938815Y-11842348D01*
X10938815Y-11842348D02*
X10929291Y-11861396D01*
X10929291Y-11861396D02*
X10919767Y-11870919D01*
X10919767Y-11870919D02*
X10900719Y-11880443D01*
X10900719Y-11880443D02*
X10872148Y-11880443D01*
X11053100Y-11880443D02*
X11034053Y-11870919D01*
X11034053Y-11870919D02*
X11024529Y-11851872D01*
X11024529Y-11851872D02*
X11024529Y-11680443D01*
X11205481Y-11870919D02*
X11186434Y-11880443D01*
X11186434Y-11880443D02*
X11148338Y-11880443D01*
X11148338Y-11880443D02*
X11129291Y-11870919D01*
X11129291Y-11870919D02*
X11119767Y-11851872D01*
X11119767Y-11851872D02*
X11119767Y-11775681D01*
X11119767Y-11775681D02*
X11129291Y-11756634D01*
X11129291Y-11756634D02*
X11148338Y-11747110D01*
X11148338Y-11747110D02*
X11186434Y-11747110D01*
X11186434Y-11747110D02*
X11205481Y-11756634D01*
X11205481Y-11756634D02*
X11215005Y-11775681D01*
X11215005Y-11775681D02*
X11215005Y-11794729D01*
X11215005Y-11794729D02*
X11119767Y-11813777D01*
X11291195Y-11870919D02*
X11310243Y-11880443D01*
X11310243Y-11880443D02*
X11348338Y-11880443D01*
X11348338Y-11880443D02*
X11367386Y-11870919D01*
X11367386Y-11870919D02*
X11376910Y-11851872D01*
X11376910Y-11851872D02*
X11376910Y-11842348D01*
X11376910Y-11842348D02*
X11367386Y-11823300D01*
X11367386Y-11823300D02*
X11348338Y-11813777D01*
X11348338Y-11813777D02*
X11319767Y-11813777D01*
X11319767Y-11813777D02*
X11300719Y-11804253D01*
X11300719Y-11804253D02*
X11291195Y-11785205D01*
X11291195Y-11785205D02*
X11291195Y-11775681D01*
X11291195Y-11775681D02*
X11300719Y-11756634D01*
X11300719Y-11756634D02*
X11319767Y-11747110D01*
X11319767Y-11747110D02*
X11348338Y-11747110D01*
X11348338Y-11747110D02*
X11367386Y-11756634D01*
X11443576Y-11956634D02*
X11453100Y-11947110D01*
X11453100Y-11947110D02*
X11472148Y-11918538D01*
X11472148Y-11918538D02*
X11481672Y-11899491D01*
X11481672Y-11899491D02*
X11491195Y-11870919D01*
X11491195Y-11870919D02*
X11500719Y-11823300D01*
X11500719Y-11823300D02*
X11500719Y-11785205D01*
X11500719Y-11785205D02*
X11491195Y-11737586D01*
X11491195Y-11737586D02*
X11481672Y-11709015D01*
X11481672Y-11709015D02*
X11472148Y-11689967D01*
X11472148Y-11689967D02*
X11453100Y-11661396D01*
X11453100Y-11661396D02*
X11443576Y-11651872D01*
D14*
X6656798Y-12081244D02*
X6656798Y-12024675D01*
X6600229Y-12024675D01*
X6600229Y-12081244D01*
X6656798Y-12081244D01*
D10*
X6967385Y-11944443D02*
X6986433Y-11944443D01*
X6986433Y-11944443D02*
X7005481Y-11953967D01*
X7005481Y-11953967D02*
X7015005Y-11963491D01*
X7015005Y-11963491D02*
X7024528Y-11982538D01*
X7024528Y-11982538D02*
X7034052Y-12020634D01*
X7034052Y-12020634D02*
X7034052Y-12068253D01*
X7034052Y-12068253D02*
X7024528Y-12106348D01*
X7024528Y-12106348D02*
X7015005Y-12125396D01*
X7015005Y-12125396D02*
X7005481Y-12134919D01*
X7005481Y-12134919D02*
X6986433Y-12144443D01*
X6986433Y-12144443D02*
X6967385Y-12144443D01*
X6967385Y-12144443D02*
X6948338Y-12134919D01*
X6948338Y-12134919D02*
X6938814Y-12125396D01*
X6938814Y-12125396D02*
X6929290Y-12106348D01*
X6929290Y-12106348D02*
X6919766Y-12068253D01*
X6919766Y-12068253D02*
X6919766Y-12020634D01*
X6919766Y-12020634D02*
X6929290Y-11982538D01*
X6929290Y-11982538D02*
X6938814Y-11963491D01*
X6938814Y-11963491D02*
X6948338Y-11953967D01*
X6948338Y-11953967D02*
X6967385Y-11944443D01*
X7119766Y-12125396D02*
X7129290Y-12134919D01*
X7129290Y-12134919D02*
X7119766Y-12144443D01*
X7119766Y-12144443D02*
X7110243Y-12134919D01*
X7110243Y-12134919D02*
X7119766Y-12125396D01*
X7119766Y-12125396D02*
X7119766Y-12144443D01*
X7243576Y-12030157D02*
X7224528Y-12020634D01*
X7224528Y-12020634D02*
X7215005Y-12011110D01*
X7215005Y-12011110D02*
X7205481Y-11992062D01*
X7205481Y-11992062D02*
X7205481Y-11982538D01*
X7205481Y-11982538D02*
X7215005Y-11963491D01*
X7215005Y-11963491D02*
X7224528Y-11953967D01*
X7224528Y-11953967D02*
X7243576Y-11944443D01*
X7243576Y-11944443D02*
X7281671Y-11944443D01*
X7281671Y-11944443D02*
X7300719Y-11953967D01*
X7300719Y-11953967D02*
X7310243Y-11963491D01*
X7310243Y-11963491D02*
X7319766Y-11982538D01*
X7319766Y-11982538D02*
X7319766Y-11992062D01*
X7319766Y-11992062D02*
X7310243Y-12011110D01*
X7310243Y-12011110D02*
X7300719Y-12020634D01*
X7300719Y-12020634D02*
X7281671Y-12030157D01*
X7281671Y-12030157D02*
X7243576Y-12030157D01*
X7243576Y-12030157D02*
X7224528Y-12039681D01*
X7224528Y-12039681D02*
X7215005Y-12049205D01*
X7215005Y-12049205D02*
X7205481Y-12068253D01*
X7205481Y-12068253D02*
X7205481Y-12106348D01*
X7205481Y-12106348D02*
X7215005Y-12125396D01*
X7215005Y-12125396D02*
X7224528Y-12134919D01*
X7224528Y-12134919D02*
X7243576Y-12144443D01*
X7243576Y-12144443D02*
X7281671Y-12144443D01*
X7281671Y-12144443D02*
X7300719Y-12134919D01*
X7300719Y-12134919D02*
X7310243Y-12125396D01*
X7310243Y-12125396D02*
X7319766Y-12106348D01*
X7319766Y-12106348D02*
X7319766Y-12068253D01*
X7319766Y-12068253D02*
X7310243Y-12049205D01*
X7310243Y-12049205D02*
X7300719Y-12039681D01*
X7300719Y-12039681D02*
X7281671Y-12030157D01*
X7443576Y-11944443D02*
X7462624Y-11944443D01*
X7462624Y-11944443D02*
X7481671Y-11953967D01*
X7481671Y-11953967D02*
X7491195Y-11963491D01*
X7491195Y-11963491D02*
X7500719Y-11982538D01*
X7500719Y-11982538D02*
X7510243Y-12020634D01*
X7510243Y-12020634D02*
X7510243Y-12068253D01*
X7510243Y-12068253D02*
X7500719Y-12106348D01*
X7500719Y-12106348D02*
X7491195Y-12125396D01*
X7491195Y-12125396D02*
X7481671Y-12134919D01*
X7481671Y-12134919D02*
X7462624Y-12144443D01*
X7462624Y-12144443D02*
X7443576Y-12144443D01*
X7443576Y-12144443D02*
X7424528Y-12134919D01*
X7424528Y-12134919D02*
X7415005Y-12125396D01*
X7415005Y-12125396D02*
X7405481Y-12106348D01*
X7405481Y-12106348D02*
X7395957Y-12068253D01*
X7395957Y-12068253D02*
X7395957Y-12020634D01*
X7395957Y-12020634D02*
X7405481Y-11982538D01*
X7405481Y-11982538D02*
X7415005Y-11963491D01*
X7415005Y-11963491D02*
X7424528Y-11953967D01*
X7424528Y-11953967D02*
X7443576Y-11944443D01*
X7634052Y-11944443D02*
X7653100Y-11944443D01*
X7653100Y-11944443D02*
X7672147Y-11953967D01*
X7672147Y-11953967D02*
X7681671Y-11963491D01*
X7681671Y-11963491D02*
X7691195Y-11982538D01*
X7691195Y-11982538D02*
X7700719Y-12020634D01*
X7700719Y-12020634D02*
X7700719Y-12068253D01*
X7700719Y-12068253D02*
X7691195Y-12106348D01*
X7691195Y-12106348D02*
X7681671Y-12125396D01*
X7681671Y-12125396D02*
X7672147Y-12134919D01*
X7672147Y-12134919D02*
X7653100Y-12144443D01*
X7653100Y-12144443D02*
X7634052Y-12144443D01*
X7634052Y-12144443D02*
X7615005Y-12134919D01*
X7615005Y-12134919D02*
X7605481Y-12125396D01*
X7605481Y-12125396D02*
X7595957Y-12106348D01*
X7595957Y-12106348D02*
X7586433Y-12068253D01*
X7586433Y-12068253D02*
X7586433Y-12020634D01*
X7586433Y-12020634D02*
X7595957Y-11982538D01*
X7595957Y-11982538D02*
X7605481Y-11963491D01*
X7605481Y-11963491D02*
X7615005Y-11953967D01*
X7615005Y-11953967D02*
X7634052Y-11944443D01*
X7786433Y-12144443D02*
X7786433Y-12011110D01*
X7786433Y-12030157D02*
X7795957Y-12020634D01*
X7795957Y-12020634D02*
X7815005Y-12011110D01*
X7815005Y-12011110D02*
X7843576Y-12011110D01*
X7843576Y-12011110D02*
X7862624Y-12020634D01*
X7862624Y-12020634D02*
X7872147Y-12039681D01*
X7872147Y-12039681D02*
X7872147Y-12144443D01*
X7872147Y-12039681D02*
X7881671Y-12020634D01*
X7881671Y-12020634D02*
X7900719Y-12011110D01*
X7900719Y-12011110D02*
X7929290Y-12011110D01*
X7929290Y-12011110D02*
X7948338Y-12020634D01*
X7948338Y-12020634D02*
X7957862Y-12039681D01*
X7957862Y-12039681D02*
X7957862Y-12144443D01*
X8053100Y-12144443D02*
X8053100Y-12011110D01*
X8053100Y-12030157D02*
X8062624Y-12020634D01*
X8062624Y-12020634D02*
X8081671Y-12011110D01*
X8081671Y-12011110D02*
X8110243Y-12011110D01*
X8110243Y-12011110D02*
X8129290Y-12020634D01*
X8129290Y-12020634D02*
X8138814Y-12039681D01*
X8138814Y-12039681D02*
X8138814Y-12144443D01*
X8138814Y-12039681D02*
X8148338Y-12020634D01*
X8148338Y-12020634D02*
X8167386Y-12011110D01*
X8167386Y-12011110D02*
X8195957Y-12011110D01*
X8195957Y-12011110D02*
X8215005Y-12020634D01*
X8215005Y-12020634D02*
X8224528Y-12039681D01*
X8224528Y-12039681D02*
X8224528Y-12144443D01*
X8615005Y-11934919D02*
X8443576Y-12192062D01*
X8872148Y-11944443D02*
X8891195Y-11944443D01*
X8891195Y-11944443D02*
X8910243Y-11953967D01*
X8910243Y-11953967D02*
X8919767Y-11963491D01*
X8919767Y-11963491D02*
X8929291Y-11982538D01*
X8929291Y-11982538D02*
X8938814Y-12020634D01*
X8938814Y-12020634D02*
X8938814Y-12068253D01*
X8938814Y-12068253D02*
X8929291Y-12106348D01*
X8929291Y-12106348D02*
X8919767Y-12125396D01*
X8919767Y-12125396D02*
X8910243Y-12134919D01*
X8910243Y-12134919D02*
X8891195Y-12144443D01*
X8891195Y-12144443D02*
X8872148Y-12144443D01*
X8872148Y-12144443D02*
X8853100Y-12134919D01*
X8853100Y-12134919D02*
X8843576Y-12125396D01*
X8843576Y-12125396D02*
X8834052Y-12106348D01*
X8834052Y-12106348D02*
X8824529Y-12068253D01*
X8824529Y-12068253D02*
X8824529Y-12020634D01*
X8824529Y-12020634D02*
X8834052Y-11982538D01*
X8834052Y-11982538D02*
X8843576Y-11963491D01*
X8843576Y-11963491D02*
X8853100Y-11953967D01*
X8853100Y-11953967D02*
X8872148Y-11944443D01*
X9024529Y-12125396D02*
X9034052Y-12134919D01*
X9034052Y-12134919D02*
X9024529Y-12144443D01*
X9024529Y-12144443D02*
X9015005Y-12134919D01*
X9015005Y-12134919D02*
X9024529Y-12125396D01*
X9024529Y-12125396D02*
X9024529Y-12144443D01*
X9157862Y-11944443D02*
X9176910Y-11944443D01*
X9176910Y-11944443D02*
X9195957Y-11953967D01*
X9195957Y-11953967D02*
X9205481Y-11963491D01*
X9205481Y-11963491D02*
X9215005Y-11982538D01*
X9215005Y-11982538D02*
X9224529Y-12020634D01*
X9224529Y-12020634D02*
X9224529Y-12068253D01*
X9224529Y-12068253D02*
X9215005Y-12106348D01*
X9215005Y-12106348D02*
X9205481Y-12125396D01*
X9205481Y-12125396D02*
X9195957Y-12134919D01*
X9195957Y-12134919D02*
X9176910Y-12144443D01*
X9176910Y-12144443D02*
X9157862Y-12144443D01*
X9157862Y-12144443D02*
X9138814Y-12134919D01*
X9138814Y-12134919D02*
X9129291Y-12125396D01*
X9129291Y-12125396D02*
X9119767Y-12106348D01*
X9119767Y-12106348D02*
X9110243Y-12068253D01*
X9110243Y-12068253D02*
X9110243Y-12020634D01*
X9110243Y-12020634D02*
X9119767Y-11982538D01*
X9119767Y-11982538D02*
X9129291Y-11963491D01*
X9129291Y-11963491D02*
X9138814Y-11953967D01*
X9138814Y-11953967D02*
X9157862Y-11944443D01*
X9291195Y-11944443D02*
X9415005Y-11944443D01*
X9415005Y-11944443D02*
X9348338Y-12020634D01*
X9348338Y-12020634D02*
X9376910Y-12020634D01*
X9376910Y-12020634D02*
X9395957Y-12030157D01*
X9395957Y-12030157D02*
X9405481Y-12039681D01*
X9405481Y-12039681D02*
X9415005Y-12058729D01*
X9415005Y-12058729D02*
X9415005Y-12106348D01*
X9415005Y-12106348D02*
X9405481Y-12125396D01*
X9405481Y-12125396D02*
X9395957Y-12134919D01*
X9395957Y-12134919D02*
X9376910Y-12144443D01*
X9376910Y-12144443D02*
X9319767Y-12144443D01*
X9319767Y-12144443D02*
X9300719Y-12134919D01*
X9300719Y-12134919D02*
X9291195Y-12125396D01*
X9605481Y-12144443D02*
X9491195Y-12144443D01*
X9548338Y-12144443D02*
X9548338Y-11944443D01*
X9548338Y-11944443D02*
X9529291Y-11973015D01*
X9529291Y-11973015D02*
X9510243Y-11992062D01*
X9510243Y-11992062D02*
X9491195Y-12001586D01*
X9786433Y-11944443D02*
X9691195Y-11944443D01*
X9691195Y-11944443D02*
X9681672Y-12039681D01*
X9681672Y-12039681D02*
X9691195Y-12030157D01*
X9691195Y-12030157D02*
X9710243Y-12020634D01*
X9710243Y-12020634D02*
X9757862Y-12020634D01*
X9757862Y-12020634D02*
X9776910Y-12030157D01*
X9776910Y-12030157D02*
X9786433Y-12039681D01*
X9786433Y-12039681D02*
X9795957Y-12058729D01*
X9795957Y-12058729D02*
X9795957Y-12106348D01*
X9795957Y-12106348D02*
X9786433Y-12125396D01*
X9786433Y-12125396D02*
X9776910Y-12134919D01*
X9776910Y-12134919D02*
X9757862Y-12144443D01*
X9757862Y-12144443D02*
X9710243Y-12144443D01*
X9710243Y-12144443D02*
X9691195Y-12134919D01*
X9691195Y-12134919D02*
X9681672Y-12125396D01*
X9872148Y-11944443D02*
X9872148Y-11982538D01*
X9948338Y-11944443D02*
X9948338Y-11982538D01*
X10243576Y-12220634D02*
X10234053Y-12211110D01*
X10234053Y-12211110D02*
X10215005Y-12182538D01*
X10215005Y-12182538D02*
X10205481Y-12163491D01*
X10205481Y-12163491D02*
X10195957Y-12134919D01*
X10195957Y-12134919D02*
X10186434Y-12087300D01*
X10186434Y-12087300D02*
X10186434Y-12049205D01*
X10186434Y-12049205D02*
X10195957Y-12001586D01*
X10195957Y-12001586D02*
X10205481Y-11973015D01*
X10205481Y-11973015D02*
X10215005Y-11953967D01*
X10215005Y-11953967D02*
X10234053Y-11925396D01*
X10234053Y-11925396D02*
X10243576Y-11915872D01*
X10405481Y-12011110D02*
X10405481Y-12144443D01*
X10357862Y-11934919D02*
X10310243Y-12077777D01*
X10310243Y-12077777D02*
X10434053Y-12077777D01*
X10662624Y-12144443D02*
X10662624Y-11944443D01*
X10748338Y-12144443D02*
X10748338Y-12039681D01*
X10748338Y-12039681D02*
X10738815Y-12020634D01*
X10738815Y-12020634D02*
X10719767Y-12011110D01*
X10719767Y-12011110D02*
X10691195Y-12011110D01*
X10691195Y-12011110D02*
X10672148Y-12020634D01*
X10672148Y-12020634D02*
X10662624Y-12030157D01*
X10872148Y-12144443D02*
X10853100Y-12134919D01*
X10853100Y-12134919D02*
X10843576Y-12125396D01*
X10843576Y-12125396D02*
X10834053Y-12106348D01*
X10834053Y-12106348D02*
X10834053Y-12049205D01*
X10834053Y-12049205D02*
X10843576Y-12030157D01*
X10843576Y-12030157D02*
X10853100Y-12020634D01*
X10853100Y-12020634D02*
X10872148Y-12011110D01*
X10872148Y-12011110D02*
X10900719Y-12011110D01*
X10900719Y-12011110D02*
X10919767Y-12020634D01*
X10919767Y-12020634D02*
X10929291Y-12030157D01*
X10929291Y-12030157D02*
X10938815Y-12049205D01*
X10938815Y-12049205D02*
X10938815Y-12106348D01*
X10938815Y-12106348D02*
X10929291Y-12125396D01*
X10929291Y-12125396D02*
X10919767Y-12134919D01*
X10919767Y-12134919D02*
X10900719Y-12144443D01*
X10900719Y-12144443D02*
X10872148Y-12144443D01*
X11053100Y-12144443D02*
X11034053Y-12134919D01*
X11034053Y-12134919D02*
X11024529Y-12115872D01*
X11024529Y-12115872D02*
X11024529Y-11944443D01*
X11205481Y-12134919D02*
X11186434Y-12144443D01*
X11186434Y-12144443D02*
X11148338Y-12144443D01*
X11148338Y-12144443D02*
X11129291Y-12134919D01*
X11129291Y-12134919D02*
X11119767Y-12115872D01*
X11119767Y-12115872D02*
X11119767Y-12039681D01*
X11119767Y-12039681D02*
X11129291Y-12020634D01*
X11129291Y-12020634D02*
X11148338Y-12011110D01*
X11148338Y-12011110D02*
X11186434Y-12011110D01*
X11186434Y-12011110D02*
X11205481Y-12020634D01*
X11205481Y-12020634D02*
X11215005Y-12039681D01*
X11215005Y-12039681D02*
X11215005Y-12058729D01*
X11215005Y-12058729D02*
X11119767Y-12077777D01*
X11291195Y-12134919D02*
X11310243Y-12144443D01*
X11310243Y-12144443D02*
X11348338Y-12144443D01*
X11348338Y-12144443D02*
X11367386Y-12134919D01*
X11367386Y-12134919D02*
X11376910Y-12115872D01*
X11376910Y-12115872D02*
X11376910Y-12106348D01*
X11376910Y-12106348D02*
X11367386Y-12087300D01*
X11367386Y-12087300D02*
X11348338Y-12077777D01*
X11348338Y-12077777D02*
X11319767Y-12077777D01*
X11319767Y-12077777D02*
X11300719Y-12068253D01*
X11300719Y-12068253D02*
X11291195Y-12049205D01*
X11291195Y-12049205D02*
X11291195Y-12039681D01*
X11291195Y-12039681D02*
X11300719Y-12020634D01*
X11300719Y-12020634D02*
X11319767Y-12011110D01*
X11319767Y-12011110D02*
X11348338Y-12011110D01*
X11348338Y-12011110D02*
X11367386Y-12020634D01*
X11443576Y-12220634D02*
X11453100Y-12211110D01*
X11453100Y-12211110D02*
X11472148Y-12182538D01*
X11472148Y-12182538D02*
X11481672Y-12163491D01*
X11481672Y-12163491D02*
X11491195Y-12134919D01*
X11491195Y-12134919D02*
X11500719Y-12087300D01*
X11500719Y-12087300D02*
X11500719Y-12049205D01*
X11500719Y-12049205D02*
X11491195Y-12001586D01*
X11491195Y-12001586D02*
X11481672Y-11973015D01*
X11481672Y-11973015D02*
X11472148Y-11953967D01*
X11472148Y-11953967D02*
X11453100Y-11925396D01*
X11453100Y-11925396D02*
X11443576Y-11915872D01*
D15*
X6618513Y-12366959D02*
X6668513Y-12316959D01*
X6618513Y-12266959D01*
X6568513Y-12316959D01*
X6618513Y-12366959D01*
D10*
X7034052Y-12408443D02*
X6919766Y-12408443D01*
X6976909Y-12408443D02*
X6976909Y-12208443D01*
X6976909Y-12208443D02*
X6957862Y-12237015D01*
X6957862Y-12237015D02*
X6938814Y-12256062D01*
X6938814Y-12256062D02*
X6919766Y-12265586D01*
X7119766Y-12389396D02*
X7129290Y-12398919D01*
X7129290Y-12398919D02*
X7119766Y-12408443D01*
X7119766Y-12408443D02*
X7110243Y-12398919D01*
X7110243Y-12398919D02*
X7119766Y-12389396D01*
X7119766Y-12389396D02*
X7119766Y-12408443D01*
X7253100Y-12208443D02*
X7272147Y-12208443D01*
X7272147Y-12208443D02*
X7291195Y-12217967D01*
X7291195Y-12217967D02*
X7300719Y-12227491D01*
X7300719Y-12227491D02*
X7310243Y-12246538D01*
X7310243Y-12246538D02*
X7319766Y-12284634D01*
X7319766Y-12284634D02*
X7319766Y-12332253D01*
X7319766Y-12332253D02*
X7310243Y-12370348D01*
X7310243Y-12370348D02*
X7300719Y-12389396D01*
X7300719Y-12389396D02*
X7291195Y-12398919D01*
X7291195Y-12398919D02*
X7272147Y-12408443D01*
X7272147Y-12408443D02*
X7253100Y-12408443D01*
X7253100Y-12408443D02*
X7234052Y-12398919D01*
X7234052Y-12398919D02*
X7224528Y-12389396D01*
X7224528Y-12389396D02*
X7215005Y-12370348D01*
X7215005Y-12370348D02*
X7205481Y-12332253D01*
X7205481Y-12332253D02*
X7205481Y-12284634D01*
X7205481Y-12284634D02*
X7215005Y-12246538D01*
X7215005Y-12246538D02*
X7224528Y-12227491D01*
X7224528Y-12227491D02*
X7234052Y-12217967D01*
X7234052Y-12217967D02*
X7253100Y-12208443D01*
X7443576Y-12208443D02*
X7462624Y-12208443D01*
X7462624Y-12208443D02*
X7481671Y-12217967D01*
X7481671Y-12217967D02*
X7491195Y-12227491D01*
X7491195Y-12227491D02*
X7500719Y-12246538D01*
X7500719Y-12246538D02*
X7510243Y-12284634D01*
X7510243Y-12284634D02*
X7510243Y-12332253D01*
X7510243Y-12332253D02*
X7500719Y-12370348D01*
X7500719Y-12370348D02*
X7491195Y-12389396D01*
X7491195Y-12389396D02*
X7481671Y-12398919D01*
X7481671Y-12398919D02*
X7462624Y-12408443D01*
X7462624Y-12408443D02*
X7443576Y-12408443D01*
X7443576Y-12408443D02*
X7424528Y-12398919D01*
X7424528Y-12398919D02*
X7415005Y-12389396D01*
X7415005Y-12389396D02*
X7405481Y-12370348D01*
X7405481Y-12370348D02*
X7395957Y-12332253D01*
X7395957Y-12332253D02*
X7395957Y-12284634D01*
X7395957Y-12284634D02*
X7405481Y-12246538D01*
X7405481Y-12246538D02*
X7415005Y-12227491D01*
X7415005Y-12227491D02*
X7424528Y-12217967D01*
X7424528Y-12217967D02*
X7443576Y-12208443D01*
X7634052Y-12208443D02*
X7653100Y-12208443D01*
X7653100Y-12208443D02*
X7672147Y-12217967D01*
X7672147Y-12217967D02*
X7681671Y-12227491D01*
X7681671Y-12227491D02*
X7691195Y-12246538D01*
X7691195Y-12246538D02*
X7700719Y-12284634D01*
X7700719Y-12284634D02*
X7700719Y-12332253D01*
X7700719Y-12332253D02*
X7691195Y-12370348D01*
X7691195Y-12370348D02*
X7681671Y-12389396D01*
X7681671Y-12389396D02*
X7672147Y-12398919D01*
X7672147Y-12398919D02*
X7653100Y-12408443D01*
X7653100Y-12408443D02*
X7634052Y-12408443D01*
X7634052Y-12408443D02*
X7615005Y-12398919D01*
X7615005Y-12398919D02*
X7605481Y-12389396D01*
X7605481Y-12389396D02*
X7595957Y-12370348D01*
X7595957Y-12370348D02*
X7586433Y-12332253D01*
X7586433Y-12332253D02*
X7586433Y-12284634D01*
X7586433Y-12284634D02*
X7595957Y-12246538D01*
X7595957Y-12246538D02*
X7605481Y-12227491D01*
X7605481Y-12227491D02*
X7615005Y-12217967D01*
X7615005Y-12217967D02*
X7634052Y-12208443D01*
X7786433Y-12408443D02*
X7786433Y-12275110D01*
X7786433Y-12294157D02*
X7795957Y-12284634D01*
X7795957Y-12284634D02*
X7815005Y-12275110D01*
X7815005Y-12275110D02*
X7843576Y-12275110D01*
X7843576Y-12275110D02*
X7862624Y-12284634D01*
X7862624Y-12284634D02*
X7872147Y-12303681D01*
X7872147Y-12303681D02*
X7872147Y-12408443D01*
X7872147Y-12303681D02*
X7881671Y-12284634D01*
X7881671Y-12284634D02*
X7900719Y-12275110D01*
X7900719Y-12275110D02*
X7929290Y-12275110D01*
X7929290Y-12275110D02*
X7948338Y-12284634D01*
X7948338Y-12284634D02*
X7957862Y-12303681D01*
X7957862Y-12303681D02*
X7957862Y-12408443D01*
X8053100Y-12408443D02*
X8053100Y-12275110D01*
X8053100Y-12294157D02*
X8062624Y-12284634D01*
X8062624Y-12284634D02*
X8081671Y-12275110D01*
X8081671Y-12275110D02*
X8110243Y-12275110D01*
X8110243Y-12275110D02*
X8129290Y-12284634D01*
X8129290Y-12284634D02*
X8138814Y-12303681D01*
X8138814Y-12303681D02*
X8138814Y-12408443D01*
X8138814Y-12303681D02*
X8148338Y-12284634D01*
X8148338Y-12284634D02*
X8167386Y-12275110D01*
X8167386Y-12275110D02*
X8195957Y-12275110D01*
X8195957Y-12275110D02*
X8215005Y-12284634D01*
X8215005Y-12284634D02*
X8224528Y-12303681D01*
X8224528Y-12303681D02*
X8224528Y-12408443D01*
X8615005Y-12198919D02*
X8443576Y-12456062D01*
X8872148Y-12208443D02*
X8891195Y-12208443D01*
X8891195Y-12208443D02*
X8910243Y-12217967D01*
X8910243Y-12217967D02*
X8919767Y-12227491D01*
X8919767Y-12227491D02*
X8929291Y-12246538D01*
X8929291Y-12246538D02*
X8938814Y-12284634D01*
X8938814Y-12284634D02*
X8938814Y-12332253D01*
X8938814Y-12332253D02*
X8929291Y-12370348D01*
X8929291Y-12370348D02*
X8919767Y-12389396D01*
X8919767Y-12389396D02*
X8910243Y-12398919D01*
X8910243Y-12398919D02*
X8891195Y-12408443D01*
X8891195Y-12408443D02*
X8872148Y-12408443D01*
X8872148Y-12408443D02*
X8853100Y-12398919D01*
X8853100Y-12398919D02*
X8843576Y-12389396D01*
X8843576Y-12389396D02*
X8834052Y-12370348D01*
X8834052Y-12370348D02*
X8824529Y-12332253D01*
X8824529Y-12332253D02*
X8824529Y-12284634D01*
X8824529Y-12284634D02*
X8834052Y-12246538D01*
X8834052Y-12246538D02*
X8843576Y-12227491D01*
X8843576Y-12227491D02*
X8853100Y-12217967D01*
X8853100Y-12217967D02*
X8872148Y-12208443D01*
X9024529Y-12389396D02*
X9034052Y-12398919D01*
X9034052Y-12398919D02*
X9024529Y-12408443D01*
X9024529Y-12408443D02*
X9015005Y-12398919D01*
X9015005Y-12398919D02*
X9024529Y-12389396D01*
X9024529Y-12389396D02*
X9024529Y-12408443D01*
X9157862Y-12208443D02*
X9176910Y-12208443D01*
X9176910Y-12208443D02*
X9195957Y-12217967D01*
X9195957Y-12217967D02*
X9205481Y-12227491D01*
X9205481Y-12227491D02*
X9215005Y-12246538D01*
X9215005Y-12246538D02*
X9224529Y-12284634D01*
X9224529Y-12284634D02*
X9224529Y-12332253D01*
X9224529Y-12332253D02*
X9215005Y-12370348D01*
X9215005Y-12370348D02*
X9205481Y-12389396D01*
X9205481Y-12389396D02*
X9195957Y-12398919D01*
X9195957Y-12398919D02*
X9176910Y-12408443D01*
X9176910Y-12408443D02*
X9157862Y-12408443D01*
X9157862Y-12408443D02*
X9138814Y-12398919D01*
X9138814Y-12398919D02*
X9129291Y-12389396D01*
X9129291Y-12389396D02*
X9119767Y-12370348D01*
X9119767Y-12370348D02*
X9110243Y-12332253D01*
X9110243Y-12332253D02*
X9110243Y-12284634D01*
X9110243Y-12284634D02*
X9119767Y-12246538D01*
X9119767Y-12246538D02*
X9129291Y-12227491D01*
X9129291Y-12227491D02*
X9138814Y-12217967D01*
X9138814Y-12217967D02*
X9157862Y-12208443D01*
X9291195Y-12208443D02*
X9415005Y-12208443D01*
X9415005Y-12208443D02*
X9348338Y-12284634D01*
X9348338Y-12284634D02*
X9376910Y-12284634D01*
X9376910Y-12284634D02*
X9395957Y-12294157D01*
X9395957Y-12294157D02*
X9405481Y-12303681D01*
X9405481Y-12303681D02*
X9415005Y-12322729D01*
X9415005Y-12322729D02*
X9415005Y-12370348D01*
X9415005Y-12370348D02*
X9405481Y-12389396D01*
X9405481Y-12389396D02*
X9395957Y-12398919D01*
X9395957Y-12398919D02*
X9376910Y-12408443D01*
X9376910Y-12408443D02*
X9319767Y-12408443D01*
X9319767Y-12408443D02*
X9300719Y-12398919D01*
X9300719Y-12398919D02*
X9291195Y-12389396D01*
X9510243Y-12408443D02*
X9548338Y-12408443D01*
X9548338Y-12408443D02*
X9567386Y-12398919D01*
X9567386Y-12398919D02*
X9576910Y-12389396D01*
X9576910Y-12389396D02*
X9595957Y-12360824D01*
X9595957Y-12360824D02*
X9605481Y-12322729D01*
X9605481Y-12322729D02*
X9605481Y-12246538D01*
X9605481Y-12246538D02*
X9595957Y-12227491D01*
X9595957Y-12227491D02*
X9586433Y-12217967D01*
X9586433Y-12217967D02*
X9567386Y-12208443D01*
X9567386Y-12208443D02*
X9529291Y-12208443D01*
X9529291Y-12208443D02*
X9510243Y-12217967D01*
X9510243Y-12217967D02*
X9500719Y-12227491D01*
X9500719Y-12227491D02*
X9491195Y-12246538D01*
X9491195Y-12246538D02*
X9491195Y-12294157D01*
X9491195Y-12294157D02*
X9500719Y-12313205D01*
X9500719Y-12313205D02*
X9510243Y-12322729D01*
X9510243Y-12322729D02*
X9529291Y-12332253D01*
X9529291Y-12332253D02*
X9567386Y-12332253D01*
X9567386Y-12332253D02*
X9586433Y-12322729D01*
X9586433Y-12322729D02*
X9595957Y-12313205D01*
X9595957Y-12313205D02*
X9605481Y-12294157D01*
X9776910Y-12275110D02*
X9776910Y-12408443D01*
X9729291Y-12198919D02*
X9681672Y-12341777D01*
X9681672Y-12341777D02*
X9805481Y-12341777D01*
X9872148Y-12208443D02*
X9872148Y-12246538D01*
X9948338Y-12208443D02*
X9948338Y-12246538D01*
X10243576Y-12484634D02*
X10234053Y-12475110D01*
X10234053Y-12475110D02*
X10215005Y-12446538D01*
X10215005Y-12446538D02*
X10205481Y-12427491D01*
X10205481Y-12427491D02*
X10195957Y-12398919D01*
X10195957Y-12398919D02*
X10186434Y-12351300D01*
X10186434Y-12351300D02*
X10186434Y-12313205D01*
X10186434Y-12313205D02*
X10195957Y-12265586D01*
X10195957Y-12265586D02*
X10205481Y-12237015D01*
X10205481Y-12237015D02*
X10215005Y-12217967D01*
X10215005Y-12217967D02*
X10234053Y-12189396D01*
X10234053Y-12189396D02*
X10243576Y-12179872D01*
X10405481Y-12208443D02*
X10367386Y-12208443D01*
X10367386Y-12208443D02*
X10348338Y-12217967D01*
X10348338Y-12217967D02*
X10338814Y-12227491D01*
X10338814Y-12227491D02*
X10319767Y-12256062D01*
X10319767Y-12256062D02*
X10310243Y-12294157D01*
X10310243Y-12294157D02*
X10310243Y-12370348D01*
X10310243Y-12370348D02*
X10319767Y-12389396D01*
X10319767Y-12389396D02*
X10329291Y-12398919D01*
X10329291Y-12398919D02*
X10348338Y-12408443D01*
X10348338Y-12408443D02*
X10386434Y-12408443D01*
X10386434Y-12408443D02*
X10405481Y-12398919D01*
X10405481Y-12398919D02*
X10415005Y-12389396D01*
X10415005Y-12389396D02*
X10424529Y-12370348D01*
X10424529Y-12370348D02*
X10424529Y-12322729D01*
X10424529Y-12322729D02*
X10415005Y-12303681D01*
X10415005Y-12303681D02*
X10405481Y-12294157D01*
X10405481Y-12294157D02*
X10386434Y-12284634D01*
X10386434Y-12284634D02*
X10348338Y-12284634D01*
X10348338Y-12284634D02*
X10329291Y-12294157D01*
X10329291Y-12294157D02*
X10319767Y-12303681D01*
X10319767Y-12303681D02*
X10310243Y-12322729D01*
X10519767Y-12408443D02*
X10557862Y-12408443D01*
X10557862Y-12408443D02*
X10576910Y-12398919D01*
X10576910Y-12398919D02*
X10586434Y-12389396D01*
X10586434Y-12389396D02*
X10605481Y-12360824D01*
X10605481Y-12360824D02*
X10615005Y-12322729D01*
X10615005Y-12322729D02*
X10615005Y-12246538D01*
X10615005Y-12246538D02*
X10605481Y-12227491D01*
X10605481Y-12227491D02*
X10595957Y-12217967D01*
X10595957Y-12217967D02*
X10576910Y-12208443D01*
X10576910Y-12208443D02*
X10538814Y-12208443D01*
X10538814Y-12208443D02*
X10519767Y-12217967D01*
X10519767Y-12217967D02*
X10510243Y-12227491D01*
X10510243Y-12227491D02*
X10500719Y-12246538D01*
X10500719Y-12246538D02*
X10500719Y-12294157D01*
X10500719Y-12294157D02*
X10510243Y-12313205D01*
X10510243Y-12313205D02*
X10519767Y-12322729D01*
X10519767Y-12322729D02*
X10538814Y-12332253D01*
X10538814Y-12332253D02*
X10576910Y-12332253D01*
X10576910Y-12332253D02*
X10595957Y-12322729D01*
X10595957Y-12322729D02*
X10605481Y-12313205D01*
X10605481Y-12313205D02*
X10615005Y-12294157D01*
X10853100Y-12408443D02*
X10853100Y-12208443D01*
X10938815Y-12408443D02*
X10938815Y-12303681D01*
X10938815Y-12303681D02*
X10929291Y-12284634D01*
X10929291Y-12284634D02*
X10910243Y-12275110D01*
X10910243Y-12275110D02*
X10881672Y-12275110D01*
X10881672Y-12275110D02*
X10862624Y-12284634D01*
X10862624Y-12284634D02*
X10853100Y-12294157D01*
X11062624Y-12408443D02*
X11043576Y-12398919D01*
X11043576Y-12398919D02*
X11034053Y-12389396D01*
X11034053Y-12389396D02*
X11024529Y-12370348D01*
X11024529Y-12370348D02*
X11024529Y-12313205D01*
X11024529Y-12313205D02*
X11034053Y-12294157D01*
X11034053Y-12294157D02*
X11043576Y-12284634D01*
X11043576Y-12284634D02*
X11062624Y-12275110D01*
X11062624Y-12275110D02*
X11091196Y-12275110D01*
X11091196Y-12275110D02*
X11110243Y-12284634D01*
X11110243Y-12284634D02*
X11119767Y-12294157D01*
X11119767Y-12294157D02*
X11129291Y-12313205D01*
X11129291Y-12313205D02*
X11129291Y-12370348D01*
X11129291Y-12370348D02*
X11119767Y-12389396D01*
X11119767Y-12389396D02*
X11110243Y-12398919D01*
X11110243Y-12398919D02*
X11091196Y-12408443D01*
X11091196Y-12408443D02*
X11062624Y-12408443D01*
X11243576Y-12408443D02*
X11224529Y-12398919D01*
X11224529Y-12398919D02*
X11215005Y-12379872D01*
X11215005Y-12379872D02*
X11215005Y-12208443D01*
X11395957Y-12398919D02*
X11376910Y-12408443D01*
X11376910Y-12408443D02*
X11338814Y-12408443D01*
X11338814Y-12408443D02*
X11319767Y-12398919D01*
X11319767Y-12398919D02*
X11310243Y-12379872D01*
X11310243Y-12379872D02*
X11310243Y-12303681D01*
X11310243Y-12303681D02*
X11319767Y-12284634D01*
X11319767Y-12284634D02*
X11338814Y-12275110D01*
X11338814Y-12275110D02*
X11376910Y-12275110D01*
X11376910Y-12275110D02*
X11395957Y-12284634D01*
X11395957Y-12284634D02*
X11405481Y-12303681D01*
X11405481Y-12303681D02*
X11405481Y-12322729D01*
X11405481Y-12322729D02*
X11310243Y-12341777D01*
X11481672Y-12398919D02*
X11500719Y-12408443D01*
X11500719Y-12408443D02*
X11538814Y-12408443D01*
X11538814Y-12408443D02*
X11557862Y-12398919D01*
X11557862Y-12398919D02*
X11567386Y-12379872D01*
X11567386Y-12379872D02*
X11567386Y-12370348D01*
X11567386Y-12370348D02*
X11557862Y-12351300D01*
X11557862Y-12351300D02*
X11538814Y-12341777D01*
X11538814Y-12341777D02*
X11510243Y-12341777D01*
X11510243Y-12341777D02*
X11491195Y-12332253D01*
X11491195Y-12332253D02*
X11481672Y-12313205D01*
X11481672Y-12313205D02*
X11481672Y-12303681D01*
X11481672Y-12303681D02*
X11491195Y-12284634D01*
X11491195Y-12284634D02*
X11510243Y-12275110D01*
X11510243Y-12275110D02*
X11538814Y-12275110D01*
X11538814Y-12275110D02*
X11557862Y-12284634D01*
X11805481Y-12332253D02*
X11957862Y-12332253D01*
X11881672Y-12408443D02*
X11881672Y-12256062D01*
X12186434Y-12208443D02*
X12310243Y-12208443D01*
X12310243Y-12208443D02*
X12243576Y-12284634D01*
X12243576Y-12284634D02*
X12272148Y-12284634D01*
X12272148Y-12284634D02*
X12291196Y-12294157D01*
X12291196Y-12294157D02*
X12300719Y-12303681D01*
X12300719Y-12303681D02*
X12310243Y-12322729D01*
X12310243Y-12322729D02*
X12310243Y-12370348D01*
X12310243Y-12370348D02*
X12300719Y-12389396D01*
X12300719Y-12389396D02*
X12291196Y-12398919D01*
X12291196Y-12398919D02*
X12272148Y-12408443D01*
X12272148Y-12408443D02*
X12215005Y-12408443D01*
X12215005Y-12408443D02*
X12195957Y-12398919D01*
X12195957Y-12398919D02*
X12186434Y-12389396D01*
X12538815Y-12398919D02*
X12557862Y-12408443D01*
X12557862Y-12408443D02*
X12595957Y-12408443D01*
X12595957Y-12408443D02*
X12615005Y-12398919D01*
X12615005Y-12398919D02*
X12624529Y-12379872D01*
X12624529Y-12379872D02*
X12624529Y-12370348D01*
X12624529Y-12370348D02*
X12615005Y-12351300D01*
X12615005Y-12351300D02*
X12595957Y-12341777D01*
X12595957Y-12341777D02*
X12567386Y-12341777D01*
X12567386Y-12341777D02*
X12548338Y-12332253D01*
X12548338Y-12332253D02*
X12538815Y-12313205D01*
X12538815Y-12313205D02*
X12538815Y-12303681D01*
X12538815Y-12303681D02*
X12548338Y-12284634D01*
X12548338Y-12284634D02*
X12567386Y-12275110D01*
X12567386Y-12275110D02*
X12595957Y-12275110D01*
X12595957Y-12275110D02*
X12615005Y-12284634D01*
X12738815Y-12408443D02*
X12719767Y-12398919D01*
X12719767Y-12398919D02*
X12710243Y-12379872D01*
X12710243Y-12379872D02*
X12710243Y-12208443D01*
X12843577Y-12408443D02*
X12824529Y-12398919D01*
X12824529Y-12398919D02*
X12815005Y-12389396D01*
X12815005Y-12389396D02*
X12805481Y-12370348D01*
X12805481Y-12370348D02*
X12805481Y-12313205D01*
X12805481Y-12313205D02*
X12815005Y-12294157D01*
X12815005Y-12294157D02*
X12824529Y-12284634D01*
X12824529Y-12284634D02*
X12843577Y-12275110D01*
X12843577Y-12275110D02*
X12872148Y-12275110D01*
X12872148Y-12275110D02*
X12891196Y-12284634D01*
X12891196Y-12284634D02*
X12900719Y-12294157D01*
X12900719Y-12294157D02*
X12910243Y-12313205D01*
X12910243Y-12313205D02*
X12910243Y-12370348D01*
X12910243Y-12370348D02*
X12900719Y-12389396D01*
X12900719Y-12389396D02*
X12891196Y-12398919D01*
X12891196Y-12398919D02*
X12872148Y-12408443D01*
X12872148Y-12408443D02*
X12843577Y-12408443D01*
X12967386Y-12275110D02*
X13043577Y-12275110D01*
X12995958Y-12208443D02*
X12995958Y-12379872D01*
X12995958Y-12379872D02*
X13005481Y-12398919D01*
X13005481Y-12398919D02*
X13024529Y-12408443D01*
X13024529Y-12408443D02*
X13043577Y-12408443D01*
X13100719Y-12398919D02*
X13119767Y-12408443D01*
X13119767Y-12408443D02*
X13157862Y-12408443D01*
X13157862Y-12408443D02*
X13176910Y-12398919D01*
X13176910Y-12398919D02*
X13186434Y-12379872D01*
X13186434Y-12379872D02*
X13186434Y-12370348D01*
X13186434Y-12370348D02*
X13176910Y-12351300D01*
X13176910Y-12351300D02*
X13157862Y-12341777D01*
X13157862Y-12341777D02*
X13129291Y-12341777D01*
X13129291Y-12341777D02*
X13110243Y-12332253D01*
X13110243Y-12332253D02*
X13100719Y-12313205D01*
X13100719Y-12313205D02*
X13100719Y-12303681D01*
X13100719Y-12303681D02*
X13110243Y-12284634D01*
X13110243Y-12284634D02*
X13129291Y-12275110D01*
X13129291Y-12275110D02*
X13157862Y-12275110D01*
X13157862Y-12275110D02*
X13176910Y-12284634D01*
X13253100Y-12484634D02*
X13262624Y-12475110D01*
X13262624Y-12475110D02*
X13281672Y-12446538D01*
X13281672Y-12446538D02*
X13291196Y-12427491D01*
X13291196Y-12427491D02*
X13300719Y-12398919D01*
X13300719Y-12398919D02*
X13310243Y-12351300D01*
X13310243Y-12351300D02*
X13310243Y-12313205D01*
X13310243Y-12313205D02*
X13300719Y-12265586D01*
X13300719Y-12265586D02*
X13291196Y-12237015D01*
X13291196Y-12237015D02*
X13281672Y-12217967D01*
X13281672Y-12217967D02*
X13262624Y-12189396D01*
X13262624Y-12189396D02*
X13253100Y-12179872D01*
D16*
X6558513Y-12525959D02*
X6668513Y-12635959D01*
X6668513Y-12525959D02*
X6558513Y-12635959D01*
X6668513Y-12580959D02*
G75*
G03*
X6668513Y-12580959I-55000J0D01*
G01*
D10*
X7034052Y-12672443D02*
X6919766Y-12672443D01*
X6976909Y-12672443D02*
X6976909Y-12472443D01*
X6976909Y-12472443D02*
X6957862Y-12501015D01*
X6957862Y-12501015D02*
X6938814Y-12520062D01*
X6938814Y-12520062D02*
X6919766Y-12529586D01*
X7119766Y-12653396D02*
X7129290Y-12662919D01*
X7129290Y-12662919D02*
X7119766Y-12672443D01*
X7119766Y-12672443D02*
X7110243Y-12662919D01*
X7110243Y-12662919D02*
X7119766Y-12653396D01*
X7119766Y-12653396D02*
X7119766Y-12672443D01*
X7319766Y-12672443D02*
X7205481Y-12672443D01*
X7262624Y-12672443D02*
X7262624Y-12472443D01*
X7262624Y-12472443D02*
X7243576Y-12501015D01*
X7243576Y-12501015D02*
X7224528Y-12520062D01*
X7224528Y-12520062D02*
X7205481Y-12529586D01*
X7443576Y-12472443D02*
X7462624Y-12472443D01*
X7462624Y-12472443D02*
X7481671Y-12481967D01*
X7481671Y-12481967D02*
X7491195Y-12491491D01*
X7491195Y-12491491D02*
X7500719Y-12510538D01*
X7500719Y-12510538D02*
X7510243Y-12548634D01*
X7510243Y-12548634D02*
X7510243Y-12596253D01*
X7510243Y-12596253D02*
X7500719Y-12634348D01*
X7500719Y-12634348D02*
X7491195Y-12653396D01*
X7491195Y-12653396D02*
X7481671Y-12662919D01*
X7481671Y-12662919D02*
X7462624Y-12672443D01*
X7462624Y-12672443D02*
X7443576Y-12672443D01*
X7443576Y-12672443D02*
X7424528Y-12662919D01*
X7424528Y-12662919D02*
X7415005Y-12653396D01*
X7415005Y-12653396D02*
X7405481Y-12634348D01*
X7405481Y-12634348D02*
X7395957Y-12596253D01*
X7395957Y-12596253D02*
X7395957Y-12548634D01*
X7395957Y-12548634D02*
X7405481Y-12510538D01*
X7405481Y-12510538D02*
X7415005Y-12491491D01*
X7415005Y-12491491D02*
X7424528Y-12481967D01*
X7424528Y-12481967D02*
X7443576Y-12472443D01*
X7634052Y-12472443D02*
X7653100Y-12472443D01*
X7653100Y-12472443D02*
X7672147Y-12481967D01*
X7672147Y-12481967D02*
X7681671Y-12491491D01*
X7681671Y-12491491D02*
X7691195Y-12510538D01*
X7691195Y-12510538D02*
X7700719Y-12548634D01*
X7700719Y-12548634D02*
X7700719Y-12596253D01*
X7700719Y-12596253D02*
X7691195Y-12634348D01*
X7691195Y-12634348D02*
X7681671Y-12653396D01*
X7681671Y-12653396D02*
X7672147Y-12662919D01*
X7672147Y-12662919D02*
X7653100Y-12672443D01*
X7653100Y-12672443D02*
X7634052Y-12672443D01*
X7634052Y-12672443D02*
X7615005Y-12662919D01*
X7615005Y-12662919D02*
X7605481Y-12653396D01*
X7605481Y-12653396D02*
X7595957Y-12634348D01*
X7595957Y-12634348D02*
X7586433Y-12596253D01*
X7586433Y-12596253D02*
X7586433Y-12548634D01*
X7586433Y-12548634D02*
X7595957Y-12510538D01*
X7595957Y-12510538D02*
X7605481Y-12491491D01*
X7605481Y-12491491D02*
X7615005Y-12481967D01*
X7615005Y-12481967D02*
X7634052Y-12472443D01*
X7786433Y-12672443D02*
X7786433Y-12539110D01*
X7786433Y-12558157D02*
X7795957Y-12548634D01*
X7795957Y-12548634D02*
X7815005Y-12539110D01*
X7815005Y-12539110D02*
X7843576Y-12539110D01*
X7843576Y-12539110D02*
X7862624Y-12548634D01*
X7862624Y-12548634D02*
X7872147Y-12567681D01*
X7872147Y-12567681D02*
X7872147Y-12672443D01*
X7872147Y-12567681D02*
X7881671Y-12548634D01*
X7881671Y-12548634D02*
X7900719Y-12539110D01*
X7900719Y-12539110D02*
X7929290Y-12539110D01*
X7929290Y-12539110D02*
X7948338Y-12548634D01*
X7948338Y-12548634D02*
X7957862Y-12567681D01*
X7957862Y-12567681D02*
X7957862Y-12672443D01*
X8053100Y-12672443D02*
X8053100Y-12539110D01*
X8053100Y-12558157D02*
X8062624Y-12548634D01*
X8062624Y-12548634D02*
X8081671Y-12539110D01*
X8081671Y-12539110D02*
X8110243Y-12539110D01*
X8110243Y-12539110D02*
X8129290Y-12548634D01*
X8129290Y-12548634D02*
X8138814Y-12567681D01*
X8138814Y-12567681D02*
X8138814Y-12672443D01*
X8138814Y-12567681D02*
X8148338Y-12548634D01*
X8148338Y-12548634D02*
X8167386Y-12539110D01*
X8167386Y-12539110D02*
X8195957Y-12539110D01*
X8195957Y-12539110D02*
X8215005Y-12548634D01*
X8215005Y-12548634D02*
X8224528Y-12567681D01*
X8224528Y-12567681D02*
X8224528Y-12672443D01*
X8615005Y-12462919D02*
X8443576Y-12720062D01*
X8872148Y-12472443D02*
X8891195Y-12472443D01*
X8891195Y-12472443D02*
X8910243Y-12481967D01*
X8910243Y-12481967D02*
X8919767Y-12491491D01*
X8919767Y-12491491D02*
X8929291Y-12510538D01*
X8929291Y-12510538D02*
X8938814Y-12548634D01*
X8938814Y-12548634D02*
X8938814Y-12596253D01*
X8938814Y-12596253D02*
X8929291Y-12634348D01*
X8929291Y-12634348D02*
X8919767Y-12653396D01*
X8919767Y-12653396D02*
X8910243Y-12662919D01*
X8910243Y-12662919D02*
X8891195Y-12672443D01*
X8891195Y-12672443D02*
X8872148Y-12672443D01*
X8872148Y-12672443D02*
X8853100Y-12662919D01*
X8853100Y-12662919D02*
X8843576Y-12653396D01*
X8843576Y-12653396D02*
X8834052Y-12634348D01*
X8834052Y-12634348D02*
X8824529Y-12596253D01*
X8824529Y-12596253D02*
X8824529Y-12548634D01*
X8824529Y-12548634D02*
X8834052Y-12510538D01*
X8834052Y-12510538D02*
X8843576Y-12491491D01*
X8843576Y-12491491D02*
X8853100Y-12481967D01*
X8853100Y-12481967D02*
X8872148Y-12472443D01*
X9024529Y-12653396D02*
X9034052Y-12662919D01*
X9034052Y-12662919D02*
X9024529Y-12672443D01*
X9024529Y-12672443D02*
X9015005Y-12662919D01*
X9015005Y-12662919D02*
X9024529Y-12653396D01*
X9024529Y-12653396D02*
X9024529Y-12672443D01*
X9157862Y-12472443D02*
X9176910Y-12472443D01*
X9176910Y-12472443D02*
X9195957Y-12481967D01*
X9195957Y-12481967D02*
X9205481Y-12491491D01*
X9205481Y-12491491D02*
X9215005Y-12510538D01*
X9215005Y-12510538D02*
X9224529Y-12548634D01*
X9224529Y-12548634D02*
X9224529Y-12596253D01*
X9224529Y-12596253D02*
X9215005Y-12634348D01*
X9215005Y-12634348D02*
X9205481Y-12653396D01*
X9205481Y-12653396D02*
X9195957Y-12662919D01*
X9195957Y-12662919D02*
X9176910Y-12672443D01*
X9176910Y-12672443D02*
X9157862Y-12672443D01*
X9157862Y-12672443D02*
X9138814Y-12662919D01*
X9138814Y-12662919D02*
X9129291Y-12653396D01*
X9129291Y-12653396D02*
X9119767Y-12634348D01*
X9119767Y-12634348D02*
X9110243Y-12596253D01*
X9110243Y-12596253D02*
X9110243Y-12548634D01*
X9110243Y-12548634D02*
X9119767Y-12510538D01*
X9119767Y-12510538D02*
X9129291Y-12491491D01*
X9129291Y-12491491D02*
X9138814Y-12481967D01*
X9138814Y-12481967D02*
X9157862Y-12472443D01*
X9395957Y-12539110D02*
X9395957Y-12672443D01*
X9348338Y-12462919D02*
X9300719Y-12605777D01*
X9300719Y-12605777D02*
X9424529Y-12605777D01*
X9481672Y-12472443D02*
X9605481Y-12472443D01*
X9605481Y-12472443D02*
X9538814Y-12548634D01*
X9538814Y-12548634D02*
X9567386Y-12548634D01*
X9567386Y-12548634D02*
X9586433Y-12558157D01*
X9586433Y-12558157D02*
X9595957Y-12567681D01*
X9595957Y-12567681D02*
X9605481Y-12586729D01*
X9605481Y-12586729D02*
X9605481Y-12634348D01*
X9605481Y-12634348D02*
X9595957Y-12653396D01*
X9595957Y-12653396D02*
X9586433Y-12662919D01*
X9586433Y-12662919D02*
X9567386Y-12672443D01*
X9567386Y-12672443D02*
X9510243Y-12672443D01*
X9510243Y-12672443D02*
X9491195Y-12662919D01*
X9491195Y-12662919D02*
X9481672Y-12653396D01*
X9672148Y-12472443D02*
X9795957Y-12472443D01*
X9795957Y-12472443D02*
X9729291Y-12548634D01*
X9729291Y-12548634D02*
X9757862Y-12548634D01*
X9757862Y-12548634D02*
X9776910Y-12558157D01*
X9776910Y-12558157D02*
X9786433Y-12567681D01*
X9786433Y-12567681D02*
X9795957Y-12586729D01*
X9795957Y-12586729D02*
X9795957Y-12634348D01*
X9795957Y-12634348D02*
X9786433Y-12653396D01*
X9786433Y-12653396D02*
X9776910Y-12662919D01*
X9776910Y-12662919D02*
X9757862Y-12672443D01*
X9757862Y-12672443D02*
X9700719Y-12672443D01*
X9700719Y-12672443D02*
X9681672Y-12662919D01*
X9681672Y-12662919D02*
X9672148Y-12653396D01*
X9872148Y-12472443D02*
X9872148Y-12510538D01*
X9948338Y-12472443D02*
X9948338Y-12510538D01*
X10243576Y-12748634D02*
X10234053Y-12739110D01*
X10234053Y-12739110D02*
X10215005Y-12710538D01*
X10215005Y-12710538D02*
X10205481Y-12691491D01*
X10205481Y-12691491D02*
X10195957Y-12662919D01*
X10195957Y-12662919D02*
X10186434Y-12615300D01*
X10186434Y-12615300D02*
X10186434Y-12577205D01*
X10186434Y-12577205D02*
X10195957Y-12529586D01*
X10195957Y-12529586D02*
X10205481Y-12501015D01*
X10205481Y-12501015D02*
X10215005Y-12481967D01*
X10215005Y-12481967D02*
X10234053Y-12453396D01*
X10234053Y-12453396D02*
X10243576Y-12443872D01*
X10405481Y-12539110D02*
X10405481Y-12672443D01*
X10357862Y-12462919D02*
X10310243Y-12605777D01*
X10310243Y-12605777D02*
X10434053Y-12605777D01*
X10662624Y-12672443D02*
X10662624Y-12472443D01*
X10748338Y-12672443D02*
X10748338Y-12567681D01*
X10748338Y-12567681D02*
X10738815Y-12548634D01*
X10738815Y-12548634D02*
X10719767Y-12539110D01*
X10719767Y-12539110D02*
X10691195Y-12539110D01*
X10691195Y-12539110D02*
X10672148Y-12548634D01*
X10672148Y-12548634D02*
X10662624Y-12558157D01*
X10872148Y-12672443D02*
X10853100Y-12662919D01*
X10853100Y-12662919D02*
X10843576Y-12653396D01*
X10843576Y-12653396D02*
X10834053Y-12634348D01*
X10834053Y-12634348D02*
X10834053Y-12577205D01*
X10834053Y-12577205D02*
X10843576Y-12558157D01*
X10843576Y-12558157D02*
X10853100Y-12548634D01*
X10853100Y-12548634D02*
X10872148Y-12539110D01*
X10872148Y-12539110D02*
X10900719Y-12539110D01*
X10900719Y-12539110D02*
X10919767Y-12548634D01*
X10919767Y-12548634D02*
X10929291Y-12558157D01*
X10929291Y-12558157D02*
X10938815Y-12577205D01*
X10938815Y-12577205D02*
X10938815Y-12634348D01*
X10938815Y-12634348D02*
X10929291Y-12653396D01*
X10929291Y-12653396D02*
X10919767Y-12662919D01*
X10919767Y-12662919D02*
X10900719Y-12672443D01*
X10900719Y-12672443D02*
X10872148Y-12672443D01*
X11053100Y-12672443D02*
X11034053Y-12662919D01*
X11034053Y-12662919D02*
X11024529Y-12643872D01*
X11024529Y-12643872D02*
X11024529Y-12472443D01*
X11205481Y-12662919D02*
X11186434Y-12672443D01*
X11186434Y-12672443D02*
X11148338Y-12672443D01*
X11148338Y-12672443D02*
X11129291Y-12662919D01*
X11129291Y-12662919D02*
X11119767Y-12643872D01*
X11119767Y-12643872D02*
X11119767Y-12567681D01*
X11119767Y-12567681D02*
X11129291Y-12548634D01*
X11129291Y-12548634D02*
X11148338Y-12539110D01*
X11148338Y-12539110D02*
X11186434Y-12539110D01*
X11186434Y-12539110D02*
X11205481Y-12548634D01*
X11205481Y-12548634D02*
X11215005Y-12567681D01*
X11215005Y-12567681D02*
X11215005Y-12586729D01*
X11215005Y-12586729D02*
X11119767Y-12605777D01*
X11291195Y-12662919D02*
X11310243Y-12672443D01*
X11310243Y-12672443D02*
X11348338Y-12672443D01*
X11348338Y-12672443D02*
X11367386Y-12662919D01*
X11367386Y-12662919D02*
X11376910Y-12643872D01*
X11376910Y-12643872D02*
X11376910Y-12634348D01*
X11376910Y-12634348D02*
X11367386Y-12615300D01*
X11367386Y-12615300D02*
X11348338Y-12605777D01*
X11348338Y-12605777D02*
X11319767Y-12605777D01*
X11319767Y-12605777D02*
X11300719Y-12596253D01*
X11300719Y-12596253D02*
X11291195Y-12577205D01*
X11291195Y-12577205D02*
X11291195Y-12567681D01*
X11291195Y-12567681D02*
X11300719Y-12548634D01*
X11300719Y-12548634D02*
X11319767Y-12539110D01*
X11319767Y-12539110D02*
X11348338Y-12539110D01*
X11348338Y-12539110D02*
X11367386Y-12548634D01*
X11443576Y-12748634D02*
X11453100Y-12739110D01*
X11453100Y-12739110D02*
X11472148Y-12710538D01*
X11472148Y-12710538D02*
X11481672Y-12691491D01*
X11481672Y-12691491D02*
X11491195Y-12662919D01*
X11491195Y-12662919D02*
X11500719Y-12615300D01*
X11500719Y-12615300D02*
X11500719Y-12577205D01*
X11500719Y-12577205D02*
X11491195Y-12529586D01*
X11491195Y-12529586D02*
X11481672Y-12501015D01*
X11481672Y-12501015D02*
X11472148Y-12481967D01*
X11472148Y-12481967D02*
X11453100Y-12453396D01*
X11453100Y-12453396D02*
X11443576Y-12443872D01*
X6468513Y-12744959D02*
X6668513Y-12944959D01*
X6668513Y-12744959D02*
X6468513Y-12944959D01*
X6568513Y-12744959D02*
X6568513Y-12944959D01*
X6468513Y-12844959D02*
X6668513Y-12844959D01*
X6919766Y-12755491D02*
X6929290Y-12745967D01*
X6929290Y-12745967D02*
X6948338Y-12736443D01*
X6948338Y-12736443D02*
X6995957Y-12736443D01*
X6995957Y-12736443D02*
X7015005Y-12745967D01*
X7015005Y-12745967D02*
X7024528Y-12755491D01*
X7024528Y-12755491D02*
X7034052Y-12774538D01*
X7034052Y-12774538D02*
X7034052Y-12793586D01*
X7034052Y-12793586D02*
X7024528Y-12822157D01*
X7024528Y-12822157D02*
X6910243Y-12936443D01*
X6910243Y-12936443D02*
X7034052Y-12936443D01*
X7119766Y-12917396D02*
X7129290Y-12926919D01*
X7129290Y-12926919D02*
X7119766Y-12936443D01*
X7119766Y-12936443D02*
X7110243Y-12926919D01*
X7110243Y-12926919D02*
X7119766Y-12917396D01*
X7119766Y-12917396D02*
X7119766Y-12936443D01*
X7205481Y-12755491D02*
X7215005Y-12745967D01*
X7215005Y-12745967D02*
X7234052Y-12736443D01*
X7234052Y-12736443D02*
X7281671Y-12736443D01*
X7281671Y-12736443D02*
X7300719Y-12745967D01*
X7300719Y-12745967D02*
X7310243Y-12755491D01*
X7310243Y-12755491D02*
X7319766Y-12774538D01*
X7319766Y-12774538D02*
X7319766Y-12793586D01*
X7319766Y-12793586D02*
X7310243Y-12822157D01*
X7310243Y-12822157D02*
X7195957Y-12936443D01*
X7195957Y-12936443D02*
X7319766Y-12936443D01*
X7443576Y-12736443D02*
X7462624Y-12736443D01*
X7462624Y-12736443D02*
X7481671Y-12745967D01*
X7481671Y-12745967D02*
X7491195Y-12755491D01*
X7491195Y-12755491D02*
X7500719Y-12774538D01*
X7500719Y-12774538D02*
X7510243Y-12812634D01*
X7510243Y-12812634D02*
X7510243Y-12860253D01*
X7510243Y-12860253D02*
X7500719Y-12898348D01*
X7500719Y-12898348D02*
X7491195Y-12917396D01*
X7491195Y-12917396D02*
X7481671Y-12926919D01*
X7481671Y-12926919D02*
X7462624Y-12936443D01*
X7462624Y-12936443D02*
X7443576Y-12936443D01*
X7443576Y-12936443D02*
X7424528Y-12926919D01*
X7424528Y-12926919D02*
X7415005Y-12917396D01*
X7415005Y-12917396D02*
X7405481Y-12898348D01*
X7405481Y-12898348D02*
X7395957Y-12860253D01*
X7395957Y-12860253D02*
X7395957Y-12812634D01*
X7395957Y-12812634D02*
X7405481Y-12774538D01*
X7405481Y-12774538D02*
X7415005Y-12755491D01*
X7415005Y-12755491D02*
X7424528Y-12745967D01*
X7424528Y-12745967D02*
X7443576Y-12736443D01*
X7634052Y-12736443D02*
X7653100Y-12736443D01*
X7653100Y-12736443D02*
X7672147Y-12745967D01*
X7672147Y-12745967D02*
X7681671Y-12755491D01*
X7681671Y-12755491D02*
X7691195Y-12774538D01*
X7691195Y-12774538D02*
X7700719Y-12812634D01*
X7700719Y-12812634D02*
X7700719Y-12860253D01*
X7700719Y-12860253D02*
X7691195Y-12898348D01*
X7691195Y-12898348D02*
X7681671Y-12917396D01*
X7681671Y-12917396D02*
X7672147Y-12926919D01*
X7672147Y-12926919D02*
X7653100Y-12936443D01*
X7653100Y-12936443D02*
X7634052Y-12936443D01*
X7634052Y-12936443D02*
X7615005Y-12926919D01*
X7615005Y-12926919D02*
X7605481Y-12917396D01*
X7605481Y-12917396D02*
X7595957Y-12898348D01*
X7595957Y-12898348D02*
X7586433Y-12860253D01*
X7586433Y-12860253D02*
X7586433Y-12812634D01*
X7586433Y-12812634D02*
X7595957Y-12774538D01*
X7595957Y-12774538D02*
X7605481Y-12755491D01*
X7605481Y-12755491D02*
X7615005Y-12745967D01*
X7615005Y-12745967D02*
X7634052Y-12736443D01*
X7786433Y-12936443D02*
X7786433Y-12803110D01*
X7786433Y-12822157D02*
X7795957Y-12812634D01*
X7795957Y-12812634D02*
X7815005Y-12803110D01*
X7815005Y-12803110D02*
X7843576Y-12803110D01*
X7843576Y-12803110D02*
X7862624Y-12812634D01*
X7862624Y-12812634D02*
X7872147Y-12831681D01*
X7872147Y-12831681D02*
X7872147Y-12936443D01*
X7872147Y-12831681D02*
X7881671Y-12812634D01*
X7881671Y-12812634D02*
X7900719Y-12803110D01*
X7900719Y-12803110D02*
X7929290Y-12803110D01*
X7929290Y-12803110D02*
X7948338Y-12812634D01*
X7948338Y-12812634D02*
X7957862Y-12831681D01*
X7957862Y-12831681D02*
X7957862Y-12936443D01*
X8053100Y-12936443D02*
X8053100Y-12803110D01*
X8053100Y-12822157D02*
X8062624Y-12812634D01*
X8062624Y-12812634D02*
X8081671Y-12803110D01*
X8081671Y-12803110D02*
X8110243Y-12803110D01*
X8110243Y-12803110D02*
X8129290Y-12812634D01*
X8129290Y-12812634D02*
X8138814Y-12831681D01*
X8138814Y-12831681D02*
X8138814Y-12936443D01*
X8138814Y-12831681D02*
X8148338Y-12812634D01*
X8148338Y-12812634D02*
X8167386Y-12803110D01*
X8167386Y-12803110D02*
X8195957Y-12803110D01*
X8195957Y-12803110D02*
X8215005Y-12812634D01*
X8215005Y-12812634D02*
X8224528Y-12831681D01*
X8224528Y-12831681D02*
X8224528Y-12936443D01*
X8615005Y-12726919D02*
X8443576Y-12984062D01*
X8872148Y-12736443D02*
X8891195Y-12736443D01*
X8891195Y-12736443D02*
X8910243Y-12745967D01*
X8910243Y-12745967D02*
X8919767Y-12755491D01*
X8919767Y-12755491D02*
X8929291Y-12774538D01*
X8929291Y-12774538D02*
X8938814Y-12812634D01*
X8938814Y-12812634D02*
X8938814Y-12860253D01*
X8938814Y-12860253D02*
X8929291Y-12898348D01*
X8929291Y-12898348D02*
X8919767Y-12917396D01*
X8919767Y-12917396D02*
X8910243Y-12926919D01*
X8910243Y-12926919D02*
X8891195Y-12936443D01*
X8891195Y-12936443D02*
X8872148Y-12936443D01*
X8872148Y-12936443D02*
X8853100Y-12926919D01*
X8853100Y-12926919D02*
X8843576Y-12917396D01*
X8843576Y-12917396D02*
X8834052Y-12898348D01*
X8834052Y-12898348D02*
X8824529Y-12860253D01*
X8824529Y-12860253D02*
X8824529Y-12812634D01*
X8824529Y-12812634D02*
X8834052Y-12774538D01*
X8834052Y-12774538D02*
X8843576Y-12755491D01*
X8843576Y-12755491D02*
X8853100Y-12745967D01*
X8853100Y-12745967D02*
X8872148Y-12736443D01*
X9024529Y-12917396D02*
X9034052Y-12926919D01*
X9034052Y-12926919D02*
X9024529Y-12936443D01*
X9024529Y-12936443D02*
X9015005Y-12926919D01*
X9015005Y-12926919D02*
X9024529Y-12917396D01*
X9024529Y-12917396D02*
X9024529Y-12936443D01*
X9157862Y-12736443D02*
X9176910Y-12736443D01*
X9176910Y-12736443D02*
X9195957Y-12745967D01*
X9195957Y-12745967D02*
X9205481Y-12755491D01*
X9205481Y-12755491D02*
X9215005Y-12774538D01*
X9215005Y-12774538D02*
X9224529Y-12812634D01*
X9224529Y-12812634D02*
X9224529Y-12860253D01*
X9224529Y-12860253D02*
X9215005Y-12898348D01*
X9215005Y-12898348D02*
X9205481Y-12917396D01*
X9205481Y-12917396D02*
X9195957Y-12926919D01*
X9195957Y-12926919D02*
X9176910Y-12936443D01*
X9176910Y-12936443D02*
X9157862Y-12936443D01*
X9157862Y-12936443D02*
X9138814Y-12926919D01*
X9138814Y-12926919D02*
X9129291Y-12917396D01*
X9129291Y-12917396D02*
X9119767Y-12898348D01*
X9119767Y-12898348D02*
X9110243Y-12860253D01*
X9110243Y-12860253D02*
X9110243Y-12812634D01*
X9110243Y-12812634D02*
X9119767Y-12774538D01*
X9119767Y-12774538D02*
X9129291Y-12755491D01*
X9129291Y-12755491D02*
X9138814Y-12745967D01*
X9138814Y-12745967D02*
X9157862Y-12736443D01*
X9338814Y-12822157D02*
X9319767Y-12812634D01*
X9319767Y-12812634D02*
X9310243Y-12803110D01*
X9310243Y-12803110D02*
X9300719Y-12784062D01*
X9300719Y-12784062D02*
X9300719Y-12774538D01*
X9300719Y-12774538D02*
X9310243Y-12755491D01*
X9310243Y-12755491D02*
X9319767Y-12745967D01*
X9319767Y-12745967D02*
X9338814Y-12736443D01*
X9338814Y-12736443D02*
X9376910Y-12736443D01*
X9376910Y-12736443D02*
X9395957Y-12745967D01*
X9395957Y-12745967D02*
X9405481Y-12755491D01*
X9405481Y-12755491D02*
X9415005Y-12774538D01*
X9415005Y-12774538D02*
X9415005Y-12784062D01*
X9415005Y-12784062D02*
X9405481Y-12803110D01*
X9405481Y-12803110D02*
X9395957Y-12812634D01*
X9395957Y-12812634D02*
X9376910Y-12822157D01*
X9376910Y-12822157D02*
X9338814Y-12822157D01*
X9338814Y-12822157D02*
X9319767Y-12831681D01*
X9319767Y-12831681D02*
X9310243Y-12841205D01*
X9310243Y-12841205D02*
X9300719Y-12860253D01*
X9300719Y-12860253D02*
X9300719Y-12898348D01*
X9300719Y-12898348D02*
X9310243Y-12917396D01*
X9310243Y-12917396D02*
X9319767Y-12926919D01*
X9319767Y-12926919D02*
X9338814Y-12936443D01*
X9338814Y-12936443D02*
X9376910Y-12936443D01*
X9376910Y-12936443D02*
X9395957Y-12926919D01*
X9395957Y-12926919D02*
X9405481Y-12917396D01*
X9405481Y-12917396D02*
X9415005Y-12898348D01*
X9415005Y-12898348D02*
X9415005Y-12860253D01*
X9415005Y-12860253D02*
X9405481Y-12841205D01*
X9405481Y-12841205D02*
X9395957Y-12831681D01*
X9395957Y-12831681D02*
X9376910Y-12822157D01*
X9586433Y-12736443D02*
X9548338Y-12736443D01*
X9548338Y-12736443D02*
X9529291Y-12745967D01*
X9529291Y-12745967D02*
X9519767Y-12755491D01*
X9519767Y-12755491D02*
X9500719Y-12784062D01*
X9500719Y-12784062D02*
X9491195Y-12822157D01*
X9491195Y-12822157D02*
X9491195Y-12898348D01*
X9491195Y-12898348D02*
X9500719Y-12917396D01*
X9500719Y-12917396D02*
X9510243Y-12926919D01*
X9510243Y-12926919D02*
X9529291Y-12936443D01*
X9529291Y-12936443D02*
X9567386Y-12936443D01*
X9567386Y-12936443D02*
X9586433Y-12926919D01*
X9586433Y-12926919D02*
X9595957Y-12917396D01*
X9595957Y-12917396D02*
X9605481Y-12898348D01*
X9605481Y-12898348D02*
X9605481Y-12850729D01*
X9605481Y-12850729D02*
X9595957Y-12831681D01*
X9595957Y-12831681D02*
X9586433Y-12822157D01*
X9586433Y-12822157D02*
X9567386Y-12812634D01*
X9567386Y-12812634D02*
X9529291Y-12812634D01*
X9529291Y-12812634D02*
X9510243Y-12822157D01*
X9510243Y-12822157D02*
X9500719Y-12831681D01*
X9500719Y-12831681D02*
X9491195Y-12850729D01*
X9776910Y-12736443D02*
X9738814Y-12736443D01*
X9738814Y-12736443D02*
X9719767Y-12745967D01*
X9719767Y-12745967D02*
X9710243Y-12755491D01*
X9710243Y-12755491D02*
X9691195Y-12784062D01*
X9691195Y-12784062D02*
X9681672Y-12822157D01*
X9681672Y-12822157D02*
X9681672Y-12898348D01*
X9681672Y-12898348D02*
X9691195Y-12917396D01*
X9691195Y-12917396D02*
X9700719Y-12926919D01*
X9700719Y-12926919D02*
X9719767Y-12936443D01*
X9719767Y-12936443D02*
X9757862Y-12936443D01*
X9757862Y-12936443D02*
X9776910Y-12926919D01*
X9776910Y-12926919D02*
X9786433Y-12917396D01*
X9786433Y-12917396D02*
X9795957Y-12898348D01*
X9795957Y-12898348D02*
X9795957Y-12850729D01*
X9795957Y-12850729D02*
X9786433Y-12831681D01*
X9786433Y-12831681D02*
X9776910Y-12822157D01*
X9776910Y-12822157D02*
X9757862Y-12812634D01*
X9757862Y-12812634D02*
X9719767Y-12812634D01*
X9719767Y-12812634D02*
X9700719Y-12822157D01*
X9700719Y-12822157D02*
X9691195Y-12831681D01*
X9691195Y-12831681D02*
X9681672Y-12850729D01*
X9872148Y-12736443D02*
X9872148Y-12774538D01*
X9948338Y-12736443D02*
X9948338Y-12774538D01*
X10243576Y-13012634D02*
X10234053Y-13003110D01*
X10234053Y-13003110D02*
X10215005Y-12974538D01*
X10215005Y-12974538D02*
X10205481Y-12955491D01*
X10205481Y-12955491D02*
X10195957Y-12926919D01*
X10195957Y-12926919D02*
X10186434Y-12879300D01*
X10186434Y-12879300D02*
X10186434Y-12841205D01*
X10186434Y-12841205D02*
X10195957Y-12793586D01*
X10195957Y-12793586D02*
X10205481Y-12765015D01*
X10205481Y-12765015D02*
X10215005Y-12745967D01*
X10215005Y-12745967D02*
X10234053Y-12717396D01*
X10234053Y-12717396D02*
X10243576Y-12707872D01*
X10310243Y-12755491D02*
X10319767Y-12745967D01*
X10319767Y-12745967D02*
X10338814Y-12736443D01*
X10338814Y-12736443D02*
X10386434Y-12736443D01*
X10386434Y-12736443D02*
X10405481Y-12745967D01*
X10405481Y-12745967D02*
X10415005Y-12755491D01*
X10415005Y-12755491D02*
X10424529Y-12774538D01*
X10424529Y-12774538D02*
X10424529Y-12793586D01*
X10424529Y-12793586D02*
X10415005Y-12822157D01*
X10415005Y-12822157D02*
X10300719Y-12936443D01*
X10300719Y-12936443D02*
X10424529Y-12936443D01*
X10662624Y-12936443D02*
X10662624Y-12736443D01*
X10748338Y-12936443D02*
X10748338Y-12831681D01*
X10748338Y-12831681D02*
X10738815Y-12812634D01*
X10738815Y-12812634D02*
X10719767Y-12803110D01*
X10719767Y-12803110D02*
X10691195Y-12803110D01*
X10691195Y-12803110D02*
X10672148Y-12812634D01*
X10672148Y-12812634D02*
X10662624Y-12822157D01*
X10872148Y-12936443D02*
X10853100Y-12926919D01*
X10853100Y-12926919D02*
X10843576Y-12917396D01*
X10843576Y-12917396D02*
X10834053Y-12898348D01*
X10834053Y-12898348D02*
X10834053Y-12841205D01*
X10834053Y-12841205D02*
X10843576Y-12822157D01*
X10843576Y-12822157D02*
X10853100Y-12812634D01*
X10853100Y-12812634D02*
X10872148Y-12803110D01*
X10872148Y-12803110D02*
X10900719Y-12803110D01*
X10900719Y-12803110D02*
X10919767Y-12812634D01*
X10919767Y-12812634D02*
X10929291Y-12822157D01*
X10929291Y-12822157D02*
X10938815Y-12841205D01*
X10938815Y-12841205D02*
X10938815Y-12898348D01*
X10938815Y-12898348D02*
X10929291Y-12917396D01*
X10929291Y-12917396D02*
X10919767Y-12926919D01*
X10919767Y-12926919D02*
X10900719Y-12936443D01*
X10900719Y-12936443D02*
X10872148Y-12936443D01*
X11053100Y-12936443D02*
X11034053Y-12926919D01*
X11034053Y-12926919D02*
X11024529Y-12907872D01*
X11024529Y-12907872D02*
X11024529Y-12736443D01*
X11205481Y-12926919D02*
X11186434Y-12936443D01*
X11186434Y-12936443D02*
X11148338Y-12936443D01*
X11148338Y-12936443D02*
X11129291Y-12926919D01*
X11129291Y-12926919D02*
X11119767Y-12907872D01*
X11119767Y-12907872D02*
X11119767Y-12831681D01*
X11119767Y-12831681D02*
X11129291Y-12812634D01*
X11129291Y-12812634D02*
X11148338Y-12803110D01*
X11148338Y-12803110D02*
X11186434Y-12803110D01*
X11186434Y-12803110D02*
X11205481Y-12812634D01*
X11205481Y-12812634D02*
X11215005Y-12831681D01*
X11215005Y-12831681D02*
X11215005Y-12850729D01*
X11215005Y-12850729D02*
X11119767Y-12869777D01*
X11291195Y-12926919D02*
X11310243Y-12936443D01*
X11310243Y-12936443D02*
X11348338Y-12936443D01*
X11348338Y-12936443D02*
X11367386Y-12926919D01*
X11367386Y-12926919D02*
X11376910Y-12907872D01*
X11376910Y-12907872D02*
X11376910Y-12898348D01*
X11376910Y-12898348D02*
X11367386Y-12879300D01*
X11367386Y-12879300D02*
X11348338Y-12869777D01*
X11348338Y-12869777D02*
X11319767Y-12869777D01*
X11319767Y-12869777D02*
X11300719Y-12860253D01*
X11300719Y-12860253D02*
X11291195Y-12841205D01*
X11291195Y-12841205D02*
X11291195Y-12831681D01*
X11291195Y-12831681D02*
X11300719Y-12812634D01*
X11300719Y-12812634D02*
X11319767Y-12803110D01*
X11319767Y-12803110D02*
X11348338Y-12803110D01*
X11348338Y-12803110D02*
X11367386Y-12812634D01*
X11443576Y-13012634D02*
X11453100Y-13003110D01*
X11453100Y-13003110D02*
X11472148Y-12974538D01*
X11472148Y-12974538D02*
X11481672Y-12955491D01*
X11481672Y-12955491D02*
X11491195Y-12926919D01*
X11491195Y-12926919D02*
X11500719Y-12879300D01*
X11500719Y-12879300D02*
X11500719Y-12841205D01*
X11500719Y-12841205D02*
X11491195Y-12793586D01*
X11491195Y-12793586D02*
X11481672Y-12765015D01*
X11481672Y-12765015D02*
X11472148Y-12745967D01*
X11472148Y-12745967D02*
X11453100Y-12717396D01*
X11453100Y-12717396D02*
X11443576Y-12707872D01*
X6468513Y-13064959D02*
X6668513Y-13264959D01*
X6668513Y-13064959D02*
X6468513Y-13264959D01*
X6639225Y-13235671D02*
X6639225Y-13094248D01*
X6497802Y-13094248D01*
X6497802Y-13235671D01*
X6639225Y-13235671D01*
X6910243Y-13056443D02*
X7034052Y-13056443D01*
X7034052Y-13056443D02*
X6967385Y-13132634D01*
X6967385Y-13132634D02*
X6995957Y-13132634D01*
X6995957Y-13132634D02*
X7015005Y-13142157D01*
X7015005Y-13142157D02*
X7024528Y-13151681D01*
X7024528Y-13151681D02*
X7034052Y-13170729D01*
X7034052Y-13170729D02*
X7034052Y-13218348D01*
X7034052Y-13218348D02*
X7024528Y-13237396D01*
X7024528Y-13237396D02*
X7015005Y-13246919D01*
X7015005Y-13246919D02*
X6995957Y-13256443D01*
X6995957Y-13256443D02*
X6938814Y-13256443D01*
X6938814Y-13256443D02*
X6919766Y-13246919D01*
X6919766Y-13246919D02*
X6910243Y-13237396D01*
X7119766Y-13237396D02*
X7129290Y-13246919D01*
X7129290Y-13246919D02*
X7119766Y-13256443D01*
X7119766Y-13256443D02*
X7110243Y-13246919D01*
X7110243Y-13246919D02*
X7119766Y-13237396D01*
X7119766Y-13237396D02*
X7119766Y-13256443D01*
X7205481Y-13075491D02*
X7215005Y-13065967D01*
X7215005Y-13065967D02*
X7234052Y-13056443D01*
X7234052Y-13056443D02*
X7281671Y-13056443D01*
X7281671Y-13056443D02*
X7300719Y-13065967D01*
X7300719Y-13065967D02*
X7310243Y-13075491D01*
X7310243Y-13075491D02*
X7319766Y-13094538D01*
X7319766Y-13094538D02*
X7319766Y-13113586D01*
X7319766Y-13113586D02*
X7310243Y-13142157D01*
X7310243Y-13142157D02*
X7195957Y-13256443D01*
X7195957Y-13256443D02*
X7319766Y-13256443D01*
X7443576Y-13056443D02*
X7462624Y-13056443D01*
X7462624Y-13056443D02*
X7481671Y-13065967D01*
X7481671Y-13065967D02*
X7491195Y-13075491D01*
X7491195Y-13075491D02*
X7500719Y-13094538D01*
X7500719Y-13094538D02*
X7510243Y-13132634D01*
X7510243Y-13132634D02*
X7510243Y-13180253D01*
X7510243Y-13180253D02*
X7500719Y-13218348D01*
X7500719Y-13218348D02*
X7491195Y-13237396D01*
X7491195Y-13237396D02*
X7481671Y-13246919D01*
X7481671Y-13246919D02*
X7462624Y-13256443D01*
X7462624Y-13256443D02*
X7443576Y-13256443D01*
X7443576Y-13256443D02*
X7424528Y-13246919D01*
X7424528Y-13246919D02*
X7415005Y-13237396D01*
X7415005Y-13237396D02*
X7405481Y-13218348D01*
X7405481Y-13218348D02*
X7395957Y-13180253D01*
X7395957Y-13180253D02*
X7395957Y-13132634D01*
X7395957Y-13132634D02*
X7405481Y-13094538D01*
X7405481Y-13094538D02*
X7415005Y-13075491D01*
X7415005Y-13075491D02*
X7424528Y-13065967D01*
X7424528Y-13065967D02*
X7443576Y-13056443D01*
X7634052Y-13056443D02*
X7653100Y-13056443D01*
X7653100Y-13056443D02*
X7672147Y-13065967D01*
X7672147Y-13065967D02*
X7681671Y-13075491D01*
X7681671Y-13075491D02*
X7691195Y-13094538D01*
X7691195Y-13094538D02*
X7700719Y-13132634D01*
X7700719Y-13132634D02*
X7700719Y-13180253D01*
X7700719Y-13180253D02*
X7691195Y-13218348D01*
X7691195Y-13218348D02*
X7681671Y-13237396D01*
X7681671Y-13237396D02*
X7672147Y-13246919D01*
X7672147Y-13246919D02*
X7653100Y-13256443D01*
X7653100Y-13256443D02*
X7634052Y-13256443D01*
X7634052Y-13256443D02*
X7615005Y-13246919D01*
X7615005Y-13246919D02*
X7605481Y-13237396D01*
X7605481Y-13237396D02*
X7595957Y-13218348D01*
X7595957Y-13218348D02*
X7586433Y-13180253D01*
X7586433Y-13180253D02*
X7586433Y-13132634D01*
X7586433Y-13132634D02*
X7595957Y-13094538D01*
X7595957Y-13094538D02*
X7605481Y-13075491D01*
X7605481Y-13075491D02*
X7615005Y-13065967D01*
X7615005Y-13065967D02*
X7634052Y-13056443D01*
X7786433Y-13256443D02*
X7786433Y-13123110D01*
X7786433Y-13142157D02*
X7795957Y-13132634D01*
X7795957Y-13132634D02*
X7815005Y-13123110D01*
X7815005Y-13123110D02*
X7843576Y-13123110D01*
X7843576Y-13123110D02*
X7862624Y-13132634D01*
X7862624Y-13132634D02*
X7872147Y-13151681D01*
X7872147Y-13151681D02*
X7872147Y-13256443D01*
X7872147Y-13151681D02*
X7881671Y-13132634D01*
X7881671Y-13132634D02*
X7900719Y-13123110D01*
X7900719Y-13123110D02*
X7929290Y-13123110D01*
X7929290Y-13123110D02*
X7948338Y-13132634D01*
X7948338Y-13132634D02*
X7957862Y-13151681D01*
X7957862Y-13151681D02*
X7957862Y-13256443D01*
X8053100Y-13256443D02*
X8053100Y-13123110D01*
X8053100Y-13142157D02*
X8062624Y-13132634D01*
X8062624Y-13132634D02*
X8081671Y-13123110D01*
X8081671Y-13123110D02*
X8110243Y-13123110D01*
X8110243Y-13123110D02*
X8129290Y-13132634D01*
X8129290Y-13132634D02*
X8138814Y-13151681D01*
X8138814Y-13151681D02*
X8138814Y-13256443D01*
X8138814Y-13151681D02*
X8148338Y-13132634D01*
X8148338Y-13132634D02*
X8167386Y-13123110D01*
X8167386Y-13123110D02*
X8195957Y-13123110D01*
X8195957Y-13123110D02*
X8215005Y-13132634D01*
X8215005Y-13132634D02*
X8224528Y-13151681D01*
X8224528Y-13151681D02*
X8224528Y-13256443D01*
X8615005Y-13046919D02*
X8443576Y-13304062D01*
X8872148Y-13056443D02*
X8891195Y-13056443D01*
X8891195Y-13056443D02*
X8910243Y-13065967D01*
X8910243Y-13065967D02*
X8919767Y-13075491D01*
X8919767Y-13075491D02*
X8929291Y-13094538D01*
X8929291Y-13094538D02*
X8938814Y-13132634D01*
X8938814Y-13132634D02*
X8938814Y-13180253D01*
X8938814Y-13180253D02*
X8929291Y-13218348D01*
X8929291Y-13218348D02*
X8919767Y-13237396D01*
X8919767Y-13237396D02*
X8910243Y-13246919D01*
X8910243Y-13246919D02*
X8891195Y-13256443D01*
X8891195Y-13256443D02*
X8872148Y-13256443D01*
X8872148Y-13256443D02*
X8853100Y-13246919D01*
X8853100Y-13246919D02*
X8843576Y-13237396D01*
X8843576Y-13237396D02*
X8834052Y-13218348D01*
X8834052Y-13218348D02*
X8824529Y-13180253D01*
X8824529Y-13180253D02*
X8824529Y-13132634D01*
X8824529Y-13132634D02*
X8834052Y-13094538D01*
X8834052Y-13094538D02*
X8843576Y-13075491D01*
X8843576Y-13075491D02*
X8853100Y-13065967D01*
X8853100Y-13065967D02*
X8872148Y-13056443D01*
X9024529Y-13237396D02*
X9034052Y-13246919D01*
X9034052Y-13246919D02*
X9024529Y-13256443D01*
X9024529Y-13256443D02*
X9015005Y-13246919D01*
X9015005Y-13246919D02*
X9024529Y-13237396D01*
X9024529Y-13237396D02*
X9024529Y-13256443D01*
X9224529Y-13256443D02*
X9110243Y-13256443D01*
X9167386Y-13256443D02*
X9167386Y-13056443D01*
X9167386Y-13056443D02*
X9148338Y-13085015D01*
X9148338Y-13085015D02*
X9129291Y-13104062D01*
X9129291Y-13104062D02*
X9110243Y-13113586D01*
X9300719Y-13075491D02*
X9310243Y-13065967D01*
X9310243Y-13065967D02*
X9329291Y-13056443D01*
X9329291Y-13056443D02*
X9376910Y-13056443D01*
X9376910Y-13056443D02*
X9395957Y-13065967D01*
X9395957Y-13065967D02*
X9405481Y-13075491D01*
X9405481Y-13075491D02*
X9415005Y-13094538D01*
X9415005Y-13094538D02*
X9415005Y-13113586D01*
X9415005Y-13113586D02*
X9405481Y-13142157D01*
X9405481Y-13142157D02*
X9291195Y-13256443D01*
X9291195Y-13256443D02*
X9415005Y-13256443D01*
X9586433Y-13056443D02*
X9548338Y-13056443D01*
X9548338Y-13056443D02*
X9529291Y-13065967D01*
X9529291Y-13065967D02*
X9519767Y-13075491D01*
X9519767Y-13075491D02*
X9500719Y-13104062D01*
X9500719Y-13104062D02*
X9491195Y-13142157D01*
X9491195Y-13142157D02*
X9491195Y-13218348D01*
X9491195Y-13218348D02*
X9500719Y-13237396D01*
X9500719Y-13237396D02*
X9510243Y-13246919D01*
X9510243Y-13246919D02*
X9529291Y-13256443D01*
X9529291Y-13256443D02*
X9567386Y-13256443D01*
X9567386Y-13256443D02*
X9586433Y-13246919D01*
X9586433Y-13246919D02*
X9595957Y-13237396D01*
X9595957Y-13237396D02*
X9605481Y-13218348D01*
X9605481Y-13218348D02*
X9605481Y-13170729D01*
X9605481Y-13170729D02*
X9595957Y-13151681D01*
X9595957Y-13151681D02*
X9586433Y-13142157D01*
X9586433Y-13142157D02*
X9567386Y-13132634D01*
X9567386Y-13132634D02*
X9529291Y-13132634D01*
X9529291Y-13132634D02*
X9510243Y-13142157D01*
X9510243Y-13142157D02*
X9500719Y-13151681D01*
X9500719Y-13151681D02*
X9491195Y-13170729D01*
X9729291Y-13056443D02*
X9748338Y-13056443D01*
X9748338Y-13056443D02*
X9767386Y-13065967D01*
X9767386Y-13065967D02*
X9776910Y-13075491D01*
X9776910Y-13075491D02*
X9786433Y-13094538D01*
X9786433Y-13094538D02*
X9795957Y-13132634D01*
X9795957Y-13132634D02*
X9795957Y-13180253D01*
X9795957Y-13180253D02*
X9786433Y-13218348D01*
X9786433Y-13218348D02*
X9776910Y-13237396D01*
X9776910Y-13237396D02*
X9767386Y-13246919D01*
X9767386Y-13246919D02*
X9748338Y-13256443D01*
X9748338Y-13256443D02*
X9729291Y-13256443D01*
X9729291Y-13256443D02*
X9710243Y-13246919D01*
X9710243Y-13246919D02*
X9700719Y-13237396D01*
X9700719Y-13237396D02*
X9691195Y-13218348D01*
X9691195Y-13218348D02*
X9681672Y-13180253D01*
X9681672Y-13180253D02*
X9681672Y-13132634D01*
X9681672Y-13132634D02*
X9691195Y-13094538D01*
X9691195Y-13094538D02*
X9700719Y-13075491D01*
X9700719Y-13075491D02*
X9710243Y-13065967D01*
X9710243Y-13065967D02*
X9729291Y-13056443D01*
X9872148Y-13056443D02*
X9872148Y-13094538D01*
X9948338Y-13056443D02*
X9948338Y-13094538D01*
X10243576Y-13332634D02*
X10234053Y-13323110D01*
X10234053Y-13323110D02*
X10215005Y-13294538D01*
X10215005Y-13294538D02*
X10205481Y-13275491D01*
X10205481Y-13275491D02*
X10195957Y-13246919D01*
X10195957Y-13246919D02*
X10186434Y-13199300D01*
X10186434Y-13199300D02*
X10186434Y-13161205D01*
X10186434Y-13161205D02*
X10195957Y-13113586D01*
X10195957Y-13113586D02*
X10205481Y-13085015D01*
X10205481Y-13085015D02*
X10215005Y-13065967D01*
X10215005Y-13065967D02*
X10234053Y-13037396D01*
X10234053Y-13037396D02*
X10243576Y-13027872D01*
X10405481Y-13123110D02*
X10405481Y-13256443D01*
X10357862Y-13046919D02*
X10310243Y-13189777D01*
X10310243Y-13189777D02*
X10434053Y-13189777D01*
X10662624Y-13256443D02*
X10662624Y-13056443D01*
X10748338Y-13256443D02*
X10748338Y-13151681D01*
X10748338Y-13151681D02*
X10738815Y-13132634D01*
X10738815Y-13132634D02*
X10719767Y-13123110D01*
X10719767Y-13123110D02*
X10691195Y-13123110D01*
X10691195Y-13123110D02*
X10672148Y-13132634D01*
X10672148Y-13132634D02*
X10662624Y-13142157D01*
X10872148Y-13256443D02*
X10853100Y-13246919D01*
X10853100Y-13246919D02*
X10843576Y-13237396D01*
X10843576Y-13237396D02*
X10834053Y-13218348D01*
X10834053Y-13218348D02*
X10834053Y-13161205D01*
X10834053Y-13161205D02*
X10843576Y-13142157D01*
X10843576Y-13142157D02*
X10853100Y-13132634D01*
X10853100Y-13132634D02*
X10872148Y-13123110D01*
X10872148Y-13123110D02*
X10900719Y-13123110D01*
X10900719Y-13123110D02*
X10919767Y-13132634D01*
X10919767Y-13132634D02*
X10929291Y-13142157D01*
X10929291Y-13142157D02*
X10938815Y-13161205D01*
X10938815Y-13161205D02*
X10938815Y-13218348D01*
X10938815Y-13218348D02*
X10929291Y-13237396D01*
X10929291Y-13237396D02*
X10919767Y-13246919D01*
X10919767Y-13246919D02*
X10900719Y-13256443D01*
X10900719Y-13256443D02*
X10872148Y-13256443D01*
X11053100Y-13256443D02*
X11034053Y-13246919D01*
X11034053Y-13246919D02*
X11024529Y-13227872D01*
X11024529Y-13227872D02*
X11024529Y-13056443D01*
X11205481Y-13246919D02*
X11186434Y-13256443D01*
X11186434Y-13256443D02*
X11148338Y-13256443D01*
X11148338Y-13256443D02*
X11129291Y-13246919D01*
X11129291Y-13246919D02*
X11119767Y-13227872D01*
X11119767Y-13227872D02*
X11119767Y-13151681D01*
X11119767Y-13151681D02*
X11129291Y-13132634D01*
X11129291Y-13132634D02*
X11148338Y-13123110D01*
X11148338Y-13123110D02*
X11186434Y-13123110D01*
X11186434Y-13123110D02*
X11205481Y-13132634D01*
X11205481Y-13132634D02*
X11215005Y-13151681D01*
X11215005Y-13151681D02*
X11215005Y-13170729D01*
X11215005Y-13170729D02*
X11119767Y-13189777D01*
X11291195Y-13246919D02*
X11310243Y-13256443D01*
X11310243Y-13256443D02*
X11348338Y-13256443D01*
X11348338Y-13256443D02*
X11367386Y-13246919D01*
X11367386Y-13246919D02*
X11376910Y-13227872D01*
X11376910Y-13227872D02*
X11376910Y-13218348D01*
X11376910Y-13218348D02*
X11367386Y-13199300D01*
X11367386Y-13199300D02*
X11348338Y-13189777D01*
X11348338Y-13189777D02*
X11319767Y-13189777D01*
X11319767Y-13189777D02*
X11300719Y-13180253D01*
X11300719Y-13180253D02*
X11291195Y-13161205D01*
X11291195Y-13161205D02*
X11291195Y-13151681D01*
X11291195Y-13151681D02*
X11300719Y-13132634D01*
X11300719Y-13132634D02*
X11319767Y-13123110D01*
X11319767Y-13123110D02*
X11348338Y-13123110D01*
X11348338Y-13123110D02*
X11367386Y-13132634D01*
X11443576Y-13332634D02*
X11453100Y-13323110D01*
X11453100Y-13323110D02*
X11472148Y-13294538D01*
X11472148Y-13294538D02*
X11481672Y-13275491D01*
X11481672Y-13275491D02*
X11491195Y-13246919D01*
X11491195Y-13246919D02*
X11500719Y-13199300D01*
X11500719Y-13199300D02*
X11500719Y-13161205D01*
X11500719Y-13161205D02*
X11491195Y-13113586D01*
X11491195Y-13113586D02*
X11481672Y-13085015D01*
X11481672Y-13085015D02*
X11472148Y-13065967D01*
X11472148Y-13065967D02*
X11453100Y-13037396D01*
X11453100Y-13037396D02*
X11443576Y-13027872D01*
M02*
